# This file uses meters as units for non-parametric coordinates.

v -4.999990 -0.194796 -1.259430
v -4.999990 -0.194796 -5.000000
v 0.000000 -0.194796 -5.000000
v -4.999990 -0.000000 -1.259430
v -4.999990 -0.000000 0.000000
v 0.000000 -0.000000 0.000000
v -4.999990 -0.194796 -1.555624
v -2.499995 -0.000000 0.000000
v -2.499995 -0.000000 -1.381446
v -2.499995 -0.194796 -1.381446
v -2.499995 -0.194796 -1.706423
v -2.499995 -0.194796 -5.000000
v 0.000000 -0.194796 -1.555624
v 0.000000 -0.000000 -1.259430
v 0.000000 -0.194796 -1.259430
v -4.999990 -0.194796 -1.555624
v -2.499995 -0.194796 -1.706423
v 0.000000 -0.194796 -1.555624
vt 0.386735 0.306356
vt 0.980248 0.058134
vt 0.980248 0.306356
vt 0.341073 0.501405
vt 0.317897 0.501405
vt 0.010150 0.501405
vt 0.010150 0.501405
vt 0.010150 0.501405
vt 0.317897 0.501405
vt 0.341073 0.501405
vt 0.366433 0.501405
vt 0.980248 0.058134
vt 0.366433 0.501405
vt 0.317897 0.501405
vt 0.341073 0.501405
vt 0.341073 0.501405
vt 0.366433 0.501405
vt 0.010150 0.501405
vt 0.317897 0.501405
vt 0.980248 0.156131
vt 0.000000 0.000000
vt 1.000000 0.000000
vt 1.000000 1.000000
vt 0.000000 1.000000
vt 0.000000 0.000000
vt 1.000000 0.000000
vt 1.000000 1.000000
vt 0.000000 1.000000
vt 0.386735 0.058134
vt 0.386735 0.058134
vt 0.386735 0.058134
vt 0.366433 0.501405
vn 0.000000 1.000000 0.000000
vn 0.000000 1.000000 0.000000
vn 0.000000 1.000000 0.000000
vn 0.000000 1.000000 0.000000
vn 0.000000 0.000000 -1.000000
vn 0.000000 0.000000 -1.000000
vn 0.000000 0.000000 -1.000000
vn 0.000000 0.000000 -1.000000
vn 0.000000 1.000000 0.000000
vn 0.000000 1.000000 0.000000
vn 0.000000 1.000000 0.000000
vn 0.000000 1.000000 0.000000
vn 0.000000 1.000000 0.000000
vn 0.000000 1.000000 0.000000
vn 0.000000 1.000000 0.000000
vn 0.000000 1.000000 0.000000
vn 0.000000 1.000000 0.000000
vn 0.000000 1.000000 0.000000
vn 0.000000 1.000000 0.000000
vn 0.000000 1.000000 0.000000
vn 0.000000 0.000000 -1.000000
vn 0.000000 0.000000 -1.000000
vn 0.000000 0.000000 -1.000000
vn 0.000000 0.000000 -1.000000
vn 0.000000 1.000000 0.000000
vn 0.000000 1.000000 0.000000
vn 0.000000 1.000000 0.000000
vn 0.000000 1.000000 0.000000
vn 0.000000 1.000000 0.000000
vn 0.000000 1.000000 0.000000
vn 0.000000 1.000000 0.000000
vn 0.000000 1.000000 0.000000
vn 0.000000 0.000000 0.000000
vn 0.000000 0.000000 0.000000
vn 0.000000 0.000000 0.000000
vn 0.000000 0.000000 0.000000
vn 0.000000 0.000000 0.000000
vn 0.000000 0.000000 0.000000
vn 0.000000 0.000000 0.000000
vn 0.000000 0.000000 0.000000
s off
f 7/1/1 11/30/2 12/20/3 2/3/4
f 10/16/5 1/4/6 4/5/7 9/19/8
f 8/8/9 9/19/10 4/5/11 5/7/12
f 1/4/13 10/16/14 11/17/15 7/32/16
f 6/6/17 14/14/18 9/9/19 8/18/20
f 15/15/21 10/10/22 9/9/23 14/14/24
f 11/11/25 10/10/26 15/15/27 13/13/28
f 12/12/29 11/31/30 13/29/31 3/2/32
f 7/21/33 11/22/34 17/23/35 16/24/36
f 13/25/37 11/26/38 17/27/39 18/28/40
