# This file uses meters as units for non-parametric coordinates.

v -6.100937 -15.100082 6.171425
v 6.471909 -15.100082 6.171425
v 6.471909 -14.991943 -6.958176
v -6.100937 -14.991943 -6.958176
v -6.100937 27.710190 -6.958176
v 6.471909 27.710190 -6.958176
v 6.471909 7.440857 30.294708
v -6.100937 7.440857 30.294708
v 6.471909 27.708710 30.294708
v -6.100937 27.708710 30.294708
v 6.471909 -5.673370 6.217628
v -6.100937 -5.673370 6.217628
v 6.471909 -5.673401 17.065811
v -6.100937 -5.673401 17.065811
v 6.471909 7.440857 17.100456
v -6.100937 7.440857 17.100456
v 5.659958 14.288696 98.336998
v 5.659958 27.679810 98.336998
v -5.289051 14.288696 98.336998
v -5.289051 27.679810 98.336998
v 3.416397 17.047302 98.336998
v 3.416397 23.873276 98.336998
v -3.045452 17.047302 98.336998
v -3.045452 23.873276 98.336998
v 3.416397 17.047302 190.354370
v 3.416397 23.873276 190.354370
v -3.045452 23.873276 190.354370
v -3.045452 17.047302 190.354370
v 4.827164 11.261749 -6.960342
v -4.456196 11.261749 -6.960342
v -4.456196 23.716827 -6.963089
v 4.827164 23.716827 -6.963089
v -4.456196 23.716827 -62.125793
v 4.827164 23.716827 -62.125793
v -4.456196 -13.508621 -62.125793
v 4.827164 -13.508621 -62.125793
v -4.456196 -13.498123 -54.028595
v 4.827164 -13.498123 -54.028595
v -4.056168 34.603973 49.569717
v 3.312363 34.603973 49.569717
v -4.056168 41.972488 49.569717
v 3.312363 41.972488 49.569717
v -4.056168 41.972488 12.585548
v 3.312363 41.972488 12.585548
v -4.056168 34.603973 12.585548
v 3.312363 34.603973 12.585548
v -6.454422 32.205688 63.069885
v 5.710663 32.205688 63.069885
v 5.710663 44.370758 63.069885
v -6.454422 44.370758 63.069885
v -5.788651 43.704971 4.858585
v 5.044891 43.704971 4.858585
v 5.044891 32.871460 4.858585
v -5.788651 32.871460 4.858585
v -6.454422 32.205688 73.408691
v 5.710663 32.205688 73.408691
v 5.710663 44.370758 73.408691
v -6.454422 44.370758 73.408691
v -5.788651 43.704971 -4.285370
v 5.044891 43.704971 -4.285370
v 5.044891 32.871460 -4.285370
v -5.788651 32.871460 -4.285370
v 3.312363 41.972488 19.455940
v -4.056168 41.972488 19.455940
v -4.056168 34.603973 15.977730
v 3.312363 34.603973 15.977730
v 3.312363 41.972488 43.182014
v -4.056168 41.972488 43.182014
v -4.056168 34.603973 45.512032
v 3.312363 34.603973 45.512032
v -4.056168 26.852264 45.512032
v 3.312363 26.852264 45.512032
v 3.312363 26.852264 49.569717
v -4.056168 26.852264 49.569717
v -4.056168 26.852264 12.585548
v 3.312363 26.852264 12.585548
v 3.312363 26.852264 15.977730
v -4.056168 26.852264 15.977730
vt 0.298679 0.484545
vt 0.298679 0.480612
vt 0.301627 0.480612
vt 0.301627 0.484545
vt 0.350088 0.419778
vt 0.352142 0.419778
vt 0.352142 0.428015
vt 0.350088 0.428015
vt 0.349516 0.425888
vt 0.349693 0.425888
vt 0.349693 0.426074
vt 0.349516 0.426074
vt 0.340234 0.429565
vt 0.340234 0.444310
vt 0.326276 0.444310
vt 0.326276 0.429565
vt 0.284965 0.466914
vt 0.288898 0.466914
vt 0.288898 0.471016
vt 0.284965 0.471016
vt 0.350055 0.426332
vt 0.350055 0.426155
vt 0.350208 0.426155
vt 0.350208 0.426332
vt 0.340271 0.498471
vt 0.340271 0.480295
vt 0.352103 0.480295
vt 0.373678 0.498472
vt 0.279252 0.498445
vt 0.279252 0.486436
vt 0.361863 0.468535
vt 0.352134 0.468535
vt 0.373678 0.460178
vt 0.361904 0.460081
vt 0.352204 0.480294
vt 0.361963 0.468533
vt 0.352235 0.468533
vt 0.373779 0.498471
vt 0.340372 0.480294
vt 0.340372 0.498470
vt 0.373779 0.460177
vt 0.279353 0.486435
vt 0.279353 0.498444
vt 0.362005 0.460080
vt 0.351233 0.424230
vt 0.351411 0.424230
vt 0.351399 0.425191
vt 0.351244 0.425191
vt 0.351233 0.424044
vt 0.351411 0.424044
vt 0.352356 0.421482
vt 0.352356 0.425670
vt 0.351655 0.424480
vt 0.351655 0.422345
vt 0.348932 0.425670
vt 0.349634 0.424480
vt 0.348932 0.421482
vt 0.349634 0.422345
vt 0.321710 0.445420
vt 0.321710 0.450692
vt 0.250643 0.450691
vt 0.250643 0.445420
vt 0.279141 0.414334
vt 0.279141 0.412313
vt 0.307920 0.412313
vt 0.307920 0.414334
vt 0.250643 0.450569
vt 0.250643 0.445297
vt 0.321710 0.445297
vt 0.321710 0.450569
vt 0.299846 0.468777
vt 0.299846 0.470798
vt 0.271066 0.470798
vt 0.271066 0.468777
vt 0.344457 0.393166
vt 0.344457 0.396937
vt 0.270562 0.396937
vt 0.270562 0.393166
vt 0.344792 0.381734
vt 0.344792 0.377945
vt 0.281444 0.377945
vt 0.270546 0.377945
vt 0.270546 0.381734
vt 0.270529 0.388162
vt 0.344771 0.386823
vt 0.344775 0.387271
vt 0.344793 0.386950
vt 0.344790 0.387398
vt 0.270548 0.386059
vt 0.281839 0.468845
vt 0.281839 0.471748
vt 0.280590 0.472263
vt 0.280590 0.468330
vt 0.285734 0.471748
vt 0.293945 0.472263
vt 0.285734 0.468845
vt 0.293945 0.468330
vt 0.371069 0.414826
vt 0.330040 0.414826
vt 0.330040 0.400979
vt 0.371069 0.400979
vt 0.255100 0.413932
vt 0.255100 0.401873
vt 0.283468 0.420928
vt 0.303827 0.420928
vt 0.303827 0.441287
vt 0.283468 0.441287
vt 0.345562 0.460172
vt 0.342620 0.470209
vt 0.345696 0.460288
vt 0.345562 0.460288
vt 0.342443 0.469964
vt 0.345739 0.459927
vt 0.345696 0.460719
vt 0.345562 0.460719
vt 0.345518 0.459739
vt 0.345739 0.459739
vt 0.345696 0.460844
vt 0.342486 0.470881
vt 0.342651 0.471021
vt 0.345530 0.460984
vt 0.345727 0.461150
vt 0.345530 0.461150
vt 0.283468 0.420928
vt 0.303827 0.420928
vt 0.303827 0.441287
vt 0.283468 0.441287
vt 0.344793 0.462572
vt 0.344793 0.462438
vt 0.344867 0.462438
vt 0.344867 0.462572
vt 0.321832 0.471899
vt 0.345597 0.462067
vt 0.324767 0.462605
vt 0.324767 0.462721
vt 0.345457 0.462141
vt 0.345457 0.462067
vt 0.324633 0.462111
vt 0.324767 0.462174
vt 0.322009 0.472144
vt 0.324590 0.462966
vt 0.345597 0.461470
vt 0.321965 0.471227
vt 0.324811 0.463154
vt 0.324590 0.463154
vt 0.345457 0.461531
vt 0.345457 0.461470
vt 0.321800 0.471087
vt 0.324798 0.461909
vt 0.324602 0.461743
vt 0.324798 0.461743
vt 0.324355 0.460825
vt 0.345319 0.460172
vt 0.321687 0.469929
vt 0.324489 0.460868
vt 0.345178 0.460246
vt 0.345178 0.460172
vt 0.321509 0.469684
vt 0.324532 0.460506
vt 0.345319 0.460782
vt 0.324489 0.461298
vt 0.324311 0.460319
vt 0.324532 0.460319
vt 0.321553 0.470601
vt 0.324489 0.461423
vt 0.345178 0.460844
vt 0.345178 0.460782
vt 0.321718 0.470741
vt 0.324323 0.461564
vt 0.324520 0.461730
vt 0.324323 0.461730
vt 0.308795 0.469876
vt 0.308928 0.469876
vt 0.308972 0.470121
vt 0.308751 0.470121
vt 0.308972 0.470309
vt 0.308751 0.470309
vt 0.308699 0.470183
vt 0.308566 0.470183
vt 0.308534 0.470042
vt 0.308731 0.470042
vt 0.308534 0.469876
vt 0.308731 0.469876
vt 0.344710 0.462572
vt 0.344710 0.462438
vt 0.344771 0.462438
vt 0.344771 0.462572
vt 0.308992 0.469876
vt 0.309126 0.469876
vt 0.309126 0.470413
vt 0.308992 0.470413
vt 0.333080 0.462100
vt 0.333214 0.462100
vt 0.333214 0.462240
vt 0.333080 0.462240
vt 0.333368 0.462240
vt 0.333234 0.462240
vt 0.333234 0.462100
vt 0.333368 0.462100
vt 0.333388 0.462100
vt 0.333522 0.462100
vt 0.333522 0.462240
vt 0.333388 0.462240
vt 0.333676 0.462240
vt 0.333542 0.462240
vt 0.333542 0.462100
vt 0.333676 0.462100
vt 0.349634 0.422345
vt 0.349634 0.424480
vt 0.348932 0.421482
vt 0.351655 0.422345
vt 0.351655 0.424480
vt 0.348932 0.425670
vt 0.352356 0.425670
vt 0.352356 0.421482
vt 0.351233 0.424230
vt 0.351411 0.424230
vt 0.285734 0.468845
vt 0.281839 0.468845
vt 0.293945 0.468330
vt 0.285734 0.471748
vt 0.293945 0.472263
vt 0.280590 0.468330
vt 0.280590 0.472263
vt 0.281839 0.471748
vt 0.281446 0.386059
vt 0.270548 0.387398
vt 0.281444 0.381734
vt 0.281427 0.388162
vt 0.270529 0.386823
vt 0.281444 0.377945
vt 0.281444 0.381734
vt 0.330040 0.414826
vt 0.330040 0.400979
vt 0.324355 0.461362
vt 0.324355 0.461362
vt 0.324633 0.462111
vt 0.345597 0.461531
vt 0.324355 0.461423
vt 0.345319 0.460844
vt 0.324633 0.462049
vt 0.321832 0.471227
vt 0.324355 0.460752
vt 0.321553 0.469929
vt 0.324633 0.462721
vt 0.345597 0.462141
vt 0.324355 0.460825
vt 0.345319 0.460246
vt 0.324633 0.462647
vt 0.324633 0.462647
vt 0.324489 0.461298
vt 0.345562 0.460719
vt 0.345562 0.460288
vt 0.324489 0.460868
vt 0.324767 0.462605
vt 0.345696 0.460288
vt 0.345696 0.460719
vt 0.324767 0.462174
vt 0.321687 0.470601
vt 0.345562 0.460844
vt 0.342620 0.470881
vt 0.324767 0.462049
vt 0.321522 0.470741
vt 0.308534 0.470042
vt 0.308731 0.470042
vt 0.324602 0.461909
vt 0.342455 0.471021
vt 0.324520 0.461564
vt 0.321997 0.471087
vt 0.345727 0.460984
vt 0.321730 0.469684
vt 0.345518 0.459927
vt 0.342663 0.469964
vt 0.324811 0.462966
vt 0.308751 0.470121
vt 0.324311 0.460506
vt 0.321788 0.472144
vt 0.308972 0.470121
vt 0.324489 0.460752
vt 0.342486 0.470209
vt 0.345696 0.460172
vt 0.321965 0.471899
vn 0.000000 -0.004901 0.999988
vn 0.000000 -0.004901 0.999988
vn 0.000000 -0.004901 0.999988
vn 0.000000 -0.004901 0.999988
vn 0.000000 0.000000 -1.000000
vn 0.000000 0.000000 -1.000000
vn 0.000000 0.000000 -1.000000
vn 0.000000 0.000000 -1.000000
vn 0.000000 -0.999966 -0.008236
vn 0.000000 -0.999966 -0.008236
vn 0.000000 -0.999966 -0.008236
vn 0.000000 -0.999966 -0.008236
vn 0.000000 0.000000 1.000000
vn 0.000000 0.000000 1.000000
vn 0.000000 0.000000 1.000000
vn 0.000000 0.000000 1.000000
vn 0.000000 -0.002642 0.999997
vn 0.000000 -0.002642 0.999997
vn 0.000000 -0.002642 0.999997
vn 0.000000 -0.002642 0.999997
vn 0.000000 -1.000000 -0.000003
vn 0.000000 -1.000000 -0.000003
vn 0.000000 -1.000000 -0.000003
vn 0.000000 -1.000000 -0.000003
vn 1.000000 0.000000 0.000000
vn 1.000000 0.000000 0.000000
vn 1.000000 0.000000 0.000000
vn 1.000000 0.000000 0.000000
vn -1.000000 -0.000000 0.000000
vn -1.000000 -0.000000 0.000000
vn -1.000000 -0.000000 0.000000
vn 1.000000 0.000000 0.000000
vn 1.000000 0.000000 0.000000
vn 1.000000 0.000000 0.000000
vn -1.000000 0.000000 0.000000
vn -1.000000 0.000000 0.000000
vn -1.000000 0.000000 0.000000
vn 0.999929 0.000000 0.011932
vn 0.999929 0.000000 0.011932
vn 0.999929 0.000000 0.011932
vn 0.999929 0.000000 0.011932
vn 0.000000 -0.994974 0.100135
vn 0.000000 -0.994974 0.100135
vn 0.000000 -0.994974 0.100135
vn 0.000000 -0.994974 0.100135
vn -0.999929 0.000000 0.011931
vn -0.999929 0.000000 0.011931
vn -0.999929 0.000000 0.011931
vn -0.999929 0.000000 0.011931
vn -0.000001 0.000000 1.000000
vn -0.000001 0.000000 1.000000
vn -0.000001 0.000000 1.000000
vn -0.000001 0.000000 1.000000
vn 0.000000 0.000000 1.000000
vn 0.000000 0.000000 1.000000
vn 0.000000 0.000000 1.000000
vn 0.000000 0.000000 1.000000
vn 0.000000 0.000000 1.000000
vn 0.000000 0.000000 1.000000
vn 0.000000 0.000000 1.000000
vn 0.000000 0.000000 1.000000
vn 0.000000 0.000000 1.000000
vn 0.000000 0.000000 1.000000
vn 0.000000 0.000000 1.000000
vn 0.000000 0.000000 1.000000
vn 1.000000 0.000000 0.000000
vn 1.000000 0.000000 0.000000
vn 1.000000 0.000000 0.000000
vn 1.000000 0.000000 0.000000
vn 0.000000 1.000000 0.000000
vn 0.000000 1.000000 0.000000
vn 0.000000 1.000000 0.000000
vn 0.000000 1.000000 0.000000
vn -1.000000 0.000000 0.000000
vn -1.000000 0.000000 0.000000
vn -1.000000 0.000000 0.000000
vn -1.000000 0.000000 0.000000
vn 0.000000 -1.000000 0.000000
vn 0.000000 -1.000000 0.000000
vn 0.000000 -1.000000 0.000000
vn 0.000000 -1.000000 0.000000
vn -1.000000 0.000000 0.000000
vn -1.000000 0.000000 0.000000
vn -1.000000 0.000000 0.000000
vn -1.000000 0.000000 0.000000
vn -1.000000 0.000000 0.000000
vn -1.000000 0.000000 0.000000
vn -1.000000 0.000000 0.000000
vn -1.000000 0.000000 0.000000
vn -1.000000 0.000000 0.000000
vn -1.000000 0.000000 0.000000
vn 1.000000 0.000000 0.000000
vn 1.000000 0.000000 0.000000
vn 1.000000 0.000000 0.000000
vn 1.000000 0.000000 0.000000
vn 1.000000 0.000000 0.000000
vn 1.000000 0.000000 0.000000
vn 1.000000 0.000000 0.000000
vn 1.000000 0.000000 0.000000
vn 1.000000 0.000000 0.000000
vn 0.000000 1.000000 0.000000
vn 0.000000 1.000000 0.000000
vn 0.000000 1.000000 0.000000
vn 0.000000 1.000000 0.000000
vn 0.000000 -0.885018 0.465557
vn 0.000000 -0.885018 0.465557
vn 0.000000 -0.885018 0.465557
vn 0.000000 -0.885018 0.465557
vn 1.000000 0.000000 0.000000
vn 1.000000 0.000000 0.000000
vn 1.000000 0.000000 0.000000
vn -1.000000 0.000000 0.000000
vn -1.000000 0.000000 0.000000
vn -1.000000 0.000000 0.000000
vn -1.000000 0.000000 0.000000
vn 0.000000 -0.999999 0.001297
vn 0.000000 -0.999999 0.001297
vn 0.000000 -0.999999 0.001297
vn 0.000000 -0.999999 0.001297
vn 0.000000 0.001230 -0.999999
vn 0.000000 0.001230 -0.999999
vn 0.000000 0.001230 -0.999999
vn 0.000000 0.001230 -0.999999
vn -0.001816 -0.000050 -0.999998
vn -0.001816 -0.000050 -0.999998
vn -0.001816 -0.000050 -0.999998
vn -0.001816 -0.000050 -0.999998
vn 0.000000 -0.000083 -1.000000
vn 0.000000 -0.000083 -1.000000
vn 0.000000 -0.000083 -1.000000
vn 0.000000 -0.000083 -1.000000
vn 0.001816 -0.000050 -0.999998
vn 0.001816 -0.000050 -0.999998
vn 0.001816 -0.000050 -0.999998
vn 0.001816 -0.000050 -0.999998
vn -1.000000 0.000000 0.000000
vn -1.000000 0.000000 0.000000
vn -1.000000 0.000000 0.000000
vn 1.000000 0.000000 0.000000
vn 1.000000 0.000000 0.000000
vn 1.000000 0.000000 0.000000
vn 1.000000 0.000000 0.000000
vn 0.000000 1.000000 0.000040
vn 0.000000 1.000000 0.000040
vn 0.000000 1.000000 0.000040
vn 0.000000 1.000000 0.000040
vn 0.000000 1.000000 0.000425
vn 0.000000 1.000000 0.000425
vn 0.000000 1.000000 0.000425
vn 0.000000 1.000000 0.000425
vn 0.000000 -1.000000 0.000000
vn 0.000000 -1.000000 0.000000
vn 0.000000 -1.000000 0.000000
vn 0.000000 -1.000000 0.000000
vn 0.000000 0.000000 1.000000
vn 0.000000 0.000000 1.000000
vn 0.000000 0.000000 1.000000
vn 0.000000 0.000000 1.000000
vn 0.000000 1.000000 0.000000
vn 0.000000 1.000000 0.000000
vn 0.000000 1.000000 0.000000
vn 0.000000 1.000000 0.000000
vn 0.000000 0.000000 -1.000000
vn 0.000000 0.000000 -1.000000
vn 0.000000 0.000000 -1.000000
vn 0.000000 0.000000 -1.000000
vn 0.000000 -1.000000 0.000000
vn 0.000000 -1.000000 0.000000
vn 0.000000 -1.000000 0.000000
vn 0.000000 -1.000000 0.000000
vn 1.000000 0.000000 0.000000
vn 1.000000 0.000000 0.000000
vn 1.000000 0.000000 0.000000
vn 1.000000 0.000000 0.000000
vn -1.000000 0.000000 0.000000
vn -1.000000 0.000000 0.000000
vn -1.000000 0.000000 0.000000
vn -1.000000 0.000000 0.000000
vn 0.000000 -0.984585 -0.174910
vn 0.000000 -0.984585 -0.174910
vn 0.000000 -0.984585 -0.174910
vn 0.000000 -0.984585 -0.174910
vn 0.984584 0.000000 -0.174911
vn 0.984584 0.000000 -0.174911
vn 0.984584 0.000000 -0.174911
vn 0.984584 0.000000 -0.174911
vn 0.000000 0.984585 -0.174909
vn 0.000000 0.984585 -0.174909
vn 0.000000 0.984585 -0.174909
vn 0.000000 0.984585 -0.174909
vn -0.984585 0.000000 -0.174908
vn -0.984585 0.000000 -0.174908
vn -0.984585 0.000000 -0.174908
vn -0.984585 0.000000 -0.174908
vn 0.000000 0.975774 0.218781
vn 0.000000 0.975774 0.218781
vn 0.000000 0.975774 0.218781
vn 0.000000 0.975774 0.218781
vn 0.975773 0.000000 0.218786
vn 0.975773 0.000000 0.218786
vn 0.975773 0.000000 0.218786
vn 0.975773 0.000000 0.218786
vn 0.000000 -0.975773 0.218784
vn 0.000000 -0.975773 0.218784
vn 0.000000 -0.975773 0.218784
vn 0.000000 -0.975773 0.218784
vn -0.975774 0.000000 0.218781
vn -0.975774 0.000000 0.218781
vn -0.975774 0.000000 0.218781
vn -0.975774 0.000000 0.218781
vn 0.000000 -1.000000 0.000000
vn 0.000000 -1.000000 0.000000
vn 0.000000 -1.000000 0.000000
vn 0.000000 -1.000000 0.000000
vn 1.000000 0.000000 0.000000
vn 1.000000 0.000000 0.000000
vn 1.000000 0.000000 0.000000
vn 1.000000 0.000000 0.000000
vn 0.000000 1.000000 0.000000
vn 0.000000 1.000000 0.000000
vn 0.000000 1.000000 0.000000
vn 0.000000 1.000000 0.000000
vn -1.000000 0.000000 0.000000
vn -1.000000 0.000000 0.000000
vn -1.000000 0.000000 0.000000
vn -1.000000 0.000000 0.000000
vn 0.000000 1.000000 0.000000
vn 0.000000 1.000000 0.000000
vn 0.000000 1.000000 0.000000
vn 0.000000 1.000000 0.000000
vn 1.000000 0.000000 0.000000
vn 1.000000 0.000000 0.000000
vn 1.000000 0.000000 0.000000
vn 1.000000 0.000000 0.000000
vn 0.000000 -1.000000 0.000000
vn 0.000000 -1.000000 0.000000
vn 0.000000 -1.000000 0.000000
vn 0.000000 -1.000000 0.000000
vn -1.000000 0.000000 0.000000
vn -1.000000 0.000000 0.000000
vn -1.000000 0.000000 0.000000
vn -1.000000 0.000000 0.000000
vn 0.000000 1.000000 0.000000
vn 0.000000 1.000000 0.000000
vn 0.000000 1.000000 0.000000
vn 0.000000 1.000000 0.000000
vn -1.000000 0.000000 0.000000
vn -1.000000 0.000000 0.000000
vn -1.000000 0.000000 0.000000
vn -1.000000 0.000000 0.000000
vn 0.000000 -1.000000 0.000000
vn 0.000000 -1.000000 0.000000
vn 0.000000 -1.000000 0.000000
vn 0.000000 -1.000000 0.000000
vn 1.000000 0.000000 0.000000
vn 1.000000 0.000000 0.000000
vn 1.000000 0.000000 0.000000
vn 1.000000 0.000000 0.000000
vn 0.000000 1.000000 0.000000
vn 0.000000 1.000000 0.000000
vn 0.000000 1.000000 0.000000
vn 0.000000 1.000000 0.000000
vn -1.000000 0.000000 0.000000
vn -1.000000 0.000000 0.000000
vn -1.000000 0.000000 0.000000
vn -1.000000 0.000000 0.000000
vn 0.000000 -1.000000 0.000000
vn 0.000000 -1.000000 0.000000
vn 0.000000 -1.000000 0.000000
vn 0.000000 -1.000000 0.000000
vn 1.000000 -0.000000 0.000000
vn 1.000000 -0.000000 0.000000
vn 1.000000 -0.000000 0.000000
vn 1.000000 -0.000000 0.000000
vn 0.000000 0.000000 -1.000000
vn 0.000000 0.000000 -1.000000
vn 0.000000 0.000000 -1.000000
vn 0.000000 0.000000 -1.000000
vn 1.000000 0.000000 0.000000
vn 1.000000 0.000000 0.000000
vn 1.000000 0.000000 0.000000
vn 1.000000 0.000000 0.000000
vn 0.000000 0.000000 1.000000
vn 0.000000 0.000000 1.000000
vn 0.000000 0.000000 1.000000
vn 0.000000 0.000000 1.000000
vn -1.000000 0.000000 0.000000
vn -1.000000 0.000000 0.000000
vn -1.000000 0.000000 0.000000
vn -1.000000 0.000000 0.000000
vn 0.000000 0.000000 -1.000000
vn 0.000000 0.000000 -1.000000
vn 0.000000 0.000000 -1.000000
vn 0.000000 0.000000 -1.000000
vn 1.000000 0.000000 0.000000
vn 1.000000 0.000000 0.000000
vn 1.000000 0.000000 0.000000
vn 1.000000 0.000000 0.000000
vn 0.000000 0.000000 1.000000
vn 0.000000 0.000000 1.000000
vn 0.000000 0.000000 1.000000
vn 0.000000 0.000000 1.000000
vn -1.000000 0.000000 0.000000
vn -1.000000 0.000000 0.000000
vn -1.000000 0.000000 0.000000
vn -1.000000 0.000000 0.000000
s off
f 1/1/1 2/2/2 11/3/3 12/4/4
f 33/5/5 34/6/6 36/7/7 35/8/8
f 4/9/9 3/10/10 2/11/11 1/12/12
f 25/13/13 26/14/14 27/15/15 28/16/16
f 14/17/17 13/18/18 15/19/19 16/20/20
f 12/21/21 11/22/22 13/23/23 14/24/24
f 9/25/25 7/26/26 15/27/27 6/28/28
f 16/35/29 12/36/30 14/37/31
f 11/31/32 15/27/33 13/32/34
f 12/36/35 4/41/36 1/44/37
f 7/26/38 9/25/39 18/29/40 17/30/41
f 8/45/42 7/46/43 17/47/44 19/48/45
f 10/40/46 8/39/47 19/42/48 20/43/49
f 17/51/50 18/52/51 22/212/52 21/54/53
f 22/53/54 18/214/55 20/213/56 24/209/57
f 19/57/58 17/215/59 21/211/60 23/58/61
f 20/55/62 19/210/63 23/208/64 24/56/65
f 21/59/66 22/60/67 26/61/68 25/62/69
f 22/63/70 24/64/71 27/65/72 26/66/73
f 24/67/74 23/68/75 28/69/76 27/70/77
f 23/71/78 21/72/79 25/73/80 28/74/81
f 5/38/82 16/35/83 8/39/84 10/40/85
f 16/35/86 5/38/87 12/36/88
f 12/36/89 5/38/90 4/41/91
f 6/28/92 15/27/93 11/31/94
f 6/28/95 11/31/96 3/33/97
f 3/33/98 11/31/99 2/34/100
f 31/75/101 32/76/102 34/77/103 33/78/104
f 29/79/105 30/80/106 37/81/107 38/232/108
f 34/230/109 38/229/110 36/84/111
f 37/226/112 30/87/113 31/88/114 33/227/115
f 38/228/116 37/231/117 35/82/118 36/83/119
f 32/219/120 31/225/121 5/224/122 6/223/123
f 31/91/124 30/221/125 4/95/126 5/92/127
f 3/97/128 4/222/129 30/94/130 29/96/131
f 29/218/132 32/90/133 6/93/134 3/220/135
f 37/226/136 33/227/137 35/89/138
f 34/230/139 32/85/140 29/86/141 38/229/142
f 5/98/143 10/233/144 9/100/145 6/101/146
f 10/99/147 20/102/148 18/103/149 9/234/150
f 8/216/151 16/49/152 15/50/153 7/217/154
f 55/104/155 56/105/156 57/106/157 58/107/158
f 41/108/159 42/281/160 67/110/161 68/253/162
f 59/124/163 60/125/164 61/126/165 62/127/166
f 71/128/167 72/129/168 73/130/169 74/131/170
f 40/245/171 70/249/172 67/255/173 42/135/174
f 69/247/175 39/243/176 41/279/177 68/155/178
f 39/172/179 40/173/180 48/174/181 47/275/182
f 40/132/183 42/282/184 49/140/185 48/277/186
f 42/109/187 41/280/188 50/112/189 49/273/190
f 41/154/191 39/244/192 47/158/193 50/271/194
f 43/119/195 44/261/196 52/120/197 51/267/198
f 44/143/199 46/242/200 53/148/201 52/269/202
f 46/178/203 45/179/204 54/180/205 53/265/206
f 45/164/207 43/259/208 51/168/209 54/263/210
f 47/175/211 48/278/212 56/176/213 55/177/214
f 48/141/215 49/274/216 57/144/217 56/145/218
f 49/113/219 50/272/220 58/116/221 57/117/222
f 50/159/223 47/276/224 55/162/225 58/163/226
f 51/121/227 52/270/228 60/122/229 59/123/230
f 52/149/231 53/266/232 61/150/233 60/151/234
f 53/181/235 54/264/236 62/182/237 61/183/238
f 54/169/239 51/268/240 59/170/241 62/171/242
f 64/115/243 63/257/244 44/118/245 43/260/246
f 45/239/247 65/235/248 64/251/249 43/165/250
f 75/184/251 76/185/252 77/186/253 78/187/254
f 63/139/255 66/237/256 46/241/257 44/262/258
f 68/111/259 67/256/260 63/114/261 64/252/262
f 65/236/263 69/152/264 68/254/265 64/161/266
f 65/188/267 66/189/268 70/190/269 69/191/270
f 67/134/271 70/250/272 66/138/273 63/258/274
f 69/192/275 70/193/276 72/194/277 71/195/278
f 70/133/279 40/246/280 73/136/281 72/137/282
f 40/196/283 39/197/284 74/198/285 73/199/286
f 39/153/287 69/248/288 71/156/289 74/157/290
f 45/200/291 46/201/292 76/202/293 75/203/294
f 46/142/295 66/238/296 77/146/297 76/147/298
f 66/204/299 65/205/300 78/206/301 77/207/302
f 65/160/303 45/240/304 75/166/305 78/167/306
