# This file uses meters as units for non-parametric coordinates.

v -22.926769 -30.441742 33.274567
v 22.926773 -30.441742 33.274567
v -22.926769 30.441742 33.274567
v 22.926773 30.441742 33.274567
v -3.975639 7.274948 0.000000
v 3.975639 7.274948 0.000000
v -3.975639 -7.274948 0.000000
v 3.975639 -7.274948 0.000000
v -4.485344 -3.772018 104.957367
v 4.485342 -3.772018 104.957367
v 4.485342 3.772018 104.957367
v -4.485344 3.772018 104.957367
vt 0.121310 0.244383
vt 0.122050 0.244383
vt 0.122050 0.245123
vt 0.121310 0.245123
vt 0.121310 0.245123
vt 0.122050 0.245123
vt 0.122050 0.245567
vt 0.121310 0.245567
vt 0.122050 0.246896
vt 0.121310 0.246896
vt 0.122050 0.247340
vt 0.121310 0.247340
vt 0.122050 0.244383
vt 0.122789 0.244088
vt 0.122789 0.245418
vt 0.120571 0.244088
vt 0.121310 0.244383
vt 0.120571 0.245418
vn 0.000000 0.000000 1.000000
vn 0.000000 0.000000 1.000000
vn 0.000000 0.000000 1.000000
vn 0.000000 0.000000 1.000000
vn 0.000000 0.820682 -0.571385
vn 0.000000 0.820682 -0.571385
vn 0.000000 0.820682 -0.571385
vn 0.000000 0.820682 -0.571385
vn 0.000000 0.000000 -1.000000
vn 0.000000 0.000000 -1.000000
vn 0.000000 0.000000 -1.000000
vn 0.000000 0.000000 -1.000000
vn 0.000000 -0.820682 -0.571385
vn 0.000000 -0.820682 -0.571385
vn 0.000000 -0.820682 -0.571385
vn 0.000000 -0.820682 -0.571385
vn 0.868950 0.000000 -0.494900
vn 0.868950 0.000000 -0.494900
vn 0.868950 0.000000 -0.494900
vn 0.868950 0.000000 -0.494900
vn -0.868950 0.000000 -0.494900
vn -0.868950 0.000000 -0.494900
vn -0.868950 0.000000 -0.494900
vn -0.868950 0.000000 -0.494900
vn 0.000000 -0.937234 0.348700
vn 0.000000 -0.937234 0.348700
vn 0.000000 -0.937235 0.348700
vn 0.000000 -0.937234 0.348700
vn 0.968465 0.000000 0.249151
vn 0.968465 0.000000 0.249151
vn 0.968465 0.000000 0.249151
vn 0.968465 0.000000 0.249151
vn 0.000000 0.937234 0.348700
vn 0.000000 0.937234 0.348700
vn 0.000000 0.937234 0.348700
vn 0.000000 0.937235 0.348700
vn -0.968465 0.000000 0.249151
vn -0.968465 0.000000 0.249151
vn -0.968465 0.000000 0.249151
vn -0.968465 0.000000 0.249151
s off
f 9/1/1 10/2/2 11/3/3 12/4/4
f 3/5/5 4/6/6 6/7/7 5/8/8
f 5/8/9 6/7/10 8/9/11 7/10/12
f 7/10/13 8/9/14 2/11/15 1/12/16
f 2/13/17 8/14/18 6/15/19 4/6/20
f 7/16/21 1/17/22 3/5/23 5/18/24
f 1/17/25 2/13/26 10/2/27 9/1/28
f 2/13/29 4/6/30 11/3/31 10/2/32
f 4/6/33 3/5/34 12/4/35 11/3/36
f 3/5/37 1/17/38 9/1/39 12/4/40
