# This file uses meters as units for non-parametric coordinates.

v -6.026459 -16.860657 6.004364
v 6.026459 -16.860657 6.004364
v 6.026459 -16.756989 -6.582344
v -6.026459 -16.756989 -6.582344
v -6.026459 23.146225 -6.405266
v 6.026459 23.146225 -6.405266
v 6.026459 10.698349 46.561043
v -6.026459 10.698349 46.561043
v 6.026459 23.042587 46.649574
v -6.026459 23.042587 46.649574
v -3.013245 23.042572 39.681595
v 3.013214 23.042572 39.681595
v -3.013245 23.042587 46.649574
v 3.013214 23.042587 46.649574
v 6.026459 -1.767136 6.048653
v -6.026459 -1.767136 6.048653
v 6.026459 -1.767151 16.448280
v -6.026459 -1.767151 16.448280
v 6.026459 10.683365 16.481483
v -6.026459 10.683365 16.481483
v 3.013214 28.858673 46.649574
v 3.013214 28.858673 39.681595
v -3.013245 28.858673 39.681595
v -3.013245 28.858673 46.649574
vt 0.270322 0.340788
vt 0.272496 0.340788
vt 0.272496 0.343511
vt 0.270322 0.343511
vt 0.360468 0.292694
vt 0.373387 0.292801
vt 0.373205 0.333756
vt 0.360423 0.308186
vt 0.349715 0.320965
vt 0.318842 0.320980
vt 0.349749 0.308186
vt 0.318751 0.333650
vt 0.281452 0.347175
vt 0.278749 0.347175
vt 0.278749 0.338226
vt 0.281452 0.338226
vt 0.373227 0.292864
vt 0.360309 0.292758
vt 0.360263 0.308249
vt 0.373046 0.333820
vt 0.349555 0.321028
vt 0.349589 0.308249
vt 0.318682 0.321044
vt 0.318592 0.333714
vt 0.287117 0.366756
vt 0.288187 0.366756
vt 0.288187 0.367874
vt 0.287117 0.367874
vt 0.321928 0.288050
vt 0.318443 0.302327
vt 0.318443 0.288050
vt 0.332383 0.302327
vt 0.328898 0.288050
vt 0.327959 0.307068
vt 0.328181 0.307068
vt 0.332383 0.288050
vt 0.275842 0.354178
vt 0.275842 0.354557
vt 0.275514 0.354557
vt 0.275514 0.354178
vt 0.325671 0.308670
vt 0.325671 0.308998
vt 0.325354 0.308998
vt 0.325354 0.308670
vt 0.276360 0.265046
vt 0.274139 0.259910
vt 0.276360 0.259910
vt 0.274139 0.299016
vt 0.283023 0.299016
vt 0.280802 0.265046
vt 0.283023 0.259910
vt 0.280802 0.259910
vt 0.265765 0.340788
vt 0.267940 0.340788
vt 0.267940 0.343034
vt 0.265765 0.343034
vt 0.285494 0.368965
vt 0.285494 0.367895
vt 0.286417 0.367895
vt 0.286417 0.368965
vt 0.290480 0.366756
vt 0.291550 0.366756
vt 0.291550 0.369426
vt 0.290480 0.369426
vt 0.283967 0.344141
vt 0.284284 0.344141
vt 0.284284 0.344520
vt 0.283967 0.344520
vt 0.285000 0.344148
vt 0.285000 0.344528
vt 0.284684 0.344528
vt 0.284684 0.344148
vt 0.328181 0.307282
vt 0.328898 0.288050
vt 0.332383 0.302327
vt 0.318443 0.302327
vt 0.321928 0.288050
vt 0.327959 0.307282
vt 0.280802 0.265046
vt 0.280802 0.265046
vt 0.274139 0.299016
vt 0.276360 0.265046
vt 0.276360 0.265046
vt 0.283023 0.259910
vt 0.283023 0.299016
vt 0.274139 0.259910
vn 0.000000 -0.002934 0.999996
vn 0.000000 -0.002934 0.999996
vn 0.000000 -0.002934 0.999996
vn 0.000000 -0.002934 0.999996
vn 1.000000 0.000000 0.000000
vn 1.000000 0.000000 0.000000
vn 1.000000 0.000000 0.000000
vn 1.000000 0.000000 0.000000
vn 0.000000 0.004438 -0.999990
vn 0.000000 0.004438 -0.999990
vn 0.000000 0.004438 -0.999990
vn 0.000000 0.004438 -0.999990
vn -1.000000 0.000000 0.000000
vn -1.000000 0.000000 0.000000
vn -1.000000 0.000000 0.000000
vn -1.000000 0.000000 0.000000
vn 0.000000 -0.999966 -0.008236
vn 0.000000 -0.999966 -0.008236
vn 0.000000 -0.999966 -0.008236
vn 0.000000 -0.999966 -0.008236
vn 0.000000 -0.007172 0.999974
vn 0.000000 -0.007172 0.999974
vn 0.000000 -0.007172 0.999974
vn 1.000000 -0.000000 0.000000
vn 1.000000 -0.000000 0.000000
vn 1.000000 -0.000000 0.000000
vn -1.000000 0.000000 0.000000
vn -1.000000 0.000000 0.000000
vn -1.000000 0.000000 0.000000
vn 0.000000 1.000000 0.000000
vn 0.000000 1.000000 0.000000
vn 0.000000 1.000000 0.000000
vn 0.000000 1.000000 0.000000
vn 0.000000 0.000000 -1.000000
vn 0.000000 0.000000 -1.000000
vn 0.000000 0.000000 -1.000000
vn 0.000000 0.000000 -1.000000
vn 0.000000 1.000000 -0.000002
vn 0.000000 1.000000 -0.000002
vn 0.000000 1.000000 -0.000002
vn 0.000000 0.000000 1.000000
vn 0.000000 0.000000 1.000000
vn 0.000000 0.000000 1.000000
vn 0.000000 0.000000 1.000000
vn -0.004522 0.999988 0.001953
vn -0.004522 0.999988 0.001953
vn -0.004522 0.999988 0.001953
vn 0.000000 -0.002667 0.999997
vn 0.000000 -0.002667 0.999997
vn 0.000000 -0.002667 0.999997
vn 0.000000 -0.002667 0.999997
vn 0.000000 -1.000000 -0.000001
vn 0.000000 -1.000000 -0.000001
vn 0.000000 -1.000000 -0.000001
vn 0.000000 -1.000000 -0.000001
vn 1.000000 -0.000000 0.000000
vn 1.000000 -0.000000 0.000000
vn 1.000000 -0.000000 0.000000
vn -1.000000 0.000000 0.000000
vn -1.000000 0.000000 0.000000
vn -1.000000 0.000000 0.000000
vn 0.000000 -1.000000 0.000498
vn 0.000000 -1.000000 0.000498
vn 0.000000 -1.000000 0.000498
vn 0.000000 -1.000000 0.000498
vn -1.000000 0.000000 0.000000
vn -1.000000 0.000000 0.000000
vn -1.000000 0.000000 0.000000
vn 0.000000 0.999997 0.002249
vn 0.000000 0.999997 0.002249
vn 0.000000 0.999997 0.002249
vn 0.000000 0.999997 0.002249
vn 1.000000 0.000000 0.000000
vn 1.000000 0.000000 0.000000
vn 1.000000 0.000000 0.000000
vn -1.000000 0.000000 0.000000
vn -1.000000 0.000000 0.000000
vn -1.000000 0.000000 0.000000
vn 1.000000 0.000000 0.000000
vn 1.000000 0.000000 0.000000
vn 1.000000 0.000000 0.000000
vn 1.000000 0.000000 0.000000
vn 1.000000 0.000000 0.000000
vn 1.000000 0.000000 0.000000
vn 1.000000 0.000000 0.000000
vn -1.000000 0.000000 0.000000
vn -1.000000 0.000000 0.000000
vn -1.000000 0.000000 0.000000
vn -1.000000 0.000000 0.000000
vn 0.000000 -0.007172 0.999974
vn 0.000000 -0.007172 0.999974
vn 0.000000 -0.007172 0.999974
vn 0.000000 -0.007172 0.999974
vn 0.000000 -0.007172 0.999974
vn 0.000000 -0.007172 0.999974
vn 0.000000 -0.007172 0.999974
vn 0.000000 1.000000 -0.000002
vn 0.000000 1.000000 -0.000002
vn 0.000000 1.000000 -0.000002
vn 0.004522 0.999988 0.001953
vn 0.004522 0.999988 0.001953
vn 0.004522 0.999988 0.001953
s off
f 1/1/1 2/2/2 15/3/3 16/4/4
f 2/5/5 3/6/6 6/7/7 15/8/8
f 3/13/9 4/14/10 5/15/11 6/16/12
f 4/17/13 1/18/14 16/19/15 5/20/16
f 4/25/17 3/26/18 2/27/19 1/28/20
f 14/29/21 7/76/22 9/31/23
f 7/10/24 6/7/25 9/12/26
f 5/20/27 8/23/28 10/24/29
f 21/37/30 22/38/31 23/39/32 24/40/33
f 12/41/34 11/42/35 23/43/36 22/44/37
f 11/82/38 10/86/39 13/47/40
f 14/78/41 21/34/42 24/35/43 13/73/44
f 9/51/45 6/49/46 12/79/47
f 18/53/48 17/54/49 19/55/50 20/56/51
f 16/57/52 15/58/53 17/59/54 18/60/55
f 15/8/56 6/7/57 19/9/58
f 5/20/59 16/19/60 20/21/61
f 20/61/62 19/62/63 7/63/64 8/64/65
f 5/20/66 20/21/67 8/23/68
f 6/85/69 5/81/70 11/45/71 12/50/72
f 6/7/73 7/10/74 19/9/75
f 20/21/76 16/19/77 18/22/78
f 15/8/79 19/9/80 17/11/81
f 12/65/82 22/66/83 21/67/84 14/68/85
f 24/69/86 23/70/87 11/71/88 13/72/89
f 8/32/90 7/30/91 14/77/92 13/74/93
f 8/75/94 13/33/95 10/36/96
f 9/84/97 12/80/98 14/52/99
f 5/48/100 10/46/101 11/83/102
