# This file uses meters as units for non-parametric coordinates.

v -0.389736 1.981333 -1.392695
v -2.385164 1.872643 -1.392695
v -4.827536 0.382017 -1.392695
v 1.636412 0.382017 3.925443
v 1.636412 0.382017 -1.392695
v 1.833086 0.382019 4.122437
v -4.827536 0.382016 -1.585112
v -4.827536 -0.000002 -1.585112
v 1.833086 -0.000002 4.306624
v 1.636412 -0.000002 -1.392695
v 1.636412 2.484900 -1.392695
v 1.636412 1.739410 1.759511
v 1.636412 2.484900 1.266374
v 1.636412 0.382017 2.595908
v -0.389736 1.981333 -0.968178
v -2.385164 1.872643 -0.968178
v -4.827536 0.382017 -0.968178
v 1.211895 2.484901 -0.968178
v 1.211896 1.739410 1.759511
v 1.211895 0.382017 3.925443
v 1.211895 2.484900 1.266374
v -4.827536 -0.000002 -0.968178
v -3.412159 0.874843 -1.392695
v -3.412159 0.874842 -0.968178
v -1.387450 1.564382 -1.392695
v -1.387450 1.564382 -0.968178
v -1.886307 1.564382 -1.392695
v -1.886307 1.564382 -0.968178
v 1.636412 1.433459 3.925443
v 1.211895 1.433459 3.925443
v 1.636412 1.324030 2.842477
v 1.211895 1.324030 2.842477
v 1.636412 2.074586 -0.063161
v 1.211895 2.074586 0.149098
v 1.211895 2.138713 0.707736
v 1.636412 2.138713 0.601606
v 1.211895 2.484900 -0.409540
v 1.636412 2.484900 -0.727928
v 1.636412 0.382017 0.601606
v 1.636412 1.433459 -1.392695
v 0.623338 1.181675 -1.392695
v -1.595562 0.382017 -1.392695
v 1.833087 0.382018 1.267448
v 1.833087 -0.000002 1.267448
v -1.497224 0.382017 -1.586327
v -1.497224 -0.000002 -1.586327
v 1.520927 1.301399 -1.274268
v 1.610197 0.355802 0.417509
v 1.636412 0.287869 1.134098
v 1.636412 -0.000002 1.134098
v 0.716998 1.020310 -1.360694
v -1.428384 0.355802 -1.366480
v -1.367226 -0.000002 -1.366480
v -0.288052 1.076226 -1.374949
v -0.486112 1.126140 -1.392695
v 1.211895 0.382019 4.122437
v 1.211895 -0.000002 4.306624
v 1.211895 -0.000002 -0.968178
v -1.892163 -0.000002 -0.968178
v -0.013886 -0.000002 -1.379588
v 0.104014 0.368910 -1.379588
v 0.677018 0.375463 -1.386141
v 0.758307 -0.000002 -1.386141
v 0.135896 -0.000002 -1.879948
v 0.196545 0.220688 -1.807730
v 0.523238 0.227242 -1.814284
v 0.604527 -0.000002 -1.886502
vt 0.286518 0.929902
vt 0.287077 0.929839
vt 0.289676 0.960688
vt 0.289676 0.960688
vt 0.287720 0.928963
vt 0.287720 0.928739
vt 0.289676 0.960912
vt 0.287720 0.928963
vt 0.286981 0.959452
vt 0.285929 0.930198
vt 0.288579 0.959890
vt 0.288329 0.959452
vt 0.289002 0.960688
vt 0.287340 0.929253
vt 0.286793 0.929658
vt 0.286932 0.929658
vt 0.289676 0.960070
vt 0.289127 0.960134
vt 0.287655 0.959693
vt 0.287992 0.959656
vt 0.287318 0.959452
vt 0.287992 0.960688
vt 0.286981 0.960070
vt 0.285929 0.929581
vt 0.286224 0.929433
vt 0.286824 0.928963
vt 0.288329 0.960688
vt 0.288329 0.960912
vt 0.286824 0.928963
vt 0.286824 0.928739
vt 0.286524 0.929198
vt 0.303949 0.952865
vt 0.315451 0.952865
vt 0.309700 0.964367
vt 0.303949 0.952865
vt 0.315451 0.952865
vt 0.309700 0.964367
vt 0.303949 0.952865
vt 0.315451 0.952865
vt 0.315451 0.964367
vt 0.303949 0.964367
vt 0.303949 0.952865
vt 0.315451 0.952865
vt 0.315451 0.964367
vt 0.303949 0.964367
vt 0.303949 0.952865
vt 0.315451 0.952865
vt 0.309700 0.964367
vt 0.303949 0.952865
vt 0.315451 0.952865
vt 0.309700 0.964367
vt 0.289768 0.908710
vt 0.289768 0.907591
vt 0.290244 0.907591
vt 0.290244 0.908710
vt 0.289768 0.907032
vt 0.290244 0.907032
vt 0.289768 0.910982
vt 0.290244 0.910506
vt 0.289768 0.906473
vt 0.290244 0.906473
vt 0.290870 0.910506
vt 0.290513 0.910982
vt 0.289768 0.905321
vt 0.290244 0.905321
vt 0.291496 0.910506
vt 0.291258 0.910982
vt 0.289768 0.903734
vt 0.290244 0.903734
vt 0.292004 0.910982
vt 0.292123 0.910506
vt 0.292749 0.910982
vt 0.292749 0.910506
vt 0.293302 0.910982
vt 0.293302 0.910506
vt 0.294516 0.910506
vt 0.294516 0.910982
vt 0.295731 0.910506
vt 0.295731 0.910982
vt 0.343883 0.778754
vt 0.343883 0.764682
vt 0.346011 0.764682
vt 0.345486 0.778754
vt 0.345865 0.774763
vt 0.351131 0.765341
vt 0.341671 0.764657
vt 0.338116 0.769777
vt 0.336550 0.765300
vt 0.341816 0.781725
vt 0.337804 0.775374
vt 0.343798 0.781384
vt 0.343798 0.764657
vt 0.298590 0.929830
vt 0.306843 0.939000
vt 0.298590 0.939000
vt 0.298590 0.925673
vt 0.306843 0.925673
vt 0.302076 0.930408
vt 0.302076 0.938104
vt 0.298969 0.938104
vt 0.298969 0.930408
vt 0.312793 0.952887
vt 0.312793 0.959639
vt 0.308641 0.959639
vt 0.308641 0.952887
vt 0.270713 0.913775
vt 0.270598 0.913775
vt 0.270598 0.911844
vt 0.270714 0.911785
vt 0.270593 0.913489
vt 0.270476 0.913887
vt 0.270476 0.912695
vt 0.270476 0.911900
vt 0.270593 0.911783
vt 0.270222 0.911900
vt 0.270222 0.911783
vt 0.285734 0.987637
vt 0.285815 0.987589
vt 0.285943 0.988102
vt 0.285876 0.988044
vt 0.285787 0.987027
vt 0.285762 0.987128
vt 0.285410 0.986466
vt 0.285397 0.986550
vt 0.285054 0.987986
vt 0.285104 0.988084
vt 0.285019 0.988098
vt 0.285111 0.988099
vt 0.285111 0.987905
vt 0.285223 0.987918
vt 0.285223 0.988099
vt 0.285232 0.986813
vt 0.285290 0.986753
vt 0.285290 0.987763
vt 0.285277 0.987670
vt 0.285290 0.988033
vt 0.285390 0.988100
vt 0.285390 0.988100
vt 0.285290 0.988033
vt 0.277800 0.939980
vt 0.277800 0.939622
vt 0.278494 0.930729
vt 0.278494 0.940315
vt 0.275889 0.939622
vt 0.276088 0.937654
vt 0.275333 0.935686
vt 0.273978 0.934790
vt 0.274607 0.933775
vt 0.274724 0.932759
vt 0.273978 0.931744
vt 0.273978 0.930729
vt 0.343798 0.773020
vt 0.341743 0.773191
vt 0.341707 0.768924
vt 0.343798 0.768839
vt 0.267622 0.936412
vt 0.263448 0.936991
vt 0.263325 0.930812
vt 0.267622 0.929275
vt 0.308369 0.911369
vt 0.308436 0.905524
vt 0.312803 0.907092
vt 0.312736 0.910425
vt 0.289079 0.962890
vt 0.279078 0.962890
vt 0.279078 0.949563
vt 0.285131 0.951487
vt 0.285356 0.962623
vt 0.274749 0.962623
vt 0.279011 0.950314
vt 0.285356 0.948237
vn 1.000000 0.000000 0.000000
vn 1.000000 0.000000 0.000000
vn 1.000000 0.000000 0.000000
vn 1.000000 0.000000 0.000000
vn 1.000000 0.000000 0.000000
vn 1.000000 0.000000 0.000000
vn 1.000000 0.000000 0.000000
vn 1.000000 0.000000 0.000000
vn 1.000000 0.000000 0.000000
vn 1.000000 0.000000 0.000000
vn 1.000000 0.000000 0.000000
vn 1.000000 0.000000 0.000000
vn 0.999895 0.000000 0.014480
vn 1.000000 0.000000 0.000000
vn -0.000005 1.000000 -0.000000
vn -0.000365 0.000000 -1.000000
vn -0.000365 0.000000 -1.000000
vn -0.000365 0.000000 -1.000000
vn -0.000365 0.000000 -1.000000
vn -0.000000 1.000000 -0.000002
vn -0.000000 1.000000 -0.000002
vn -0.000000 1.000000 -0.000003
vn -0.000000 1.000000 -0.000003
vn 0.000000 0.000000 -1.000000
vn -0.000000 0.000000 -1.000000
vn 0.000000 0.000000 -1.000000
vn -0.000000 0.000000 -1.000000
vn -0.000000 0.000000 -1.000000
vn 0.000000 0.000000 -1.000000
vn -0.000000 0.000000 -1.000000
vn -0.000000 0.000000 -1.000000
vn -0.000000 0.000000 -1.000000
vn -0.000000 0.000000 -1.000000
vn 0.000000 0.000000 -1.000000
vn -0.000000 0.000000 -1.000000
vn -0.000000 0.000000 -1.000000
vn -0.326721 0.942774 -0.066562
vn -0.385590 0.922670 -0.000000
vn -0.385590 0.922670 -0.000000
vn -0.326721 0.942774 -0.066562
vn -0.696839 0.717228 0.000000
vn -0.696839 0.717228 0.000000
vn -0.696839 0.717228 0.000000
vn -0.696839 0.717228 0.000000
vn -0.134085 0.988699 -0.067043
vn -0.326721 0.942774 -0.066562
vn -0.326721 0.942774 -0.066562
vn -0.134085 0.988699 -0.067043
vn 0.000000 0.994934 -0.100534
vn 0.000000 0.994934 -0.100534
vn 0.000000 0.994934 -0.100534
vn 0.000000 0.994934 -0.100534
vn 0.000000 1.000000 0.000000
vn 0.000000 1.000000 0.000000
vn -0.134085 0.988699 -0.067043
vn -0.134085 0.988699 -0.067043
vn 0.000000 0.551709 0.834037
vn -0.042022 0.971288 0.234167
vn -0.042022 0.971288 0.234167
vn 0.000000 0.551709 0.834037
vn -1.000000 0.000000 0.000000
vn -1.000000 0.000000 0.000000
vn -1.000000 0.000000 0.000000
vn -1.000000 0.000002 0.000000
vn -1.000000 0.000002 0.000000
vn -1.000000 0.000002 0.000000
vn -1.000000 0.000002 0.000000
vn -0.328830 0.944389 0.000000
vn -0.328830 0.944389 0.000000
vn -0.328830 0.944389 0.000000
vn -0.328830 0.944389 0.000000
vn -0.000000 1.000000 0.000000
vn -0.000000 1.000000 0.000000
vn -0.000000 1.000000 0.000000
vn -0.000000 1.000000 0.000000
vn 0.525670 0.850689 0.000000
vn 0.525670 0.850689 0.000000
vn 0.525670 0.850689 0.000000
vn 0.525670 0.850689 0.000000
vn -0.000000 0.000000 1.000000
vn -0.000000 0.000000 1.000000
vn -0.000000 0.000000 1.000000
vn -0.000000 0.000000 1.000000
vn 0.000000 0.933676 0.358118
vn 0.000000 0.933676 0.358118
vn 0.000000 0.933676 0.358118
vn 0.000000 0.933676 0.358118
vn -0.039069 0.993791 -0.104183
vn -0.039069 0.993791 -0.104183
vn -0.039069 0.993791 -0.104183
vn -0.039069 0.993791 -0.104183
vn -0.042022 0.971288 0.234167
vn -0.061451 0.868648 -0.491604
vn -0.061451 0.868648 -0.491604
vn -0.042022 0.971288 0.234167
vn 0.328804 0.784296 0.526087
vn 0.328804 0.784296 0.526087
vn 0.328804 0.784296 0.526087
vn 0.328804 0.784296 0.526087
vn 1.000000 0.000000 0.000000
vn 0.992329 0.122568 0.016146
vn 0.992329 0.122568 0.016146
vn 0.176143 -0.459417 -0.870580
vn 0.176143 -0.459417 -0.870580
vn 0.176143 -0.459417 -0.870580
vn 0.176143 -0.459417 -0.870580
vn 0.006536 -0.220626 -0.975337
vn 0.006536 -0.220626 -0.975337
vn 0.006536 -0.220626 -0.975337
vn 0.006536 -0.220626 -0.975337
vn -0.000008 1.000000 -0.000000
vn -0.000008 1.000000 -0.000000
vn -0.000008 1.000000 -0.000000
vn -0.000005 1.000000 -0.000000
vn -0.000005 1.000000 -0.000000
vn 1.000000 0.000000 0.000000
vn 1.000000 0.000000 0.000000
vn 1.000000 0.000000 0.000000
vn 1.000000 0.000000 0.000000
vn 0.143355 0.986990 0.072802
vn 0.143355 0.986990 0.072802
vn 0.143355 0.986990 0.072802
vn 0.910249 0.075450 -0.407130
vn 0.910249 0.075450 -0.407130
vn 0.910249 0.075450 -0.407130
vn 0.910249 0.075450 -0.407130
vn 0.768035 -0.555105 -0.319345
vn 0.768035 -0.555105 -0.319345
vn 0.768035 -0.555105 -0.319345
vn 0.768035 -0.555105 -0.319345
vn 0.614904 -0.776557 -0.137301
vn 0.614904 -0.776557 -0.137301
vn 0.614904 -0.776557 -0.137301
vn 0.614904 -0.776557 -0.137301
vn 0.561188 0.000000 -0.827688
vn 0.561188 0.000000 -0.827688
vn 0.561188 0.000000 -0.827688
vn 0.561188 0.000000 -0.827688
vn 0.000000 0.000000 -1.000000
vn 0.059186 0.134842 -0.989098
vn 0.059186 0.134842 -0.989098
vn -0.002811 0.018704 -0.999821
vn -0.002811 0.018704 -0.999821
vn -0.002811 0.018704 -0.999821
vn 0.000000 0.000000 -1.000000
vn -0.002811 0.018704 -0.999821
vn -0.002811 0.018704 -0.999821
vn -0.018209 0.306077 -0.951832
vn -0.018209 0.306077 -0.951832
vn -0.018209 0.306077 -0.951832
vn -0.018209 0.306077 -0.951832
vn 0.088977 -0.142384 -0.985804
vn 0.088977 -0.142384 -0.985804
vn 0.088977 -0.142384 -0.985804
vn 0.088977 -0.142384 -0.985804
vn -0.000000 1.000000 -0.000011
vn -0.000000 1.000000 -0.000011
vn -0.000000 1.000000 -0.000011
vn -0.000000 1.000000 -0.000011
vn 0.000000 0.434295 0.900771
vn 0.000000 0.434295 0.900771
vn 0.000000 0.434295 0.900771
vn 0.000000 0.434295 0.900771
vn -1.000000 0.000000 0.000000
vn -1.000000 0.000000 0.000000
vn -1.000000 0.000000 0.000000
vn -1.000000 0.000000 0.000000
vn 0.000000 -0.000000 1.000000
vn 0.000000 -0.000000 1.000000
vn 0.000000 -0.000000 1.000000
vn -0.000000 0.000000 1.000000
vn -0.000000 0.000000 1.000000
vn -0.000000 0.000000 1.000000
vn 0.000000 0.000000 1.000000
vn 0.000000 0.000000 1.000000
vn 0.000000 0.000000 1.000000
vn 0.000000 0.000000 1.000000
vn -1.000000 0.000001 -0.000000
vn -1.000000 0.000001 -0.000000
vn -1.000000 0.000001 -0.000000
vn -1.000000 0.000000 0.000000
vn -1.000000 0.000000 0.000000
vn -1.000000 0.000000 0.000000
vn -1.000000 -0.000000 0.000000
vn -1.000000 -0.000000 0.000000
vn -1.000000 -0.000000 0.000000
vn -0.000000 -0.000000 1.000000
vn -0.000000 -0.000000 1.000000
vn -0.000000 -0.000000 1.000000
vn -0.000000 -0.000000 1.000000
vn 0.000000 0.000000 1.000000
vn 0.000000 0.000000 1.000000
vn 0.000000 0.000000 1.000000
vn 0.000000 0.000000 1.000000
vn 0.000000 0.000000 1.000000
vn 0.000000 0.000000 1.000000
vn -1.000000 0.000000 0.000000
vn -1.000000 0.000000 0.000000
vn -1.000000 0.000000 0.000000
vn -1.000000 0.000000 0.000000
vn -1.000000 0.000000 0.000000
vn -1.000000 0.000000 0.000000
vn -1.000000 0.000000 0.000000
vn -1.000000 -0.000001 0.000000
vn -1.000000 -0.000001 0.000000
vn -1.000000 -0.000001 0.000000
vn -1.000000 0.000000 0.000000
vn -1.000000 0.000000 0.000000
vn -1.000000 0.000000 0.000000
vn 0.998186 0.059820 -0.006815
vn 0.998186 0.059820 -0.006815
vn 1.000000 0.000000 0.000000
vn 0.998186 0.059820 -0.006815
vn -0.009087 0.000711 -0.999959
vn -0.009087 0.000711 -0.999959
vn -0.009087 0.000711 -0.999959
vn -0.009087 0.000711 -0.999959
vn -0.007131 -0.000765 -0.999974
vn -0.007131 -0.000765 -0.999974
vn -0.000365 0.000000 -1.000000
vn -0.000365 0.000000 -1.000000
vn -0.906796 0.309646 -0.286078
vn -0.906796 0.309646 -0.286078
vn -0.906796 0.309646 -0.286078
vn -0.906796 0.309646 -0.286078
vn -0.018519 0.945221 -0.325907
vn -0.018519 0.945221 -0.325907
vn -0.018519 0.945221 -0.325907
vn -0.018519 0.945221 -0.325907
vn 0.896170 0.282715 -0.341981
vn 0.896170 0.282715 -0.341981
vn 0.896170 0.282715 -0.341981
vn 0.896170 0.282715 -0.341981
s off
f 40/23/1 11/9/2 38/21/3 33/19/4 36/20/5 13/12/6 12/11/7 31/18/8 29/17/9 4/3/10 14/13/11 39/22/12
f 48/84/13 10/81/14 5/82/15
f 8/6/16 7/5/17 45/29/18 46/30/19
f 7/106/20 3/107/21 42/108/22 45/109/23
f 3/8/24 23/14/25 2/2/26 27/16/27 25/15/28 1/1/29 41/25/30 55/31/31 42/26/32
f 41/25/33 1/1/34 11/10/35 40/24/36
f 1/52/37 25/53/38 26/54/39 15/55/40
f 2/60/41 23/64/42 24/65/43 16/61/44
f 11/58/45 1/52/46 15/55/47 18/59/48
f 30/78/49 29/79/50 31/77/51 32/76/52
f 37/62/53 38/63/54 11/58/55 18/59/56
f 12/74/57 13/72/58 21/73/59 19/75/60
f 3/93/61 22/94/62 17/95/63
f 3/93/64 7/96/65 8/97/66 22/94/67
f 23/64/68 3/68/69 17/69/70 24/65/71
f 25/53/72 27/56/73 28/57/74 26/54/75
f 27/56/76 2/60/77 16/61/78 28/57/79
f 4/98/80 29/99/81 30/100/82 20/101/83
f 32/76/84 31/77/85 12/74/86 19/75/87
f 36/70/88 33/67/89 34/66/90 35/71/91
f 13/72/92 36/70/93 35/71/94 21/73/95
f 34/66/96 33/67/97 38/63/98 37/62/99
f 5/82/100 47/85/101 48/84/102
f 51/117/103 41/118/104 40/119/105 47/120/106
f 55/121/107 41/118/108 51/117/109 54/122/110
f 43/110/111 39/111/112 14/112/113 4/113/114 6/114/115
f 9/7/116 44/28/117 43/27/118 6/4/119
f 45/125/120 42/126/121 52/127/122
f 46/128/123 45/129/124 52/130/125 53/131/126
f 47/132/127 40/133/128 39/134/129 48/135/130
f 49/136/131 48/135/132 39/134/133 43/137/134
f 44/138/135 50/139/136 49/136/137 43/137/138
f 5/86/139 51/87/140 47/88/141
f 52/89/142 54/90/143 51/87/144 5/86/145 62/154/146 61/153/147
f 64/156/148 65/157/149 66/158/150 67/159/151
f 42/123/152 55/121/153 54/122/154 52/124/155
f 6/114/156 4/113/157 20/115/158 56/116/159
f 6/102/160 56/103/161 57/104/162 9/105/163
f 56/140/164 20/141/165 58/142/166 57/143/167
f 15/32/168 26/33/169 59/34/170
f 16/35/171 24/36/172 59/37/173
f 18/38/174 15/39/175 59/40/176 58/41/177
f 32/145/178 19/146/179 58/142/180
f 37/150/181 18/151/182 58/142/183
f 19/146/184 21/147/185 58/142/186
f 24/42/187 17/43/188 22/44/189 59/45/190
f 26/46/191 28/47/192 59/48/193
f 28/49/194 16/50/195 59/51/196
f 30/144/197 32/145/198 58/142/199 20/141/200
f 35/148/201 34/149/202 58/142/203
f 21/147/204 35/148/205 58/142/206
f 34/149/207 37/150/208 58/142/209
f 49/83/210 50/80/211 10/81/212 48/84/213
f 53/91/214 52/89/215 61/153/216 60/152/217
f 63/155/218 62/154/219 5/86/220 10/92/221
f 60/168/222 61/169/223 65/170/224 64/171/225
f 61/160/226 62/161/227 66/162/228 65/163/229
f 62/164/230 63/165/231 67/166/232 66/167/233
