# This file uses meters as units for non-parametric coordinates.

v -9.999980 -0.194798 -2.869128
v -9.999980 -0.194798 -10.000000
v -7.072639 -0.194798 -10.380062
v -9.999980 -0.000002 -2.869128
v -9.999980 -0.000002 0.000000
v 0.000000 -0.000002 0.000000
v -9.999980 -0.194798 -3.165322
v -8.124984 -0.000002 0.000000
v -6.849334 -0.000002 -4.697770
v -6.849334 -0.194798 -4.697770
v -7.143056 -0.194798 -5.197193
v -4.999990 -0.194798 -6.403504
v -4.999990 -0.000002 -5.878708
v -4.999990 -0.194798 -5.878708
v 0.000001 -0.194798 -10.000000
v -2.499995 -0.000002 -6.381445
v -2.499995 -0.194798 -6.381445
v -2.499995 -0.194798 -6.706423
v -2.499993 -0.194798 -10.000000
v 0.000001 -0.194798 -6.555624
v 0.000001 -0.000002 -6.259430
v 0.000001 -0.194798 -6.259430
v 0.000001 -0.194798 -13.740570
v 0.000001 -0.000002 -13.740570
v 0.000001 -0.000002 -20.000000
v 0.000001 -0.194798 -13.444376
v -2.499993 -0.000002 -14.132565
v -2.499993 -0.194798 -14.132565
v -2.499993 -0.194798 -13.807589
v -4.999990 -0.194798 -14.250015
v -4.999990 -0.000002 -14.868711
v -4.999990 -0.194798 -14.868711
v -9.999980 -0.000002 -20.000000
v -8.029439 -0.000002 -20.000000
v -7.499986 -0.000002 -16.368958
v -7.499986 -0.194798 -16.296017
v -7.720963 -0.194798 -15.833171
v -9.999980 -0.194798 -16.834679
v -9.999980 -0.000002 -17.130871
v -9.999980 -0.194798 -17.130871
v -9.999980 -0.000002 -2.532766
v -6.849334 -0.000002 -4.007047
v -4.999990 -0.000002 -5.248993
v -2.499995 -0.000002 -5.690722
v 0.000001 -0.000002 -5.000000
v 0.000001 -0.000002 -15.000000
v -2.499993 -0.000002 -14.823288
v -4.999990 -0.000002 -15.498426
v -7.499986 -0.000002 -16.712921
v -9.999980 -0.000002 -17.547775
v -8.558892 -0.000002 -17.379713
v -8.558892 -0.000002 -17.015842
v -8.558892 -0.194798 -16.924059
v -8.558892 -0.194798 -16.834679
v -8.644069 -0.194798 -3.165322
v -8.099330 -0.194798 -3.463787
v -8.099330 -0.000002 -3.463787
v -8.102372 -0.000002 -3.105671
v -9.140521 -0.000002 -17.547775
v -9.007154 -0.000002 -17.130871
v -8.919644 -0.194798 -17.130871
v -9.594769 -0.000002 -20.000000
v -8.668527 -0.194798 -2.869128
v -8.645408 -0.000002 -2.869128
v -8.596503 -0.000002 -2.532765
vt 0.596684 0.881538
vt 0.745062 0.881538
vt 0.585607 0.972557
vt 0.579474 0.972557
vt 0.502538 0.909581
vt 0.502538 0.972557
vt 0.502538 0.909581
vt 0.579813 0.909581
vt 0.585607 0.909581
vt 0.593638 0.909581
vt 0.593638 0.909581
vt 0.579813 0.909581
vt 0.585607 0.909581
vt 0.585607 0.909581
vt 0.593638 0.909581
vt 0.502538 0.909581
vt 0.579813 0.909581
vt 0.593638 0.972557
vt 0.596684 0.827283
vt 0.596684 0.827283
vt 0.745062 0.827283
vt 0.745062 0.827283
vt 0.585607 0.909581
vt 0.585607 0.909581
vt 0.579813 0.909581
vt 0.579813 0.909581
vt 0.502538 0.909581
vt 0.593638 0.909581
vt 0.593638 0.909581
vt 0.502538 0.909581
vt 0.579813 0.909581
vt 0.579813 0.909581
vt 0.585607 0.909581
vt 0.585607 0.909581
vt 0.593638 0.909581
vt 0.593638 0.909581
vt 0.745062 0.827283
vt 0.596684 0.827283
vt 0.596684 0.827283
vt 0.745062 0.827283
vt 0.596684 0.827283
vt 0.596684 0.827283
vt 0.745062 0.827283
vt 0.745062 0.827283
vt 0.585607 0.909581
vt 0.585607 0.909581
vt 0.579813 0.909581
vt 0.579813 0.909581
vt 0.502538 0.909581
vt 0.593638 0.909581
vt 0.593638 0.909581
vt 0.502538 0.909581
vt 0.579813 0.909581
vt 0.579813 0.909581
vt 0.585607 0.909581
vt 0.585607 0.909581
vt 0.593638 0.909581
vt 0.593638 0.909581
vt 0.745062 0.827283
vt 0.596684 0.827283
vt 0.596684 0.827283
vt 0.745062 0.827283
vt 0.585607 0.909581
vt 0.585607 0.909581
vt 0.579813 0.909581
vt 0.577506 0.909581
vt 0.502538 0.909581
vt 0.502538 0.909581
vt 0.593638 0.909581
vt 0.593638 0.909581
vt 0.502538 0.972557
vt 0.579474 0.972557
vt 0.577238 0.909581
vt 0.502538 0.909581
vt 0.585607 0.972557
vt 0.585607 0.909581
vt 0.593638 0.909581
vt 0.593638 0.972557
vt 0.745062 0.881538
vt 0.596684 0.881538
vt 0.570435 0.972557
vt 0.570435 0.909581
vt 0.570435 0.909581
vt 0.570435 0.909581
vt 0.570435 0.909581
vt 0.560609 0.909581
vt 0.560609 0.909581
vt 0.502538 0.909581
vt 0.502538 0.909581
vt 0.557828 0.909581
vt 0.557828 0.909581
vt 0.570435 0.909581
vt 0.570435 0.909581
vt 0.570435 0.909581
vt 0.570435 0.909581
vt 0.568452 0.972557
vt 0.570435 0.909581
vt 0.577406 0.929136
vt 0.587608 0.922469
vt 0.593638 0.909581
vt 0.596684 0.881538
vt 0.596684 0.881538
vt 0.593638 0.909581
vt 0.585607 0.909581
vt 0.579813 0.909581
vt 0.570435 0.909581
vt 0.568452 0.943023
vt 0.579474 0.936455
vt 0.585607 0.932145
vt 0.502538 0.965394
vt 0.585607 0.931629
vt 0.579665 0.937093
vt 0.570435 0.941195
vt 0.596684 0.882944
vt 0.596684 0.849408
vt 0.745062 0.877604
vt 0.596684 0.824501
vt 0.745062 0.837459
vt 0.596684 0.849408
vt 0.596684 0.824501
vt 0.596684 0.882944
vt 0.745062 0.837459
vt 0.745062 0.877604
vn 0.000000 1.000000 0.000000
vn 0.000000 1.000000 0.000000
vn 0.000000 1.000000 0.000000
vn 0.000000 0.000000 -1.000000
vn -0.702534 0.000000 -0.711651
vn -0.702534 0.000000 -0.711651
vn 0.000000 0.000000 -1.000000
vn 0.000000 1.000000 0.000000
vn 0.000000 1.000000 0.000000
vn 0.000000 1.000000 0.000000
vn 0.000000 1.000000 0.000000
vn 0.000000 1.000000 -0.000000
vn 0.000000 1.000000 0.000000
vn 0.000000 1.000000 0.000000
vn 0.000000 1.000000 -0.000000
vn 0.000000 1.000000 0.000000
vn 0.000000 1.000000 0.000000
vn 0.000000 1.000000 0.000000
vn 0.000000 1.000000 0.000000
vn 0.000000 0.000000 -1.000000
vn 0.000000 0.000000 -1.000000
vn 0.000000 0.000000 -1.000000
vn 0.000000 0.000000 -1.000000
vn 0.000000 1.000000 0.000000
vn 0.000000 1.000000 0.000000
vn 0.000000 1.000000 0.000000
vn 0.000000 1.000000 0.000000
vn 0.000000 1.000000 0.000000
vn 0.000000 1.000000 0.000000
vn 0.000000 1.000000 0.000000
vn 0.000000 1.000000 0.000000
vn 0.000000 1.000000 0.000000
vn 0.000000 1.000000 0.000000
vn 0.000000 1.000000 0.000000
vn 0.000000 0.000000 -1.000000
vn 0.000000 0.000000 -1.000000
vn 0.000000 0.000000 -1.000000
vn 0.000000 0.000000 -1.000000
vn 0.000000 1.000000 0.000000
vn 0.000000 1.000000 0.000000
vn 0.000000 1.000000 0.000000
vn 0.000000 1.000000 0.000000
vn 0.000000 1.000000 0.000000
vn 0.000000 1.000000 0.000000
vn 0.000000 1.000000 0.000000
vn 0.000000 1.000000 0.000000
vn 0.000000 1.000000 0.000000
vn 0.000000 1.000000 0.000000
vn 0.000000 1.000000 0.000000
vn 0.000000 1.000000 0.000000
vn 0.000000 0.000000 -1.000000
vn 0.000000 0.000000 -1.000000
vn 0.000000 0.000000 -1.000000
vn 0.000000 0.000000 -1.000000
vn 0.000000 1.000000 0.000000
vn 0.000000 1.000000 0.000000
vn 0.000000 1.000000 0.000000
vn 0.000000 1.000000 0.000000
vn 0.000000 1.000000 0.000000
vn 0.000000 1.000000 0.000000
vn 0.000000 1.000000 0.000000
vn 0.000000 1.000000 0.000000
vn 0.000000 1.000000 -0.000000
vn 0.000000 1.000000 -0.000000
vn 0.000000 1.000000 -0.000000
vn 0.000000 1.000000 -0.000000
vn -0.000000 0.000000 1.000000
vn -0.000000 0.000000 1.000000
vn -0.000000 0.000000 1.000000
vn -0.000000 0.000000 1.000000
vn 0.000000 1.000000 0.000000
vn 0.000000 1.000000 0.000000
vn 0.000000 1.000000 0.000000
vn 0.000000 1.000000 0.000000
vn 0.000000 1.000000 -0.000000
vn 0.000000 1.000000 -0.000000
vn 0.000000 1.000000 -0.000000
vn 0.000000 1.000000 -0.000000
vn 0.000000 1.000000 0.000000
vn 0.000000 1.000000 0.000000
vn 0.000000 1.000000 0.000000
vn 0.000000 1.000000 0.000000
vn -0.000000 0.000000 1.000000
vn -0.000000 0.000000 1.000000
vn -0.000000 0.000000 1.000000
vn -0.000000 0.000000 1.000000
vn 0.000000 1.000000 -0.000000
vn 0.000000 1.000000 -0.000000
vn 0.000000 1.000000 -0.000000
vn 0.000000 1.000000 -0.000000
vn 0.000000 1.000000 -0.000000
vn 0.000000 1.000000 -0.000000
vn 0.000000 1.000000 -0.000000
vn 0.000000 1.000000 -0.000000
vn 0.000000 1.000000 -0.000000
vn 0.000000 1.000000 -0.000000
vn 0.000000 1.000000 -0.000000
vn -0.000000 0.000000 1.000000
vn -0.000000 0.000000 1.000000
vn -0.000000 0.000000 1.000000
vn -0.000000 0.000000 1.000000
vn 0.000000 1.000000 0.000000
vn 0.000000 1.000000 0.000000
vn 0.000000 1.000000 0.000000
vn 0.000000 1.000000 0.000000
vn 0.000000 1.000000 -0.000000
vn 0.000000 1.000000 -0.000000
vn 0.000000 1.000000 -0.000000
vn 0.000000 1.000000 -0.000000
vn 0.000000 1.000000 0.000000
vn 0.000000 1.000000 0.000000
vn 0.000000 1.000000 0.000000
vn 0.000000 1.000000 0.000000
vn -0.484922 0.340580 0.805516
vn -0.000000 0.000000 1.000000
vn -0.000000 0.000000 1.000000
vn -0.484922 0.340580 0.805516
vn 0.000000 1.000000 -0.000000
vn 0.000000 1.000000 -0.000000
vn 0.000000 1.000000 0.000000
vn 0.000000 1.000000 0.000000
vn 0.000000 1.000000 -0.000000
vn 0.000000 1.000000 -0.000000
vn 0.000000 1.000000 0.000000
vn 0.000000 1.000000 0.000000
vn 0.000000 1.000000 0.000000
vn 0.000000 1.000000 0.000000
vn 0.000000 1.000000 0.000000
vn 0.000000 1.000000 0.000000
vn 0.000000 1.000000 0.000000
vn 0.000000 1.000000 0.000000
vn 0.000000 1.000000 0.000000
vn 0.000000 1.000000 0.000000
vn 0.000000 1.000000 0.000000
vn 0.000000 1.000000 0.000000
vn 0.000000 1.000000 0.000000
vn 0.000000 1.000000 0.000000
vn 0.000000 1.000000 0.000000
vn 0.000000 1.000000 0.000000
vn 0.000000 1.000000 0.000000
vn 0.000000 1.000000 0.000000
vn 0.000000 1.000000 0.000000
vn 0.000000 1.000000 0.000000
vn 0.000000 1.000000 0.000000
vn 0.000000 1.000000 0.000000
vn 0.000000 1.000000 0.000000
vn 0.000000 1.000000 0.000000
vn 0.000000 1.000000 0.000000
vn 0.000000 1.000000 0.000000
vn 0.000000 1.000000 0.000000
vn 0.000000 1.000000 0.000000
vn 0.000000 1.000000 -0.000000
vn 0.000000 1.000000 -0.000000
vn 0.000000 1.000000 -0.000000
vn 0.000000 1.000000 0.000000
vn 0.000000 1.000000 0.000000
vn 0.000000 1.000000 0.000000
vn 0.000000 1.000000 0.000000
vn -0.366274 0.134635 0.920715
vn -0.366274 0.134635 0.920715
vn -0.366274 0.134635 0.920715
vn -0.366274 0.134635 0.920715
vn 0.000000 1.000000 0.000000
vn 0.000000 1.000000 0.000000
vn 0.000000 1.000000 0.000000
vn 0.000000 1.000000 0.000000
vn 0.000000 1.000000 0.000000
vn 0.000000 1.000000 -0.000000
vn 0.000000 1.000000 0.000000
vn 0.000000 1.000000 0.000000
vn 0.000000 1.000000 0.000000
vn 0.000000 1.000000 0.000000
vn 0.000000 1.000000 0.000000
vn 0.000000 1.000000 0.000000
vn -0.728767 0.043235 -0.683395
vn -0.728767 0.043235 -0.683395
vn -0.728767 0.043235 -0.683395
vn -0.728767 0.043235 -0.683395
vn 0.000000 1.000000 0.000000
vn 0.000000 1.000000 0.000000
vn 0.000000 1.000000 0.000000
vn 0.000000 1.000000 0.000000
vn 0.000000 1.000000 -0.000000
vn 0.000000 1.000000 -0.000000
vn 0.000000 1.000000 -0.000000
vn 0.000000 1.000000 0.000000
vn 0.000000 1.000000 -0.000000
vn 0.000000 1.000000 -0.000000
vn 0.000000 1.000000 -0.000000
vn 0.000000 1.000000 0.000000
vn 0.000000 1.000000 0.000000
vn 0.000000 1.000000 0.000000
vn 0.000000 1.000000 0.000000
vn 0.000000 1.000000 0.000000
vn 0.000000 1.000000 0.000000
vn 0.000000 1.000000 0.000000
vn -0.000000 0.000000 1.000000
vn 0.000000 0.000000 1.000000
vn 0.000000 0.000000 1.000000
vn -0.000000 0.000000 1.000000
vn 0.000000 1.000000 0.000000
vn 0.000000 1.000000 0.000000
vn 0.000000 1.000000 -0.000000
vn 0.000000 1.000000 -0.000000
vn 0.000000 1.000000 0.000000
vn 0.000000 1.000000 0.000000
vn 0.000000 1.000000 0.000000
vn 0.000000 1.000000 0.000000
vn 0.000000 1.000000 0.000000
vn 0.000000 1.000000 0.000000
vn 0.000000 1.000000 0.000000
vn 0.000000 1.000000 0.000000
vn 0.000000 -0.000001 -1.000000
vn 0.000000 -0.000001 -1.000000
vn 0.000000 0.000000 -1.000000
vn 0.000000 0.000000 -1.000000
vn 0.000000 1.000000 0.000000
vn 0.000000 1.000000 0.000000
vn 0.000000 1.000000 0.000000
vn 0.000000 1.000000 0.000000
vn 0.000000 1.000000 0.000000
vn 0.000000 1.000000 0.000000
vn 0.000000 1.000000 0.000000
s off
f 55/114/1 11/115/2 2/123/3
f 10/14/4 56/104/5 57/105/6 9/17/7
f 42/82/8 9/17/9 57/105/10 58/106/11
f 56/104/12 10/14/13 11/15/14 55/103/15
f 43/84/16 13/12/17 9/8/18 42/83/19
f 14/13/20 10/9/21 9/8/22 13/12/23
f 11/10/24 10/9/25 14/13/26 12/11/27
f 2/123/28 12/117/29 3/122/30
f 12/19/31 18/20/32 19/21/33 3/22/34
f 17/23/35 14/24/36 13/25/37 16/26/38
f 44/86/39 16/26/40 13/25/41 43/85/42
f 14/24/43 17/23/44 18/28/45 12/29/46
f 45/88/47 21/31/48 16/32/49 44/87/50
f 22/33/51 17/34/52 16/32/53 21/31/54
f 18/35/55 17/34/56 22/33/57 20/36/58
f 19/37/59 18/38/60 20/39/61 15/40/62
f 26/41/63 29/42/64 19/43/65 15/44/66
f 28/45/67 23/46/68 24/47/69 27/48/70
f 47/90/71 27/48/72 24/47/73 46/89/74
f 23/46/75 28/45/76 29/50/77 26/51/78
f 48/92/79 31/53/80 27/54/81 47/91/82
f 32/55/83 28/56/84 27/54/85 31/53/86
f 29/57/87 28/56/88 32/55/89 30/58/90
f 19/59/91 29/60/92 30/61/93 3/62/94
f 30/120/95 37/119/96 3/118/97
f 36/63/98 32/64/99 31/65/100 35/66/101
f 49/94/102 35/66/103 31/65/104 48/93/105
f 32/64/106 36/63/107 37/69/108 30/70/109
f 51/97/110 52/98/111 35/73/112 49/95/113
f 53/99/114 36/76/115 35/73/116 52/98/117
f 37/77/118 36/76/119 53/99/120 54/100/121
f 2/116/122 37/119/123 54/121/124
f 8/7/125 42/82/126 58/106/127
f 6/5/128 43/84/129 42/83/130 8/16/131
f 6/27/132 44/86/133 43/85/134
f 6/30/135 45/88/136 44/87/137
f 25/49/138 47/90/139 46/89/140
f 25/52/141 48/92/142 47/91/143
f 34/67/144 49/94/145 48/93/146 25/68/147
f 34/74/148 51/97/149 49/95/150
f 33/71/151 50/96/152 59/107/153 62/110/154
f 59/107/155 60/108/156 52/98/157 51/97/158
f 61/109/159 53/99/160 52/98/161 60/108/162
f 54/100/163 53/99/164 61/109/165
f 2/79/166 54/101/167 38/80/168
f 7/1/169 55/102/170 2/2/171
f 63/111/172 56/104/173 55/103/174
f 57/105/175 56/104/176 63/111/177 64/112/178
f 58/106/179 57/105/180 64/112/181 65/113/182
f 8/7/183 58/106/184 65/113/185 5/6/186
f 3/118/187 37/119/188 2/116/189
f 2/123/190 11/115/191 12/117/192
f 50/96/193 39/72/194 60/108/195 59/107/196
f 40/75/197 61/109/198 60/108/199 39/72/200
f 54/100/201 61/109/202 40/75/203 38/78/204
f 62/110/205 59/107/206 51/97/207 34/74/208
f 1/3/209 63/111/210 55/103/211 7/18/212
f 64/112/213 63/111/214 1/3/215 4/4/216
f 65/113/217 64/112/218 4/4/219 41/81/220
f 5/6/221 65/113/222 41/81/223
