# This file uses meters as units for non-parametric coordinates.

v -1.683986 0.000000 1.234746
v -0.231531 0.000000 1.234746
v -1.501101 0.545611 1.107887
v -0.414421 0.545611 1.107887
v -1.501101 0.545611 -0.433194
v -0.414421 0.545611 -0.433194
v -1.683986 0.000000 -0.560053
v -0.231531 0.000000 -0.560053
v -1.251694 0.000000 0.513810
v -0.002429 0.000000 0.513810
v -1.094393 1.115960 0.404699
v -0.159735 1.115960 0.404699
v -1.094393 1.115960 -0.920795
v -0.159735 1.115960 -0.920795
v -1.251694 0.000000 -1.029906
v -0.002429 0.000000 -1.029906
v -1.002969 0.000000 0.981946
v 0.543612 0.000000 0.981946
v -0.779263 0.785452 0.826772
v 0.319906 0.785452 0.826772
v -0.779263 0.785452 -1.058288
v 0.319906 0.785452 -1.058288
v -1.002969 0.000000 -1.213462
v 0.543612 0.000000 -1.213462
v -0.998315 0.000000 -0.397540
v 0.344173 0.000000 -0.397540
v -0.761300 0.488155 -0.634554
v 0.107158 0.488155 -0.634554
v -0.761300 0.488155 -1.503013
v 0.107158 0.488155 -1.503013
v -0.998315 0.000000 -1.740028
v 0.344173 0.000000 -1.740028
v -1.547431 0.000000 1.740028
v -0.407625 0.000000 1.740028
v -1.346199 0.424044 1.496627
v -0.608858 0.424044 1.496627
v -1.346199 0.424044 0.604778
v -0.608858 0.424044 0.604778
v -1.547431 0.000000 0.361378
v -0.407625 0.000000 0.361378
v -0.244451 0.000000 0.798272
v 1.208004 0.000000 0.798272
v -0.061566 0.545611 0.671413
v 1.025114 0.545611 0.671413
v -0.061566 0.545611 -0.869668
v 1.025114 0.545611 -0.869668
v -0.244451 0.000000 -0.996527
v 1.208004 0.000000 -0.996527
v 0.544181 0.000000 0.402449
v 1.683986 0.000000 0.402449
v 0.745413 0.424044 0.159049
v 1.482754 0.424044 0.159049
v 0.745413 0.424044 -0.732800
v 1.482754 0.424044 -0.732800
v 0.544181 0.000000 -0.976201
v 1.683986 0.000000 -0.976201
vt 0.273631 0.993321
vt 0.262889 0.959193
vt 0.293889 0.902548
vt 0.272617 0.992307
vt 0.262976 0.959019
vt 0.307478 0.916138
vt 0.288456 0.951900
vt 0.262889 0.958932
vt 0.288456 0.966880
vt 0.303436 0.966880
vt 0.271603 0.993321
vt 0.271603 0.992307
vt 0.274645 0.993321
vt 0.274645 0.992307
vt 0.307478 0.902548
vt 0.262889 0.959019
vt 0.262976 0.959106
vt 0.293889 0.916138
vt 0.272617 0.993321
vt 0.262976 0.959193
vt 0.262889 0.959106
vt 0.273631 0.992307
vt 0.303436 0.951900
vt 0.262976 0.958932
vt 0.262976 0.959193
vt 0.262889 0.959193
vt 0.262889 0.959106
vt 0.262976 0.959106
vt 0.293889 0.902548
vt 0.307478 0.902548
vt 0.307478 0.916138
vt 0.293889 0.916138
vt 0.262976 0.959019
vt 0.262889 0.959019
vt 0.262889 0.958932
vt 0.262976 0.958932
vt 0.288456 0.951900
vt 0.303436 0.951900
vt 0.303436 0.966880
vt 0.288456 0.966880
vt 0.272617 0.993321
vt 0.271603 0.993321
vt 0.271603 0.992307
vt 0.272617 0.992307
vt 0.274645 0.993321
vt 0.273631 0.993321
vt 0.273631 0.992307
vt 0.274645 0.992307
vt 0.262976 0.959193
vt 0.262889 0.959193
vt 0.262889 0.959106
vt 0.262976 0.959106
vt 0.293889 0.902548
vt 0.307478 0.902548
vt 0.307478 0.916138
vt 0.293889 0.916138
vt 0.262976 0.959019
vt 0.262889 0.959019
vt 0.262889 0.958932
vt 0.262976 0.958932
vt 0.288456 0.951900
vt 0.303436 0.951900
vt 0.303436 0.966880
vt 0.288456 0.966880
vt 0.272617 0.993321
vt 0.271603 0.993321
vt 0.271603 0.992307
vt 0.272617 0.992307
vt 0.274645 0.993321
vt 0.273631 0.993321
vt 0.273631 0.992307
vt 0.274645 0.992307
vt 0.262976 0.959193
vt 0.262889 0.959193
vt 0.262889 0.959106
vt 0.262976 0.959106
vt 0.293889 0.902548
vt 0.307478 0.902548
vt 0.307478 0.916138
vt 0.293889 0.916138
vt 0.262976 0.959019
vt 0.262889 0.959019
vt 0.262889 0.958932
vt 0.262976 0.958932
vt 0.288456 0.951900
vt 0.303436 0.951900
vt 0.303436 0.966880
vt 0.288456 0.966880
vt 0.272617 0.993321
vt 0.271603 0.993321
vt 0.271603 0.992307
vt 0.272617 0.992307
vt 0.274645 0.993321
vt 0.273631 0.993321
vt 0.273631 0.992307
vt 0.274645 0.992307
vt 0.262976 0.959193
vt 0.262889 0.959193
vt 0.262889 0.959106
vt 0.262976 0.959106
vt 0.293889 0.902548
vt 0.307478 0.902548
vt 0.307478 0.916138
vt 0.293889 0.916138
vt 0.262976 0.959019
vt 0.262889 0.959019
vt 0.262889 0.958932
vt 0.262976 0.958932
vt 0.288456 0.951900
vt 0.303436 0.951900
vt 0.303436 0.966880
vt 0.288456 0.966880
vt 0.272617 0.993321
vt 0.271603 0.993321
vt 0.271603 0.992307
vt 0.272617 0.992307
vt 0.274645 0.993321
vt 0.273631 0.993321
vt 0.273631 0.992307
vt 0.274645 0.992307
vt 0.262976 0.959193
vt 0.262889 0.959193
vt 0.262889 0.959106
vt 0.262976 0.959106
vt 0.293889 0.902548
vt 0.307478 0.902548
vt 0.307478 0.916138
vt 0.293889 0.916138
vt 0.262976 0.959019
vt 0.262889 0.959019
vt 0.262889 0.958932
vt 0.262976 0.958932
vt 0.288456 0.951900
vt 0.303436 0.951900
vt 0.303436 0.966880
vt 0.288456 0.966880
vt 0.272617 0.993321
vt 0.271603 0.993321
vt 0.271603 0.992307
vt 0.272617 0.992307
vt 0.274645 0.993321
vt 0.273631 0.993321
vt 0.273631 0.992307
vt 0.274645 0.992307
vt 0.262976 0.959193
vt 0.262889 0.959193
vt 0.262889 0.959106
vt 0.262976 0.959106
vt 0.293889 0.902548
vt 0.307478 0.902548
vt 0.307478 0.916138
vt 0.293889 0.916138
vt 0.262976 0.959019
vt 0.262889 0.959019
vt 0.262889 0.958932
vt 0.262976 0.958932
vt 0.288456 0.951900
vt 0.303436 0.951900
vt 0.303436 0.966880
vt 0.288456 0.966880
vt 0.272617 0.993321
vt 0.271603 0.993321
vt 0.271603 0.992307
vt 0.272617 0.992307
vt 0.274645 0.993321
vt 0.273631 0.993321
vt 0.273631 0.992307
vt 0.274645 0.992307
vn 0.000000 0.226467 0.974019
vn 0.000000 0.226467 0.974019
vn 0.000000 0.226467 0.974019
vn 0.000000 0.226467 0.974019
vn 0.000000 1.000000 0.000000
vn 0.000000 1.000000 0.000000
vn 0.000000 1.000000 0.000000
vn 0.000000 1.000000 0.000000
vn 0.000000 0.226466 -0.974019
vn 0.000000 0.226466 -0.974019
vn 0.000000 0.226466 -0.974019
vn 0.000000 0.226466 -0.974019
vn 0.000000 -1.000000 0.000000
vn 0.000000 -1.000000 0.000000
vn 0.000000 -1.000000 0.000000
vn 0.000000 -1.000000 0.000000
vn 0.948150 0.317822 0.000000
vn 0.948150 0.317822 0.000000
vn 0.948150 0.317822 0.000000
vn 0.948151 0.317822 0.000000
vn -0.948153 0.317814 0.000000
vn -0.948153 0.317814 0.000000
vn -0.948153 0.317814 0.000000
vn -0.948153 0.317814 0.000000
vn 0.000000 0.097309 0.995254
vn 0.000000 0.097309 0.995254
vn 0.000000 0.097309 0.995254
vn 0.000000 0.097309 0.995254
vn 0.000000 1.000000 0.000000
vn 0.000000 1.000000 0.000000
vn 0.000000 1.000000 0.000000
vn 0.000000 1.000000 0.000000
vn 0.000000 0.097309 -0.995254
vn 0.000000 0.097309 -0.995254
vn 0.000000 0.097309 -0.995254
vn 0.000000 0.097309 -0.995254
vn 0.000000 -1.000000 0.000000
vn 0.000000 -1.000000 0.000000
vn 0.000000 -1.000000 0.000000
vn 0.000000 -1.000000 0.000000
vn 0.990211 0.139580 0.000000
vn 0.990211 0.139580 0.000000
vn 0.990211 0.139580 0.000000
vn 0.990211 0.139580 0.000000
vn -0.990211 0.139576 0.000000
vn -0.990211 0.139576 0.000000
vn -0.990211 0.139576 0.000000
vn -0.990211 0.139576 0.000000
vn 0.000000 0.193814 0.981038
vn 0.000000 0.193814 0.981038
vn 0.000000 0.193814 0.981038
vn 0.000000 0.193814 0.981038
vn 0.000000 1.000000 0.000000
vn 0.000000 1.000000 0.000000
vn 0.000000 1.000000 0.000000
vn 0.000000 1.000000 0.000000
vn 0.000000 0.193814 -0.981038
vn 0.000000 0.193814 -0.981038
vn 0.000000 0.193814 -0.981038
vn 0.000000 0.193814 -0.981038
vn 0.000000 -1.000000 0.000000
vn 0.000000 -1.000000 0.000000
vn 0.000000 -1.000000 0.000000
vn 0.000000 -1.000000 0.000000
vn 0.961753 0.273918 0.000000
vn 0.961753 0.273918 0.000000
vn 0.961753 0.273918 0.000000
vn 0.961753 0.273918 0.000000
vn -0.961753 0.273918 0.000000
vn -0.961753 0.273918 0.000000
vn -0.961753 0.273918 0.000000
vn -0.961753 0.273918 0.000000
vn 0.000000 0.436771 0.899573
vn 0.000000 0.436771 0.899573
vn 0.000000 0.436771 0.899573
vn 0.000000 0.436771 0.899573
vn 0.000000 1.000000 0.000000
vn 0.000000 1.000000 0.000000
vn 0.000000 1.000000 0.000000
vn 0.000000 1.000000 0.000000
vn 0.000000 0.436771 -0.899573
vn 0.000000 0.436771 -0.899573
vn 0.000000 0.436771 -0.899573
vn 0.000000 0.436771 -0.899573
vn 0.000000 -1.000000 0.000000
vn 0.000000 -1.000000 0.000000
vn 0.000000 -1.000000 0.000000
vn 0.000000 -1.000000 0.000000
vn 0.899572 0.436771 0.000000
vn 0.899572 0.436771 0.000000
vn 0.899572 0.436771 0.000000
vn 0.899572 0.436771 0.000000
vn -0.899572 0.436771 0.000000
vn -0.899572 0.436771 0.000000
vn -0.899572 0.436771 0.000000
vn -0.899572 0.436771 0.000000
vn 0.000000 0.497819 0.867281
vn 0.000000 0.497819 0.867281
vn 0.000000 0.497819 0.867281
vn 0.000000 0.497819 0.867281
vn 0.000000 1.000000 0.000000
vn 0.000000 1.000000 0.000000
vn 0.000000 1.000000 0.000000
vn 0.000000 1.000000 0.000000
vn 0.000000 0.497819 -0.867281
vn 0.000000 0.497819 -0.867281
vn 0.000000 0.497819 -0.867281
vn 0.000000 0.497819 -0.867281
vn 0.000000 -1.000000 0.000000
vn 0.000000 -1.000000 0.000000
vn 0.000000 -1.000000 0.000000
vn 0.000000 -1.000000 0.000000
vn 0.903433 0.428729 0.000000
vn 0.903433 0.428729 0.000000
vn 0.903433 0.428729 0.000000
vn 0.903433 0.428729 0.000000
vn -0.903433 0.428729 0.000000
vn -0.903433 0.428729 0.000000
vn -0.903433 0.428729 0.000000
vn -0.903433 0.428729 0.000000
vn 0.000000 0.226467 0.974019
vn 0.000000 0.226467 0.974019
vn 0.000000 0.226467 0.974019
vn 0.000000 0.226467 0.974019
vn 0.000000 1.000000 0.000000
vn 0.000000 1.000000 0.000000
vn 0.000000 1.000000 0.000000
vn 0.000000 1.000000 0.000000
vn 0.000000 0.226467 -0.974019
vn 0.000000 0.226467 -0.974019
vn 0.000000 0.226467 -0.974019
vn 0.000000 0.226467 -0.974019
vn 0.000000 -1.000000 0.000000
vn 0.000000 -1.000000 0.000000
vn 0.000000 -1.000000 0.000000
vn 0.000000 -1.000000 0.000000
vn 0.948151 0.317822 0.000000
vn 0.948151 0.317822 0.000000
vn 0.948151 0.317822 0.000000
vn 0.948151 0.317822 0.000000
vn -0.948153 0.317814 0.000000
vn -0.948153 0.317814 0.000000
vn -0.948153 0.317814 0.000000
vn -0.948153 0.317814 0.000000
vn 0.000000 0.497819 0.867281
vn 0.000000 0.497819 0.867281
vn 0.000000 0.497819 0.867281
vn 0.000000 0.497819 0.867281
vn 0.000000 1.000000 0.000000
vn 0.000000 1.000000 0.000000
vn 0.000000 1.000000 0.000000
vn 0.000000 1.000000 0.000000
vn 0.000000 0.497819 -0.867281
vn 0.000000 0.497819 -0.867281
vn 0.000000 0.497819 -0.867281
vn 0.000000 0.497819 -0.867281
vn 0.000000 -1.000000 0.000000
vn 0.000000 -1.000000 0.000000
vn 0.000000 -1.000000 0.000000
vn 0.000000 -1.000000 0.000000
vn 0.903433 0.428730 0.000000
vn 0.903433 0.428730 0.000000
vn 0.903433 0.428730 0.000000
vn 0.903433 0.428730 0.000000
vn -0.903433 0.428729 0.000000
vn -0.903433 0.428729 0.000000
vn -0.903433 0.428729 0.000000
vn -0.903433 0.428729 0.000000
s off
f 1/20/1 2/2/2 4/21/3 3/17/4
f 3/3/5 4/15/6 6/6/7 5/18/8
f 5/5/9 6/16/10 8/8/11 7/24/12
f 7/7/13 8/23/14 2/10/15 1/9/16
f 2/19/17 8/11/18 6/12/19 4/4/20
f 7/13/21 1/1/22 3/22/23 5/14/24
f 9/25/25 10/26/26 12/27/27 11/28/28
f 11/29/29 12/30/30 14/31/31 13/32/32
f 13/33/33 14/34/34 16/35/35 15/36/36
f 15/37/37 16/38/38 10/39/39 9/40/40
f 10/41/41 16/42/42 14/43/43 12/44/44
f 15/45/45 9/46/46 11/47/47 13/48/48
f 17/49/49 18/50/50 20/51/51 19/52/52
f 19/53/53 20/54/54 22/55/55 21/56/56
f 21/57/57 22/58/58 24/59/59 23/60/60
f 23/61/61 24/62/62 18/63/63 17/64/64
f 18/65/65 24/66/66 22/67/67 20/68/68
f 23/69/69 17/70/70 19/71/71 21/72/72
f 25/73/73 26/74/74 28/75/75 27/76/76
f 27/77/77 28/78/78 30/79/79 29/80/80
f 29/81/81 30/82/82 32/83/83 31/84/84
f 31/85/85 32/86/86 26/87/87 25/88/88
f 26/89/89 32/90/90 30/91/91 28/92/92
f 31/93/93 25/94/94 27/95/95 29/96/96
f 33/97/97 34/98/98 36/99/99 35/100/100
f 35/101/101 36/102/102 38/103/103 37/104/104
f 37/105/105 38/106/106 40/107/107 39/108/108
f 39/109/109 40/110/110 34/111/111 33/112/112
f 34/113/113 40/114/114 38/115/115 36/116/116
f 39/117/117 33/118/118 35/119/119 37/120/120
f 41/121/121 42/122/122 44/123/123 43/124/124
f 43/125/125 44/126/126 46/127/127 45/128/128
f 45/129/129 46/130/130 48/131/131 47/132/132
f 47/133/133 48/134/134 42/135/135 41/136/136
f 42/137/137 48/138/138 46/139/139 44/140/140
f 47/141/141 41/142/142 43/143/143 45/144/144
f 49/145/145 50/146/146 52/147/147 51/148/148
f 51/149/149 52/150/150 54/151/151 53/152/152
f 53/153/153 54/154/154 56/155/155 55/156/156
f 55/157/157 56/158/158 50/159/159 49/160/160
f 50/161/161 56/162/162 54/163/163 52/164/164
f 55/165/165 49/166/166 51/167/167 53/168/168
