# This file uses meters as units for non-parametric coordinates.

v -4.100854 -0.194798 -1.019610
v -4.999991 -0.194798 -5.000000
v -4.223262 -0.000002 -0.890478
v -4.999990 -0.000002 0.000000
v -3.835272 -0.194798 -1.309380
v -4.999990 -0.194798 -1.555624
v -4.999990 -0.000002 -1.259430
v -4.999990 -0.194798 -1.259430
v -0.000002 -0.194798 -5.000000
v 0.000000 -0.194798 -0.000001
v -3.444366 -0.194798 0.000000
v -3.740560 -0.000002 0.000000
v -3.740560 -0.194798 0.000000
v -3.536361 -0.194798 -0.685966
v -4.392125 -0.194798 -1.575097
v -3.834649 -0.194798 -0.551869
v -3.880237 -0.000002 -0.478682
v -4.499275 -0.194798 -1.211071
v -4.583523 -0.000002 -1.073618
vt 0.593854 0.856418
vt 0.585268 0.856418
vt 0.579474 0.856418
vt 0.503065 0.856418
vt 0.593854 0.918918
vt 0.579474 0.915805
vt 0.585268 0.916013
vt 0.745062 0.900741
vt 0.596684 0.900741
vt 0.596684 0.854870
vt 0.745062 0.854870
vt 0.503065 0.856418
vt 0.579474 0.856418
vt 0.579474 0.915805
vt 0.585268 0.856418
vt 0.585268 0.916013
vt 0.593854 0.918918
vt 0.593854 0.856418
vt 0.745062 0.900741
vt 0.596684 0.900741
vt 0.596684 0.854870
vt 0.745062 0.854870
vt 0.593854 0.887668
vt 0.596684 0.877806
vt 0.593854 0.887668
vt 0.596684 0.877806
vt 0.585268 0.886216
vt 0.579474 0.886111
vt 0.585268 0.886216
vt 0.579474 0.886111
vn 0.000000 1.000000 -0.000000
vn 0.000000 1.000000 -0.000000
vn 0.000000 1.000000 0.000000
vn -0.000000 0.000000 -1.000000
vn 0.337598 0.646938 -0.683739
vn 0.337598 0.646938 -0.683739
vn -0.000000 0.000000 -1.000000
vn 0.000000 1.000000 0.000000
vn 0.000000 1.000000 0.000000
vn -0.000000 1.000000 0.000000
vn -0.000000 1.000000 0.000000
vn 0.000000 1.000000 0.000000
vn -0.000000 1.000000 0.000000
vn -0.000000 1.000000 0.000000
vn 0.000000 1.000000 -0.000000
vn 0.000000 1.000000 0.000000
vn 0.000000 1.000000 0.000000
vn 0.963619 0.153821 -0.218583
vn 0.963619 0.153821 -0.218583
vn 1.000000 0.000000 0.000000
vn 1.000000 0.000000 0.000000
vn -0.000000 1.000000 0.000000
vn 0.000000 1.000000 -0.000000
vn 0.000000 1.000000 -0.000000
vn -0.000000 1.000000 0.000000
vn 0.000000 1.000000 -0.000000
vn -0.000000 1.000000 0.000000
vn -0.000000 1.000000 0.000000
vn 1.000000 0.000000 0.000000
vn 1.000000 0.000000 0.000000
vn 0.689187 0.545095 -0.477381
vn 0.689187 0.545095 -0.477381
vn 0.000000 1.000000 -0.000000
vn 0.000000 1.000000 0.000000
vn 0.000000 1.000000 -0.000000
vn -0.000000 1.000000 0.000000
vn 0.000000 1.000000 0.000000
vn 0.000000 1.000000 0.000000
vn -0.000000 1.000000 0.000000
vn -0.000000 1.000000 0.000000
vn 0.000000 1.000000 0.000000
vn 0.000000 1.000000 0.000000
vn 0.000000 1.000000 0.000000
vn 0.230054 0.367654 -0.901058
vn 0.230054 0.367654 -0.901058
vn -0.000000 0.000000 -1.000000
vn -0.000000 0.000000 -1.000000
vn 0.000000 1.000000 -0.000000
vn 0.000000 1.000000 0.000000
vn 0.000000 1.000000 -0.000000
vn -0.000000 1.000000 0.000000
vn -0.000000 1.000000 0.000000
vn 0.000000 1.000000 0.000000
vn -0.000000 1.000000 0.000000
vn 0.000000 1.000000 0.000000
vn -0.000000 1.000000 0.000000
vn -0.000000 1.000000 0.000000
vn -0.000000 1.000000 0.000000
vn 0.000000 1.000000 0.000000
vn -0.000000 1.000000 0.000000
vn 0.000000 1.000000 0.000000
vn -0.000000 1.000000 0.000000
s off
f 4/4/1 3/3/2 19/30/3
f 1/2/4 18/29/5 19/30/6 3/3/7
f 15/25/8 18/29/9 1/2/10 5/1/11
f 15/26/12 2/8/13 6/9/14
f 4/12/15 12/14/16 17/28/17
f 16/27/18 17/28/19 12/14/20 13/16/21
f 1/15/22 16/27/23 14/23/24 5/18/25
f 14/24/26 9/22/27 5/21/28
f 1/15/29 3/13/30 17/28/31 16/27/32
f 4/12/33 17/28/34 3/13/35
f 11/17/36 14/23/37 16/27/38 13/16/39
f 6/5/40 8/7/41 18/29/42 15/25/43
f 19/30/44 18/29/45 8/7/46 7/6/47
f 4/4/48 19/30/49 7/6/50
f 9/11/51 2/8/52 15/26/53
f 9/11/54 15/26/55 5/10/56
f 10/19/57 9/22/58 14/24/59
f 10/19/60 14/24/61 11/20/62
