# This file uses meters as units for non-parametric coordinates.

v -2.130554 -0.194798 -1.274985
v -4.999990 -0.000002 0.000000
v -2.074164 -0.000002 -1.045507
v 0.000010 -0.000002 0.000000
v -2.115616 -0.194798 -1.630710
v 0.000009 -0.194798 -4.999990
v 0.000010 -0.194798 -1.555624
v 0.000010 -0.000002 -1.259430
v 0.000010 -0.194798 -1.259430
v -1.021151 -0.194798 -1.463629
v -2.944555 -0.194798 -2.072112
v -0.887053 -0.194798 -1.165341
v -0.813867 -0.000002 -1.119753
v -3.240388 -0.194798 -1.736507
v -3.442080 -0.000002 -1.590758
v -3.444366 -0.194798 -4.999988
v -3.496471 -0.194798 -3.952474
v -3.488635 -0.194798 -3.070072
v -3.832119 -0.194798 -2.919418
v -4.068618 -0.000002 -2.768898
v -4.999990 -0.000002 -4.999988
v -3.740560 -0.000002 -4.999988
v -3.740560 -0.194798 -4.999988
v -3.824162 -0.194798 -3.874287
v -3.926372 -0.000002 -3.985954
vt 0.593854 0.605725
vt 0.585268 0.605725
vt 0.579474 0.605725
vt 0.503065 0.605725
vt 0.503065 0.632244
vt 0.596684 0.604870
vt 0.503065 0.605725
vt 0.579474 0.605725
vt 0.579474 0.665112
vt 0.585268 0.605725
vt 0.585268 0.665320
vt 0.593854 0.668225
vt 0.593854 0.605725
vt 0.745062 0.650741
vt 0.596684 0.650741
vt 0.596684 0.604870
vt 0.593854 0.636975
vt 0.596684 0.627806
vt 0.593854 0.636975
vt 0.645096 0.620322
vt 0.585268 0.635523
vt 0.579474 0.635418
vt 0.585268 0.635523
vt 0.579474 0.635418
vt 0.745062 0.619195
vt 0.693206 0.612886
vt 0.691420 0.604870
vt 0.691420 0.604870
vt 0.503065 0.605725
vt 0.579474 0.605725
vt 0.579474 0.635418
vt 0.585268 0.605725
vt 0.585268 0.635523
vt 0.593854 0.636975
vt 0.593854 0.605725
vt 0.503065 0.605725
vt 0.503065 0.632244
vt 0.579474 0.635418
vt 0.585268 0.635523
vt 0.585268 0.605725
vt 0.593854 0.636975
vt 0.593854 0.605725
vt 0.579474 0.605725
vt 0.593854 0.668225
vt 0.585268 0.665320
vt 0.579474 0.665112
vn -0.000000 1.000000 -0.000000
vn -0.000000 1.000000 -0.000000
vn -0.000000 1.000000 -0.000000
vn -1.000000 0.000000 0.000000
vn 0.261868 0.718382 -0.644478
vn 0.261868 0.718382 -0.644478
vn -1.000000 0.000000 0.000000
vn 0.000000 1.000000 0.000000
vn 0.000000 1.000000 0.000000
vn 0.000000 1.000000 0.000000
vn 0.000000 1.000000 0.000000
vn -0.000000 1.000000 -0.000000
vn 0.000000 1.000000 0.000000
vn 0.000000 1.000000 0.000000
vn -0.134810 0.140108 -0.980916
vn -0.134810 0.140108 -0.980916
vn 0.000000 0.000000 -1.000000
vn 0.000000 0.000000 -1.000000
vn 0.000000 1.000000 0.000000
vn 0.000000 1.000000 0.000000
vn 0.000000 1.000000 0.000000
vn 0.000000 1.000000 0.000000
vn 0.000000 1.000000 0.000000
vn 0.000000 1.000000 0.000000
vn 0.000000 1.000000 0.000000
vn 0.000000 1.000000 0.000000
vn 0.000000 0.000000 -1.000000
vn 0.000000 0.000000 -1.000000
vn 0.011574 0.574158 -0.818663
vn 0.011574 0.574158 -0.818663
vn -0.000000 1.000000 -0.000000
vn 0.000000 1.000000 0.000000
vn -0.000000 1.000000 -0.000000
vn 0.000000 1.000000 0.000000
vn 0.000000 1.000000 0.000000
vn 0.000000 1.000000 0.000000
vn -0.000000 1.000000 0.000000
vn -0.698308 -0.211333 -0.683889
vn -0.698308 -0.211333 -0.683889
vn -1.000000 0.000000 0.000000
vn 0.000000 1.000000 0.000000
vn 0.000000 1.000000 0.000000
vn 0.000000 1.000000 0.000000
vn 0.000000 1.000000 0.000000
vn 0.000000 1.000000 -0.000000
vn 0.000000 1.000000 -0.000000
vn 0.000000 1.000000 -0.000000
vn 0.000000 1.000000 0.000000
vn 0.000000 1.000000 -0.000000
vn 0.000000 1.000000 0.000000
vn 0.000000 1.000000 0.000000
vn 0.000000 1.000000 0.000000
vn 0.000000 1.000000 0.000000
vn 1.000000 0.000000 -0.000000
vn 0.756212 0.652233 0.052297
vn 0.756212 0.652233 0.052297
vn 1.000000 0.000000 -0.000000
vn 0.000000 1.000000 -0.000000
vn 0.000000 1.000000 -0.000000
vn -0.000000 1.000000 -0.000000
vn -0.000000 1.000000 -0.000000
vn 0.000000 1.000000 0.000000
vn 0.000000 1.000000 0.000000
vn 0.000000 1.000000 0.000000
vn 0.698308 0.211333 0.683889
vn 0.698308 0.211333 0.683889
vn -0.000000 0.000000 1.000000
vn -0.000000 1.000000 -0.000000
vn 0.000000 1.000000 0.000000
vn 0.000000 1.000000 0.000000
vn -0.000000 1.000000 -0.000000
vn -0.000000 0.000000 1.000000
vn -0.000000 0.000000 1.000000
vn 0.529409 0.803185 -0.273168
vn 0.529409 0.803185 -0.273168
vn -0.000000 1.000000 -0.000000
vn -0.000000 1.000000 -0.000000
vn 0.000000 1.000000 0.000000
vn 0.000000 1.000000 0.000000
vn 0.951337 0.283918 0.119783
vn 0.951337 0.283918 0.119783
vn 1.000000 0.000000 -0.000000
vn 1.000000 0.000000 -0.000000
vn 0.000000 1.000000 0.000000
vn 0.000000 1.000000 0.000000
vn 0.000000 1.000000 0.000000
vn 0.000000 1.000000 0.000000
vn 0.000000 1.000000 0.000000
vn 0.000000 1.000000 0.000000
vn -0.000000 1.000000 -0.000000
vn -0.000000 1.000000 -0.000000
vn 0.000000 1.000000 0.000000
s off
f 4/4/1 3/3/2 2/5/3
f 1/2/4 14/23/5 15/24/6 3/3/7
f 11/19/8 14/23/9 1/2/10 5/1/11
f 4/7/12 8/9/13 13/22/14
f 12/21/15 13/22/16 8/9/17 9/11/18
f 1/10/19 12/21/20 10/17/21 5/13/22
f 10/18/23 17/26/24 18/28/25 5/16/26
f 1/10/27 3/8/28 13/22/29 12/21/30
f 4/7/31 13/22/32 3/8/33
f 7/12/34 10/17/35 12/21/36 9/11/37
f 15/24/38 14/23/39 2/5/40
f 11/20/41 5/6/42 18/27/43
f 6/14/44 16/25/45 17/26/46 10/18/47
f 6/14/48 10/18/49 7/15/50
f 21/29/51 20/30/52 25/31/53
f 19/32/54 24/33/55 25/31/56 20/30/57
f 17/34/58 24/33/59 19/32/60 18/35/61
f 20/43/62 2/37/63 15/38/64
f 14/39/65 15/38/66 2/37/67
f 19/40/68 14/39/69 11/41/70 18/42/71
f 19/40/72 20/43/73 15/38/74 14/39/75
f 16/44/76 23/45/77 24/33/78 17/34/79
f 25/31/80 24/33/81 23/45/82 22/46/83
f 21/29/84 25/31/85 22/46/86
f 21/36/87 2/37/88 20/43/89
f 2/5/90 3/3/91 15/24/92
