# This file uses meters as units for non-parametric coordinates.

v 0.743769 0.050460 -0.553114
v 0.743769 0.188476 -0.691131
v 0.743769 1.328278 0.724705
v 0.743769 1.466295 0.586688
v 0.618474 1.328278 0.724705
v 0.618474 1.466295 0.586688
v 0.618474 0.050460 -0.553114
v 0.618474 0.188476 -0.691131
v -0.777162 0.000000 0.777161
v 0.777162 0.000000 0.777161
v -0.777162 1.554323 0.777161
v 0.777162 1.554323 0.777161
v -0.777162 1.554323 -0.777161
v 0.777162 1.554323 -0.777161
v -0.777162 0.000000 -0.777161
v 0.777162 0.000000 -0.777161
v -0.587277 0.182416 0.777161
v 0.587573 0.182416 0.777161
v 0.587573 1.371632 0.777161
v -0.587277 1.371632 0.777161
v -0.587277 1.371632 -0.777161
v 0.587573 1.371632 -0.777161
v 0.587573 0.182416 -0.777161
v -0.587277 0.182416 -0.777161
v -0.587277 0.182416 0.672907
v 0.587573 0.182416 0.672907
v 0.587573 1.371632 0.672907
v -0.587277 1.371632 0.672907
v -0.587277 1.371632 -0.672830
v 0.587573 1.371632 -0.672830
v 0.587573 0.182416 -0.672830
v -0.587277 0.182416 -0.672830
v 0.777162 0.182595 -0.600497
v 0.777162 0.182595 0.600420
v 0.777162 1.371715 -0.600497
v 0.777162 1.371715 0.600420
v -0.777162 0.182595 -0.600497
v -0.777162 0.182595 0.600420
v -0.777162 1.371715 0.600420
v -0.777162 1.371715 -0.600497
v 0.673364 0.182595 -0.600497
v 0.673364 0.182595 0.600420
v 0.673364 1.371715 -0.600497
v 0.673364 1.371715 0.600420
v -0.673259 0.182595 -0.600497
v -0.673259 0.182595 0.600420
v -0.673259 1.371715 0.600420
v -0.673259 1.371715 -0.600497
v -0.587898 1.554323 0.600551
v 0.587603 1.554323 0.600551
v 0.587603 1.554323 -0.600496
v -0.587898 1.554323 -0.600496
v -0.587898 0.000000 -0.600496
v 0.587603 0.000000 -0.600496
v 0.587603 0.000000 0.600551
v -0.587898 0.000000 0.600551
v -0.587898 1.460101 0.600551
v 0.587603 1.460101 0.600551
v 0.587603 1.460101 -0.600496
v -0.587898 1.460101 -0.600496
v -0.587898 0.094497 -0.600496
v 0.587603 0.094497 -0.600496
v 0.587603 0.094497 0.600551
v -0.587898 0.094497 0.600551
v -0.743769 0.050460 0.553114
v -0.743769 0.188476 0.691131
v -0.743769 1.328278 -0.724705
v -0.743769 1.466295 -0.586688
v -0.618474 1.328278 -0.724705
v -0.618474 1.466295 -0.586688
v -0.618474 0.050460 0.553114
v -0.618474 0.188476 0.691131
v -0.726701 0.224048 0.743770
v -0.588685 0.086031 0.743770
v 0.551118 1.501866 0.743770
v 0.689134 1.363850 0.743770
v 0.551118 1.501866 0.618474
v 0.689134 1.363850 0.618474
v -0.726701 0.224048 0.618474
v -0.588685 0.086031 0.618474
v 0.726701 0.224048 -0.743770
v 0.588685 0.086031 -0.743770
v -0.551118 1.501866 -0.743770
v -0.689134 1.363850 -0.743770
v -0.551118 1.501866 -0.618474
v -0.689134 1.363850 -0.618474
v 0.726701 0.224048 -0.618474
v 0.588685 0.086031 -0.618474
v -0.726701 1.520931 0.553114
v -0.588685 1.520931 0.691131
v 0.551118 1.520931 -0.724705
v 0.689134 1.520931 -0.586688
v 0.551118 1.395636 -0.724705
v 0.689134 1.395636 -0.586688
v -0.726701 1.395636 0.553114
v -0.588685 1.395636 0.691131
v 0.726701 0.033392 0.553114
v 0.588685 0.033392 0.691131
v -0.551118 0.033392 -0.724705
v -0.689134 0.033392 -0.586688
v -0.551118 0.158688 -0.724705
v -0.689134 0.158688 -0.586688
v 0.726701 0.158688 0.553114
v 0.588685 0.158688 0.691131
vt 0.184098 0.993150
vt 0.186920 0.949795
vt 0.184689 0.952026
vt 0.186329 0.995381
vt 0.188560 0.993150
vt 0.188560 0.995381
vt 0.181867 0.993150
vt 0.181867 0.995381
vt 0.186329 0.993150
vt 0.184689 0.949795
vt 0.186920 0.952026
vt 0.184098 0.995381
vt 0.200279 0.998674
vt 0.200279 0.929058
vt 0.212916 0.929058
vt 0.212916 0.998674
vt 0.200279 0.998674
vt 0.200279 0.929058
vt 0.212916 0.929057
vt 0.212916 0.998674
vt 0.200279 0.998674
vt 0.200279 0.929058
vt 0.212916 0.929058
vt 0.212916 0.998674
vt 0.200279 0.998674
vt 0.200279 0.929058
vt 0.212916 0.929057
vt 0.212916 0.998674
vt 0.200279 0.998674
vt 0.200279 0.929058
vt 0.212916 0.929058
vt 0.212916 0.998674
vt 0.200279 0.998674
vt 0.200279 0.929058
vt 0.212916 0.929058
vt 0.212916 0.998674
vt 0.184181 0.979127
vt 0.186049 0.979127
vt 0.185821 0.979238
vt 0.184409 0.979238
vt 0.186049 0.980073
vt 0.185821 0.979962
vt 0.184181 0.980073
vt 0.184409 0.979962
vt 0.186097 0.979127
vt 0.187966 0.979127
vt 0.187738 0.979238
vt 0.186326 0.979238
vt 0.187966 0.980073
vt 0.187738 0.979962
vt 0.186097 0.980073
vt 0.186326 0.979962
vt 0.179358 0.995854
vt 0.179358 0.993918
vt 0.179697 0.993918
vt 0.179697 0.995854
vt 0.186409 0.993918
vt 0.186409 0.995877
vt 0.186070 0.995877
vt 0.186070 0.993918
vt 0.181067 0.993918
vt 0.181067 0.995854
vt 0.180728 0.995854
vt 0.180728 0.993918
vt 0.185614 0.995877
vt 0.185614 0.993918
vt 0.185953 0.993918
vt 0.185953 0.995877
vt 0.180271 0.995854
vt 0.180271 0.993918
vt 0.180611 0.993918
vt 0.180611 0.995854
vt 0.185157 0.995877
vt 0.185157 0.993918
vt 0.185496 0.993918
vt 0.185496 0.995877
vt 0.180154 0.993918
vt 0.180154 0.995854
vt 0.179815 0.995854
vt 0.179815 0.993918
vt 0.185040 0.993918
vt 0.185040 0.995877
vt 0.184701 0.995877
vt 0.184701 0.993918
vt 0.180399 0.965964
vt 0.182267 0.965964
vt 0.182055 0.966076
vt 0.180612 0.966076
vt 0.182267 0.966911
vt 0.182055 0.966800
vt 0.180399 0.966911
vt 0.180612 0.966800
vt 0.187339 0.963408
vt 0.189207 0.963408
vt 0.188995 0.963519
vt 0.187551 0.963519
vt 0.189207 0.964355
vt 0.188995 0.964243
vt 0.187339 0.964355
vt 0.187551 0.964243
vt 0.189711 0.991901
vt 0.189711 0.993879
vt 0.189373 0.993879
vt 0.189373 0.991901
vt 0.183673 0.993918
vt 0.183673 0.995877
vt 0.183336 0.995877
vt 0.183336 0.993918
vt 0.194668 0.991901
vt 0.194668 0.993879
vt 0.194330 0.993879
vt 0.194330 0.991901
vt 0.184583 0.993918
vt 0.184583 0.995877
vt 0.184246 0.995877
vt 0.184246 0.993918
vt 0.189858 0.993879
vt 0.189858 0.991901
vt 0.190196 0.991901
vt 0.190196 0.993879
vt 0.183791 0.995877
vt 0.183791 0.993918
vt 0.184128 0.993918
vt 0.184128 0.995877
vt 0.194401 0.995896
vt 0.194401 0.993918
vt 0.194738 0.993918
vt 0.194738 0.995896
vt 0.182881 0.995877
vt 0.182881 0.993918
vt 0.183218 0.993918
vt 0.183218 0.995877
vt 0.186099 0.949792
vt 0.187967 0.949792
vt 0.187739 0.949899
vt 0.186326 0.949899
vt 0.187967 0.950738
vt 0.187739 0.950631
vt 0.186099 0.950738
vt 0.186326 0.950631
vt 0.185531 0.980088
vt 0.187399 0.980088
vt 0.187171 0.980195
vt 0.185758 0.980195
vt 0.187399 0.981034
vt 0.187171 0.980927
vt 0.185531 0.981034
vt 0.185758 0.980927
vt 0.182033 0.995855
vt 0.182033 0.993918
vt 0.182340 0.993918
vt 0.182340 0.995855
vt 0.180846 0.991901
vt 0.180846 0.993879
vt 0.180540 0.993879
vt 0.180540 0.991901
vt 0.182763 0.993918
vt 0.182763 0.995855
vt 0.182457 0.995855
vt 0.182457 0.993918
vt 0.179952 0.991901
vt 0.179952 0.993879
vt 0.179645 0.993879
vt 0.179645 0.991901
vt 0.181609 0.995855
vt 0.181609 0.993918
vt 0.181916 0.993918
vt 0.181916 0.995855
vt 0.184938 0.993879
vt 0.184938 0.991901
vt 0.185245 0.991901
vt 0.185245 0.993879
vt 0.181491 0.993918
vt 0.181491 0.995855
vt 0.181184 0.995855
vt 0.181184 0.993918
vt 0.180093 0.993879
vt 0.180093 0.991901
vt 0.180400 0.991901
vt 0.180400 0.993879
vt 0.184689 0.949795
vt 0.186920 0.949795
vt 0.186920 0.952026
vt 0.184689 0.952026
vt 0.186329 0.993150
vt 0.188560 0.993150
vt 0.188560 0.995381
vt 0.186329 0.995381
vt 0.181867 0.993150
vt 0.184098 0.993150
vt 0.184098 0.995381
vt 0.181867 0.995381
vt 0.184886 0.969699
vt 0.187117 0.969699
vt 0.187117 0.971930
vt 0.184886 0.971930
vt 0.186329 0.993150
vt 0.188560 0.993150
vt 0.188560 0.995381
vt 0.186329 0.995381
vt 0.181867 0.993150
vt 0.184098 0.993150
vt 0.184098 0.995381
vt 0.181867 0.995381
vt 0.184886 0.969699
vt 0.187117 0.969699
vt 0.187117 0.971930
vt 0.184886 0.971930
vt 0.186329 0.993150
vt 0.188560 0.993150
vt 0.188560 0.995381
vt 0.186329 0.995381
vt 0.181867 0.993150
vt 0.184098 0.993150
vt 0.184098 0.995381
vt 0.181867 0.995381
vt 0.184689 0.949795
vt 0.186920 0.949795
vt 0.186920 0.952026
vt 0.184689 0.952026
vt 0.186329 0.993150
vt 0.188560 0.993150
vt 0.188560 0.995381
vt 0.186329 0.995381
vt 0.181867 0.993150
vt 0.184098 0.993150
vt 0.184098 0.995381
vt 0.181867 0.995381
vt 0.184689 0.949795
vt 0.186920 0.949795
vt 0.186920 0.952026
vt 0.184689 0.952026
vt 0.186329 0.993150
vt 0.188560 0.993150
vt 0.188560 0.995381
vt 0.186329 0.995381
vt 0.181867 0.993150
vt 0.184098 0.993150
vt 0.184098 0.995381
vt 0.181867 0.995381
vn 1.000000 0.000000 0.000000
vn 1.000000 0.000000 0.000000
vn 1.000000 0.000000 0.000000
vn 1.000000 0.000000 0.000000
vn 0.000000 0.707107 -0.707107
vn 0.000000 0.707107 -0.707107
vn 0.000000 0.707107 -0.707107
vn 0.000000 0.707107 -0.707107
vn 0.000000 -0.707107 0.707107
vn 0.000000 -0.707107 0.707107
vn 0.000000 -0.707107 0.707107
vn 0.000000 -0.707107 0.707107
vn 0.000000 0.000000 1.000000
vn 0.000000 0.000000 1.000000
vn 0.000000 0.000000 1.000000
vn 0.000000 0.000000 1.000000
vn 0.000000 1.000000 0.000000
vn 0.000000 1.000000 0.000000
vn 0.000000 1.000000 0.000000
vn 0.000000 1.000000 0.000000
vn 0.000000 0.000000 -1.000000
vn 0.000000 0.000000 -1.000000
vn 0.000000 0.000000 -1.000000
vn 0.000000 0.000000 -1.000000
vn 0.000000 -1.000000 0.000000
vn 0.000000 -1.000000 0.000000
vn 0.000000 -1.000000 0.000000
vn 0.000000 -1.000000 0.000000
vn 1.000000 0.000000 0.000000
vn 1.000000 0.000000 0.000000
vn 1.000000 0.000000 0.000000
vn 1.000000 0.000000 0.000000
vn -1.000000 0.000000 0.000000
vn -1.000000 0.000000 0.000000
vn -1.000000 0.000000 0.000000
vn -1.000000 0.000000 0.000000
vn 0.000000 0.000000 1.000000
vn 0.000000 0.000000 1.000000
vn 0.000000 0.000000 1.000000
vn 0.000000 0.000000 1.000000
vn -0.000000 0.000000 1.000000
vn -0.000000 0.000000 1.000000
vn -0.000000 0.000000 1.000000
vn -0.000000 0.000000 1.000000
vn 0.000000 0.000000 1.000000
vn 0.000000 0.000000 1.000000
vn 0.000000 0.000000 1.000000
vn 0.000000 0.000000 1.000000
vn 0.000000 0.000000 1.000000
vn 0.000000 0.000000 1.000000
vn 0.000000 0.000000 1.000000
vn 0.000000 0.000000 1.000000
vn 0.000000 0.000000 -1.000000
vn 0.000000 0.000000 -1.000000
vn 0.000000 0.000000 -1.000000
vn 0.000000 0.000000 -1.000000
vn -0.000000 0.000000 -1.000000
vn -0.000000 0.000000 -1.000000
vn -0.000000 0.000000 -1.000000
vn -0.000000 0.000000 -1.000000
vn 0.000000 0.000000 -1.000000
vn 0.000000 0.000000 -1.000000
vn 0.000000 0.000000 -1.000000
vn 0.000000 0.000000 -1.000000
vn 0.000000 0.000000 -1.000000
vn 0.000000 0.000000 -1.000000
vn 0.000000 0.000000 -1.000000
vn 0.000000 0.000000 -1.000000
vn 0.000000 1.000000 0.000000
vn 0.000000 1.000000 0.000000
vn 0.000000 1.000000 0.000000
vn 0.000000 1.000000 0.000000
vn -1.000000 0.000000 0.000000
vn -1.000000 0.000000 0.000000
vn -1.000000 0.000000 0.000000
vn -1.000000 0.000000 0.000000
vn 0.000000 -1.000000 0.000000
vn 0.000000 -1.000000 0.000000
vn 0.000000 -1.000000 0.000000
vn 0.000000 -1.000000 0.000000
vn 1.000000 0.000000 0.000000
vn 1.000000 0.000000 0.000000
vn 1.000000 0.000000 0.000000
vn 1.000000 0.000000 0.000000
vn 0.000000 -1.000000 0.000000
vn 0.000000 -1.000000 0.000000
vn 0.000000 -1.000000 0.000000
vn 0.000000 -1.000000 0.000000
vn -1.000000 0.000000 0.000000
vn -1.000000 0.000000 0.000000
vn -1.000000 0.000000 0.000000
vn -1.000000 0.000000 0.000000
vn 0.000000 1.000000 0.000000
vn 0.000000 1.000000 0.000000
vn 0.000000 1.000000 0.000000
vn 0.000000 1.000000 0.000000
vn 1.000000 0.000000 0.000000
vn 1.000000 0.000000 0.000000
vn 1.000000 0.000000 0.000000
vn 1.000000 0.000000 0.000000
vn 1.000000 0.000000 0.000000
vn 1.000000 0.000000 0.000000
vn 1.000000 0.000000 0.000000
vn 1.000000 0.000000 0.000000
vn 1.000000 0.000000 0.000000
vn 1.000000 0.000000 0.000000
vn 1.000000 0.000000 0.000000
vn 1.000000 0.000000 0.000000
vn 1.000000 -0.000000 0.000000
vn 1.000000 -0.000000 0.000000
vn 1.000000 -0.000000 0.000000
vn 1.000000 -0.000000 0.000000
vn 1.000000 0.000000 0.000000
vn 1.000000 0.000000 0.000000
vn 1.000000 0.000000 0.000000
vn 1.000000 0.000000 0.000000
vn -1.000000 0.000000 0.000000
vn -1.000000 0.000000 0.000000
vn -1.000000 0.000000 0.000000
vn -1.000000 0.000000 0.000000
vn -1.000000 0.000000 0.000000
vn -1.000000 0.000000 0.000000
vn -1.000000 0.000000 0.000000
vn -1.000000 0.000000 0.000000
vn -1.000000 -0.000000 0.000000
vn -1.000000 -0.000000 0.000000
vn -1.000000 -0.000000 0.000000
vn -1.000000 -0.000000 0.000000
vn -1.000000 0.000000 0.000000
vn -1.000000 0.000000 0.000000
vn -1.000000 0.000000 0.000000
vn -1.000000 0.000000 0.000000
vn 0.000000 1.000000 0.000000
vn 0.000000 1.000000 0.000000
vn 0.000000 1.000000 0.000000
vn 0.000000 1.000000 0.000000
vn 0.000000 0.000000 1.000000
vn 0.000000 0.000000 1.000000
vn 0.000000 0.000000 1.000000
vn 0.000000 0.000000 1.000000
vn 0.000000 -1.000000 0.000000
vn 0.000000 -1.000000 0.000000
vn 0.000000 -1.000000 0.000000
vn 0.000000 -1.000000 0.000000
vn 0.000000 0.000000 -1.000000
vn 0.000000 0.000000 -1.000000
vn 0.000000 0.000000 -1.000000
vn 0.000000 0.000000 -1.000000
vn 0.000000 1.000000 0.000000
vn 0.000000 1.000000 0.000000
vn 0.000000 1.000000 0.000000
vn 0.000000 1.000000 0.000000
vn 0.000000 0.000000 -1.000000
vn 0.000000 0.000000 -1.000000
vn 0.000000 0.000000 -1.000000
vn 0.000000 0.000000 -1.000000
vn 0.000000 -1.000000 0.000000
vn 0.000000 -1.000000 0.000000
vn 0.000000 -1.000000 0.000000
vn 0.000000 -1.000000 0.000000
vn 0.000000 0.000000 1.000000
vn 0.000000 0.000000 1.000000
vn 0.000000 0.000000 1.000000
vn 0.000000 0.000000 1.000000
vn 0.000000 1.000000 0.000001
vn 0.000000 1.000000 0.000001
vn 0.000000 1.000000 0.000001
vn 0.000000 1.000000 0.000001
vn 0.000000 1.000000 0.000000
vn 0.000000 1.000000 0.000000
vn 0.000000 1.000000 0.000000
vn 0.000000 1.000000 0.000000
vn 0.000000 1.000000 -0.000001
vn 0.000000 1.000000 -0.000001
vn 0.000000 1.000000 -0.000001
vn 0.000000 1.000000 -0.000001
vn 0.000000 1.000000 0.000000
vn 0.000000 1.000000 0.000000
vn 0.000000 1.000000 0.000000
vn 0.000000 1.000000 0.000000
vn 0.000000 -1.000000 0.000000
vn 0.000000 -1.000000 0.000000
vn 0.000000 -1.000000 0.000000
vn 0.000000 -1.000000 0.000000
vn 0.000000 -1.000000 0.000000
vn 0.000000 -1.000000 0.000000
vn 0.000000 -1.000000 0.000000
vn 0.000000 -1.000000 0.000000
vn 0.000000 -1.000000 -0.000000
vn 0.000000 -1.000000 -0.000000
vn 0.000000 -1.000000 -0.000000
vn 0.000000 -1.000000 -0.000000
vn 0.000000 -1.000000 0.000000
vn 0.000000 -1.000000 0.000000
vn 0.000000 -1.000000 0.000000
vn 0.000000 -1.000000 0.000000
vn 0.000000 0.000000 -1.000000
vn 0.000000 0.000000 -1.000000
vn 0.000000 0.000000 -1.000000
vn 0.000000 0.000000 -1.000000
vn -1.000000 0.000000 0.000000
vn -1.000000 0.000000 0.000000
vn -1.000000 0.000000 0.000000
vn -1.000000 0.000000 0.000000
vn 0.000000 0.000000 1.000000
vn 0.000000 0.000000 1.000000
vn 0.000000 0.000000 1.000000
vn 0.000000 0.000000 1.000000
vn 1.000000 0.000000 0.000000
vn 1.000000 0.000000 0.000000
vn 1.000000 0.000000 0.000000
vn 1.000000 0.000000 0.000000
vn 0.000000 0.000000 1.000000
vn 0.000000 0.000000 1.000000
vn 0.000000 0.000000 1.000000
vn 0.000000 0.000000 1.000000
vn -1.000000 0.000000 0.000000
vn -1.000000 0.000000 0.000000
vn -1.000000 0.000000 0.000000
vn -1.000000 0.000000 0.000000
vn 0.000000 0.000000 -1.000000
vn 0.000000 0.000000 -1.000000
vn 0.000000 0.000000 -1.000000
vn 0.000000 0.000000 -1.000000
vn 1.000000 0.000000 0.000000
vn 1.000000 0.000000 0.000000
vn 1.000000 0.000000 0.000000
vn 1.000000 0.000000 0.000000
vn -1.000000 0.000000 0.000000
vn -1.000000 0.000000 0.000000
vn -1.000000 0.000000 0.000000
vn -1.000000 0.000000 0.000000
vn 0.000000 0.707107 0.707107
vn 0.000000 0.707107 0.707107
vn 0.000000 0.707107 0.707107
vn 0.000000 0.707107 0.707107
vn 0.000000 -0.707107 -0.707107
vn 0.000000 -0.707107 -0.707107
vn 0.000000 -0.707107 -0.707107
vn 0.000000 -0.707107 -0.707107
vn 0.000000 0.000000 1.000000
vn 0.000000 0.000000 1.000000
vn 0.000000 0.000000 1.000000
vn 0.000000 0.000000 1.000000
vn 0.707107 -0.707107 0.000000
vn 0.707107 -0.707107 0.000000
vn 0.707107 -0.707107 0.000000
vn 0.707107 -0.707107 0.000000
vn -0.707107 0.707107 0.000000
vn -0.707107 0.707107 0.000000
vn -0.707107 0.707107 0.000000
vn -0.707107 0.707107 0.000000
vn -0.000000 0.000000 -1.000000
vn -0.000000 0.000000 -1.000000
vn -0.000000 0.000000 -1.000000
vn -0.000000 0.000000 -1.000000
vn -0.707107 -0.707107 0.000000
vn -0.707107 -0.707107 0.000000
vn -0.707107 -0.707107 0.000000
vn -0.707107 -0.707107 0.000000
vn 0.707107 0.707107 0.000000
vn 0.707107 0.707107 0.000000
vn 0.707107 0.707107 0.000000
vn 0.707107 0.707107 0.000000
vn 0.000000 1.000000 -0.000000
vn 0.000000 1.000000 -0.000000
vn 0.000000 1.000000 -0.000000
vn 0.000000 1.000000 -0.000000
vn 0.707107 0.000000 0.707107
vn 0.707107 0.000000 0.707107
vn 0.707107 0.000000 0.707107
vn 0.707107 0.000000 0.707107
vn -0.707107 0.000000 -0.707107
vn -0.707107 0.000000 -0.707107
vn -0.707107 0.000000 -0.707107
vn -0.707107 0.000000 -0.707107
vn 0.000000 -1.000000 0.000000
vn 0.000000 -1.000000 0.000000
vn 0.000000 -1.000000 0.000000
vn 0.000000 -1.000000 0.000000
vn -0.707107 0.000000 0.707107
vn -0.707107 0.000000 0.707107
vn -0.707107 0.000000 0.707107
vn -0.707107 0.000000 0.707107
vn 0.707107 0.000000 -0.707107
vn 0.707107 0.000000 -0.707107
vn 0.707107 0.000000 -0.707107
vn 0.707107 0.000000 -0.707107
s off
f 1/10/1 2/2/2 4/11/3 3/3/4
f 2/9/5 8/5/6 6/6/7 4/4/8
f 7/7/9 1/1/10 3/12/11 5/8/12
f 25/13/13 26/14/14 27/15/15 28/16/16
f 57/17/17 58/18/18 59/19/19 60/20/20
f 29/21/21 30/22/22 31/23/23 32/24/24
f 61/25/25 62/26/26 63/27/27 64/28/28
f 42/29/29 41/30/30 43/31/31 44/32/32
f 45/33/33 46/34/34 47/35/35 48/36/36
f 9/37/37 10/38/38 18/39/39 17/40/40
f 10/38/41 12/41/42 19/42/43 18/39/44
f 12/41/45 11/43/46 20/44/47 19/42/48
f 11/43/49 9/37/50 17/40/51 20/44/52
f 13/45/53 14/46/54 22/47/55 21/48/56
f 14/46/57 16/49/58 23/50/59 22/47/60
f 16/49/61 15/51/62 24/52/63 23/50/64
f 15/51/65 13/45/66 21/48/67 24/52/68
f 17/53/69 18/54/70 26/55/71 25/56/72
f 18/57/73 19/58/74 27/59/75 26/60/76
f 19/61/77 20/62/78 28/63/79 27/64/80
f 20/65/81 17/66/82 25/67/83 28/68/84
f 21/69/85 22/70/86 30/71/87 29/72/88
f 22/73/89 23/74/90 31/75/91 30/76/92
f 23/77/93 24/78/94 32/79/95 31/80/96
f 24/81/97 21/82/98 29/83/99 32/84/100
f 10/85/101 16/86/102 33/87/103 34/88/104
f 16/86/105 14/89/106 35/90/107 33/87/108
f 14/89/109 12/91/110 36/92/111 35/90/112
f 12/91/113 10/85/114 34/88/115 36/92/116
f 15/93/117 9/94/118 38/95/119 37/96/120
f 9/94/121 11/97/122 39/98/123 38/95/124
f 11/97/125 13/99/126 40/100/127 39/98/128
f 13/99/129 15/93/130 37/96/131 40/100/132
f 34/101/133 33/102/134 41/103/135 42/104/136
f 33/105/137 35/106/138 43/107/139 41/108/140
f 35/109/141 36/110/142 44/111/143 43/112/144
f 36/113/145 34/114/146 42/115/147 44/116/148
f 37/117/149 38/118/150 46/119/151 45/120/152
f 38/121/153 39/122/154 47/123/155 46/124/156
f 39/125/157 40/126/158 48/127/159 47/128/160
f 40/129/161 37/130/162 45/131/163 48/132/164
f 11/133/165 12/134/166 50/135/167 49/136/168
f 12/134/169 14/137/170 51/138/171 50/135/172
f 14/137/173 13/139/174 52/140/175 51/138/176
f 13/139/177 11/133/178 49/136/179 52/140/180
f 15/141/181 16/142/182 54/143/183 53/144/184
f 16/142/185 10/145/186 55/146/187 54/143/188
f 10/145/189 9/147/190 56/148/191 55/146/192
f 9/147/193 15/141/194 53/144/195 56/148/196
f 49/149/197 50/150/198 58/151/199 57/152/200
f 50/153/201 51/154/202 59/155/203 58/156/204
f 51/157/205 52/158/206 60/159/207 59/160/208
f 52/161/209 49/162/210 57/163/211 60/164/212
f 53/165/213 54/166/214 62/167/215 61/168/216
f 54/169/217 55/170/218 63/171/219 62/172/220
f 55/173/221 56/174/222 64/175/223 63/176/224
f 56/177/225 53/178/226 61/179/227 64/180/228
f 65/181/229 66/182/230 68/183/231 67/184/232
f 66/185/233 72/186/234 70/187/235 68/188/236
f 71/189/237 65/190/238 67/191/239 69/192/240
f 73/193/241 74/194/242 76/195/243 75/196/244
f 74/197/245 80/198/246 78/199/247 76/200/248
f 79/201/249 73/202/250 75/203/251 77/204/252
f 81/205/253 82/206/254 84/207/255 83/208/256
f 82/209/257 88/210/258 86/211/259 84/212/260
f 87/213/261 81/214/262 83/215/263 85/216/264
f 89/217/265 90/218/266 92/219/267 91/220/268
f 90/221/269 96/222/270 94/223/271 92/224/272
f 95/225/273 89/226/274 91/227/275 93/228/276
f 97/229/277 98/230/278 100/231/279 99/232/280
f 98/233/281 104/234/282 102/235/283 100/236/284
f 103/237/285 97/238/286 99/239/287 101/240/288
