# This file uses meters as units for non-parametric coordinates.

v -9.347198 0.000000 9.347198
v 9.347198 0.000000 9.347198
v -9.347198 48.525360 9.347198
v 9.347198 48.525360 9.347198
v -9.347198 48.525360 -9.347198
v 9.347198 48.525360 -9.347198
v -9.347198 0.000000 -9.347198
v 9.347198 0.000000 -9.347198
v -2.657867 67.378075 2.657867
v 2.657867 67.378075 2.657867
v 2.657867 67.378075 -2.657867
v -2.657867 67.378075 -2.657867
v 6.002502 57.951721 6.002502
v -6.002502 57.951721 6.002502
v -6.002502 57.951721 -6.002502
v 6.002502 57.951721 -6.002502
vt 0.180576 0.031365
vt 0.180576 0.031365
vt 0.180576 0.031365
vt 0.180576 0.031365
vt 0.115456 0.031364
vt 0.115456 0.031364
vt 0.115456 0.031364
vt 0.115456 0.031364
vt 0.180576 0.031365
vt 0.180576 0.031365
vt 0.180576 0.031365
vt 0.180576 0.031365
vt 0.180576 0.031365
vt 0.180576 0.031365
vt 0.163234 0.031365
vt 0.163234 0.031365
vt 0.163234 0.031365
vt 0.163234 0.031365
vt 0.163234 0.031365
vt 0.163234 0.031365
vt 0.163234 0.031365
vt 0.163234 0.031365
vt 0.180576 0.031365
vt 0.180576 0.031365
vt 0.163234 0.031365
vt 0.163234 0.031365
vt 0.163234 0.031365
vt 0.163234 0.031365
vt 0.180576 0.031365
vt 0.180576 0.031365
vt 0.163234 0.031365
vt 0.163234 0.031365
vt 0.163234 0.031365
vt 0.163234 0.031365
vt 0.115456 0.031364
vt 0.115456 0.031364
vt 0.098114 0.031364
vt 0.098114 0.031364
vt 0.098114 0.031364
vt 0.098114 0.031364
vt 0.115456 0.031364
vt 0.115456 0.031364
vt 0.098113 0.031364
vt 0.098113 0.031364
vt 0.098114 0.031364
vt 0.098114 0.031364
vn 0.000000 0.000000 1.000000
vn 0.000000 0.000000 1.000000
vn 0.000000 0.000000 1.000000
vn 0.000000 0.000000 1.000000
vn 0.000000 1.000000 0.000000
vn 0.000000 1.000000 0.000000
vn 0.000000 1.000000 0.000000
vn 0.000000 1.000000 0.000000
vn 0.000000 0.000000 -1.000000
vn 0.000000 0.000000 -1.000000
vn 0.000000 0.000000 -1.000000
vn 0.000000 0.000000 -1.000000
vn 0.000000 -1.000000 0.000000
vn 0.000000 -1.000000 0.000000
vn 0.000000 -1.000000 0.000000
vn 0.000000 -1.000000 0.000000
vn 1.000000 0.000000 0.000000
vn 1.000000 0.000000 0.000000
vn 1.000000 0.000000 0.000000
vn 1.000000 0.000000 0.000000
vn -1.000000 0.000000 0.000000
vn -1.000000 0.000000 0.000000
vn -1.000000 0.000000 0.000000
vn -1.000000 0.000000 0.000000
vn 0.000000 0.334397 0.942432
vn 0.000000 0.334397 0.942432
vn 0.000000 0.334396 0.942433
vn 0.000000 0.334396 0.942433
vn 0.942432 0.334397 0.000000
vn 0.942432 0.334397 0.000000
vn 0.942433 0.334396 0.000000
vn 0.942433 0.334396 0.000000
vn 0.000000 0.334397 -0.942432
vn 0.000000 0.334397 -0.942432
vn 0.000000 0.334396 -0.942433
vn 0.000000 0.334396 -0.942433
vn -0.942432 0.334397 0.000000
vn -0.942432 0.334397 0.000000
vn -0.942433 0.334396 0.000000
vn -0.942433 0.334396 0.000000
vn 0.000000 0.334396 0.942433
vn 0.000000 0.334396 0.942433
vn 0.000000 0.334392 0.942434
vn 0.000000 0.334392 0.942434
vn -0.942433 0.334396 0.000000
vn -0.942433 0.334396 0.000000
vn -0.942434 0.334392 0.000000
vn -0.942434 0.334392 0.000000
vn 0.000000 0.334396 -0.942433
vn 0.000000 0.334396 -0.942433
vn 0.000000 0.334392 -0.942434
vn 0.000000 0.334392 -0.942434
vn 0.942433 0.334396 0.000000
vn 0.942433 0.334396 0.000000
vn 0.942434 0.334392 0.000000
vn 0.942434 0.334392 0.000000
s off
f 1/1/1 2/2/2 4/3/3 3/4/4
f 9/5/5 10/6/6 11/7/7 12/8/8
f 5/9/9 6/10/10 8/11/11 7/12/12
f 7/12/13 8/11/14 2/13/15 1/14/16
f 2/15/17 8/16/18 6/17/19 4/18/20
f 7/19/21 1/20/22 3/21/23 5/22/24
f 3/4/25 4/3/26 13/23/27 14/24/28
f 4/25/29 6/26/30 16/27/31 13/28/32
f 6/10/33 5/9/34 15/29/35 16/30/36
f 5/31/37 3/32/38 14/33/39 15/34/40
f 14/35/41 13/36/42 10/6/43 9/5/44
f 15/37/45 14/38/46 9/39/47 12/40/48
f 16/41/49 15/42/50 12/8/51 11/7/52
f 13/43/53 16/44/54 11/45/55 10/46/56
