# This file uses meters as units for non-parametric coordinates.

v 0.690876 2.076573 1.030300
v 0.690876 2.076573 1.509106
v 0.690876 3.003115 1.030300
v 0.690876 3.003115 1.509106
v 0.614361 3.003115 1.030300
v 0.614361 3.003115 1.509106
v 0.614361 2.076573 1.030300
v 0.614361 2.076573 1.509106
v 0.690876 2.539844 0.753113
v 0.614361 2.539844 0.753113
v 0.614361 2.539844 1.509106
v 0.690876 2.539844 1.509106
v 0.712788 2.468976 -1.964298
v 0.785746 2.396017 1.576389
v 0.712788 2.586516 -1.964298
v 0.785746 2.659474 1.576389
v 0.595247 2.586516 -1.964298
v 0.522289 2.659474 1.576389
v 0.595247 2.468976 -1.964298
v 0.522289 2.396017 1.576389
v 0.785746 2.659474 -1.378660
v 0.522289 2.659474 -1.378660
v 0.522289 2.396017 -1.378660
v 0.785746 2.396017 -1.378660
v 0.189346 2.483283 1.030300
v 0.189346 2.483283 1.509106
v 1.115891 2.483283 1.030300
v 1.115891 2.483283 1.509106
v 1.115891 2.559800 1.030300
v 1.115891 2.559800 1.509106
v 0.189346 2.559800 1.030300
v 0.189346 2.559800 1.509106
v 0.652618 2.559800 0.753113
v 0.652618 2.483283 0.753113
v 0.652618 2.483283 1.509106
v 0.652618 2.559800 1.509106
v 0.625126 2.206916 -0.978176
v 0.625126 2.206916 -0.694321
v 0.625126 2.872772 -0.978176
v 0.625126 2.872772 -0.694321
v 0.680115 2.872772 -0.978176
v 0.680115 2.872772 -0.694321
v 0.680115 2.206916 -0.978176
v 0.680115 2.206916 -0.694321
v 0.625126 2.539844 -1.142504
v 0.680115 2.539844 -1.142504
v 0.680115 2.539844 -0.694321
v 0.625126 2.539844 -0.694321
v 0.985546 2.499196 -0.978176
v 0.985546 2.499196 -0.694321
v 0.319691 2.499196 -0.978176
v 0.319691 2.499196 -0.694321
v 0.319691 2.554185 -0.978176
v 0.319691 2.554185 -0.694321
v 0.985546 2.554185 -0.978176
v 0.985546 2.554185 -0.694321
v 0.652618 2.554185 -1.142504
v 0.652618 2.499196 -1.142504
v 0.652618 2.499196 -0.694321
v 0.652618 2.554185 -0.694321
vt 0.199542 0.548398
vt 0.199377 0.548222
vt 0.199377 0.548703
vt 0.199542 0.548703
vt 0.210419 0.548194
vt 0.210382 0.548194
vt 0.210382 0.548498
vt 0.210419 0.548498
vt 0.198854 0.548222
vt 0.198689 0.548398
vt 0.198689 0.548703
vt 0.198854 0.548703
vt 0.185407 0.548604
vt 0.185370 0.548604
vt 0.185370 0.548909
vt 0.185407 0.548909
vt 0.187086 0.552349
vt 0.187086 0.552123
vt 0.187048 0.552123
vt 0.187048 0.552349
vt 0.189045 0.552389
vt 0.189045 0.552213
vt 0.189008 0.552213
vt 0.189008 0.552389
vt 0.189725 0.551466
vt 0.189725 0.551642
vt 0.189762 0.551642
vt 0.189762 0.551466
vt 0.199019 0.548398
vt 0.199019 0.548703
vt 0.187086 0.551896
vt 0.187048 0.551896
vt 0.199212 0.548398
vt 0.199212 0.548703
vt 0.160851 0.550783
vt 0.160776 0.550783
vt 0.160730 0.551155
vt 0.160897 0.551155
vt 0.171180 0.548508
vt 0.171105 0.548508
vt 0.171059 0.548880
vt 0.171226 0.548880
vt 0.160066 0.550783
vt 0.159992 0.550783
vt 0.159945 0.551155
vt 0.160113 0.551155
vt 0.147670 0.548094
vt 0.147595 0.548094
vt 0.147549 0.548466
vt 0.147716 0.548466
vt 0.149155 0.571196
vt 0.149155 0.559528
vt 0.137451 0.559528
vt 0.137451 0.571196
vt 0.161052 0.547424
vt 0.161052 0.547350
vt 0.160977 0.547350
vt 0.160977 0.547424
vt 0.211569 0.550409
vt 0.211737 0.550409
vt 0.211737 0.549154
vt 0.211569 0.549154
vt 0.200157 0.550613
vt 0.200279 0.550613
vt 0.200279 0.549358
vt 0.200157 0.549358
vt 0.188582 0.550073
vt 0.188749 0.550073
vt 0.188749 0.548818
vt 0.188582 0.548818
vt 0.200729 0.550613
vt 0.200851 0.550613
vt 0.200851 0.549358
vt 0.200729 0.549358
vt 0.185032 0.548428
vt 0.184805 0.548604
vt 0.184805 0.548909
vt 0.185032 0.548909
vt 0.198082 0.549535
vt 0.198054 0.549535
vt 0.198054 0.549839
vt 0.198082 0.549839
vt 0.208835 0.549331
vt 0.208609 0.549155
vt 0.208609 0.549635
vt 0.208835 0.549635
vt 0.197558 0.549535
vt 0.197531 0.549535
vt 0.197531 0.549839
vt 0.197558 0.549839
vt 0.186936 0.552123
vt 0.186936 0.551896
vt 0.186899 0.551896
vt 0.186899 0.552123
vt 0.188910 0.546812
vt 0.188910 0.546988
vt 0.188948 0.546988
vt 0.188948 0.546812
vt 0.188230 0.546988
vt 0.188230 0.546812
vt 0.188193 0.546812
vt 0.188193 0.546988
vt 0.185258 0.548604
vt 0.185258 0.548909
vt 0.186936 0.552349
vt 0.186899 0.552349
vt 0.208382 0.549331
vt 0.208382 0.549635
vt 0.199542 0.548398
vt 0.199542 0.548703
vt 0.199377 0.548703
vt 0.199377 0.548222
vt 0.210419 0.548194
vt 0.210419 0.548498
vt 0.210382 0.548498
vt 0.210382 0.548194
vt 0.198854 0.548222
vt 0.198854 0.548703
vt 0.198689 0.548703
vt 0.198689 0.548398
vt 0.185407 0.548604
vt 0.185407 0.548909
vt 0.185370 0.548909
vt 0.185370 0.548604
vt 0.187086 0.552349
vt 0.187048 0.552349
vt 0.187048 0.552123
vt 0.187086 0.552123
vt 0.189045 0.552389
vt 0.189008 0.552389
vt 0.189008 0.552213
vt 0.189045 0.552213
vt 0.189725 0.551466
vt 0.189762 0.551466
vt 0.189762 0.551642
vt 0.189725 0.551642
vt 0.199019 0.548398
vt 0.199019 0.548703
vt 0.187048 0.551896
vt 0.187086 0.551896
vt 0.199212 0.548703
vt 0.199212 0.548398
vt 0.185032 0.548428
vt 0.185032 0.548909
vt 0.184805 0.548909
vt 0.184805 0.548604
vt 0.198082 0.549535
vt 0.198082 0.549839
vt 0.198054 0.549839
vt 0.198054 0.549535
vt 0.208835 0.549331
vt 0.208835 0.549635
vt 0.208609 0.549635
vt 0.208609 0.549155
vt 0.197558 0.549535
vt 0.197558 0.549839
vt 0.197531 0.549839
vt 0.197531 0.549535
vt 0.186936 0.552123
vt 0.186899 0.552123
vt 0.186899 0.551896
vt 0.186936 0.551896
vt 0.188910 0.546812
vt 0.188948 0.546812
vt 0.188948 0.546988
vt 0.188910 0.546988
vt 0.188230 0.546988
vt 0.188193 0.546988
vt 0.188193 0.546812
vt 0.188230 0.546812
vt 0.185258 0.548604
vt 0.185258 0.548909
vt 0.186936 0.552349
vt 0.186899 0.552349
vt 0.208382 0.549635
vt 0.208382 0.549331
vn 1.000000 0.000000 0.000000
vn 1.000000 0.000000 0.000000
vn 1.000000 0.000000 0.000000
vn 1.000000 0.000000 0.000000
vn 0.000000 1.000000 0.000000
vn 0.000000 1.000000 0.000000
vn 0.000000 1.000000 0.000000
vn 0.000000 1.000000 0.000000
vn -1.000000 0.000000 0.000000
vn -1.000000 0.000000 0.000000
vn -1.000000 0.000000 0.000000
vn -1.000000 0.000000 0.000000
vn 0.000000 -1.000000 0.000000
vn 0.000000 -1.000000 0.000000
vn 0.000000 -1.000000 0.000000
vn 0.000000 -1.000000 0.000000
vn 0.000000 0.000000 1.000000
vn 0.000000 0.000000 1.000000
vn 0.000000 0.000000 1.000000
vn 0.000000 0.000000 1.000000
vn 0.000000 -0.513439 -0.858126
vn 0.000000 -0.513439 -0.858126
vn 0.000000 -0.513439 -0.858126
vn 0.000000 -0.513439 -0.858126
vn 0.000000 0.513440 -0.858126
vn 0.000000 0.513440 -0.858126
vn 0.000000 0.513440 -0.858126
vn 0.000000 0.513440 -0.858126
vn -1.000000 0.000000 0.000000
vn -1.000000 0.000000 0.000000
vn -1.000000 0.000000 0.000000
vn -1.000000 0.000000 0.000000
vn 0.000000 0.000000 1.000000
vn 0.000000 0.000000 1.000000
vn 0.000000 0.000000 1.000000
vn 0.000000 0.000000 1.000000
vn 1.000000 -0.000000 0.000000
vn 1.000000 -0.000000 0.000000
vn 1.000000 -0.000000 0.000000
vn 1.000000 -0.000000 0.000000
vn 0.992329 0.000000 -0.123623
vn 0.992329 0.000000 -0.123623
vn 0.992329 0.000000 -0.123623
vn 0.992329 0.000000 -0.123623
vn 0.000000 0.992329 -0.123624
vn 0.000000 0.992329 -0.123624
vn 0.000000 0.992329 -0.123624
vn 0.000000 0.992329 -0.123624
vn -0.992329 0.000000 -0.123623
vn -0.992329 0.000000 -0.123623
vn -0.992329 0.000000 -0.123623
vn -0.992329 0.000000 -0.123623
vn 0.000000 -0.992329 -0.123624
vn 0.000000 -0.992329 -0.123624
vn 0.000000 -0.992329 -0.123624
vn 0.000000 -0.992329 -0.123624
vn 0.000000 0.000000 1.000000
vn 0.000000 0.000000 1.000000
vn 0.000000 0.000000 1.000000
vn 0.000000 0.000000 1.000000
vn 0.000000 0.000000 -1.000000
vn 0.000000 0.000000 -1.000000
vn 0.000000 0.000000 -1.000000
vn 0.000000 0.000000 -1.000000
vn 0.000000 1.000000 0.000000
vn 0.000000 1.000000 0.000000
vn 0.000000 1.000000 0.000000
vn 0.000000 1.000000 0.000000
vn -1.000000 0.000000 0.000000
vn -1.000000 0.000000 0.000000
vn -1.000000 0.000000 0.000000
vn -1.000000 0.000000 0.000000
vn 0.000000 -1.000000 0.000000
vn 0.000000 -1.000000 0.000000
vn 0.000000 -1.000000 0.000000
vn 0.000000 -1.000000 0.000000
vn 1.000000 0.000000 0.000000
vn 1.000000 0.000000 0.000000
vn 1.000000 0.000000 0.000000
vn 1.000000 0.000000 0.000000
vn 0.000000 -1.000000 0.000000
vn 0.000000 -1.000000 0.000000
vn 0.000000 -1.000000 0.000000
vn 0.000000 -1.000000 0.000000
vn 1.000000 0.000000 0.000000
vn 1.000000 0.000000 0.000000
vn 1.000000 0.000000 0.000000
vn 1.000000 0.000000 0.000000
vn 0.000000 1.000000 0.000000
vn 0.000000 1.000000 0.000000
vn 0.000000 1.000000 0.000000
vn 0.000000 1.000000 0.000000
vn -1.000000 0.000000 0.000000
vn -1.000000 0.000000 0.000000
vn -1.000000 0.000000 0.000000
vn -1.000000 0.000000 0.000000
vn 0.000000 0.000000 1.000000
vn 0.000000 0.000000 1.000000
vn 0.000000 0.000000 1.000000
vn 0.000000 0.000000 1.000000
vn 0.513439 0.000000 -0.858126
vn 0.513439 0.000000 -0.858126
vn 0.513439 0.000000 -0.858126
vn 0.513439 0.000000 -0.858126
vn -0.513439 0.000000 -0.858126
vn -0.513439 0.000000 -0.858126
vn -0.513439 0.000000 -0.858126
vn -0.513439 0.000000 -0.858126
vn 0.000000 -1.000000 0.000000
vn 0.000000 -1.000000 0.000000
vn 0.000000 -1.000000 0.000000
vn 0.000000 -1.000000 0.000000
vn 0.000000 0.000000 1.000000
vn 0.000000 0.000000 1.000000
vn 0.000000 0.000000 1.000000
vn 0.000000 0.000000 1.000000
vn 0.000000 1.000000 0.000000
vn 0.000000 1.000000 0.000000
vn 0.000000 1.000000 0.000000
vn 0.000000 1.000000 0.000000
vn -1.000000 0.000000 0.000000
vn -1.000000 0.000000 0.000000
vn -1.000000 0.000000 0.000000
vn -1.000000 0.000000 0.000000
vn 0.000000 1.000000 0.000000
vn 0.000000 1.000000 0.000000
vn 0.000000 1.000000 0.000000
vn 0.000000 1.000000 0.000000
vn 1.000000 -0.000000 0.000000
vn 1.000000 -0.000000 0.000000
vn 1.000000 -0.000000 0.000000
vn 1.000000 -0.000000 0.000000
vn 0.000000 -1.000000 0.000000
vn 0.000000 -1.000000 0.000000
vn 0.000000 -1.000000 0.000000
vn 0.000000 -1.000000 0.000000
vn 0.000000 0.000000 1.000000
vn 0.000000 0.000000 1.000000
vn 0.000000 0.000000 1.000000
vn 0.000000 0.000000 1.000000
vn 0.000000 -0.442604 -0.896717
vn 0.000000 -0.442604 -0.896717
vn 0.000000 -0.442604 -0.896717
vn 0.000000 -0.442604 -0.896717
vn 0.000000 0.442605 -0.896717
vn 0.000000 0.442605 -0.896717
vn 0.000000 0.442605 -0.896717
vn 0.000000 0.442605 -0.896717
vn 1.000000 0.000000 0.000000
vn 1.000000 0.000000 0.000000
vn 1.000000 0.000000 0.000000
vn 1.000000 0.000000 0.000000
vn 0.000000 0.000000 1.000000
vn 0.000000 0.000000 1.000000
vn 0.000000 0.000000 1.000000
vn 0.000000 0.000000 1.000000
vn -1.000000 0.000000 0.000000
vn -1.000000 0.000000 0.000000
vn -1.000000 0.000000 0.000000
vn -1.000000 0.000000 0.000000
vn 0.000000 -1.000000 0.000000
vn 0.000000 -1.000000 0.000000
vn 0.000000 -1.000000 0.000000
vn 0.000000 -1.000000 0.000000
vn -1.000000 0.000000 0.000000
vn -1.000000 0.000000 0.000000
vn -1.000000 0.000000 0.000000
vn -1.000000 0.000000 0.000000
vn 0.000000 1.000000 0.000000
vn 0.000000 1.000000 0.000000
vn 0.000000 1.000000 0.000000
vn 0.000000 1.000000 0.000000
vn 1.000000 0.000000 0.000000
vn 1.000000 0.000000 0.000000
vn 1.000000 0.000000 0.000000
vn 1.000000 0.000000 0.000000
vn 0.000000 0.000000 1.000000
vn 0.000000 0.000000 1.000000
vn 0.000000 0.000000 1.000000
vn 0.000000 0.000000 1.000000
vn -0.442604 0.000000 -0.896717
vn -0.442604 0.000000 -0.896717
vn -0.442604 0.000000 -0.896717
vn -0.442604 0.000000 -0.896717
vn 0.442604 0.000000 -0.896717
vn 0.442604 0.000000 -0.896717
vn 0.442604 0.000000 -0.896717
vn 0.442604 0.000000 -0.896717
vn 0.000000 -1.000000 0.000000
vn 0.000000 -1.000000 0.000000
vn 0.000000 -1.000000 0.000000
vn 0.000000 -1.000000 0.000000
vn 0.000000 0.000000 1.000000
vn 0.000000 0.000000 1.000000
vn 0.000000 0.000000 1.000000
vn 0.000000 0.000000 1.000000
vn 0.000000 1.000000 0.000000
vn 0.000000 1.000000 0.000000
vn 0.000000 1.000000 0.000000
vn 0.000000 1.000000 0.000000
s off
f 1/1/1 9/2/2 12/3/3 2/4/4
f 3/5/5 5/6/6 6/7/7 4/8/8
f 10/9/9 7/10/10 8/11/11 11/12/12
f 7/13/13 1/14/14 2/15/15 8/16/16
f 2/17/17 12/18/18 11/19/19 8/20/20
f 7/21/21 10/22/22 9/23/23 1/24/24
f 10/25/25 5/26/26 3/27/27 9/28/28
f 5/29/29 10/9/30 11/12/31 6/30/32
f 12/18/33 4/31/34 6/32/35 11/19/36
f 9/2/37 3/33/38 4/34/39 12/3/40
f 13/35/41 15/36/42 21/37/43 24/38/44
f 15/39/45 17/40/46 22/41/47 21/42/48
f 17/43/49 19/44/50 23/45/51 22/46/52
f 19/47/53 13/48/54 24/49/55 23/50/56
f 14/51/57 16/52/58 18/53/59 20/54/60
f 19/55/61 17/56/62 15/57/63 13/58/64
f 18/59/65 16/60/66 21/61/67 22/62/68
f 20/63/69 18/64/70 22/65/71 23/66/72
f 14/67/73 20/68/74 23/69/75 24/70/76
f 16/71/77 14/72/78 24/73/79 21/74/80
f 34/75/81 27/76/82 28/77/83 35/78/84
f 27/79/85 29/80/86 30/81/87 28/82/88
f 29/83/89 33/84/90 36/85/91 30/86/92
f 31/87/93 25/88/94 26/89/95 32/90/96
f 35/91/97 28/92/98 30/93/99 36/94/100
f 33/95/101 29/96/102 27/97/103 34/98/104
f 31/99/105 33/100/106 34/101/107 25/102/108
f 25/103/109 34/75/110 35/78/111 26/104/112
f 26/105/113 35/91/114 36/94/115 32/106/116
f 33/84/117 31/107/118 32/108/119 36/85/120
f 37/109/121 38/110/122 48/111/123 45/112/124
f 39/113/125 40/114/126 42/115/127 41/116/128
f 46/117/129 47/118/130 44/119/131 43/120/132
f 43/121/133 44/122/134 38/123/135 37/124/136
f 38/125/137 44/126/138 47/127/139 48/128/140
f 43/129/141 37/130/142 45/131/143 46/132/144
f 46/133/145 45/134/146 39/135/147 41/136/148
f 41/137/149 42/138/150 47/118/151 46/117/152
f 48/128/153 47/127/154 42/139/155 40/140/156
f 45/112/157 48/111/158 40/141/159 39/142/160
f 58/143/161 59/144/162 52/145/163 51/146/164
f 51/147/165 52/148/166 54/149/167 53/150/168
f 53/151/169 54/152/170 60/153/171 57/154/172
f 55/155/173 56/156/174 50/157/175 49/158/176
f 59/159/177 60/160/178 54/161/179 52/162/180
f 57/163/181 58/164/182 51/165/183 53/166/184
f 55/167/185 49/168/186 58/169/187 57/170/188
f 49/171/189 50/172/190 59/144/191 58/143/192
f 50/173/193 56/174/194 60/160/195 59/159/196
f 57/154/197 60/153/198 56/175/199 55/176/200
