# This file uses meters as units for non-parametric coordinates.

v -0.955626 -0.000000 0.955625
v 0.955626 -0.000000 0.955625
v -0.955626 1.911251 0.955625
v 0.955626 1.911251 0.955625
v -0.955626 1.911251 -0.955625
v 0.955626 1.911251 -0.955625
v -0.955626 -0.000000 -0.955625
v 0.955626 -0.000000 -0.955625
v -0.828361 1.911251 0.828361
v 0.828362 1.911251 0.828361
v 0.828362 1.911251 -0.828362
v -0.828361 1.911251 -0.828362
v -0.828361 1.750673 0.828361
v 0.828362 1.750673 0.828361
v 0.828362 1.750673 -0.828362
v -0.828361 1.750673 -0.828362
vt 0.134177 0.533275
vt 0.249416 0.533275
vt 0.126143 0.671172
vt 0.007842 0.671700
vt 0.002351 0.533275
vt 0.103635 0.730640
vt 0.110734 0.737739
vt 0.103635 0.737739
vt 0.134177 0.533275
vt 0.134177 0.648514
vt 0.249416 0.533275
vt 0.249416 0.648514
vt 0.097045 0.711879
vt 0.097045 0.711879
vt 0.097045 0.723845
vt 0.007842 0.741265
vt 0.109011 0.723845
vt 0.077927 0.741265
vt 0.097045 0.723845
vt 0.109011 0.711879
vt 0.077927 0.671700
vt 0.109011 0.723845
vt 0.109011 0.711879
vt 0.126143 0.671172
vt 0.126143 0.733672
vt 0.138109 0.733672
vt 0.117590 0.648514
vt 0.126143 0.733672
vt 0.138109 0.671172
vt 0.002351 0.648514
vt 0.138109 0.733672
vt 0.249416 0.648514
vt 0.138109 0.671172
vt 0.134177 0.648514
vt 0.110734 0.730640
vt 0.117590 0.533275
vt 0.117590 0.533275
vt 0.002351 0.533275
vt 0.002351 0.648514
vt 0.117590 0.648514
vn 0.000000 0.000000 1.000000
vn 0.000000 0.000000 1.000000
vn 0.000000 0.000000 1.000000
vn 0.000000 0.000000 1.000000
vn 0.000000 1.000000 0.000000
vn 0.000000 1.000000 0.000000
vn 0.000000 1.000000 0.000000
vn 0.000000 1.000000 0.000000
vn 0.000000 0.000000 -1.000000
vn 0.000000 0.000000 -1.000000
vn 0.000000 0.000000 -1.000000
vn 0.000000 0.000000 -1.000000
vn 0.000000 -1.000000 0.000000
vn 0.000000 -1.000000 0.000000
vn 0.000000 -1.000000 0.000000
vn 0.000000 -1.000000 0.000000
vn 1.000000 0.000000 0.000000
vn 1.000000 0.000000 0.000000
vn 1.000000 0.000000 0.000000
vn 1.000000 0.000000 0.000000
vn -1.000000 0.000000 0.000000
vn -1.000000 0.000000 0.000000
vn -1.000000 0.000000 0.000000
vn -1.000000 0.000000 0.000000
vn 0.000000 1.000000 -0.000000
vn 0.000000 1.000000 -0.000000
vn 0.000000 1.000000 -0.000000
vn 0.000000 1.000000 -0.000000
vn 0.000000 1.000000 0.000000
vn 0.000000 1.000000 0.000000
vn 0.000000 1.000000 0.000000
vn 0.000000 1.000000 0.000000
vn 0.000000 1.000000 -0.000000
vn 0.000000 1.000000 -0.000000
vn 0.000000 1.000000 -0.000000
vn 0.000000 1.000000 -0.000000
vn 0.000000 1.000000 0.000000
vn 0.000000 1.000000 0.000000
vn 0.000000 1.000000 0.000000
vn 0.000000 1.000000 0.000000
vn 0.000000 0.000000 -1.000000
vn 0.000000 0.000000 -1.000000
vn 0.000000 0.000000 -1.000000
vn 0.000000 0.000000 -1.000000
vn -1.000000 0.000000 0.000000
vn -1.000000 0.000000 0.000000
vn -1.000000 0.000000 0.000000
vn -1.000000 0.000000 0.000000
vn 0.000000 0.000000 1.000000
vn 0.000000 0.000000 1.000000
vn 0.000000 0.000000 1.000000
vn 0.000000 0.000000 1.000000
vn 1.000000 0.000000 0.000000
vn 1.000000 0.000000 0.000000
vn 1.000000 0.000000 0.000000
vn 1.000000 0.000000 0.000000
s off
f 1/37/1 2/38/2 4/39/3 3/40/4
f 13/4/5 14/21/6 15/18/7 16/16/8
f 5/27/9 6/30/10 8/5/11 7/36/12
f 7/6/13 8/35/14 2/7/15 1/8/16
f 2/2/17 8/9/18 6/10/19 4/32/20
f 7/11/21 1/1/22 3/34/23 5/12/24
f 3/3/25 4/33/26 10/29/27 9/24/28
f 4/33/29 6/31/30 11/26/31 10/29/32
f 6/31/33 5/28/34 12/25/35 11/26/36
f 5/28/37 3/3/38 9/24/39 12/25/40
f 9/13/41 10/23/42 14/20/43 13/14/44
f 10/23/45 11/22/46 15/17/47 14/20/48
f 11/22/49 12/19/50 16/15/51 15/17/52
f 12/19/53 9/13/54 13/14/55 16/15/56
