# This file uses meters as units for non-parametric coordinates.

v 4.900465 42.272446 -4.170944
v 23.594818 42.272446 -4.170944
v 4.900465 90.797806 -4.170944
v 23.594818 90.797806 -4.170944
v 4.900465 90.797806 -22.865318
v 23.594818 90.797806 -22.865318
v 4.900465 42.272446 -22.865318
v 23.594818 42.272446 -22.865318
v 11.589771 109.650528 -10.860245
v 16.905512 109.650528 -10.860245
v 16.905512 109.650528 -16.176010
v 11.589771 109.650528 -16.176010
v 20.250164 100.224167 -7.515617
v 8.245120 100.224167 -7.515617
v 8.245120 100.224167 -19.520638
v 20.250164 100.224167 -19.520638
v -23.435524 42.272446 -27.789795
v -4.741174 42.272446 -27.789795
v -23.435524 90.797806 -27.789795
v -4.741174 90.797806 -27.789795
v -23.435524 90.797806 -46.484177
v -4.741174 90.797806 -46.484177
v -23.435524 42.272446 -46.484177
v -4.741174 42.272446 -46.484177
v -16.746220 109.650528 -34.479103
v -11.430480 109.650528 -34.479103
v -11.430480 109.650528 -39.794868
v -16.746220 109.650528 -39.794868
v -8.085828 100.224167 -31.134476
v -20.090870 100.224167 -31.134476
v -20.090870 100.224167 -43.139496
v -8.085828 100.224167 -43.139496
v -39.990505 4.252875 84.717110
v 39.990501 4.252875 84.717110
v -39.990505 43.657536 84.717110
v 39.990501 43.657536 84.717110
v -39.990505 43.657536 -84.717110
v 39.990501 43.657536 -84.717110
v -39.990505 4.252875 -84.717110
v 39.990501 4.252875 -84.717110
v -44.439003 0.000001 -56.787170
v 44.439007 0.000001 -56.787170
v -44.439003 47.910404 -56.787170
v 44.439007 47.910404 -56.787170
v -44.439003 47.910404 -71.184219
v 44.439007 47.910404 -71.184219
v -44.439003 0.000000 -71.184219
v 44.439007 0.000000 -71.184219
v -44.439003 0.000000 71.589989
v 44.439007 0.000000 71.589989
v -44.439003 47.910404 71.589989
v 44.439007 47.910404 71.589989
v -44.439003 47.910404 57.192940
v 44.439007 47.910404 57.192940
v -44.439003 0.000000 57.192940
v 44.439007 0.000000 57.192940
v -39.990505 23.955206 84.717110
v 39.990501 23.955206 84.717110
v 39.990501 23.955206 -84.717110
v -39.990505 23.955206 -84.717110
v -44.439003 23.955202 71.589989
v 44.439007 23.955202 71.589989
v 44.439007 23.955202 57.192940
v -44.439003 23.955202 57.192940
v -44.439003 23.955202 -56.787170
v 44.439007 23.955202 -56.787170
v 44.439007 23.955202 -71.184219
v -44.439003 23.955202 -71.184219
v -32.051067 43.037601 2.614876
v -16.863525 43.037601 -8.285469
v -3.756815 43.037601 42.037521
v 11.430730 43.037601 31.137215
v -3.756815 61.731953 42.037521
v 11.430730 61.731953 31.137215
v -32.051067 61.731953 2.614876
v -16.863525 61.731953 -8.285469
v 12.670340 49.726906 53.453300
v 16.988918 49.726906 50.353798
v 16.988918 55.042645 50.353798
v 12.670340 55.042645 53.453300
v 14.209825 46.382256 40.745453
v 4.456766 46.382256 47.745461
v 4.456766 58.387295 47.745461
v 14.209825 58.387295 40.745453
vt 0.165453 0.031365
vt 0.180576 0.031365
vt 0.180576 0.031365
vt 0.165453 0.031365
vt 0.165453 0.031365
vt 0.180576 0.031365
vt 0.180576 0.031365
vt 0.180576 0.031365
vt 0.180576 0.031365
vt 0.180576 0.031365
vt 0.165453 0.031365
vt 0.165453 0.031365
vt 0.165453 0.031365
vt 0.165453 0.031365
vt 0.101073 0.018784
vt 0.116196 0.018784
vt 0.101073 0.018784
vt 0.116196 0.018784
vt 0.165453 0.031365
vt 0.180576 0.031365
vt 0.165453 0.031365
vt 0.180576 0.031365
vt 0.101073 0.018784
vt 0.116196 0.018784
vt 0.116196 0.018784
vt 0.101073 0.018784
vt 0.165453 0.031365
vt 0.180576 0.031365
vt 0.165453 0.031365
vt 0.180576 0.031365
vt 0.100333 0.031364
vt 0.115456 0.031364
vt 0.100333 0.031364
vt 0.115456 0.031364
vt 0.165453 0.031365
vt 0.180576 0.031365
vt 0.180576 0.031365
vt 0.180576 0.031365
vt 0.180576 0.031365
vt 0.180576 0.031365
vt 0.165453 0.031365
vt 0.165453 0.031365
vt 0.165453 0.031365
vt 0.165453 0.031365
vt 0.165453 0.031365
vt 0.180576 0.031365
vt 0.180576 0.031365
vt 0.165453 0.031365
vt 0.100333 0.031364
vt 0.115456 0.031364
vt 0.115456 0.031364
vt 0.100333 0.031364
vt 0.009898 0.956466
vt 0.009898 0.920063
vt 0.015174 0.920063
vt 0.015174 0.956466
vt 0.023474 0.996855
vt 0.023474 0.960820
vt 0.026309 0.960820
vt 0.026309 0.996855
vt 0.004617 0.956466
vt 0.004617 0.920063
vt 0.009893 0.920063
vt 0.009893 0.956466
vt 0.023680 0.996878
vt 0.023680 0.960390
vt 0.025973 0.960390
vt 0.025973 0.996878
vt 0.007790 0.887904
vt 0.019022 0.887904
vt 0.019022 0.893490
vt 0.007790 0.893490
vt 0.007790 0.899769
vt 0.019022 0.899769
vt 0.019022 0.905355
vt 0.007790 0.905355
vt 0.029404 0.900553
vt 0.029404 0.899020
vt 0.029817 0.899020
vt 0.029817 0.900553
vt 0.032926 0.971941
vt 0.032926 0.961900
vt 0.034435 0.961900
vt 0.034435 0.971941
vt 0.028231 0.903496
vt 0.028231 0.901963
vt 0.028644 0.901963
vt 0.028644 0.903496
vt 0.013482 0.973550
vt 0.013482 0.972562
vt 0.013631 0.972562
vt 0.013631 0.973550
vt 0.028481 0.929005
vt 0.029931 0.929005
vt 0.029931 0.933237
vt 0.028481 0.933237
vt 0.030150 0.929005
vt 0.031601 0.929005
vt 0.031601 0.933237
vt 0.030150 0.933237
vt 0.029503 0.902106
vt 0.029503 0.900573
vt 0.029916 0.900573
vt 0.029916 0.902106
vt 0.029487 0.971941
vt 0.029487 0.961900
vt 0.030997 0.961900
vt 0.030997 0.971941
vt 0.027373 0.903496
vt 0.027373 0.901963
vt 0.027786 0.901963
vt 0.027786 0.903496
vt 0.013144 0.973550
vt 0.013144 0.972562
vt 0.013293 0.972562
vt 0.013293 0.973550
vt 0.031813 0.929005
vt 0.033264 0.929005
vt 0.033264 0.933237
vt 0.031813 0.933237
vt 0.033477 0.929005
vt 0.034927 0.929005
vt 0.034927 0.933237
vt 0.033477 0.933237
vt 0.004623 0.956466
vt 0.004623 0.920063
vt 0.007790 0.882318
vt 0.019022 0.882318
vt 0.015169 0.920063
vt 0.015169 0.956466
vt 0.007790 0.894182
vt 0.019022 0.894182
vt 0.029089 0.902106
vt 0.029089 0.900573
vt 0.031813 0.924772
vt 0.033264 0.924772
vt 0.028199 0.901963
vt 0.028199 0.903496
vt 0.033477 0.924772
vt 0.034927 0.924772
vt 0.028991 0.900553
vt 0.028991 0.899020
vt 0.028481 0.924772
vt 0.029931 0.924772
vt 0.029057 0.901963
vt 0.029057 0.903496
vt 0.030150 0.924772
vt 0.031601 0.924772
vt 0.165453 0.031365
vt 0.180576 0.031365
vt 0.165453 0.031365
vt 0.180576 0.031365
vt 0.100333 0.031364
vt 0.115456 0.031364
vt 0.100333 0.031364
vt 0.131101 0.031364
vt 0.165453 0.031365
vt 0.196221 0.031365
vt 0.196221 0.031365
vt 0.180576 0.031365
vt 0.180576 0.031365
vt 0.180576 0.031365
vt 0.165453 0.031365
vt 0.165453 0.031365
vt 0.165453 0.031365
vt 0.165453 0.031365
vt 0.165453 0.031365
vt 0.180576 0.031365
vt 0.196221 0.031365
vt 0.165453 0.031365
vt 0.100333 0.031364
vt 0.115456 0.031364
vt 0.131101 0.031364
vt 0.100333 0.031364
vt 0.100333 0.031364
vt 0.196221 0.031365
vt 0.131101 0.031364
vt 0.165453 0.031365
vt 0.131101 0.031364
vt 0.115456 0.031364
vt 0.196221 0.031365
vt 0.196221 0.031365
vt 0.196221 0.031365
vt 0.165453 0.031365
vt 0.180576 0.031365
vt 0.196221 0.031365
vt 0.131101 0.031364
vt 0.131101 0.031364
vt 0.131101 0.031364
vt 0.131101 0.031364
vt 0.131841 0.018784
vt 0.131841 0.018784
vt 0.131841 0.018784
vt 0.131841 0.018784
vt 0.180576 0.031365
vt 0.100333 0.031364
vt 0.115456 0.031364
vt 0.115456 0.031364
vt 0.165453 0.031365
vt 0.100333 0.031364
vt 0.115456 0.031364
vt 0.100333 0.031364
vt 0.165453 0.031365
vt 0.180576 0.031365
vt 0.165453 0.031365
vt 0.165453 0.031365
vt 0.165453 0.031365
vt 0.180576 0.031365
vt 0.115456 0.031364
vt 0.165453 0.031365
vt 0.180576 0.031365
vt 0.100333 0.031364
vt 0.115456 0.031364
vt 0.115456 0.031364
vt 0.165453 0.031365
vt 0.100333 0.031364
vt 0.180576 0.031365
vt 0.100333 0.031364
vt 0.115456 0.031364
vt 0.100333 0.031364
vt 0.180576 0.031365
vt 0.165453 0.031365
vt 0.165453 0.031365
vt 0.180576 0.031365
vt 0.165453 0.031365
vt 0.165453 0.031365
vt 0.165453 0.031365
vt 0.180576 0.031365
vt 0.116196 0.018784
vt 0.165453 0.031365
vt 0.180576 0.031365
vt 0.101073 0.018784
vt 0.116196 0.018784
vt 0.116196 0.018784
vt 0.165453 0.031365
vt 0.101073 0.018784
vt 0.180576 0.031365
vt 0.101073 0.018784
vt 0.116196 0.018784
vt 0.101073 0.018784
vt 0.180576 0.031365
vt 0.165453 0.031365
vt 0.165453 0.031365
vt 0.180576 0.031365
vt 0.165453 0.031365
vt 0.165453 0.031365
vt 0.165453 0.031365
vt 0.180576 0.031365
vn 0.000000 0.000000 1.000000
vn 0.000000 0.000000 1.000000
vn 0.000000 0.000000 1.000000
vn 0.000000 0.000000 1.000000
vn 0.000000 1.000000 0.000000
vn 0.000000 1.000000 0.000000
vn 0.000000 1.000000 0.000000
vn 0.000000 1.000000 0.000000
vn 0.000000 0.000000 -1.000000
vn 0.000000 0.000000 -1.000000
vn 0.000000 0.000000 -1.000000
vn 0.000000 0.000000 -1.000000
vn 0.000000 -1.000000 0.000000
vn 0.000000 -1.000000 0.000000
vn 0.000000 -1.000000 0.000000
vn 0.000000 -1.000000 0.000000
vn 1.000000 0.000000 0.000000
vn 1.000000 0.000000 0.000000
vn 1.000000 0.000000 0.000000
vn 1.000000 0.000000 0.000000
vn -1.000000 0.000000 0.000000
vn -1.000000 0.000000 0.000000
vn -1.000000 0.000000 0.000000
vn -1.000000 0.000000 0.000000
vn 0.000000 0.334395 0.942433
vn 0.000000 0.334395 0.942433
vn 0.000000 0.334394 0.942433
vn 0.000000 0.334394 0.942433
vn 0.942433 0.334394 0.000000
vn 0.942433 0.334394 0.000000
vn 0.942434 0.334394 0.000000
vn 0.942434 0.334394 0.000000
vn 0.000000 0.334396 -0.942433
vn 0.000000 0.334396 -0.942433
vn 0.000000 0.334395 -0.942433
vn 0.000000 0.334395 -0.942433
vn -0.942433 0.334394 0.000000
vn -0.942433 0.334394 0.000000
vn -0.942434 0.334394 0.000000
vn -0.942434 0.334394 0.000000
vn 0.000000 0.334394 0.942433
vn 0.000000 0.334394 0.942433
vn 0.000000 0.334391 0.942434
vn 0.000000 0.334391 0.942434
vn -0.942434 0.334394 0.000000
vn -0.942434 0.334394 0.000000
vn -0.942434 0.334393 0.000000
vn -0.942434 0.334393 0.000000
vn 0.000000 0.334395 -0.942433
vn 0.000000 0.334395 -0.942433
vn 0.000000 0.334391 -0.942434
vn 0.000000 0.334391 -0.942434
vn 0.942434 0.334394 0.000000
vn 0.942434 0.334394 0.000000
vn 0.942434 0.334393 0.000000
vn 0.942434 0.334393 0.000000
vn 0.000000 0.000000 1.000000
vn 0.000000 0.000000 1.000000
vn 0.000000 0.000000 1.000000
vn 0.000000 0.000000 1.000000
vn 0.000000 1.000000 0.000000
vn 0.000000 1.000000 0.000000
vn 0.000000 1.000000 0.000000
vn 0.000000 1.000000 0.000000
vn 0.000000 0.000000 -1.000000
vn 0.000000 0.000000 -1.000000
vn 0.000000 0.000000 -1.000000
vn 0.000000 0.000000 -1.000000
vn 0.000000 -1.000000 0.000000
vn 0.000000 -1.000000 0.000000
vn 0.000000 -1.000000 0.000000
vn 0.000000 -1.000000 0.000000
vn 1.000000 0.000000 0.000000
vn 1.000000 0.000000 0.000000
vn 1.000000 0.000000 0.000000
vn 1.000000 0.000000 0.000000
vn -1.000000 0.000000 0.000000
vn -1.000000 0.000000 0.000000
vn -1.000000 0.000000 0.000000
vn -1.000000 0.000000 0.000000
vn 0.000000 0.334396 0.942433
vn 0.000000 0.334396 0.942433
vn 0.000000 0.334395 0.942433
vn 0.000000 0.334395 0.942433
vn 0.942434 0.334394 0.000000
vn 0.942434 0.334394 0.000000
vn 0.942434 0.334394 0.000000
vn 0.942434 0.334394 0.000000
vn 0.000000 0.334396 -0.942433
vn 0.000000 0.334396 -0.942433
vn 0.000000 0.334395 -0.942433
vn 0.000000 0.334395 -0.942433
vn -0.942434 0.334394 0.000000
vn -0.942434 0.334394 0.000000
vn -0.942434 0.334393 0.000000
vn -0.942434 0.334393 0.000000
vn 0.000000 0.334395 0.942433
vn 0.000000 0.334395 0.942433
vn 0.000000 0.334391 0.942434
vn 0.000000 0.334391 0.942434
vn -0.942434 0.334393 0.000000
vn -0.942434 0.334393 0.000000
vn -0.942434 0.334393 0.000000
vn -0.942434 0.334393 0.000000
vn 0.000000 0.334395 -0.942433
vn 0.000000 0.334395 -0.942433
vn 0.000000 0.334391 -0.942434
vn 0.000000 0.334391 -0.942434
vn 0.942434 0.334394 0.000000
vn 0.942434 0.334394 0.000000
vn 0.942434 0.334393 0.000000
vn 0.942434 0.334393 0.000000
vn 0.000000 0.000000 1.000000
vn 0.000000 0.000000 1.000000
vn 0.000000 0.000000 1.000000
vn 0.000000 0.000000 1.000000
vn 0.000000 1.000000 0.000000
vn 0.000000 1.000000 0.000000
vn 0.000000 1.000000 0.000000
vn 0.000000 1.000000 0.000000
vn 0.000000 0.000000 -1.000000
vn 0.000000 0.000000 -1.000000
vn 0.000000 0.000000 -1.000000
vn 0.000000 0.000000 -1.000000
vn 0.000000 -1.000000 0.000000
vn 0.000000 -1.000000 0.000000
vn 0.000000 -1.000000 0.000000
vn 0.000000 -1.000000 0.000000
vn 1.000000 0.000000 0.000000
vn 1.000000 0.000000 0.000000
vn 1.000000 0.000000 0.000000
vn 1.000000 0.000000 0.000000
vn -1.000000 0.000000 0.000000
vn -1.000000 0.000000 0.000000
vn -1.000000 0.000000 0.000000
vn -1.000000 0.000000 0.000000
vn 0.000000 0.000000 1.000000
vn 0.000000 0.000000 1.000000
vn 0.000000 0.000000 1.000000
vn 0.000000 0.000000 1.000000
vn 0.000000 1.000000 0.000000
vn 0.000000 1.000000 0.000000
vn 0.000000 1.000000 0.000000
vn 0.000000 1.000000 0.000000
vn 0.000000 0.000000 -1.000000
vn 0.000000 0.000000 -1.000000
vn 0.000000 0.000000 -1.000000
vn 0.000000 0.000000 -1.000000
vn 0.000000 -1.000000 0.000000
vn 0.000000 -1.000000 0.000000
vn 0.000000 -1.000000 0.000000
vn 0.000000 -1.000000 0.000000
vn 1.000000 0.000000 0.000000
vn 1.000000 0.000000 0.000000
vn 1.000000 0.000000 0.000000
vn 1.000000 0.000000 0.000000
vn -1.000000 0.000000 0.000000
vn -1.000000 0.000000 0.000000
vn -1.000000 0.000000 0.000000
vn -1.000000 0.000000 0.000000
vn 0.000000 0.000000 1.000000
vn 0.000000 0.000000 1.000000
vn 0.000000 0.000000 1.000000
vn 0.000000 0.000000 1.000000
vn 0.000000 1.000000 0.000000
vn 0.000000 1.000000 0.000000
vn 0.000000 1.000000 0.000000
vn 0.000000 1.000000 0.000000
vn 0.000000 0.000000 -1.000000
vn 0.000000 0.000000 -1.000000
vn 0.000000 0.000000 -1.000000
vn 0.000000 0.000000 -1.000000
vn 0.000000 -1.000000 0.000000
vn 0.000000 -1.000000 0.000000
vn 0.000000 -1.000000 0.000000
vn 0.000000 -1.000000 0.000000
vn 1.000000 0.000000 0.000000
vn 1.000000 0.000000 0.000000
vn 1.000000 0.000000 0.000000
vn 1.000000 0.000000 0.000000
vn -1.000000 0.000000 0.000000
vn -1.000000 0.000000 0.000000
vn -1.000000 0.000000 0.000000
vn -1.000000 0.000000 0.000000
vn 0.000000 0.000000 1.000000
vn 0.000000 0.000000 1.000000
vn 0.000000 0.000000 1.000000
vn 0.000000 0.000000 1.000000
vn 1.000000 0.000000 0.000000
vn 1.000000 0.000000 0.000000
vn 1.000000 0.000000 0.000000
vn 1.000000 0.000000 0.000000
vn 0.000000 0.000000 -1.000000
vn 0.000000 0.000000 -1.000000
vn 0.000000 0.000000 -1.000000
vn 0.000000 0.000000 -1.000000
vn -1.000000 0.000000 0.000000
vn -1.000000 0.000000 0.000000
vn -1.000000 0.000000 0.000000
vn -1.000000 0.000000 0.000000
vn 0.000000 0.000000 1.000000
vn 0.000000 0.000000 1.000000
vn 0.000000 0.000000 1.000000
vn 0.000000 0.000000 1.000000
vn 1.000000 0.000000 0.000000
vn 1.000000 0.000000 0.000000
vn 1.000000 0.000000 0.000000
vn 1.000000 0.000000 0.000000
vn 0.000000 0.000000 -1.000000
vn 0.000000 0.000000 -1.000000
vn 0.000000 0.000000 -1.000000
vn 0.000000 0.000000 -1.000000
vn -1.000000 0.000000 0.000000
vn -1.000000 0.000000 0.000000
vn -1.000000 0.000000 0.000000
vn -1.000000 0.000000 0.000000
vn 0.000000 0.000000 1.000000
vn 0.000000 0.000000 1.000000
vn 0.000000 0.000000 1.000000
vn 0.000000 0.000000 1.000000
vn 1.000000 0.000000 0.000000
vn 1.000000 0.000000 0.000000
vn 1.000000 0.000000 0.000000
vn 1.000000 0.000000 0.000000
vn 0.000000 0.000000 -1.000000
vn 0.000000 0.000000 -1.000000
vn 0.000000 0.000000 -1.000000
vn 0.000000 0.000000 -1.000000
vn -1.000000 0.000000 0.000000
vn -1.000000 0.000000 0.000000
vn -1.000000 0.000000 0.000000
vn -1.000000 0.000000 0.000000
vn 0.000000 -1.000000 0.000000
vn 0.000000 -1.000000 0.000000
vn 0.000000 -1.000000 0.000000
vn 0.000000 -1.000000 0.000000
vn 0.583080 0.000000 0.812414
vn 0.583080 0.000000 0.812414
vn 0.583080 0.000000 0.812414
vn 0.583080 0.000000 0.812414
vn 0.000000 1.000000 0.000000
vn 0.000000 1.000000 0.000000
vn 0.000000 1.000000 0.000000
vn 0.000000 1.000000 0.000000
vn -0.583082 0.000000 -0.812413
vn -0.583082 0.000000 -0.812413
vn -0.583082 0.000000 -0.812413
vn -0.583082 0.000000 -0.812413
vn 0.812414 0.000000 -0.583082
vn 0.812414 0.000000 -0.583082
vn 0.812414 0.000000 -0.583082
vn 0.812414 0.000000 -0.583082
vn -0.812414 0.000000 0.583082
vn -0.812414 0.000000 0.583082
vn -0.812414 0.000000 0.583082
vn -0.812414 0.000000 0.583082
vn 0.194979 -0.942433 0.271666
vn 0.194979 -0.942433 0.271666
vn 0.194980 -0.942433 0.271666
vn 0.194980 -0.942433 0.271666
vn 0.960624 0.000000 -0.277852
vn 0.960624 0.000000 -0.277852
vn 0.960624 0.000000 -0.277851
vn 0.960624 0.000000 -0.277851
vn 0.194980 0.942433 0.271666
vn 0.194980 0.942433 0.271666
vn 0.194980 0.942433 0.271666
vn 0.194980 0.942433 0.271666
vn -0.570670 0.000000 0.821180
vn -0.570670 0.000000 0.821180
vn -0.570668 0.000000 0.821181
vn -0.570668 0.000000 0.821181
vn 0.194980 -0.942433 0.271666
vn 0.194980 -0.942433 0.271666
vn 0.194980 -0.942434 0.271664
vn 0.194980 -0.942434 0.271664
vn -0.570668 0.000000 0.821181
vn -0.570668 0.000000 0.821181
vn -0.570664 0.000000 0.821184
vn -0.570664 0.000000 0.821184
vn 0.194980 0.942433 0.271666
vn 0.194980 0.942433 0.271666
vn 0.194980 0.942433 0.271666
vn 0.194980 0.942433 0.271666
vn 0.960624 0.000000 -0.277851
vn 0.960624 0.000000 -0.277851
vn 0.960625 0.000000 -0.277849
vn 0.960625 0.000000 -0.277849
s off
f 1/248/1 2/2/2 4/244/3 3/3/4
f 9/191/5 10/194/6 11/193/7 12/192/8
f 5/241/9 6/6/10 8/8/11 7/7/12
f 7/7/13 8/8/14 2/10/15 1/9/16
f 2/247/17 8/11/18 6/12/19 4/243/20
f 7/13/21 1/1/22 3/245/23 5/14/24
f 3/3/25 4/244/26 13/231/27 14/20/28
f 4/4/29 6/242/30 16/230/31 13/19/32
f 6/6/33 5/241/34 15/237/35 16/22/36
f 5/5/37 3/246/38 14/235/39 15/21/40
f 14/234/41 13/24/42 10/16/43 9/239/44
f 15/236/45 14/23/46 9/15/47 12/238/48
f 16/229/49 15/25/50 12/18/51 11/233/52
f 13/232/53 16/26/54 11/17/55 10/240/56
f 17/228/57 18/28/58 20/224/59 19/30/60
f 25/187/61 26/190/62 27/189/63 28/188/64
f 21/221/65 22/36/66 24/37/67 23/38/68
f 23/38/69 24/37/70 18/39/71 17/40/72
f 18/227/73 24/41/74 22/42/75 20/223/76
f 23/43/77 17/27/78 19/225/79 21/44/80
f 19/30/81 20/224/82 29/211/83 30/46/84
f 20/29/85 22/222/86 32/210/87 29/45/88
f 22/36/89 21/221/90 31/217/91 32/47/92
f 21/35/93 19/226/94 30/215/95 31/48/96
f 30/214/97 29/50/98 26/32/99 25/219/100
f 31/216/101 30/49/102 25/31/103 28/218/104
f 32/209/105 31/51/106 28/34/107 27/213/108
f 29/212/109 32/52/110 27/33/111 26/220/112
f 57/53/113 58/54/114 36/55/115 35/56/116
f 35/57/117 36/58/118 38/59/119 37/60/120
f 37/61/121 38/62/122 59/63/123 60/64/124
f 39/65/125 40/66/126 34/67/127 33/68/128
f 58/69/129 59/70/130 38/71/131 36/72/132
f 60/73/133 57/74/134 35/75/135 37/76/136
f 65/77/137 66/78/138 44/79/139 43/80/140
f 43/81/141 44/82/142 46/83/143 45/84/144
f 45/85/145 46/86/146 67/87/147 68/88/148
f 47/89/149 48/90/150 42/91/151 41/92/152
f 66/93/153 67/94/154 46/95/155 44/96/156
f 68/97/157 65/98/158 43/99/159 45/100/160
f 61/101/161 62/102/162 52/103/163 51/104/164
f 51/105/165 52/106/166 54/107/167 53/108/168
f 53/109/169 54/110/170 63/111/171 64/112/172
f 55/113/173 56/114/174 50/115/175 49/116/176
f 62/117/177 63/118/178 54/119/179 52/120/180
f 64/121/181 61/122/182 51/123/183 53/124/184
f 33/125/185 34/126/186 58/54/187 57/53/188
f 34/127/189 40/128/190 59/70/191 58/69/192
f 60/64/193 59/63/194 40/129/195 39/130/196
f 39/131/197 33/132/198 57/74/199 60/73/200
f 49/133/201 50/134/202 62/102/203 61/101/204
f 50/135/205 56/136/206 63/118/207 62/117/208
f 64/112/209 63/111/210 56/137/211 55/138/212
f 55/139/213 49/140/214 61/122/215 64/121/216
f 41/141/217 42/142/218 66/78/219 65/77/220
f 42/143/221 48/144/222 67/94/223 66/93/224
f 68/88/225 67/87/226 48/145/227 47/146/228
f 47/147/229 41/148/230 65/98/231 68/97/232
f 69/208/233 70/150/234 72/204/235 71/152/236
f 77/201/237 78/154/238 79/197/239 80/180/240
f 73/181/241 74/183/242 76/159/243 75/186/244
f 75/160/245 76/185/246 70/161/247 69/162/248
f 70/207/249 76/163/250 74/164/251 72/203/252
f 75/165/253 69/149/254 71/205/255 73/166/256
f 71/152/257 72/204/258 81/195/259 82/168/260
f 72/151/261 74/184/262 84/178/263 81/167/264
f 74/158/265 73/182/266 83/176/267 84/169/268
f 73/157/269 71/206/270 82/199/271 83/170/272
f 82/198/273 81/172/274 78/154/275 77/201/276
f 83/175/277 82/171/278 77/153/279 80/200/280
f 84/177/281 83/173/282 80/156/283 79/179/284
f 81/196/285 84/174/286 79/155/287 78/202/288
