# This file uses meters as units for non-parametric coordinates.

v -0.762540 0.000000 -0.197425
v 0.769966 0.000000 -0.197425
v -0.762540 0.149543 -0.197425
v 0.769966 0.149543 -0.197425
v -0.762540 0.149543 -0.465179
v 0.769966 0.149543 -0.465179
v -0.762540 0.000000 -0.465179
v 0.769966 0.000000 -0.465179
v -0.213926 0.023453 0.200924
v 0.221352 0.023453 0.200924
v -0.213926 0.126091 0.200924
v 0.221352 0.126091 0.200924
v -0.213926 0.126091 -0.197596
v 0.221352 0.126091 -0.197596
v -0.213926 0.023453 -0.197596
v 0.221352 0.023453 -0.197596
v -0.860314 0.336028 -0.079164
v -0.292349 0.336028 -0.407079
v -0.976784 0.336028 -0.280895
v -0.408818 0.336028 -0.608810
v -0.355352 0.269702 -0.639679
v -0.238883 0.269702 -0.437948
v -1.030250 0.269702 -0.250026
v -0.913781 0.269702 -0.048295
v -0.292349 0.750136 -0.407079
v -0.408818 0.750136 -0.608810
v -0.238883 0.750136 -0.437948
v -0.355352 0.750136 -0.639679
v -0.860314 0.750136 -0.079164
v -0.976784 0.750136 -0.280895
v -1.030250 0.750136 -0.250026
v -0.913781 0.750136 -0.048295
v -0.655895 0.149172 -0.268342
v -0.558392 0.149172 -0.324636
v -0.655895 0.269482 -0.268342
v -0.558392 0.269482 -0.324636
v -0.712189 0.269482 -0.365846
v -0.614686 0.269482 -0.422140
v -0.712189 0.149172 -0.365846
v -0.614686 0.149172 -0.422140
v -0.907324 1.033165 -0.160588
v -0.339359 1.033165 -0.488503
v -1.071138 1.137411 -0.444321
v -0.503173 1.137411 -0.772236
v -1.143543 1.060740 -0.569730
v -0.575578 1.060740 -0.897645
v -0.977845 0.434830 -0.282734
v -0.409880 0.434830 -0.610649
v -0.231084 0.624162 -0.300964
v -0.799049 0.624162 0.026951
v 0.860314 0.336028 -0.079164
v 0.292349 0.336028 -0.407079
v 0.976784 0.336028 -0.280895
v 0.408819 0.336028 -0.608810
v 0.355352 0.269702 -0.639679
v 0.238883 0.269702 -0.437948
v 1.030250 0.269702 -0.250026
v 0.913781 0.269702 -0.048295
v 0.292349 0.750136 -0.407079
v 0.408819 0.750136 -0.608810
v 0.238883 0.750136 -0.437948
v 0.355352 0.750136 -0.639679
v 0.860314 0.750136 -0.079164
v 0.976784 0.750136 -0.280895
v 1.030250 0.750136 -0.250026
v 0.913781 0.750136 -0.048295
v 0.655895 0.149172 -0.268342
v 0.558392 0.149172 -0.324636
v 0.655895 0.269482 -0.268342
v 0.558392 0.269482 -0.324636
v 0.712189 0.269482 -0.365846
v 0.614685 0.269482 -0.422140
v 0.712189 0.149172 -0.365846
v 0.614685 0.149172 -0.422140
v 0.907324 1.033165 -0.160588
v 0.339359 1.033165 -0.488503
v 1.071138 1.137411 -0.444321
v 0.503173 1.137411 -0.772236
v 1.143543 1.060740 -0.569730
v 0.575578 1.060740 -0.897645
v 0.977845 0.434830 -0.282734
v 0.409880 0.434830 -0.610649
v 0.231084 0.624162 -0.300964
v 0.799049 0.624162 0.026951
vt 0.849681 0.566239
vt 0.849681 0.571074
vt 0.849209 0.571074
vt 0.849209 0.566239
vt 0.845005 0.580940
vt 0.845005 0.580940
vt 0.845005 0.580940
vt 0.845005 0.580940
vt 0.850222 0.566239
vt 0.850222 0.571074
vt 0.849751 0.571074
vt 0.849751 0.566239
vt 0.827462 0.603244
vt 0.827462 0.610310
vt 0.826227 0.610310
vt 0.826227 0.603244
vt 0.816410 0.599814
vt 0.816410 0.601049
vt 0.815720 0.601049
vt 0.815720 0.599814
vt 0.817183 0.599814
vt 0.817183 0.601049
vt 0.816493 0.601049
vt 0.816493 0.599814
vt 0.845748 0.564775
vt 0.845748 0.566148
vt 0.845425 0.566148
vt 0.845425 0.564775
vt 0.845005 0.580940
vt 0.845005 0.580940
vt 0.845005 0.580940
vt 0.845005 0.580940
vt 0.817098 0.601103
vt 0.817098 0.603110
vt 0.815260 0.603110
vt 0.815260 0.601103
vt 0.815081 0.599308
vt 0.815081 0.601146
vt 0.814608 0.601146
vt 0.814608 0.599308
vt 0.815637 0.599211
vt 0.815637 0.601049
vt 0.815164 0.601049
vt 0.815164 0.599211
vt 0.758573 0.589175
vt 0.761097 0.584805
vt 0.762649 0.585701
vt 0.760125 0.590072
vt 0.857503 0.577993
vt 0.858034 0.577073
vt 0.858278 0.577214
vt 0.857747 0.578134
vt 0.904990 0.666028
vt 0.904012 0.666592
vt 0.902124 0.663322
vt 0.903102 0.662758
vt 0.857421 0.577214
vt 0.856890 0.578134
vt 0.856646 0.577993
vt 0.857177 0.577073
vt 0.844291 0.552666
vt 0.844233 0.552666
vt 0.844233 0.552548
vt 0.844291 0.552548
vt 0.811570 0.616947
vt 0.809790 0.616947
vt 0.809790 0.616749
vt 0.811324 0.614645
vt 0.809790 0.614645
vt 0.809790 0.614447
vt 0.878828 0.552704
vt 0.878828 0.631344
vt 0.878958 0.552601
vt 0.878958 0.631447
vt 0.915657 0.631447
vt 0.915657 0.552601
vt 0.812620 0.608381
vt 0.814154 0.608381
vt 0.814154 0.608579
vt 0.812374 0.606078
vt 0.814154 0.606078
vt 0.814154 0.606276
vt 0.780888 0.587461
vt 0.782250 0.587461
vt 0.782250 0.589141
vt 0.780888 0.589141
vt 0.779275 0.588091
vt 0.780636 0.588091
vt 0.780636 0.589772
vt 0.779275 0.589772
vt 0.874352 0.655531
vt 0.875714 0.655531
vt 0.875714 0.657211
vt 0.874352 0.657211
vt 0.872739 0.667984
vt 0.874101 0.667984
vt 0.874101 0.669665
vt 0.872739 0.669665
vt 0.862473 0.576537
vt 0.862473 0.576537
vt 0.862473 0.576537
vt 0.862207 0.567540
vt 0.863878 0.565713
vt 0.862669 0.567806
vt 0.923329 0.632551
vt 0.997752 0.632551
vt 0.997752 0.548988
vt 0.923329 0.548988
vt 0.775217 0.615660
vt 0.769423 0.605623
vt 0.774895 0.602464
vt 0.780690 0.612500
vt 0.759345 0.602584
vt 0.760628 0.602670
vt 0.760235 0.602910
vt 0.758757 0.601301
vt 0.757730 0.602991
vt 0.757223 0.605194
vt 0.756830 0.604954
vt 0.758701 0.603585
vt 0.866180 0.703481
vt 0.866180 0.717079
vt 0.856388 0.714487
vt 0.856388 0.700889
vt 0.844217 0.552427
vt 0.844251 0.552427
vt 0.844251 0.552545
vt 0.844217 0.552545
vt 0.863416 0.565447
vt 0.862473 0.576537
vt 0.915787 0.631344
vt 0.915787 0.552704
vt 0.812620 0.606276
vt 0.812374 0.608579
vt 0.811324 0.616749
vt 0.811570 0.614447
vt 0.758113 0.604867
vt 0.759728 0.600708
vt 0.758573 0.589175
vt 0.761097 0.584805
vt 0.762649 0.585701
vt 0.760125 0.590072
vt 0.878958 0.552601
vt 0.915657 0.552601
vt 0.915657 0.631447
vt 0.878958 0.631447
vt 0.857503 0.577993
vt 0.858034 0.577073
vt 0.858278 0.577214
vt 0.857747 0.578134
vt 0.904990 0.666028
vt 0.904012 0.666592
vt 0.902124 0.663322
vt 0.903102 0.662758
vt 0.857421 0.577214
vt 0.856890 0.578134
vt 0.856646 0.577993
vt 0.857177 0.577073
vt 0.844291 0.552666
vt 0.844233 0.552666
vt 0.844233 0.552548
vt 0.844291 0.552548
vt 0.811324 0.616749
vt 0.811570 0.616947
vt 0.809790 0.616947
vt 0.809790 0.616749
vt 0.878828 0.552704
vt 0.878828 0.631344
vt 0.915787 0.631344
vt 0.915787 0.552704
vt 0.844217 0.552427
vt 0.844251 0.552427
vt 0.844251 0.552545
vt 0.844217 0.552545
vt 0.812374 0.608579
vt 0.812620 0.608381
vt 0.814154 0.608381
vt 0.814154 0.608579
vt 0.811570 0.614447
vt 0.811324 0.614645
vt 0.809790 0.614645
vt 0.809790 0.614447
vt 0.812374 0.606078
vt 0.814154 0.606078
vt 0.814154 0.606276
vt 0.812620 0.606276
vt 0.780888 0.587461
vt 0.782250 0.587461
vt 0.782250 0.589141
vt 0.780888 0.589141
vt 0.779275 0.588091
vt 0.780636 0.588091
vt 0.780636 0.589772
vt 0.779275 0.589772
vt 0.874352 0.655531
vt 0.875714 0.655531
vt 0.875714 0.657211
vt 0.874352 0.657211
vt 0.872739 0.667984
vt 0.874101 0.667984
vt 0.874101 0.669665
vt 0.872739 0.669665
vt 0.862473 0.576537
vt 0.862473 0.576537
vt 0.862473 0.576537
vt 0.862473 0.576537
vt 0.862207 0.567540
vt 0.863416 0.565447
vt 0.863878 0.565713
vt 0.862669 0.567806
vt 0.923329 0.632551
vt 0.997752 0.632551
vt 0.997752 0.548988
vt 0.923329 0.548988
vt 0.775217 0.615660
vt 0.769423 0.605623
vt 0.774895 0.602464
vt 0.780690 0.612500
vt 0.759345 0.602584
vt 0.759728 0.600708
vt 0.760628 0.602670
vt 0.760235 0.602910
vt 0.757730 0.602991
vt 0.758113 0.604867
vt 0.757223 0.605194
vt 0.756830 0.604954
vt 0.758757 0.601301
vt 0.866180 0.703481
vt 0.866180 0.717079
vt 0.856388 0.714487
vt 0.856388 0.700889
vt 0.758701 0.603585
vn 0.000000 0.000000 1.000000
vn 0.000000 0.000000 1.000000
vn 0.000000 0.000000 1.000000
vn 0.000000 0.000000 1.000000
vn 0.000000 1.000000 0.000000
vn 0.000000 1.000000 0.000000
vn 0.000000 1.000000 0.000000
vn 0.000000 1.000000 0.000000
vn 0.000000 0.000000 -1.000000
vn 0.000000 0.000000 -1.000000
vn 0.000000 0.000000 -1.000000
vn 0.000000 0.000000 -1.000000
vn 0.000000 -1.000000 0.000000
vn 0.000000 -1.000000 0.000000
vn 0.000000 -1.000000 0.000000
vn 0.000000 -1.000000 0.000000
vn 1.000000 0.000000 0.000000
vn 1.000000 0.000000 0.000000
vn 1.000000 0.000000 0.000000
vn 1.000000 0.000000 0.000000
vn -1.000000 0.000000 0.000000
vn -1.000000 0.000000 0.000000
vn -1.000000 0.000000 0.000000
vn -1.000000 0.000000 0.000000
vn 0.000000 0.000000 1.000000
vn 0.000000 0.000000 1.000000
vn 0.000000 0.000000 1.000000
vn 0.000000 0.000000 1.000000
vn 0.000000 1.000000 0.000000
vn 0.000000 1.000000 0.000000
vn 0.000000 1.000000 0.000000
vn 0.000000 1.000000 0.000000
vn 0.000000 -1.000000 0.000000
vn 0.000000 -1.000000 0.000000
vn 0.000000 -1.000000 0.000000
vn 0.000000 -1.000000 0.000000
vn 1.000000 0.000000 0.000000
vn 1.000000 0.000000 0.000000
vn 1.000000 0.000000 0.000000
vn 1.000000 0.000000 0.000000
vn -1.000000 0.000000 0.000000
vn -1.000000 0.000000 0.000000
vn -1.000000 0.000000 0.000000
vn -1.000000 0.000000 0.000000
vn 0.000000 1.000000 -0.000000
vn 0.000000 1.000000 -0.000000
vn 0.000000 1.000000 -0.000000
vn 0.000000 1.000000 -0.000000
vn -0.866025 0.000000 0.500000
vn -0.866025 0.000000 0.500000
vn -0.866025 0.000000 0.500000
vn -0.866025 0.000000 0.500000
vn 0.000000 1.000000 0.000000
vn 0.000000 1.000000 0.000000
vn 0.000000 1.000000 0.000000
vn 0.000000 1.000000 0.000000
vn 0.000000 -1.000000 0.000000
vn 0.000000 -1.000000 0.000000
vn 0.000000 -1.000000 0.000000
vn 0.000000 -1.000000 0.000000
vn 0.000000 1.000000 -0.000000
vn 0.000000 1.000000 -0.000000
vn 0.000000 1.000000 -0.000000
vn 0.000000 1.000000 -0.000000
vn -0.866025 0.000000 0.500000
vn -0.866025 0.000000 0.500000
vn -0.866025 0.000000 0.500000
vn -0.866025 0.000000 0.500000
vn 0.500000 0.000000 0.866026
vn 0.500000 0.000000 0.866025
vn 0.500000 0.000000 0.866026
vn 0.500000 0.000000 0.866026
vn 0.866025 0.000000 -0.500000
vn 0.866025 0.000000 -0.500000
vn 0.866025 0.000000 -0.500000
vn 0.866025 0.000000 -0.500000
vn 0.866025 0.000000 -0.500000
vn 0.866025 0.000000 -0.500000
vn 0.866025 0.000000 -0.500000
vn 0.866025 0.000000 -0.500000
vn -0.500000 -0.000000 -0.866025
vn -0.500000 -0.000000 -0.866025
vn -0.500001 0.000000 -0.866025
vn -0.500001 0.000000 -0.866025
vn 0.500000 0.000000 0.866025
vn 0.500000 0.000000 0.866025
vn 0.500001 0.000000 0.866025
vn 0.500001 0.000000 0.866025
vn 0.500000 0.000000 0.866025
vn 0.500000 0.000000 0.866025
vn 0.500000 0.000000 0.866026
vn 0.500000 0.000000 0.866025
vn -0.500000 -0.000000 -0.866025
vn -0.500000 0.000000 -0.866025
vn -0.500000 0.000000 -0.866025
vn -0.500000 -0.000000 -0.866025
vn -0.500000 -0.000000 -0.866025
vn -0.500000 -0.000000 -0.866025
vn -0.500000 -0.000000 -0.866025
vn -0.500000 -0.000000 -0.866025
vn 0.500000 0.000000 0.866025
vn 0.500000 0.000000 0.866025
vn 0.500000 0.000000 0.866025
vn 0.500000 0.000000 0.866025
vn -0.500000 0.000000 -0.866025
vn -0.500000 0.000000 -0.866025
vn -0.500000 0.000000 -0.866025
vn -0.500000 0.000000 -0.866025
vn 0.866025 0.000000 -0.500000
vn 0.866025 0.000000 -0.500000
vn 0.866025 0.000000 -0.500000
vn 0.866025 0.000000 -0.500000
vn -0.866025 0.000000 0.500000
vn -0.866025 0.000000 0.500000
vn -0.866025 0.000000 0.500000
vn -0.866025 0.000000 0.500000
vn 0.151603 0.952925 0.262584
vn 0.151603 0.952925 0.262584
vn 0.151603 0.952925 0.262584
vn 0.151603 0.952925 0.262584
vn -0.233961 0.883770 -0.405232
vn -0.233961 0.883770 -0.405232
vn -0.233961 0.883770 -0.405232
vn -0.233961 0.883770 -0.405232
vn -0.441885 -0.467921 -0.765367
vn -0.441885 -0.467922 -0.765367
vn -0.441885 -0.467921 -0.765367
vn -0.441885 -0.467922 -0.765367
vn 0.233961 -0.883770 0.405233
vn 0.233961 -0.883770 0.405233
vn 0.233961 -0.883770 0.405233
vn 0.233961 -0.883770 0.405233
vn 0.866025 -0.000000 -0.500000
vn 0.866025 -0.000000 -0.500000
vn 0.866025 -0.000000 -0.500000
vn 0.866025 -0.000000 -0.500000
vn -0.866025 0.000000 0.500000
vn -0.866025 0.000000 0.500000
vn -0.866025 0.000000 0.500000
vn -0.866025 0.000000 0.500000
vn 0.866025 -0.000000 -0.500000
vn 0.866025 -0.000000 -0.500000
vn 0.866025 -0.000000 -0.500000
vn 0.441885 0.467922 0.765367
vn 0.441885 0.467922 0.765367
vn 0.441885 0.467922 0.765367
vn 0.441885 0.467922 0.765367
vn -0.866025 0.000000 0.500000
vn -0.866025 0.000000 0.500000
vn -0.866025 0.000000 0.500000
vn 0.000000 1.000000 0.000000
vn 0.000000 1.000000 0.000000
vn 0.000000 1.000000 0.000000
vn 0.000000 1.000000 0.000000
vn 0.866025 0.000000 0.500000
vn 0.866025 0.000000 0.500000
vn 0.866025 0.000000 0.500000
vn 0.866025 0.000000 0.500000
vn 0.000000 1.000000 0.000000
vn 0.000000 1.000000 0.000000
vn 0.000000 1.000000 0.000000
vn 0.000000 1.000000 0.000000
vn 0.000000 -1.000000 0.000000
vn 0.000000 -1.000000 0.000000
vn 0.000000 -1.000000 0.000000
vn 0.000000 -1.000000 0.000000
vn 0.000000 1.000000 0.000000
vn 0.000000 1.000000 0.000000
vn 0.000000 1.000000 0.000000
vn 0.000000 1.000000 0.000000
vn 0.866025 0.000000 0.500000
vn 0.866025 0.000000 0.500000
vn 0.866025 0.000000 0.500000
vn 0.866025 0.000000 0.500000
vn -0.500000 -0.000000 0.866025
vn -0.500000 0.000000 0.866025
vn -0.500000 0.000000 0.866025
vn -0.500000 -0.000000 0.866025
vn -0.866026 0.000000 -0.500000
vn -0.866026 0.000000 -0.500000
vn -0.866026 0.000000 -0.500000
vn -0.866026 0.000000 -0.500000
vn -0.866025 0.000000 -0.500000
vn -0.866025 0.000000 -0.500000
vn -0.866025 0.000000 -0.500000
vn -0.866025 0.000000 -0.500000
vn 0.500000 -0.000000 -0.866025
vn 0.500000 0.000000 -0.866026
vn 0.500000 0.000000 -0.866026
vn 0.500000 -0.000000 -0.866026
vn -0.500000 -0.000000 0.866025
vn -0.500000 0.000000 0.866026
vn -0.500000 0.000000 0.866026
vn -0.500000 -0.000000 0.866025
vn -0.500000 -0.000000 0.866025
vn -0.500000 -0.000000 0.866025
vn -0.500000 -0.000000 0.866025
vn -0.500000 -0.000000 0.866025
vn 0.500000 -0.000000 -0.866025
vn 0.500000 -0.000000 -0.866026
vn 0.500000 0.000000 -0.866026
vn 0.500000 0.000000 -0.866026
vn 0.500000 -0.000000 -0.866025
vn 0.500000 -0.000000 -0.866025
vn 0.500000 -0.000000 -0.866026
vn 0.500000 -0.000000 -0.866026
vn -0.500000 0.000000 0.866025
vn -0.500000 0.000000 0.866025
vn -0.500000 0.000000 0.866025
vn -0.500000 0.000000 0.866025
vn 0.500000 0.000000 -0.866025
vn 0.500000 0.000000 -0.866025
vn 0.500000 0.000000 -0.866025
vn 0.500000 0.000000 -0.866025
vn -0.866025 0.000000 -0.500000
vn -0.866025 0.000000 -0.500000
vn -0.866025 0.000000 -0.500000
vn -0.866025 0.000000 -0.500000
vn 0.866025 0.000000 0.500000
vn 0.866025 0.000000 0.500000
vn 0.866025 0.000000 0.500000
vn 0.866025 0.000000 0.500000
vn -0.151603 0.952925 0.262584
vn -0.151603 0.952925 0.262584
vn -0.151603 0.952925 0.262584
vn -0.151603 0.952925 0.262584
vn 0.233961 0.883770 -0.405232
vn 0.233961 0.883770 -0.405232
vn 0.233961 0.883770 -0.405232
vn 0.233961 0.883770 -0.405232
vn 0.441885 -0.467921 -0.765367
vn 0.441885 -0.467921 -0.765367
vn 0.441885 -0.467921 -0.765367
vn 0.441885 -0.467921 -0.765367
vn -0.233961 -0.883770 0.405233
vn -0.233961 -0.883770 0.405233
vn -0.233961 -0.883770 0.405233
vn -0.233961 -0.883770 0.405233
vn -0.866025 0.000000 -0.500000
vn -0.866026 0.000000 -0.500000
vn -0.866025 0.000000 -0.500000
vn -0.866026 0.000000 -0.500000
vn 0.866026 -0.000000 0.500000
vn 0.866025 -0.000000 0.500000
vn 0.866025 -0.000000 0.500000
vn 0.866025 -0.000000 0.500000
vn -0.866025 -0.000000 -0.500000
vn -0.866025 -0.000000 -0.500000
vn -0.866026 -0.000000 -0.500000
vn -0.441885 0.467922 0.765367
vn -0.441885 0.467922 0.765367
vn -0.441885 0.467922 0.765367
vn -0.441885 0.467922 0.765367
vn 0.866025 0.000000 0.500000
vn 0.866025 0.000000 0.500000
vn 0.866025 0.000000 0.500000
s off
f 1/1/1 2/2/2 4/3/3 3/4/4
f 3/5/5 4/6/6 6/7/7 5/8/8
f 5/9/9 6/10/10 8/11/11 7/12/12
f 7/13/13 8/14/14 2/15/15 1/16/16
f 2/17/17 8/18/18 6/19/19 4/20/20
f 7/21/21 1/22/22 3/23/23 5/24/24
f 9/25/25 10/26/26 12/27/27 11/28/28
f 11/29/29 12/30/30 14/31/31 13/32/32
f 15/33/33 16/34/34 10/35/35 9/36/36
f 10/37/37 16/38/38 14/39/39 12/40/40
f 15/41/41 9/42/42 11/43/43 13/44/44
f 17/45/45 18/46/46 20/47/47 19/48/48
f 23/71/49 24/132/50 32/131/51 31/72/52
f 26/49/53 25/50/54 27/51/55 28/52/56
f 24/53/57 23/54/58 21/55/59 22/56/60
f 29/57/61 30/58/62 31/59/63 32/60/64
f 20/61/65 18/62/66 25/63/67 26/64/68
f 18/135/69 22/65/70 27/66/71 25/67/72
f 21/73/73 28/74/74 27/75/75 22/76/76
f 17/125/77 19/126/78 30/127/79 29/128/80
f 21/134/81 20/77/82 26/78/83 28/79/84
f 24/136/85 17/68/86 29/69/87 32/70/88
f 24/136/89 22/65/90 18/135/91 17/68/92
f 23/80/93 31/81/94 30/82/95 19/133/96
f 23/80/97 19/133/98 20/77/99 21/134/100
f 33/83/101 34/84/102 36/85/103 35/86/104
f 37/87/105 38/88/106 40/89/107 39/90/108
f 34/91/109 40/92/110 38/93/111 36/94/112
f 39/95/113 33/96/114 35/97/115 37/98/116
f 41/99/117 42/100/118 44/101/119 43/130/120
f 43/102/121 44/129/122 46/103/123 45/104/124
f 45/105/125 46/106/126 48/107/127 47/108/128
f 47/109/129 48/110/130 49/111/131 50/112/132
f 42/113/133 48/138/134 46/114/135 44/115/136
f 47/117/137 41/137/138 43/118/139 45/119/140
f 48/138/141 42/113/142 49/116/143
f 42/121/144 41/122/145 50/123/146 49/124/147
f 41/137/148 47/117/149 50/120/150
f 51/139/151 53/142/152 54/141/153 52/140/154
f 57/143/155 65/146/156 66/145/157 58/144/158
f 60/147/159 62/150/160 61/149/161 59/148/162
f 58/151/163 56/154/164 55/153/165 57/152/166
f 63/155/167 66/158/168 65/157/169 64/156/170
f 54/159/171 60/162/172 59/161/173 52/160/174
f 52/163/175 59/166/176 61/165/177 56/164/178
f 55/167/179 56/170/180 61/169/181 62/168/182
f 51/171/183 63/174/184 64/173/185 53/172/186
f 55/175/187 62/178/188 60/177/189 54/176/190
f 58/179/191 66/182/192 63/181/193 51/180/194
f 58/179/195 51/180/196 52/163/197 56/164/198
f 57/183/199 53/186/200 64/185/201 65/184/202
f 57/183/203 55/175/204 54/176/205 53/186/206
f 67/187/207 69/190/208 70/189/209 68/188/210
f 71/191/211 73/194/212 74/193/213 72/192/214
f 68/195/215 70/198/216 72/197/217 74/196/218
f 73/199/219 71/202/220 69/201/221 67/200/222
f 75/203/223 77/206/224 78/205/225 76/204/226
f 77/207/227 79/210/228 80/209/229 78/208/230
f 79/211/231 81/214/232 82/213/233 80/212/234
f 81/215/235 84/218/236 83/217/237 82/216/238
f 76/219/239 78/222/240 80/221/241 82/220/242
f 81/223/243 79/226/244 77/225/245 75/224/246
f 82/220/247 83/227/248 76/219/249
f 76/228/250 83/231/251 84/230/252 75/229/253
f 75/224/254 84/232/255 81/223/256
