# This file uses meters as units for non-parametric coordinates.

v 0.142660 0.238068 -0.763005
v 0.142660 0.189503 -0.763005
v -0.126591 0.238068 -0.763005
v -0.126591 0.189503 -0.763005
v 0.205281 0.189486 -0.815744
v 0.205281 0.238086 -0.815744
v -0.189211 0.238086 -0.815744
v -0.189211 0.189486 -0.815744
v 0.142660 0.238068 -0.653831
v 0.142660 0.189503 -0.653831
v 0.205138 0.189503 -0.653831
v 0.205138 0.238068 -0.653831
v -0.126591 0.238068 -0.653831
v -0.126591 0.189503 -0.653831
v -0.189068 0.238068 -0.653831
v -0.189068 0.189503 -0.653831
v 0.252623 0.345504 -0.613128
v 0.252623 0.082068 -0.613128
v 0.252803 0.345600 -0.670861
v 0.252803 0.081972 -0.670861
v -0.236729 0.345600 -0.670861
v -0.236729 0.081972 -0.670861
v -0.236549 0.345504 -0.613128
v -0.236549 0.082068 -0.613128
v -0.126585 0.238068 0.763005
v -0.126585 0.189503 0.763005
v 0.142666 0.238068 0.763005
v 0.142666 0.189503 0.763005
v -0.189206 0.189486 0.815744
v -0.189206 0.238086 0.815744
v 0.205286 0.238086 0.815744
v 0.205286 0.189486 0.815744
v -0.126585 0.238068 0.653831
v -0.126585 0.189503 0.653831
v -0.189063 0.189503 0.653831
v -0.189063 0.238068 0.653831
v 0.142666 0.238068 0.653831
v 0.142666 0.189503 0.653831
v 0.205143 0.238068 0.653831
v 0.205143 0.189503 0.653831
v -0.236548 0.345504 0.613128
v -0.236548 0.082068 0.613128
v -0.236728 0.345600 0.670861
v -0.236728 0.081972 0.670861
v 0.252805 0.345600 0.670861
v 0.252805 0.081972 0.670861
v 0.252625 0.345504 0.613128
v 0.252625 0.082068 0.613128
v -0.484497 -0.000000 0.620685
v 0.484497 -0.000000 0.620685
v -0.484497 0.477399 0.620685
v 0.484497 0.477399 0.620685
v -0.484497 0.477399 -0.616479
v 0.484497 0.477399 -0.616479
v -0.484497 -0.000000 -0.616479
v 0.484497 -0.000000 -0.616479
vt 0.239912 0.985784
vt 0.239877 0.985784
vt 0.241351 0.935566
vt 0.241351 0.935030
vt 0.241316 0.935030
vt 0.239912 0.984711
vt 0.239877 0.984711
vt 0.241351 0.937174
vt 0.239877 0.985784
vt 0.240664 0.968995
vt 0.239912 0.985784
vt 0.241316 0.935566
vt 0.239912 0.984175
vt 0.240927 0.952308
vt 0.239877 0.984175
vt 0.239783 0.989092
vt 0.241223 0.932271
vt 0.239783 0.989099
vt 0.245516 0.959876
vt 0.245516 0.959883
vt 0.241223 0.932285
vt 0.241223 0.932292
vt 0.239783 0.989092
vt 0.239783 0.989099
vt 0.239782 0.989092
vt 0.239782 0.989099
vt 0.239877 0.984175
vt 0.241304 0.925071
vt 0.240664 0.963763
vt 0.239877 0.985247
vt 0.241316 0.937174
vt 0.241386 0.926325
vt 0.239912 0.985247
vt 0.241351 0.937174
vt 0.239947 0.985784
vt 0.240927 0.954008
vt 0.239877 0.984175
vt 0.240816 0.952308
vt 0.241351 0.935566
vt 0.239912 0.984175
vt 0.239912 0.985784
vt 0.241006 0.968995
vt 0.241316 0.937174
vt 0.239877 0.985784
vt 0.241386 0.925071
vt 0.240816 0.954008
vt 0.241304 0.926325
vt 0.241006 0.963763
vt 0.241316 0.935566
vt 0.239783 0.989092
vt 0.241223 0.932292
vt 0.241223 0.932271
vt 0.241223 0.932285
vt 0.245516 0.959883
vt 0.241223 0.932278
vt 0.245516 0.959876
vt 0.241223 0.932278
vt 0.239783 0.989099
vt 0.240664 0.963763
vt 0.241006 0.963763
vt 0.241006 0.968995
vt 0.240664 0.968995
vt 0.241351 0.935566
vt 0.241316 0.935566
vt 0.241316 0.935030
vt 0.241351 0.935030
vt 0.241304 0.926325
vt 0.241304 0.925071
vt 0.241386 0.925071
vt 0.241386 0.926325
vt 0.241351 0.937174
vt 0.241316 0.937174
vt 0.241316 0.937174
vt 0.241351 0.937174
vt 0.239877 0.984711
vt 0.239877 0.985247
vt 0.239877 0.985784
vt 0.239877 0.984175
vt 0.241351 0.935566
vt 0.241316 0.935566
vt 0.239912 0.984711
vt 0.239912 0.984175
vt 0.239912 0.984175
vt 0.239947 0.985784
vt 0.240816 0.954008
vt 0.240816 0.952308
vt 0.240927 0.952308
vt 0.240927 0.954008
vt 0.241223 0.932271
vt 0.241223 0.932271
vt 0.241223 0.932278
vt 0.241223 0.932278
vt 0.245516 0.959876
vt 0.245516 0.959876
vt 0.245516 0.959883
vt 0.245516 0.959883
vt 0.241223 0.932285
vt 0.241223 0.932285
vt 0.241223 0.932292
vt 0.241223 0.932292
vt 0.239783 0.989092
vt 0.239783 0.989092
vt 0.239783 0.989099
vt 0.239783 0.989099
vt 0.239782 0.989092
vt 0.239783 0.989092
vt 0.239783 0.989099
vt 0.239782 0.989099
vt 0.239912 0.985247
vt 0.239912 0.985784
vt 0.239912 0.985784
vt 0.239912 0.985784
vt 0.239877 0.985784
vt 0.239877 0.985784
vt 0.239877 0.984175
vt 0.239877 0.984175
vt 0.100112 0.915356
vt 0.109917 0.915356
vt 0.109917 0.926421
vt 0.100112 0.926421
vt 0.091206 0.955261
vt 0.091206 0.927864
vt 0.093624 0.927864
vt 0.093624 0.955261
vt 0.109917 0.926416
vt 0.100112 0.926416
vt 0.100112 0.915350
vt 0.109917 0.915350
vt 0.029126 0.890738
vt 0.029126 0.890239
vt 0.030233 0.890239
vt 0.030233 0.890738
vt 0.091507 0.915311
vt 0.093621 0.915311
vt 0.093621 0.926483
vt 0.091507 0.926483
vt 0.092985 0.915351
vt 0.093344 0.915351
vt 0.093344 0.926523
vt 0.092985 0.926523
vn 1.000000 0.000000 0.000881
vn 1.000000 0.000000 0.000881
vn 1.000000 0.000000 0.000881
vn 1.000000 0.000000 0.000881
vn 0.000000 0.000000 1.000000
vn 0.000000 0.000000 1.000000
vn 0.000000 0.000000 1.000000
vn 0.000000 0.000000 1.000000
vn 0.000000 0.000000 -1.000000
vn 0.000000 0.000000 -1.000000
vn 0.000000 0.000000 -1.000000
vn 0.000000 0.000000 -1.000000
vn -1.000000 0.000000 0.000000
vn -1.000000 0.000000 0.000000
vn -1.000000 0.000000 0.000000
vn -1.000000 0.000000 0.000000
vn 0.000000 -1.000000 0.000334
vn 0.000000 -1.000000 0.000334
vn 0.000000 -1.000000 0.000334
vn 0.000000 -1.000000 0.000334
vn 1.000000 0.000000 0.000000
vn 1.000000 0.000000 0.000000
vn 1.000000 0.000000 0.000000
vn 1.000000 0.000000 0.000000
vn 0.000112 1.000000 0.000064
vn 0.000112 1.000000 0.000064
vn 0.000112 1.000000 0.000064
vn 0.000112 1.000000 0.000064
vn -1.000000 0.000000 0.000881
vn -1.000000 0.000000 0.000881
vn -1.000000 0.000000 0.000881
vn -1.000000 0.000000 0.000881
vn 0.999995 0.000000 0.003117
vn 0.999995 0.000000 0.003117
vn 0.999995 0.000000 0.003117
vn 0.999995 0.000000 0.003117
vn 0.000000 0.000000 -1.000000
vn 0.000000 0.000000 -1.000000
vn 0.000000 0.000000 -1.000000
vn 0.000000 0.000000 -1.000000
vn -0.999995 0.000000 0.003117
vn -0.999995 0.000000 0.003117
vn -0.999995 0.000000 0.003117
vn -0.999995 0.000000 0.003117
vn 0.000000 -0.999999 0.001664
vn 0.000000 -0.999999 0.001664
vn 0.000000 -0.999999 0.001664
vn 0.000000 -0.999999 0.001664
vn 0.000000 0.999999 0.001664
vn 0.000000 0.999999 0.001664
vn 0.000000 0.999999 0.001664
vn 0.000000 0.999999 0.001664
vn -0.000112 1.000000 0.000064
vn -0.000112 1.000000 0.000064
vn -0.000112 1.000000 0.000064
vn -0.000112 1.000000 0.000064
vn 0.000000 1.000000 0.000330
vn 0.000000 1.000000 0.000330
vn 0.000000 1.000000 0.000330
vn 0.000000 1.000000 0.000330
vn -0.000114 -1.000000 0.000065
vn -0.000114 -1.000000 0.000065
vn -0.000114 -1.000000 0.000065
vn -0.000114 -1.000000 0.000065
vn 0.000114 -1.000000 0.000065
vn 0.000114 -1.000000 0.000065
vn 0.000114 -1.000000 0.000065
vn 0.000114 -1.000000 0.000065
vn -1.000000 0.000000 -0.000881
vn -1.000000 0.000000 -0.000881
vn -1.000000 0.000000 -0.000881
vn -1.000000 0.000000 -0.000881
vn 0.000000 0.000000 -1.000000
vn 0.000000 0.000000 -1.000000
vn 0.000000 0.000000 -1.000000
vn 0.000000 0.000000 -1.000000
vn 0.000000 0.000000 1.000000
vn 0.000000 0.000000 1.000000
vn 0.000000 0.000000 1.000000
vn 0.000000 0.000000 1.000000
vn 1.000000 0.000000 0.000000
vn 1.000000 0.000000 0.000000
vn 1.000000 0.000000 0.000000
vn 1.000000 0.000000 0.000000
vn 0.000000 -1.000000 -0.000334
vn 0.000000 -1.000000 -0.000334
vn 0.000000 -1.000000 -0.000334
vn 0.000000 -1.000000 -0.000334
vn -1.000000 0.000000 0.000000
vn -1.000000 0.000000 0.000000
vn -1.000000 0.000000 0.000000
vn -1.000000 0.000000 0.000000
vn -0.000112 1.000000 -0.000064
vn -0.000112 1.000000 -0.000064
vn -0.000112 1.000000 -0.000064
vn -0.000112 1.000000 -0.000064
vn 1.000000 0.000000 -0.000881
vn 1.000000 0.000000 -0.000881
vn 1.000000 0.000000 -0.000881
vn 1.000000 0.000000 -0.000881
vn -0.999995 0.000000 -0.003117
vn -0.999995 0.000000 -0.003117
vn -0.999995 0.000000 -0.003117
vn -0.999995 0.000000 -0.003117
vn 0.000000 0.000000 1.000000
vn 0.000000 0.000000 1.000000
vn 0.000000 0.000000 1.000000
vn 0.000000 0.000000 1.000000
vn 0.999995 0.000000 -0.003117
vn 0.999995 0.000000 -0.003117
vn 0.999995 0.000000 -0.003117
vn 0.999995 0.000000 -0.003117
vn 0.000000 -0.999999 -0.001664
vn 0.000000 -0.999999 -0.001664
vn 0.000000 -0.999999 -0.001664
vn 0.000000 -0.999999 -0.001664
vn 0.000000 0.999999 -0.001664
vn 0.000000 0.999999 -0.001664
vn 0.000000 0.999999 -0.001664
vn 0.000000 0.999999 -0.001664
vn 0.000112 1.000000 -0.000064
vn 0.000112 1.000000 -0.000064
vn 0.000112 1.000000 -0.000064
vn 0.000112 1.000000 -0.000064
vn 0.000000 1.000000 -0.000330
vn 0.000000 1.000000 -0.000330
vn 0.000000 1.000000 -0.000330
vn 0.000000 1.000000 -0.000330
vn 0.000114 -1.000000 -0.000065
vn 0.000114 -1.000000 -0.000065
vn 0.000114 -1.000000 -0.000065
vn 0.000114 -1.000000 -0.000065
vn -0.000114 -1.000000 -0.000065
vn -0.000114 -1.000000 -0.000065
vn -0.000114 -1.000000 -0.000065
vn -0.000114 -1.000000 -0.000065
vn 0.000000 0.000000 1.000000
vn 0.000000 0.000000 1.000000
vn 0.000000 0.000000 1.000000
vn 0.000000 0.000000 1.000000
vn 0.000000 1.000000 0.000000
vn 0.000000 1.000000 0.000000
vn 0.000000 1.000000 0.000000
vn 0.000000 1.000000 0.000000
vn 0.000000 0.000000 -1.000000
vn 0.000000 0.000000 -1.000000
vn 0.000000 0.000000 -1.000000
vn 0.000000 0.000000 -1.000000
vn 0.000000 -1.000000 0.000000
vn 0.000000 -1.000000 0.000000
vn 0.000000 -1.000000 0.000000
vn 0.000000 -1.000000 0.000000
vn 1.000000 0.000000 0.000000
vn 1.000000 0.000000 0.000000
vn 1.000000 0.000000 0.000000
vn 1.000000 0.000000 0.000000
vn -1.000000 0.000000 0.000000
vn -1.000000 0.000000 0.000000
vn -1.000000 0.000000 0.000000
vn -1.000000 0.000000 0.000000
s off
f 5/29/1 6/48/2 12/42/3 11/10/4
f 3/3/5 4/49/6 2/5/7 1/4/8
f 5/47/9 8/28/10 7/45/11 6/32/12
f 1/34/13 2/31/14 10/43/15 9/8/16
f 8/7/17 5/30/18 2/2/19 4/27/20
f 4/49/21 3/3/22 13/39/23 14/12/24
f 7/6/25 15/40/26 13/13/27 3/35/28
f 8/46/29 16/38/30 15/14/31 7/36/32
f 17/52/33 18/17/34 20/55/35 19/57/36
f 19/19/37 20/56/38 22/20/39 21/54/40
f 21/21/41 22/53/42 24/22/43 23/51/44
f 18/50/45 24/23/46 22/24/47 20/18/48
f 23/25/49 17/16/50 19/58/51 21/26/52
f 6/33/53 1/1/54 9/41/55 12/11/56
f 7/6/57 3/35/58 1/1/59 6/33/60
f 2/2/61 5/30/62 11/44/63 10/9/64
f 8/7/65 4/27/66 14/37/67 16/15/68
f 29/59/69 30/60/70 36/61/71 35/62/72
f 27/63/73 28/64/74 26/65/75 25/66/76
f 29/67/77 32/68/78 31/69/79 30/70/80
f 25/71/81 26/72/82 34/73/83 33/74/84
f 32/75/85 29/76/86 26/77/87 28/78/88
f 28/64/89 27/63/90 37/79/91 38/80/92
f 31/81/93 39/82/94 37/83/95 27/84/96
f 32/85/97 40/86/98 39/87/99 31/88/100
f 41/89/101 42/90/102 44/91/103 43/92/104
f 43/93/105 44/94/106 46/95/107 45/96/108
f 45/97/109 46/98/110 48/99/111 47/100/112
f 42/101/113 48/102/114 46/103/115 44/104/116
f 47/105/117 41/106/118 43/107/119 45/108/120
f 30/109/121 25/110/122 33/111/123 36/112/124
f 31/81/125 27/84/126 25/110/127 30/109/128
f 26/77/129 29/76/130 35/113/131 34/114/132
f 32/75/133 28/78/134 38/115/135 40/116/136
f 49/117/137 50/118/138 52/119/139 51/120/140
f 51/121/141 52/122/142 54/123/143 53/124/144
f 53/125/145 54/126/146 56/127/147 55/128/148
f 55/129/149 56/130/150 50/131/151 49/132/152
f 50/133/153 56/134/154 54/135/155 52/136/156
f 55/137/157 49/138/158 51/139/159 53/140/160
