# This file uses meters as units for non-parametric coordinates.

v -6.034126 -14.373154 6.005264
v 6.538712 -14.373154 6.005264
v 6.538715 -14.384979 -7.301353
v -6.034126 -14.384979 -7.301353
v -6.034126 18.649231 -7.301353
v 6.538715 18.649231 -7.301353
v 6.538715 -1.620102 29.951530
v -6.034126 -1.620102 29.951530
v 6.538715 18.647751 29.951530
v -6.034126 18.647751 29.951530
v 6.538715 -1.620102 6.059593
v -6.034126 -1.620102 6.059593
v 5.726765 5.227722 97.993820
v 5.726765 18.618851 97.993820
v -5.222240 5.227722 97.993820
v -5.222240 18.618851 97.993820
v 3.483204 7.986343 97.993820
v 3.483204 14.812317 97.993820
v -2.978649 7.986343 97.993820
v -2.978649 14.812317 97.993820
v 3.483204 7.986343 190.011200
v 3.483204 14.812317 190.011200
v -2.978649 14.812317 190.011200
v -2.978649 7.986343 190.011200
v 4.893970 -7.784058 -7.303520
v -4.389385 -7.784058 -7.303520
v -4.389385 14.655869 -7.306271
v 4.893970 14.655869 -7.306271
v -4.389385 14.655869 -74.427467
v 4.893970 14.655869 -74.427467
v -4.389385 -22.569595 -74.427467
v 4.893970 -22.569595 -74.427467
v -4.389385 -22.559113 -66.330269
v 4.893970 -22.559113 -66.330269
v -3.852089 22.972427 49.226547
v 3.235081 22.972427 49.226547
v -3.852089 32.774612 49.226547
v 3.235081 32.774612 49.226547
v -3.852089 32.774612 12.242378
v 3.235081 32.774612 12.242378
v -3.852089 22.972427 12.242378
v 3.235081 22.972427 12.242378
v -3.855572 22.972137 73.065521
v 3.235783 22.972137 73.065521
v 3.235783 32.778244 73.065521
v -3.855572 32.778244 73.065521
v -3.831402 32.753036 -4.628548
v 3.230839 32.753036 -4.628548
v 3.230839 22.973969 -4.628548
v -3.831402 22.973969 -4.628548
v 3.235081 32.774612 19.112762
v -3.852089 32.774612 19.112762
v -3.852089 22.972427 15.634552
v 3.235081 22.972427 15.634552
v 3.235081 32.774612 42.838837
v -3.852089 32.774612 42.838837
v -3.852089 22.972427 45.168854
v 3.235081 22.972427 45.168854
v -3.852089 17.791306 45.168854
v 3.235081 17.791306 45.168854
v 3.235081 17.791306 49.226547
v -3.852089 17.791306 49.226547
v -3.852089 17.791306 12.242378
v 3.235081 17.791306 12.242378
v 3.235081 17.791306 15.634552
v -3.852089 17.791306 15.634552
vt 0.474769 0.295240
vt 0.476625 0.295240
vt 0.476625 0.302680
vt 0.474769 0.302680
vt 0.442077 0.351868
vt 0.442282 0.351868
vt 0.442282 0.352082
vt 0.442077 0.352082
vt 0.464989 0.304749
vt 0.464989 0.318978
vt 0.451519 0.318978
vt 0.451519 0.304749
vt 0.442304 0.351925
vt 0.442508 0.351925
vt 0.442508 0.352139
vt 0.442304 0.352139
vt 0.464019 0.363886
vt 0.464019 0.344721
vt 0.486553 0.344721
vt 0.499260 0.363886
vt 0.399651 0.363885
vt 0.399651 0.351177
vt 0.486691 0.332569
vt 0.499260 0.332618
vt 0.486453 0.344702
vt 0.486591 0.332523
vt 0.499160 0.363859
vt 0.463919 0.344702
vt 0.463919 0.363859
vt 0.499160 0.332572
vt 0.399551 0.351202
vt 0.399551 0.363858
vt 0.443937 0.350302
vt 0.444142 0.350302
vt 0.444129 0.351410
vt 0.443950 0.351410
vt 0.443937 0.349914
vt 0.444142 0.349914
vt 0.400260 0.330134
vt 0.400260 0.331901
vt 0.399964 0.331399
vt 0.399964 0.330498
vt 0.398814 0.331901
vt 0.399111 0.331399
vt 0.398814 0.330134
vt 0.399111 0.330498
vt 0.376238 0.326374
vt 0.376238 0.319998
vt 0.448550 0.319998
vt 0.448550 0.326374
vt 0.379131 0.267692
vt 0.383700 0.267692
vt 0.383700 0.272261
vt 0.379131 0.272261
vt 0.376238 0.326374
vt 0.376238 0.319998
vt 0.448550 0.319998
vt 0.448550 0.326374
vt 0.423622 0.343672
vt 0.434106 0.343672
vt 0.434106 0.354156
vt 0.423622 0.354156
vt 0.470979 0.272682
vt 0.470979 0.267756
vt 0.395360 0.267756
vt 0.395360 0.272682
vt 0.471172 0.252444
vt 0.471172 0.257370
vt 0.404671 0.257370
vt 0.404671 0.252444
vt 0.395549 0.257370
vt 0.395549 0.252444
vt 0.395105 0.261443
vt 0.404228 0.264034
vt 0.395105 0.264034
vt 0.470725 0.261443
vt 0.470728 0.263005
vt 0.404403 0.261420
vt 0.470903 0.262449
vt 0.470900 0.264011
vt 0.395280 0.264011
vt 0.395280 0.261420
vt 0.443046 0.351704
vt 0.442895 0.351704
vt 0.442868 0.351639
vt 0.443073 0.351639
vt 0.442895 0.352070
vt 0.442868 0.352174
vt 0.443046 0.352070
vt 0.443073 0.352174
vt 0.497551 0.289817
vt 0.455164 0.289817
vt 0.455164 0.275987
vt 0.497551 0.275987
vt 0.377745 0.288924
vt 0.377745 0.276880
vt 0.409293 0.296245
vt 0.428317 0.296245
vt 0.428317 0.316556
vt 0.409293 0.316556
vt 0.388765 0.269038
vt 0.389069 0.269038
vt 0.389069 0.269313
vt 0.388765 0.269313
vt 0.388764 0.268015
vt 0.389069 0.268015
vt 0.389069 0.270331
vt 0.388765 0.270331
vt 0.389069 0.270626
vt 0.388765 0.270626
vt 0.389069 0.271351
vt 0.388766 0.271351
vt 0.409281 0.296258
vt 0.428227 0.296258
vt 0.428227 0.316512
vt 0.409281 0.316512
vt 0.447588 0.339826
vt 0.475568 0.323157
vt 0.439249 0.328912
vt 0.447588 0.328912
vt 0.475501 0.323209
vt 0.475501 0.323157
vt 0.403735 0.339826
vt 0.408276 0.328912
vt 0.478708 0.328908
vt 0.478708 0.339826
vt 0.475568 0.322735
vt 0.399307 0.328912
vt 0.475501 0.322778
vt 0.475501 0.322735
vt 0.377283 0.339824
vt 0.377283 0.328936
vt 0.413343 0.339801
vt 0.475775 0.322824
vt 0.408046 0.328887
vt 0.416385 0.328887
vt 0.475708 0.322876
vt 0.475708 0.322824
vt 0.376926 0.339801
vt 0.376926 0.328883
vt 0.475775 0.323254
vt 0.447358 0.328887
vt 0.456327 0.339801
vt 0.456327 0.328887
vt 0.475708 0.323298
vt 0.475708 0.323254
vt 0.478350 0.328911
vt 0.478350 0.339799
vt 0.474989 0.298664
vt 0.474404 0.298664
vt 0.474406 0.297273
vt 0.474988 0.297273
vt 0.475659 0.297273
vt 0.475659 0.299239
vt 0.475074 0.299239
vt 0.475075 0.297273
vt 0.475745 0.297273
vt 0.476329 0.297273
vt 0.476329 0.299709
vt 0.475745 0.299709
vt 0.462673 0.329063
vt 0.462673 0.328976
vt 0.462736 0.328976
vt 0.462736 0.329063
vt 0.462814 0.329030
vt 0.462814 0.329117
vt 0.462750 0.329117
vt 0.462750 0.329030
vt 0.462827 0.329117
vt 0.462827 0.329030
vt 0.462891 0.329030
vt 0.462891 0.329117
vt 0.462968 0.329398
vt 0.462968 0.329486
vt 0.462904 0.329486
vt 0.462904 0.329398
vt 0.404403 0.261420
vt 0.395280 0.264011
vt 0.404228 0.264034
vt 0.395105 0.261443
vt 0.404671 0.257370
vt 0.404671 0.252444
vt 0.388765 0.270331
vt 0.388765 0.269313
vt 0.389069 0.269313
vt 0.389069 0.270331
vt 0.388765 0.270626
vt 0.389069 0.270626
vt 0.389069 0.269038
vt 0.388765 0.269038
vt 0.403735 0.339826
vt 0.475568 0.322778
vt 0.442291 0.339826
vt 0.442291 0.339826
vt 0.451899 0.339801
vt 0.451899 0.339801
vt 0.413343 0.339801
vt 0.475775 0.322876
vt 0.447358 0.328887
vt 0.416385 0.328887
vt 0.439249 0.328912
vt 0.408276 0.328912
vt 0.399307 0.339826
vt 0.399307 0.339826
vt 0.456327 0.339801
vt 0.475775 0.323298
vt 0.456327 0.328887
vt 0.399307 0.328912
vt 0.447588 0.339826
vt 0.475568 0.323209
vt 0.408046 0.339801
vt 0.408046 0.339801
vt 0.447588 0.328912
vt 0.408046 0.328887
vt 0.455164 0.289817
vt 0.455164 0.275987
vt 0.399111 0.330498
vt 0.399111 0.331399
vt 0.398814 0.330134
vt 0.399964 0.330498
vt 0.399964 0.331399
vt 0.398814 0.331901
vt 0.400260 0.331901
vt 0.400260 0.330134
vt 0.443046 0.352070
vt 0.443046 0.351704
vt 0.443073 0.352174
vt 0.442895 0.352070
vt 0.442868 0.352174
vt 0.443073 0.351639
vt 0.442868 0.351639
vt 0.442895 0.351704
vt 0.443937 0.350302
vt 0.444142 0.350302
vn 0.000000 0.000000 -1.000000
vn 0.000000 0.000000 -1.000000
vn 0.000000 0.000000 -1.000000
vn 0.000000 0.000000 -1.000000
vn 0.000000 -1.000000 0.000889
vn 0.000000 -1.000000 0.000889
vn 0.000000 -1.000000 0.000889
vn 0.000000 -1.000000 0.000889
vn 0.000000 0.000000 1.000000
vn 0.000000 0.000000 1.000000
vn 0.000000 0.000000 1.000000
vn 0.000000 0.000000 1.000000
vn 0.000000 -0.004260 0.999991
vn 0.000000 -0.004260 0.999991
vn 0.000000 -0.004260 0.999991
vn 0.000000 -0.004260 0.999991
vn 1.000000 0.000000 0.000000
vn 1.000000 0.000000 0.000000
vn 1.000000 0.000000 0.000000
vn 1.000000 0.000000 0.000000
vn 0.999929 0.000000 0.011932
vn 0.999929 0.000000 0.011932
vn 0.999929 0.000000 0.011932
vn 0.999929 0.000000 0.011932
vn 0.000000 -0.994974 0.100135
vn 0.000000 -0.994974 0.100135
vn 0.000000 -0.994974 0.100135
vn 0.000000 -0.994974 0.100135
vn -0.999929 0.000000 0.011931
vn -0.999929 0.000000 0.011931
vn -0.999929 0.000000 0.011931
vn -0.999929 0.000000 0.011931
vn 0.000000 0.000000 1.000000
vn 0.000000 0.000000 1.000000
vn 0.000000 0.000000 1.000000
vn 0.000000 0.000000 1.000000
vn 0.000000 0.000000 1.000000
vn 0.000000 0.000000 1.000000
vn 0.000000 0.000000 1.000000
vn 0.000000 0.000000 1.000000
vn 0.000000 0.000000 1.000000
vn 0.000000 0.000000 1.000000
vn 0.000000 0.000000 1.000000
vn 0.000000 0.000000 1.000000
vn -0.000003 0.000000 1.000000
vn -0.000003 0.000000 1.000000
vn -0.000003 0.000000 1.000000
vn -0.000003 0.000000 1.000000
vn 1.000000 0.000000 0.000000
vn 1.000000 0.000000 0.000000
vn 1.000000 0.000000 0.000000
vn 1.000000 0.000000 0.000000
vn 0.000000 1.000000 0.000000
vn 0.000000 1.000000 0.000000
vn 0.000000 1.000000 0.000000
vn 0.000000 1.000000 0.000000
vn -1.000000 0.000000 0.000000
vn -1.000000 0.000000 0.000000
vn -1.000000 0.000000 0.000000
vn -1.000000 0.000000 0.000000
vn 0.000000 -1.000000 0.000000
vn 0.000000 -1.000000 0.000000
vn 0.000000 -1.000000 0.000000
vn 0.000000 -1.000000 0.000000
vn -1.000000 0.000000 0.000000
vn -1.000000 0.000000 0.000000
vn -1.000000 0.000000 0.000000
vn -1.000000 0.000000 0.000000
vn -1.000000 0.000000 0.000000
vn -1.000000 0.000000 0.000000
vn -1.000000 0.000000 0.000000
vn -1.000000 0.000000 0.000000
vn -1.000000 0.000000 0.000000
vn -1.000000 0.000000 0.000000
vn 1.000000 -0.000000 -0.000000
vn 1.000000 -0.000000 -0.000000
vn 1.000000 -0.000000 -0.000000
vn 1.000000 0.000000 0.000000
vn 1.000000 0.000000 0.000000
vn 1.000000 0.000000 0.000000
vn 0.000000 1.000000 0.000000
vn 0.000000 1.000000 0.000000
vn 0.000000 1.000000 0.000000
vn 0.000000 1.000000 0.000000
vn 0.000000 -0.970071 0.242820
vn 0.000000 -0.970071 0.242820
vn 0.000000 -0.970071 0.242820
vn 0.000000 -0.970071 0.242820
vn 1.000000 0.000000 0.000000
vn 1.000000 0.000000 0.000000
vn 1.000000 0.000000 0.000000
vn -1.000000 -0.000000 0.000000
vn -1.000000 -0.000000 0.000000
vn -1.000000 -0.000000 0.000000
vn -1.000000 -0.000000 0.000000
vn 0.000000 -0.999999 0.001294
vn 0.000000 -0.999999 0.001294
vn 0.000000 -0.999999 0.001294
vn 0.000000 -0.999999 0.001294
vn 0.000000 0.001231 -0.999999
vn 0.000000 0.001231 -0.999999
vn 0.000000 0.001231 -0.999999
vn 0.000000 0.001231 -0.999999
vn -0.002114 -0.000050 -0.999998
vn -0.002114 -0.000050 -0.999998
vn -0.002114 -0.000050 -0.999998
vn -0.002114 -0.000050 -0.999998
vn 0.000000 -0.000328 -1.000000
vn 0.000000 -0.000328 -1.000000
vn 0.000000 -0.000328 -1.000000
vn 0.000000 -0.000328 -1.000000
vn 0.002114 -0.000050 -0.999998
vn 0.002114 -0.000050 -0.999998
vn 0.002114 -0.000050 -0.999998
vn 0.002114 -0.000050 -0.999998
vn -1.000000 0.000000 0.000000
vn -1.000000 0.000000 0.000000
vn -1.000000 0.000000 0.000000
vn 1.000000 -0.000000 0.000000
vn 1.000000 -0.000000 0.000000
vn 1.000000 -0.000000 0.000000
vn 1.000000 -0.000000 0.000000
vn 0.000000 1.000000 0.000040
vn 0.000000 1.000000 0.000040
vn 0.000000 1.000000 0.000040
vn 0.000000 1.000000 0.000040
vn 0.000000 1.000000 0.000425
vn 0.000000 1.000000 0.000425
vn 0.000000 1.000000 0.000425
vn 0.000000 1.000000 0.000425
vn 0.000000 -1.000000 0.000000
vn 0.000000 -1.000000 0.000000
vn 0.000000 -1.000000 0.000000
vn 0.000000 -1.000000 0.000000
vn 0.000000 0.000000 1.000000
vn 0.000000 0.000000 1.000000
vn 0.000000 0.000000 1.000000
vn 0.000000 0.000000 1.000000
vn 0.000000 1.000000 0.000000
vn 0.000000 1.000000 0.000000
vn 0.000000 1.000000 0.000000
vn 0.000000 1.000000 0.000000
vn 0.000000 0.000000 -1.000000
vn 0.000000 0.000000 -1.000000
vn 0.000000 0.000000 -1.000000
vn 0.000000 0.000000 -1.000000
vn 1.000000 0.000000 0.000000
vn 1.000000 0.000000 0.000000
vn 1.000000 0.000000 0.000000
vn 1.000000 0.000000 0.000000
vn -1.000000 0.000000 0.000000
vn -1.000000 0.000000 0.000000
vn -1.000000 0.000000 0.000000
vn -1.000000 0.000000 0.000000
vn 0.000000 1.000000 -0.000152
vn 0.000000 1.000000 -0.000152
vn 0.000000 1.000000 -0.000152
vn 0.000000 1.000000 -0.000152
vn -1.000000 0.000000 -0.000146
vn -1.000000 0.000000 -0.000146
vn -1.000000 0.000000 -0.000146
vn -1.000000 0.000000 -0.000146
vn 0.000000 -1.000000 -0.000091
vn 0.000000 -1.000000 -0.000091
vn 0.000000 -1.000000 -0.000091
vn 0.000000 -1.000000 -0.000091
vn -0.999999 0.000000 -0.001226
vn -0.999999 0.000000 -0.001226
vn -0.999999 0.000000 -0.001226
vn -0.999999 0.000000 -0.001226
vn 0.000000 -1.000000 -0.000012
vn 0.000000 -1.000000 -0.000012
vn 0.000000 -1.000000 -0.000012
vn 0.000000 -1.000000 -0.000012
vn 1.000000 0.000000 -0.000029
vn 1.000000 0.000000 -0.000029
vn 1.000000 0.000000 -0.000029
vn 1.000000 0.000000 -0.000029
vn 0.000000 0.999999 -0.001279
vn 0.000000 0.999999 -0.001279
vn 0.000000 0.999999 -0.001279
vn 0.000000 0.999999 -0.001279
vn 1.000000 0.000000 -0.000251
vn 1.000000 0.000000 -0.000251
vn 1.000000 0.000000 -0.000251
vn 1.000000 0.000000 -0.000251
vn 0.000000 1.000000 0.000000
vn 0.000000 1.000000 0.000000
vn 0.000000 1.000000 0.000000
vn 0.000000 1.000000 0.000000
vn -1.000000 0.000000 0.000000
vn -1.000000 0.000000 0.000000
vn -1.000000 0.000000 0.000000
vn -1.000000 0.000000 0.000000
vn 1.000000 0.000000 0.000000
vn 1.000000 0.000000 0.000000
vn 1.000000 0.000000 0.000000
vn 1.000000 0.000000 0.000000
vn 0.000000 1.000000 0.000000
vn 0.000000 1.000000 0.000000
vn 0.000000 1.000000 0.000000
vn 0.000000 1.000000 0.000000
vn -1.000000 -0.000000 0.000000
vn -1.000000 -0.000000 0.000000
vn -1.000000 -0.000000 0.000000
vn -1.000000 -0.000000 0.000000
vn 0.000000 -1.000000 0.000000
vn 0.000000 -1.000000 0.000000
vn 0.000000 -1.000000 0.000000
vn 0.000000 -1.000000 0.000000
vn 1.000000 0.000000 0.000000
vn 1.000000 0.000000 0.000000
vn 1.000000 0.000000 0.000000
vn 1.000000 0.000000 0.000000
vn 0.000000 0.000000 -1.000000
vn 0.000000 0.000000 -1.000000
vn 0.000000 0.000000 -1.000000
vn 0.000000 0.000000 -1.000000
vn 1.000000 0.000000 0.000000
vn 1.000000 0.000000 0.000000
vn 1.000000 0.000000 0.000000
vn 1.000000 0.000000 0.000000
vn 0.000000 0.000000 1.000000
vn 0.000000 0.000000 1.000000
vn 0.000000 0.000000 1.000000
vn 0.000000 0.000000 1.000000
vn -1.000000 0.000000 0.000000
vn -1.000000 0.000000 0.000000
vn -1.000000 0.000000 0.000000
vn -1.000000 0.000000 0.000000
vn 0.000000 0.000000 -1.000000
vn 0.000000 0.000000 -1.000000
vn 0.000000 0.000000 -1.000000
vn 0.000000 0.000000 -1.000000
vn 1.000000 0.000000 0.000000
vn 1.000000 0.000000 0.000000
vn 1.000000 0.000000 0.000000
vn 1.000000 0.000000 0.000000
vn 0.000000 0.000000 1.000000
vn 0.000000 0.000000 1.000000
vn 0.000000 0.000000 1.000000
vn 0.000000 0.000000 1.000000
vn -1.000000 0.000000 0.000000
vn -1.000000 0.000000 0.000000
vn -1.000000 0.000000 0.000000
vn -1.000000 0.000000 0.000000
s off
f 29/1/1 30/2/2 32/3/3 31/4/4
f 4/5/5 3/6/6 2/7/7 1/8/8
f 21/9/9 22/10/10 23/11/11 24/12/12
f 1/13/13 2/14/14 11/15/15 12/16/16
f 9/17/17 7/18/18 11/19/19 6/20/20
f 7/18/21 9/17/22 14/21/23 13/22/24
f 8/33/25 7/34/26 13/35/27 15/36/28
f 10/29/29 8/28/30 15/31/31 16/32/32
f 13/39/33 14/40/34 18/221/35 17/42/36
f 18/41/37 14/223/38 16/222/39 20/218/40
f 15/45/41 13/224/42 17/220/43 19/46/44
f 16/43/45 15/219/46 19/217/47 20/44/48
f 17/47/49 18/48/50 22/49/51 21/50/52
f 18/51/53 20/52/54 23/53/55 22/54/56
f 20/55/57 19/56/58 24/57/59 23/58/60
f 19/59/61 17/60/62 21/61/63 24/62/64
f 5/27/65 12/25/66 8/28/67 10/29/68
f 12/25/69 5/27/70 1/26/71
f 1/26/72 5/27/73 4/30/74
f 6/20/75 11/19/76 2/23/77
f 6/20/78 2/23/79 3/24/80
f 27/63/81 28/64/82 30/65/83 29/66/84
f 25/67/85 26/68/86 33/69/87 34/182/88
f 30/180/89 34/179/90 32/75/91
f 33/177/92 26/79/93 27/80/94 29/178/95
f 34/70/96 33/181/97 31/71/98 32/72/99
f 28/226/100 27/232/101 5/231/102 6/230/103
f 27/84/104 26/228/105 4/88/106 5/85/107
f 3/90/108 4/229/109 26/87/110 25/89/111
f 25/225/112 28/83/113 6/86/114 3/227/115
f 33/78/116 29/81/117 31/82/118
f 30/73/119 28/76/120 25/77/121 34/74/122
f 5/91/123 10/215/124 9/93/125 6/94/126
f 10/92/127 16/95/128 14/96/129 9/216/130
f 8/233/131 12/37/132 11/38/133 7/234/134
f 43/97/135 44/98/136 45/99/137 46/100/138
f 37/101/139 38/189/140 55/103/141 56/184/142
f 47/113/143 48/114/144 49/115/145 50/116/146
f 36/209/147 58/193/148 55/201/149 38/120/150
f 57/197/151 35/211/152 37/214/153 56/136/154
f 38/102/155 37/190/156 46/105/157 45/106/158
f 37/135/159 35/212/160 43/139/161 46/140/162
f 42/149/163 41/150/164 50/151/165 49/152/166
f 41/143/167 39/207/168 47/147/169 50/148/170
f 36/153/171 44/154/172 43/155/173 35/156/174
f 38/213/175 45/125/176 44/126/177 36/117/178
f 40/188/179 48/111/180 47/112/181 39/110/182
f 42/204/183 49/131/184 48/132/185 40/128/186
f 52/108/187 51/186/188 40/109/189 39/187/190
f 41/205/191 53/195/192 52/199/193 39/144/194
f 51/124/195 54/191/196 42/203/197 40/208/198
f 56/104/199 55/185/200 51/107/201 52/183/202
f 53/196/203 57/133/204 56/200/205 52/142/206
f 53/157/207 54/158/208 58/159/209 57/160/210
f 55/119/211 58/194/212 54/123/213 51/202/214
f 57/161/215 58/162/216 60/163/217 59/164/218
f 58/118/219 36/210/220 61/121/221 60/122/222
f 36/165/223 35/166/224 62/167/225 61/168/226
f 35/134/227 57/198/228 59/137/229 62/138/230
f 41/169/231 42/170/232 64/171/233 63/172/234
f 42/127/235 54/192/236 65/129/237 64/130/238
f 54/173/239 53/174/240 66/175/241 65/176/242
f 53/141/243 41/206/244 63/145/245 66/146/246
