# This file uses meters as units for non-parametric coordinates.

v 0.448650 1.586998 -0.244005
v -1.993721 0.382019 -0.244005
v -1.993721 0.382018 -0.436423
v -1.993721 -0.000000 -0.436423
v 0.448650 1.586998 0.180512
v -1.993721 0.382019 0.180511
v -1.993721 -0.000000 0.180511
v -1.993721 0.773514 -0.244005
v -1.993721 0.773514 0.180512
v 1.446364 0.724110 -0.244005
v 1.446364 0.724110 0.180512
v 0.816532 1.103894 -0.244005
v 0.816531 1.103894 0.180512
v 1.446364 0.355804 -0.217790
v 1.446364 0.382019 -0.437638
v 1.446364 0.000000 -0.437638
v 1.446364 0.000000 -0.217790
v 1.466588 -0.000000 0.180512
v -1.080328 0.773514 -0.244005
v -1.080328 0.773514 0.180512
v -0.685131 1.364304 -0.244005
v -0.685131 1.364304 0.180512
vt 0.148308 0.719354
vt 0.150879 0.715852
vt 0.150879 0.714954
vt 0.150879 0.715852
vt 0.149360 0.717010
vt 0.147172 0.718630
vt 0.147729 0.718630
vt 0.147298 0.715852
vt 0.147298 0.715852
vt 0.147298 0.714954
vt 0.215796 0.811457
vt 0.261806 0.811457
vt 0.238801 0.857467
vt 0.215796 0.811457
vt 0.261806 0.811457
vt 0.261806 0.857467
vt 0.215796 0.857467
vt 0.215796 0.811457
vt 0.261806 0.811457
vt 0.238801 0.857467
vt 0.215796 0.811457
vt 0.261806 0.811457
vt 0.238801 0.857467
vt 0.159070 0.630365
vt 0.160974 0.630365
vt 0.159070 0.628128
vt 0.160974 0.628128
vt 0.159070 0.625890
vt 0.160974 0.625890
vt 0.159070 0.621284
vt 0.160974 0.621284
vt 0.159070 0.614936
vt 0.160974 0.614936
vt 0.194361 0.719318
vt 0.227370 0.755999
vt 0.194361 0.755999
vt 0.194361 0.702691
vt 0.227370 0.702691
vt 0.082852 0.655101
vt 0.082392 0.655101
vt 0.082392 0.647375
vt 0.082855 0.647140
vt 0.105376 0.827624
vt 0.105376 0.827852
vt 0.105245 0.827837
vt 0.105245 0.827624
vt 0.105007 0.827624
vt 0.105260 0.828559
vt 0.105007 0.828559
vt 0.159070 0.623587
vt 0.148834 0.718182
vt 0.238801 0.811457
vt 0.160974 0.623587
vt 0.159070 0.624739
vt 0.148571 0.718768
vt 0.227299 0.811457
vt 0.160974 0.624739
vn -0.000365 0.000000 -1.000000
vn -0.000365 0.000000 -1.000000
vn -0.000353 0.000000 -1.000000
vn -0.000353 0.000000 -1.000000
vn -0.000000 1.000000 -0.000002
vn -0.000000 1.000000 -0.000002
vn 0.003572 0.997978 0.063457
vn 0.003572 0.997978 0.063457
vn -0.192734 0.981251 -0.000000
vn -0.192734 0.981251 -0.000000
vn -0.192734 0.981251 -0.000000
vn -0.192734 0.981251 -0.000000
vn -1.000000 0.000000 0.000000
vn -1.000000 0.000000 0.000000
vn -1.000000 0.000000 0.000000
vn -1.000000 0.000000 0.000000
vn -1.000000 0.000000 0.000000
vn -1.000000 0.000000 0.000000
vn -1.000000 0.000000 0.000000
vn -1.000000 0.000000 0.000000
vn -1.000000 0.000000 0.000000
vn -1.000000 0.000000 0.000000
vn -1.000000 0.000000 0.000000
vn 0.516379 0.856360 0.000000
vn 0.516379 0.856360 0.000000
vn 0.516379 0.856360 0.000000
vn 0.516379 0.856360 0.000000
vn 0.795589 0.605837 0.000000
vn 0.795589 0.605837 0.000000
vn 0.795589 0.605837 0.000000
vn 0.795589 0.605837 0.000000
vn 1.000000 0.000000 0.000000
vn 1.000000 0.000000 0.000000
vn 1.000000 0.000000 0.000000
vn 1.000000 0.000000 0.000000
vn 0.000000 0.000000 1.000000
vn 0.000000 0.000000 1.000000
vn 0.000000 0.000000 1.000000
vn 0.000000 0.000000 1.000000
vn 0.000000 0.000000 1.000000
vn -0.000000 -0.000000 1.000000
vn -0.000000 -0.000000 1.000000
vn -0.000000 -0.000000 1.000000
vn -0.000000 -0.000000 1.000000
vn -0.000000 0.000000 1.000000
vn -0.000000 0.000000 1.000000
vn -0.000000 0.000000 1.000000
vn 0.000000 0.000000 1.000000
vn 0.000000 0.000000 1.000000
vn 0.000000 0.000000 1.000000
vn 0.000000 0.000000 -1.000000
vn 0.001722 -0.017317 -0.999849
vn 0.001722 -0.017317 -0.999849
vn 0.001722 -0.017317 -0.999849
vn 0.000000 0.000000 -1.000000
vn 0.001722 -0.017317 -0.999849
vn 0.001722 -0.017317 -0.999849
vn 0.001722 -0.017317 -0.999849
vn 0.998713 0.000000 -0.050709
vn 0.998713 0.000000 -0.050709
vn 0.998713 0.000000 -0.050709
vn 0.999696 0.018106 -0.016741
vn 0.999696 0.018106 -0.016741
vn 0.999696 0.018106 -0.016741
vn 0.999696 0.018106 -0.016741
vn 0.000000 1.000000 0.000000
vn 0.000000 1.000000 0.000000
vn 0.000000 1.000000 0.000000
vn 0.000000 1.000000 0.000000
vn -0.831181 0.556002 0.000000
vn -0.831181 0.556002 0.000000
vn -0.831181 0.556002 0.000000
vn -0.831181 0.556002 0.000000
s off
f 4/3/1 3/2/2 15/9/3 16/10/4
f 3/39/5 2/40/6 14/41/7 15/42/8
f 1/28/9 21/54/10 22/57/11 5/29/12
f 2/34/13 7/35/14 6/36/15
f 2/34/16 3/37/17 4/38/18 7/35/19
f 8/30/20 2/32/21 6/33/22 9/31/23
f 10/24/24 12/26/25 13/27/26 11/25/27
f 12/26/28 1/28/29 5/29/30 13/27/31
f 16/43/32 15/44/33 14/45/34 17/46/35
f 5/11/36 22/56/37 20/52/38 9/12/39 18/13/40
f 9/14/41 6/15/42 7/16/43 18/17/44
f 11/18/45 13/19/46 18/20/47
f 13/21/48 5/22/49 18/23/50
f 2/4/51 8/5/52 19/51/53 21/55/54 1/1/55 12/7/56 10/6/57 14/8/58
f 14/45/59 18/47/60 17/46/61
f 10/48/62 11/49/63 18/47/64 14/45/65
f 19/50/66 8/30/67 9/31/68 20/53/69
f 21/54/70 19/50/71 20/53/72 22/57/73
