# This file uses meters as units for non-parametric coordinates.

v 2.133320 0.382019 -0.133538
v 2.330315 0.382021 -0.330212
v 2.514501 0.000000 -0.330212
v -3.184818 1.450937 -0.133538
v -0.032612 1.248544 -0.133538
v -0.525749 1.994035 -0.133538
v -3.184818 1.504889 0.290979
v -0.032612 1.248544 0.290978
v 2.133320 0.382019 0.290978
v -0.525749 1.994035 0.290979
v 2.133320 0.719229 -0.133538
v 2.133320 0.836125 0.290978
v 1.050354 0.652707 -0.133538
v 1.050354 0.682617 0.290978
v -1.855283 0.906558 -0.133538
v -1.643025 1.094574 0.290979
v -1.084387 1.647848 0.290979
v -1.190516 1.459831 -0.133538
v -2.201663 1.504889 0.290979
v -2.520051 1.450937 -0.133538
v -3.184818 0.382019 -0.133538
v -3.184818 0.382020 -0.330213
v -3.184818 0.000000 -0.330213
v 2.330315 0.382021 0.290978
v 2.514502 0.000000 0.290978
v -3.184818 -0.000000 0.290979
v -3.486767 0.000000 0.280398
v -3.597293 0.368912 0.162498
v -3.603847 0.375465 -0.071101
v -3.493321 0.000000 -0.152390
v -3.987127 0.000000 0.253674
v -3.914910 0.220690 0.193025
v -3.921463 0.227244 -0.133668
v -3.993681 0.000000 -0.214957
v 0.862211 0.000000 0.290979
v 0.862211 0.382019 -0.133538
v 0.862211 0.382021 -0.330213
v 0.862211 0.000000 -0.330213
v 0.245659 0.382019 -0.133538
v 0.153325 0.382021 -0.330213
v 0.409289 0.000000 -0.330213
v 0.503360 -0.000000 0.290979
vt 0.158704 0.842750
vt 0.158704 0.842750
vt 0.158704 0.843647
vt 0.147925 0.837809
vt 0.154314 0.839561
vt 0.153315 0.837809
vt 0.158704 0.840279
vt 0.156509 0.840536
vt 0.150620 0.838773
vt 0.151967 0.838622
vt 0.149273 0.837809
vt 0.149946 0.841515
vt 0.153315 0.842750
vt 0.153315 0.843647
vt 0.159070 0.643928
vt 0.160974 0.642024
vt 0.163480 0.642024
vt 0.162052 0.643928
vt 0.165985 0.642024
vt 0.165033 0.643928
vt 0.168015 0.643928
vt 0.168491 0.642024
vt 0.170996 0.643928
vt 0.170996 0.642024
vt 0.173208 0.643928
vt 0.173208 0.642024
vt 0.178066 0.642024
vt 0.178066 0.643928
vt 0.182923 0.642024
vt 0.182923 0.643928
vt 0.208304 0.721632
vt 0.208304 0.752414
vt 0.195875 0.752414
vt 0.195875 0.721632
vt 0.251171 0.811549
vt 0.251171 0.838554
vt 0.234564 0.838554
vt 0.234564 0.811549
vt 0.082373 0.653955
vt 0.081903 0.655546
vt 0.081903 0.647600
vt 0.082373 0.647129
vt 0.080888 0.647600
vt 0.080888 0.647129
vt 0.113976 0.722915
vt 0.101332 0.742743
vt 0.095912 0.739158
vt 0.098429 0.735098
vt 0.098895 0.731037
vt 0.095912 0.726976
vt 0.095912 0.722915
vt 0.070488 0.745649
vt 0.053794 0.747962
vt 0.053298 0.723249
vt 0.070488 0.717100
vt 0.233475 0.645475
vt 0.233742 0.622095
vt 0.251212 0.628369
vt 0.250945 0.641700
vt 0.156318 0.851560
vt 0.116314 0.851560
vt 0.116314 0.798252
vt 0.140525 0.805946
vt 0.141425 0.850493
vt 0.098996 0.850493
vt 0.116043 0.801254
vt 0.141425 0.792949
vt 0.107654 0.732829
vt 0.104493 0.737786
vt 0.106073 0.735307
vt 0.110815 0.727872
vt 0.109234 0.730350
vt 0.132158 0.734016
vt 0.132158 0.730421
vt 0.138003 0.730422
vt 0.134009 0.734016
vt 0.134009 0.753802
vt 0.138003 0.753802
vt 0.191562 0.890996
vt 0.230060 0.890996
vt 0.230060 0.929494
vt 0.191562 0.929494
vt 0.111605 0.726632
vt 0.152978 0.842132
vt 0.081903 0.653163
vt 0.156009 0.842750
vt 0.082373 0.650542
vt 0.156009 0.843647
vt 0.151769 0.841886
vt 0.081903 0.654113
vt 0.154873 0.842750
vt 0.082373 0.651981
vt 0.154662 0.843647
vt 0.112790 0.724774
vt 0.081694 0.940772
vt 0.064180 0.906752
vt 0.119499 0.906752
vt 0.064180 0.940772
vt 0.119499 0.967541
vt 0.081694 0.964878
vt 0.237567 0.706149
vt 0.259968 0.719925
vt 0.252876 0.719925
vt 0.259968 0.706149
vt 0.252876 0.751174
vt 0.237567 0.751174
vn -0.000000 0.000000 -1.000000
vn -0.000000 0.000000 -1.000000
vn -0.000000 0.000000 -1.000000
vn -0.000000 0.000000 -1.000000
vn -0.000000 0.000000 -1.000000
vn -0.000000 0.000000 -1.000000
vn -0.000000 0.000000 -1.000000
vn -0.000000 0.000000 -1.000000
vn -0.099603 0.980478 -0.169534
vn -0.099603 0.980478 -0.169534
vn -0.099603 0.980478 -0.169534
vn -0.099603 0.980478 -0.169534
vn 0.000000 0.992021 -0.126077
vn 0.000000 0.992021 -0.126077
vn 0.000000 0.992021 -0.126077
vn 0.000000 0.992021 -0.126077
vn 0.834037 0.551709 -0.000000
vn 0.182671 0.980189 -0.076557
vn 0.182671 0.980189 -0.076557
vn 0.834037 0.551709 -0.000000
vn 1.000000 0.000001 -0.000000
vn 1.000000 0.000001 -0.000000
vn 1.000000 0.000001 -0.000000
vn 1.000000 0.000001 -0.000000
vn -0.668823 0.739455 -0.076693
vn -0.668823 0.739455 -0.076693
vn -0.668823 0.739455 -0.076693
vn -0.668823 0.739455 -0.076693
vn 0.182671 0.980189 -0.076557
vn -0.580805 0.807095 -0.106129
vn -0.580805 0.807095 -0.106129
vn 0.182671 0.980189 -0.076557
vn 0.525395 0.673275 -0.520251
vn 0.525395 0.673275 -0.520251
vn 0.525395 0.673275 -0.520251
vn 0.525395 0.673275 -0.520251
vn -0.000000 1.000000 0.000006
vn -0.000000 1.000000 0.000006
vn -0.000000 1.000000 0.000006
vn -0.000000 1.000000 0.000006
vn 0.000000 0.000000 -1.000000
vn 0.000000 0.000000 -1.000000
vn 0.000000 0.000000 -1.000000
vn 0.000000 0.000000 -1.000000
vn -0.951832 0.306078 0.018210
vn -0.951832 0.306078 0.018210
vn -0.951832 0.306078 0.018210
vn -0.951832 0.306078 0.018210
vn -0.000011 1.000000 0.000000
vn -0.000011 1.000000 0.000000
vn -0.000011 1.000000 0.000000
vn -0.000011 1.000000 0.000000
vn 0.900771 0.434295 -0.000000
vn 0.900771 0.434295 -0.000000
vn 0.900771 0.434295 -0.000000
vn 0.900771 0.434295 -0.000000
vn 0.000000 0.000000 1.000000
vn 0.000000 0.000000 1.000000
vn 0.000000 0.000000 1.000000
vn 0.000000 0.000000 1.000000
vn 0.000000 0.000000 1.000000
vn 0.000000 0.000000 1.000000
vn -0.047499 0.286677 0.956849
vn -0.047499 0.286677 0.956849
vn -0.047499 0.286677 0.956849
vn -0.047499 0.286677 0.956849
vn -0.423969 0.905143 0.031094
vn -0.423969 0.905143 0.031094
vn -0.423969 0.905143 0.031094
vn -0.423969 0.905143 0.031094
vn 0.098715 0.265009 -0.959180
vn 0.098715 0.265009 -0.959180
vn 0.098715 0.265009 -0.959180
vn 0.098715 0.265009 -0.959180
vn 0.000000 0.000000 1.000000
vn 0.000000 0.000000 1.000000
vn 0.000000 0.000000 1.000000
vn 0.000000 0.000000 1.000000
vn 0.000000 0.000000 1.000000
vn 0.000000 0.000000 1.000000
vn 0.000000 0.000000 1.000000
vn 0.000000 0.000000 1.000000
vn 0.000000 0.000000 1.000000
vn 0.000000 -0.000000 1.000000
vn 0.000000 -0.000000 1.000000
vn 0.000000 -0.000000 1.000000
vn 0.000000 -0.000000 1.000000
vn 0.000000 -0.000000 1.000000
vn 0.000000 -0.000000 1.000000
vn -1.000000 0.000000 0.000000
vn -1.000000 0.000000 0.000000
vn -1.000000 0.000000 0.000000
vn -1.000000 0.000000 0.000000
vn -1.000000 0.000000 0.000000
vn -1.000000 0.000000 0.000000
vn -1.000000 0.000000 0.000000
vn -1.000000 0.000000 0.000000
vn 0.958716 0.283913 -0.016066
vn 0.958716 0.283913 -0.016066
vn 0.958716 0.283913 -0.016066
vn 0.958716 0.283913 -0.016066
vn 0.000000 -0.000000 -1.000000
vn 0.000000 -0.000000 -1.000000
vn 0.000000 -0.000000 -1.000000
vn 0.000000 0.000000 -1.000000
vn -0.000000 1.000000 0.000010
vn -0.000000 1.000000 0.000010
vn -0.000000 1.000000 0.000005
vn -0.000000 1.000000 0.000005
vn 0.000000 0.000000 -1.000000
vn 0.000000 0.000000 -1.000000
vn 0.000000 0.000000 -1.000000
vn 0.000000 0.000000 -1.000000
vn 0.000000 0.000000 1.000000
vn 0.000000 0.000000 1.000000
vn 0.000000 0.000000 1.000000
vn -0.820472 0.570273 -0.040179
vn -0.820472 0.570273 -0.040179
vn -0.820472 0.570273 -0.040179
vn -1.000000 0.000000 0.000000
vn -1.000000 0.000000 0.000000
vn -1.000000 0.000000 0.000000
vn -0.937621 0.258428 0.232557
vn -0.937621 0.258428 0.232557
vn -0.937621 0.258428 0.232557
vn -1.000000 0.000000 0.000000
vn -1.000000 0.000000 0.000000
vn -1.000000 0.000000 0.000000
vn 0.824262 0.552278 -0.124824
vn 0.824262 0.552278 -0.124824
vn 0.824262 0.552278 -0.124824
vn 0.896661 0.137075 -0.420962
vn 0.896661 0.137075 -0.420962
vn 0.896661 0.137075 -0.420962
vn 0.926409 0.356642 -0.120717
vn 0.926409 0.356642 -0.120717
vn 0.926409 0.356642 -0.120717
vn 0.926409 0.356642 -0.120717
s off
f 21/12/1 4/4/2 20/11/3 15/9/4 18/10/5 6/6/6 5/5/7 39/89/8
f 12/29/9 11/30/10 13/28/11 14/27/12
f 19/17/13 20/18/14 4/15/15 7/16/16
f 5/25/17 6/23/18 10/24/19 8/26/20
f 1/31/21 11/32/22 12/33/23 9/34/24
f 18/21/25 15/20/26 16/19/27 17/22/28
f 6/23/29 18/21/30 17/22/31 10/24/32
f 16/19/33 15/20/34 20/18/35 19/17/36
f 22/39/37 21/40/38 39/90/39 40/92/40
f 41/93/41 23/14/42 22/13/43 40/91/44
f 31/52/45 32/53/46 33/54/47 34/55/48
f 2/42/49 1/41/50 9/43/51 24/44/52
f 2/35/53 24/36/54 25/37/55 3/38/56
f 19/50/57 7/51/58 26/45/59
f 9/68/60 25/71/61 24/72/62
f 27/64/63 28/65/64 32/66/65 31/67/66
f 28/56/67 29/57/68 33/58/69 32/59/70
f 29/60/71 30/61/72 34/62/73 33/63/74
f 9/68/75 35/83/76 25/71/77
f 14/69/78 9/68/79 12/70/80
f 14/69/81 35/83/82 9/68/83
f 26/45/84 8/46/85 10/47/86 17/48/87 16/49/88 19/50/89
f 22/73/90 23/74/91 26/75/92 21/76/93
f 4/77/94 21/76/95 26/75/96 7/78/97
f 29/79/98 28/80/99 27/81/100 30/82/101
f 36/84/102 13/8/103 11/7/104 1/1/105
f 37/87/106 36/85/107 1/41/108 2/42/109
f 3/3/110 38/88/111 37/86/112 2/2/113
f 26/45/114 42/94/115 8/46/116
f 36/95/117 14/99/118 13/100/119
f 36/95/120 38/96/121 35/97/122
f 36/95/123 35/97/124 14/99/125
f 37/98/126 38/96/127 36/95/128
f 41/104/129 40/102/130 42/101/131
f 42/101/132 40/102/133 39/103/134
f 42/101/135 39/103/136 5/105/137 8/106/138
