# This file uses meters as units for non-parametric coordinates.

v 7.681055 -11.314569 7.681057
v 7.681056 -11.314569 -7.681056
v 7.681055 12.911734 7.681057
v 7.681056 12.911734 -7.681056
v -7.681056 12.911734 7.681056
v -7.681056 12.911734 -7.681056
v -7.681056 -11.314569 7.681056
v -7.681056 -11.314569 -7.681056
v -2.560350 12.911734 -7.681056
v 2.560352 12.911734 -7.681055
v 2.560352 -6.249220 -7.681055
v -2.560350 -6.249220 -7.681056
v 2.560352 12.911734 3.044643
v -2.560351 12.911734 3.044643
v 2.560352 -6.249220 -10.054070
v 2.560352 19.595833 -10.039986
v -2.560351 -6.249220 -10.054071
v -2.560351 19.595833 -10.039986
v 2.560352 19.615456 3.044643
v -2.560351 19.615456 3.044643
vt 0.417492 0.156210
vt 0.392403 0.156210
vt 0.392403 0.197887
vt 0.417492 0.197887
vt 0.399424 0.147604
vt 0.407913 0.239319
vt 0.392403 0.128918
vt 0.399424 0.128918
vt 0.406446 0.147604
vt 0.413709 0.156210
vt 0.413709 0.128918
vt 0.406446 0.128918
vt 0.417520 0.197887
vt 0.413709 0.197887
vt 0.407926 0.227244
vt 0.417520 0.156209
vt 0.392403 0.224651
vt 0.389900 0.227223
vt 0.389936 0.193842
vt 0.413709 0.224651
vt 0.419690 0.189063
vt 0.385802 0.193837
vt 0.385778 0.239260
vt 0.419690 0.156209
vt 0.421561 0.189063
vt 0.423283 0.197887
vt 0.421561 0.156209
vt 0.423282 0.156209
vt 0.407845 0.239289
vt 0.417494 0.239329
vt 0.417507 0.227253
vt 0.407845 0.227214
vt 0.376857 0.239255
vt 0.385686 0.193832
vt 0.376881 0.193832
vt 0.385710 0.239255
vt 0.376883 0.189698
vt 0.407890 0.247844
vt 0.385755 0.247785
vt 0.385804 0.189703
vt 0.389820 0.227214
vt 0.389820 0.193832
vt 0.413673 0.197887
vt 0.413673 0.156210
vn 1.000000 0.000000 0.000000
vn 1.000000 0.000000 0.000000
vn 1.000000 0.000000 0.000000
vn 1.000000 0.000000 0.000000
vn 0.000000 1.000000 0.000000
vn 0.000000 1.000000 0.000000
vn 0.000000 1.000000 0.000000
vn 0.000000 1.000000 0.000000
vn -1.000000 0.000000 -0.000000
vn -1.000000 0.000000 -0.000000
vn -1.000000 0.000000 -0.000000
vn -1.000000 0.000000 -0.000000
vn 0.000000 -1.000000 0.000000
vn 0.000000 -1.000000 0.000000
vn 0.000000 -1.000000 0.000000
vn 0.000000 -1.000000 0.000000
vn 0.000000 -0.000000 -1.000000
vn 0.000000 -0.000000 -1.000000
vn 0.000000 0.000000 -1.000000
vn 0.000000 0.000000 -1.000000
vn -0.000000 0.000000 1.000000
vn -0.000000 0.000000 1.000000
vn -0.000000 0.000000 1.000000
vn -0.000000 0.000000 1.000000
vn 0.000000 0.000545 -1.000000
vn 0.000000 0.000545 -1.000000
vn 0.000000 0.000545 -1.000000
vn 0.000000 0.000545 -1.000000
vn 0.000000 0.999999 -0.001500
vn 0.000000 0.999999 -0.001500
vn 0.000000 0.999999 -0.001500
vn 0.000000 0.999999 -0.001500
vn 1.000000 0.000000 -0.000000
vn 1.000000 0.000000 -0.000000
vn 1.000000 0.000000 -0.000000
vn 1.000000 0.000000 -0.000000
vn 0.000000 -1.000000 0.000000
vn 0.000000 -1.000000 0.000000
vn 0.000000 -1.000000 0.000000
vn 0.000000 -1.000000 0.000000
vn -1.000000 0.000000 -0.000000
vn -1.000000 0.000000 -0.000000
vn -1.000000 0.000000 -0.000000
vn -1.000000 0.000000 -0.000000
vn -0.000000 0.000000 1.000000
vn -0.000000 0.000000 1.000000
vn -0.000000 0.000000 1.000000
vn -0.000000 0.000000 1.000000
vn 1.000000 0.000000 0.000000
vn 1.000000 0.000000 -0.000000
vn 1.000000 0.000000 -0.000000
vn 1.000000 0.000000 0.000000
vn -1.000000 0.000000 -0.000000
vn -1.000000 0.000000 -0.000000
vn -1.000000 0.000000 -0.000000
vn -1.000000 0.000000 -0.000000
vn 0.000000 -0.000000 -1.000000
vn 0.000000 -0.000000 -1.000000
vn 0.000000 0.000000 -1.000000
vn 0.000000 0.000000 -1.000000
vn 0.000000 -0.000000 -1.000000
vn 0.000000 -0.000000 -1.000000
vn 0.000000 -0.000000 -1.000000
vn 0.000000 -0.000000 -1.000000
vn 0.000000 1.000000 0.000000
vn 0.000000 1.000000 0.000000
vn 0.000000 1.000000 0.000000
vn 0.000000 1.000000 0.000000
vn 0.000000 1.000000 0.000000
vn 0.000000 1.000000 0.000000
vn 0.000000 1.000000 0.000000
vn 0.000000 1.000000 0.000000
s off
f 4/1/1 3/44/2 1/43/3 2/4/4
f 13/5/5 3/2/6 4/7/7 10/8/8
f 8/13/9 7/14/10 5/10/11 6/16/12
f 2/17/13 1/3/14 7/14/15 8/20/16
f 12/21/17 8/13/18 6/16/19 9/24/20
f 7/14/21 1/3/22 3/2/23 5/10/24
f 16/33/25 15/35/26 17/22/27 18/23/28
f 20/6/29 19/38/30 16/39/31 18/23/32
f 10/41/33 11/42/34 15/34/35 16/36/36
f 11/37/37 12/40/38 17/22/39 15/35/40
f 12/19/41 9/18/42 18/23/43 17/22/44
f 14/15/45 13/31/46 19/30/47 20/6/48
f 13/32/49 10/41/50 16/36/51 19/29/52
f 9/18/53 14/15/54 20/6/55 18/23/56
f 2/26/57 11/25/58 10/27/59 4/28/60
f 12/21/61 11/25/62 2/26/63 8/13/64
f 6/11/65 5/10/66 14/9/67 9/12/68
f 14/9/69 5/10/70 3/2/71 13/5/72
