# This file uses meters as units for non-parametric coordinates.

v -0.757391 0.000000 -0.072990
v 0.694837 0.000000 -0.072990
v -0.574534 0.394179 -0.199828
v 0.511980 0.394179 -0.199828
v -0.574534 0.394179 -1.740671
v 0.511980 0.394179 -1.740671
v -0.757391 0.000000 -1.867510
v 0.694837 0.000000 -1.867510
v -0.499433 0.000000 0.594354
v 0.749633 0.000000 0.594354
v -0.342156 0.738379 0.485259
v 0.592356 0.738379 0.485259
v -0.342156 0.738379 -0.840025
v 0.592356 0.738379 -0.840025
v -0.499433 0.000000 -0.949120
v 0.749633 0.000000 -0.949120
v -1.337260 0.000000 1.326520
v 0.216163 0.000000 1.326520
v -1.141661 0.513578 1.190840
v 0.020563 0.513578 1.190840
v -1.141661 0.513578 -0.457369
v 0.020563 0.513578 -0.457369
v -1.337260 0.000000 -0.593049
v 0.216163 0.000000 -0.593049
v -0.370500 0.000000 1.154635
v 1.081728 0.000000 1.154635
v -0.187643 0.394179 1.027797
v 0.898870 0.394179 1.027797
v -0.187643 0.394179 -0.513047
v 0.898870 0.394179 -0.513047
v -0.370500 0.000000 -0.639885
v 1.081728 0.000000 -0.639885
v 0.239910 0.000000 -0.300639
v 1.337260 0.000000 -0.300639
v 0.433648 0.221924 -0.494376
v 1.143523 0.221924 -0.494376
v 0.433648 0.221924 -1.204251
v 1.143523 0.221924 -1.204251
v 0.239910 0.000000 -1.397988
v 1.337260 0.000000 -1.397988
v -1.094066 0.000000 1.867506
v 0.693090 0.000000 1.867506
v -0.778544 0.283328 1.673769
v 0.377569 0.283328 1.673769
v -0.778544 0.283328 0.963894
v 0.377569 0.283328 0.963894
v -1.094066 0.000000 0.770156
v 0.693090 0.000000 0.770156
v -1.107825 0.000000 -0.323137
v -0.410244 0.000000 -0.323137
v -0.984665 0.251115 -0.446297
v -0.533404 0.251115 -0.446297
v -0.984665 0.251115 -0.897558
v -0.533404 0.251115 -0.897558
v -1.107825 0.000000 -1.020718
v -0.410244 0.000000 -1.020718
vt 0.278889 0.993099
vt 0.268146 0.958971
vt 0.299146 0.905635
vt 0.277874 0.992085
vt 0.268233 0.958797
vt 0.312736 0.917205
vt 0.293713 0.953483
vt 0.268146 0.958710
vt 0.293713 0.962554
vt 0.308694 0.962554
vt 0.276860 0.993099
vt 0.276860 0.992085
vt 0.279903 0.993099
vt 0.279903 0.992085
vt 0.312736 0.905635
vt 0.268146 0.958797
vt 0.268233 0.958884
vt 0.299146 0.917205
vt 0.277874 0.993099
vt 0.268233 0.958971
vt 0.268146 0.958884
vt 0.278889 0.992085
vt 0.308694 0.953483
vt 0.268233 0.958710
vt 0.268233 0.958971
vt 0.268146 0.958971
vt 0.268146 0.958884
vt 0.268233 0.958884
vt 0.299146 0.905635
vt 0.312736 0.905635
vt 0.312736 0.917205
vt 0.299146 0.917205
vt 0.268233 0.958797
vt 0.268146 0.958797
vt 0.268146 0.958710
vt 0.268233 0.958710
vt 0.293713 0.953483
vt 0.308694 0.953483
vt 0.308694 0.962554
vt 0.293713 0.962554
vt 0.277874 0.993099
vt 0.276860 0.993099
vt 0.276860 0.992085
vt 0.277874 0.992085
vt 0.279903 0.993099
vt 0.278889 0.993099
vt 0.278889 0.992085
vt 0.279903 0.992085
vt 0.268233 0.958971
vt 0.268146 0.958971
vt 0.268146 0.958884
vt 0.268233 0.958884
vt 0.299146 0.905635
vt 0.312736 0.905635
vt 0.312736 0.917205
vt 0.299146 0.917205
vt 0.268233 0.958797
vt 0.268146 0.958797
vt 0.268146 0.958710
vt 0.268233 0.958710
vt 0.293713 0.953483
vt 0.308694 0.953483
vt 0.308694 0.962554
vt 0.293713 0.962554
vt 0.277874 0.993099
vt 0.276860 0.993099
vt 0.276860 0.992085
vt 0.277874 0.992085
vt 0.279903 0.993099
vt 0.278889 0.993099
vt 0.278889 0.992085
vt 0.279903 0.992085
vt 0.268233 0.958971
vt 0.268146 0.958971
vt 0.268146 0.958884
vt 0.268233 0.958884
vt 0.299146 0.905635
vt 0.312736 0.905635
vt 0.312736 0.917205
vt 0.299146 0.917205
vt 0.268233 0.958797
vt 0.268146 0.958797
vt 0.268146 0.958710
vt 0.268233 0.958710
vt 0.293713 0.953483
vt 0.308694 0.953483
vt 0.308694 0.962554
vt 0.293713 0.962554
vt 0.277874 0.993099
vt 0.276860 0.993099
vt 0.276860 0.992085
vt 0.277874 0.992085
vt 0.279903 0.993099
vt 0.278889 0.993099
vt 0.278889 0.992085
vt 0.279903 0.992085
vt 0.268233 0.958971
vt 0.268146 0.958971
vt 0.268146 0.958884
vt 0.268233 0.958884
vt 0.299146 0.905635
vt 0.312736 0.905635
vt 0.312736 0.917205
vt 0.299146 0.917205
vt 0.268233 0.958797
vt 0.268146 0.958797
vt 0.268146 0.958710
vt 0.268233 0.958710
vt 0.293713 0.953483
vt 0.308694 0.953483
vt 0.308694 0.962554
vt 0.293713 0.962554
vt 0.277874 0.993099
vt 0.276860 0.993099
vt 0.276860 0.992085
vt 0.277874 0.992085
vt 0.279903 0.993099
vt 0.278889 0.993099
vt 0.278889 0.992085
vt 0.279903 0.992085
vt 0.268233 0.958971
vt 0.268146 0.958971
vt 0.268146 0.958884
vt 0.268233 0.958884
vt 0.299146 0.905635
vt 0.312736 0.905635
vt 0.312736 0.917205
vt 0.299146 0.917205
vt 0.268233 0.958797
vt 0.268146 0.958797
vt 0.268146 0.958710
vt 0.268233 0.958710
vt 0.293713 0.953483
vt 0.308694 0.953483
vt 0.308694 0.962554
vt 0.293713 0.962554
vt 0.277874 0.993099
vt 0.276860 0.993099
vt 0.276860 0.992085
vt 0.277874 0.992085
vt 0.279903 0.993099
vt 0.278889 0.993099
vt 0.278889 0.992085
vt 0.279903 0.992085
vt 0.268233 0.958971
vt 0.268146 0.958971
vt 0.268146 0.958884
vt 0.268233 0.958884
vt 0.299146 0.905635
vt 0.312736 0.905635
vt 0.312736 0.917205
vt 0.299146 0.917205
vt 0.268233 0.958797
vt 0.268146 0.958797
vt 0.268146 0.958710
vt 0.268233 0.958710
vt 0.293713 0.953483
vt 0.308694 0.953483
vt 0.308694 0.962554
vt 0.293713 0.962554
vt 0.277874 0.993099
vt 0.276860 0.993099
vt 0.276860 0.992085
vt 0.277874 0.992085
vt 0.279903 0.993099
vt 0.278889 0.993099
vt 0.278889 0.992085
vt 0.279903 0.992085
vn 0.000000 0.306311 0.951932
vn 0.000000 0.306311 0.951932
vn 0.000000 0.306311 0.951932
vn 0.000000 0.306311 0.951932
vn 0.000000 1.000000 0.000000
vn 0.000000 1.000000 0.000000
vn 0.000000 1.000000 0.000000
vn 0.000000 1.000000 0.000000
vn 0.000000 0.306311 -0.951932
vn 0.000000 0.306311 -0.951932
vn 0.000000 0.306311 -0.951932
vn 0.000000 0.306311 -0.951932
vn 0.000000 -1.000000 0.000000
vn 0.000000 -1.000000 0.000000
vn 0.000000 -1.000000 0.000000
vn 0.000000 -1.000000 0.000000
vn 0.907145 0.420819 0.000000
vn 0.907145 0.420819 0.000000
vn 0.907145 0.420819 0.000000
vn 0.907145 0.420819 0.000000
vn -0.907145 0.420819 0.000000
vn -0.907145 0.420819 0.000000
vn -0.907145 0.420819 0.000000
vn -0.907145 0.420819 0.000000
vn 0.000000 0.146163 0.989261
vn 0.000000 0.146163 0.989261
vn 0.000000 0.146163 0.989261
vn 0.000000 0.146163 0.989261
vn 0.000000 1.000000 0.000000
vn 0.000000 1.000000 0.000000
vn 0.000000 1.000000 0.000000
vn 0.000000 1.000000 0.000000
vn 0.000000 0.146163 -0.989261
vn 0.000000 0.146163 -0.989261
vn 0.000000 0.146163 -0.989261
vn 0.000000 0.146163 -0.989261
vn 0.000000 -1.000000 0.000000
vn 0.000000 -1.000000 0.000000
vn 0.000000 -1.000000 0.000000
vn 0.000000 -1.000000 0.000000
vn 0.978059 0.208330 0.000000
vn 0.978059 0.208330 0.000000
vn 0.978059 0.208330 0.000000
vn 0.978059 0.208330 0.000000
vn -0.978059 0.208330 0.000000
vn -0.978059 0.208330 0.000000
vn -0.978059 0.208330 0.000000
vn -0.978059 0.208330 0.000000
vn 0.000000 0.255423 0.966830
vn 0.000000 0.255423 0.966830
vn 0.000000 0.255423 0.966829
vn 0.000000 0.255423 0.966829
vn 0.000000 1.000000 0.000000
vn 0.000000 1.000000 0.000000
vn 0.000000 1.000000 0.000000
vn 0.000000 1.000000 0.000000
vn 0.000000 0.255423 -0.966829
vn 0.000000 0.255423 -0.966829
vn 0.000000 0.255423 -0.966830
vn 0.000000 0.255423 -0.966830
vn 0.000000 -1.000000 0.000000
vn 0.000000 -1.000000 0.000000
vn 0.000000 -1.000000 0.000000
vn 0.000000 -1.000000 0.000000
vn 0.934517 0.355917 0.000000
vn 0.934517 0.355917 0.000000
vn 0.934517 0.355917 0.000000
vn 0.934517 0.355917 0.000000
vn -0.934517 0.355917 0.000000
vn -0.934517 0.355917 0.000000
vn -0.934517 0.355917 0.000000
vn -0.934517 0.355917 0.000000
vn 0.000000 0.306311 0.951931
vn 0.000000 0.306311 0.951931
vn 0.000000 0.306311 0.951931
vn 0.000000 0.306311 0.951931
vn 0.000000 1.000000 0.000000
vn 0.000000 1.000000 0.000000
vn 0.000000 1.000000 0.000000
vn 0.000000 1.000000 0.000000
vn 0.000000 0.306311 -0.951931
vn 0.000000 0.306311 -0.951931
vn 0.000000 0.306311 -0.951931
vn 0.000000 0.306311 -0.951931
vn 0.000000 -1.000000 0.000000
vn 0.000000 -1.000000 0.000000
vn 0.000000 -1.000000 0.000000
vn 0.000000 -1.000000 0.000000
vn 0.907145 0.420819 0.000000
vn 0.907145 0.420819 0.000000
vn 0.907145 0.420819 0.000000
vn 0.907145 0.420819 0.000000
vn -0.907145 0.420819 0.000000
vn -0.907145 0.420819 0.000000
vn -0.907145 0.420819 0.000000
vn -0.907145 0.420819 0.000000
vn 0.000000 0.657647 0.753327
vn 0.000000 0.657647 0.753327
vn 0.000000 0.657647 0.753327
vn 0.000000 0.657647 0.753327
vn 0.000000 1.000000 0.000000
vn 0.000000 1.000000 0.000000
vn 0.000000 1.000000 0.000000
vn 0.000000 1.000000 0.000000
vn 0.000000 0.657646 -0.753327
vn 0.000000 0.657646 -0.753327
vn 0.000000 0.657646 -0.753327
vn 0.000000 0.657646 -0.753327
vn 0.000000 -1.000000 0.000000
vn 0.000000 -1.000000 0.000000
vn 0.000000 -1.000000 0.000000
vn 0.000000 -1.000000 0.000000
vn 0.753327 0.657646 0.000000
vn 0.753327 0.657646 0.000000
vn 0.753327 0.657646 0.000000
vn 0.753327 0.657646 0.000000
vn -0.753327 0.657647 0.000000
vn -0.753327 0.657646 0.000000
vn -0.753327 0.657647 0.000000
vn -0.753327 0.657647 0.000000
vn 0.000000 0.564448 0.825469
vn 0.000000 0.564448 0.825469
vn 0.000000 0.564448 0.825469
vn 0.000000 0.564448 0.825469
vn 0.000000 1.000000 0.000000
vn 0.000000 1.000000 0.000000
vn 0.000000 1.000000 0.000000
vn 0.000000 1.000000 0.000000
vn 0.000000 0.564448 -0.825469
vn 0.000000 0.564448 -0.825469
vn 0.000000 0.564448 -0.825469
vn 0.000000 0.564448 -0.825469
vn 0.000000 -1.000000 0.000000
vn 0.000000 -1.000000 0.000000
vn 0.000000 -1.000000 0.000000
vn 0.000000 -1.000000 0.000000
vn 0.668129 0.744046 0.000000
vn 0.668129 0.744046 0.000000
vn 0.668129 0.744046 0.000000
vn 0.668129 0.744046 0.000000
vn -0.668129 0.744046 0.000000
vn -0.668129 0.744046 0.000000
vn -0.668129 0.744046 0.000000
vn -0.668129 0.744046 0.000000
vn 0.000000 0.440342 0.897830
vn 0.000000 0.440342 0.897830
vn 0.000000 0.440342 0.897830
vn 0.000000 0.440342 0.897830
vn 0.000000 1.000000 0.000000
vn 0.000000 1.000000 0.000000
vn 0.000000 1.000000 0.000000
vn 0.000000 1.000000 0.000000
vn 0.000000 0.440342 -0.897830
vn 0.000000 0.440342 -0.897830
vn 0.000000 0.440342 -0.897830
vn 0.000000 0.440342 -0.897830
vn 0.000000 -1.000000 0.000000
vn 0.000000 -1.000000 0.000000
vn 0.000000 -1.000000 0.000000
vn 0.000000 -1.000000 0.000000
vn 0.897830 0.440342 0.000000
vn 0.897830 0.440342 0.000000
vn 0.897830 0.440342 0.000000
vn 0.897830 0.440342 0.000000
vn -0.897830 0.440342 0.000000
vn -0.897830 0.440342 0.000000
vn -0.897830 0.440342 0.000000
vn -0.897830 0.440342 0.000000
s off
f 1/20/1 2/2/2 4/21/3 3/17/4
f 3/3/5 4/15/6 6/6/7 5/18/8
f 5/5/9 6/16/10 8/8/11 7/24/12
f 7/7/13 8/23/14 2/10/15 1/9/16
f 2/19/17 8/11/18 6/12/19 4/4/20
f 7/13/21 1/1/22 3/22/23 5/14/24
f 9/25/25 10/26/26 12/27/27 11/28/28
f 11/29/29 12/30/30 14/31/31 13/32/32
f 13/33/33 14/34/34 16/35/35 15/36/36
f 15/37/37 16/38/38 10/39/39 9/40/40
f 10/41/41 16/42/42 14/43/43 12/44/44
f 15/45/45 9/46/46 11/47/47 13/48/48
f 17/49/49 18/50/50 20/51/51 19/52/52
f 19/53/53 20/54/54 22/55/55 21/56/56
f 21/57/57 22/58/58 24/59/59 23/60/60
f 23/61/61 24/62/62 18/63/63 17/64/64
f 18/65/65 24/66/66 22/67/67 20/68/68
f 23/69/69 17/70/70 19/71/71 21/72/72
f 25/73/73 26/74/74 28/75/75 27/76/76
f 27/77/77 28/78/78 30/79/79 29/80/80
f 29/81/81 30/82/82 32/83/83 31/84/84
f 31/85/85 32/86/86 26/87/87 25/88/88
f 26/89/89 32/90/90 30/91/91 28/92/92
f 31/93/93 25/94/94 27/95/95 29/96/96
f 33/97/97 34/98/98 36/99/99 35/100/100
f 35/101/101 36/102/102 38/103/103 37/104/104
f 37/105/105 38/106/106 40/107/107 39/108/108
f 39/109/109 40/110/110 34/111/111 33/112/112
f 34/113/113 40/114/114 38/115/115 36/116/116
f 39/117/117 33/118/118 35/119/119 37/120/120
f 41/121/121 42/122/122 44/123/123 43/124/124
f 43/125/125 44/126/126 46/127/127 45/128/128
f 45/129/129 46/130/130 48/131/131 47/132/132
f 47/133/133 48/134/134 42/135/135 41/136/136
f 42/137/137 48/138/138 46/139/139 44/140/140
f 47/141/141 41/142/142 43/143/143 45/144/144
f 49/145/145 50/146/146 52/147/147 51/148/148
f 51/149/149 52/150/150 54/151/151 53/152/152
f 53/153/153 54/154/154 56/155/155 55/156/156
f 55/157/157 56/158/158 50/159/159 49/160/160
f 50/161/161 56/162/162 54/163/163 52/164/164
f 55/165/165 49/166/166 51/167/167 53/168/168
