# This file uses meters as units for non-parametric coordinates.

v -0.144546 0.000000 0.136846
v 0.144546 0.000000 0.136846
v 0.144546 0.000000 -0.136846
v -0.144546 0.000000 -0.136846
v -0.144546 9.335778 0.136846
v 0.144546 9.335778 0.136846
v 0.144546 9.335778 -0.136846
v -0.144546 9.335778 -0.136846
v -0.573814 6.301780 0.348233
v -0.144546 6.301780 0.348233
v -0.573814 7.301780 0.348233
v -0.144546 7.301780 0.348233
v -0.573814 7.301780 -0.348233
v -0.144546 7.301780 -0.348233
v -0.573814 6.301780 -0.348233
v -0.144546 6.301780 -0.348233
v 0.144546 4.865053 -0.136846
v -0.144546 4.865053 -0.136845
v 0.144546 4.865053 0.136847
v -0.144546 4.865053 0.136847
v 0.144546 3.903454 -0.136846
v -0.144546 3.903454 -0.136845
v 0.144546 3.903454 0.136847
v -0.144546 3.903454 0.136847
v -0.173456 4.865053 -0.164213
v 0.173456 4.865053 0.164215
v -0.173456 4.865053 0.164215
v 0.173456 4.865053 -0.164215
v 0.173456 3.903454 -0.164215
v -0.173456 3.903454 -0.164213
v 0.173456 3.903454 0.164216
v -0.173456 3.903454 0.164216
vt 0.331186 0.871513
vt 0.331186 0.860222
vt 0.341875 0.860222
vt 0.341875 0.871513
vt 0.308617 0.873746
vt 0.307703 0.873746
vt 0.307703 0.854593
vt 0.308617 0.854593
vt 0.286512 0.873746
vt 0.285648 0.873746
vt 0.285648 0.854593
vt 0.286512 0.854593
vt 0.308740 0.854593
vt 0.309653 0.854593
vt 0.309653 0.873746
vt 0.308740 0.873746
vt 0.285518 0.873746
vt 0.284653 0.873746
vt 0.284653 0.854593
vt 0.285518 0.854593
vt 0.313774 0.674956
vt 0.274624 0.628655
vt 0.312945 0.678500
vt 0.274854 0.675619
vt 0.274449 0.677830
vt 0.275248 0.634397
vt 0.274566 0.638115
vt 0.311431 0.644013
vt 0.310749 0.647731
vt 0.311431 0.647731
vt 0.312279 0.674870
vt 0.312279 0.678500
vt 0.314244 0.674956
vt 0.314244 0.677522
vt 0.354261 0.647045
vt 0.308740 0.864574
vt 0.285518 0.863765
vt 0.309653 0.864574
vt 0.286512 0.863765
vt 0.307703 0.863765
vt 0.308617 0.863765
vt 0.284653 0.863765
vt 0.285648 0.865738
vt 0.308740 0.862601
vt 0.354124 0.602553
vt 0.309653 0.862601
vt 0.354124 0.602553
vt 0.307703 0.865738
vt 0.354124 0.602553
vt 0.284653 0.865738
vt 0.354932 0.641630
vt 0.354844 0.680183
vt 0.354928 0.641630
vt 0.354850 0.680861
vt 0.354847 0.680861
vt 0.354934 0.641630
vt 0.354931 0.641630
vt 0.354847 0.680183
vt 0.354931 0.639776
vt 0.354847 0.682036
vt 0.354932 0.639776
vt 0.354844 0.682036
vt 0.354928 0.639776
vt 0.354850 0.679007
vt 0.354847 0.679007
vt 0.354934 0.639776
vt 0.354261 0.647045
vt 0.354261 0.647045
vt 0.285648 0.863765
vt 0.354261 0.647045
vt 0.354261 0.647045
vt 0.354261 0.647045
vt 0.354261 0.647045
vt 0.354261 0.647045
vt 0.285518 0.865738
vt 0.354124 0.602553
vt 0.308617 0.865738
vt 0.354124 0.602553
vt 0.286512 0.865738
vt 0.354124 0.602553
vt 0.354124 0.602553
vt 0.354124 0.602553
vt 0.275290 0.632285
vt 0.274449 0.675619
vt 0.274854 0.677830
vt 0.274566 0.634397
vt 0.275290 0.628655
vt 0.313774 0.677522
vt 0.312945 0.674870
vt 0.274624 0.632285
vt 0.275248 0.638115
vt 0.310749 0.644013
vt 0.354124 0.602553
vt 0.354124 0.602553
vt 0.354124 0.602553
vt 0.354261 0.647045
vt 0.354261 0.647045
vt 0.354261 0.647045
vt 0.354261 0.647045
vt 0.354124 0.602553
vt 0.354124 0.602553
vt 0.354261 0.647045
vt 0.354124 0.602553
vt 0.354124 0.602553
vt 0.354124 0.602553
vt 0.354261 0.647045
vt 0.354261 0.647045
vt 0.354261 0.647045
vn 0.000000 1.000000 0.000000
vn 0.000000 1.000000 0.000000
vn 0.000000 1.000000 0.000000
vn 0.000000 1.000000 0.000000
vn 1.000000 0.000000 0.000000
vn 1.000000 0.000000 0.000000
vn 0.999927 -0.012077 0.000000
vn 0.999927 -0.012077 0.000000
vn 0.000000 0.000000 1.000000
vn 0.000000 0.010218 0.999948
vn 0.000000 0.010218 0.999948
vn 0.000000 0.000000 1.000000
vn -1.000000 0.000000 0.000000
vn -0.999944 0.010545 0.000000
vn -0.999944 0.010545 0.000000
vn -1.000000 0.000000 0.000000
vn 0.000000 0.000000 -1.000000
vn -0.000002 -0.011702 -0.999932
vn -0.000002 -0.011702 -0.999932
vn 0.000000 0.000000 -1.000000
vn 0.000000 0.000000 1.000000
vn 0.000000 0.000000 1.000000
vn 0.000000 0.000000 1.000000
vn 0.000000 0.000000 1.000000
vn 0.000000 1.000000 0.000000
vn 0.000000 1.000000 0.000000
vn 0.000000 1.000000 0.000000
vn 0.000000 1.000000 0.000000
vn 0.000000 0.000000 -1.000000
vn 0.000000 0.000000 -1.000000
vn 0.000000 0.000000 -1.000000
vn 0.000000 0.000000 -1.000000
vn 0.000000 -1.000000 0.000000
vn 0.000000 -1.000000 0.000000
vn 0.000000 -1.000000 0.000000
vn 0.000000 -1.000000 0.000000
vn 1.000000 0.000000 0.000000
vn 1.000000 0.000000 0.000000
vn 1.000000 0.000000 0.000000
vn 1.000000 0.000000 0.000000
vn -1.000000 0.000000 0.000000
vn -1.000000 0.000000 0.000000
vn -1.000000 0.000000 0.000000
vn -1.000000 0.000000 0.000000
vn 0.999944 0.010545 0.000000
vn 0.999944 0.010545 0.000000
vn 1.000000 0.000000 0.000000
vn 1.000000 0.000000 0.000000
vn 0.000000 0.010218 0.999948
vn 0.000000 0.010218 0.999948
vn 0.000000 0.012590 0.999921
vn 0.000000 0.012590 0.999921
vn -0.999944 0.010545 0.000000
vn -0.999944 0.010545 0.000000
vn -0.999898 0.014258 0.000000
vn -0.999898 0.014258 0.000000
vn -0.000002 0.010218 -0.999948
vn -0.000002 0.010218 -0.999948
vn 0.000000 0.000000 -1.000000
vn 0.000000 0.000000 -1.000000
vn 0.999927 -0.012077 0.000000
vn 0.999927 -0.012077 0.000000
vn 0.999898 -0.014258 0.000000
vn 0.999898 -0.014258 0.000000
vn -0.000002 -0.011702 -0.999932
vn -0.000002 -0.011702 -0.999932
vn -0.000006 -0.012590 -0.999921
vn -0.000006 -0.012590 -0.999921
vn 0.000000 -0.011703 0.999932
vn 0.000000 -0.011703 0.999932
vn 0.000000 0.000000 1.000000
vn 0.000000 0.000000 1.000000
vn -0.999927 -0.012077 0.000000
vn -0.999927 -0.012077 0.000000
vn -1.000000 0.000000 0.000000
vn -1.000000 0.000000 0.000000
vn 0.000000 0.012590 0.999921
vn 0.000000 0.012590 0.999921
vn 0.000000 -0.012589 0.999921
vn 0.000000 -0.012589 0.999921
vn -0.999898 0.014258 0.000000
vn -0.999898 0.014258 0.000000
vn -0.999898 -0.014258 0.000000
vn -0.999898 -0.014258 0.000000
vn 0.999898 0.014258 0.000000
vn 0.999898 0.014258 0.000000
vn 0.999944 0.010545 0.000000
vn 0.999944 0.010545 0.000000
vn -0.000006 0.012590 -0.999921
vn -0.000006 0.012590 -0.999921
vn -0.000002 0.010218 -0.999948
vn -0.000002 0.010218 -0.999948
vn 0.999898 -0.014258 0.000000
vn 0.999898 -0.014258 0.000000
vn 0.999898 0.014258 0.000000
vn 0.999898 0.014258 0.000000
vn -0.000006 -0.012590 -0.999921
vn -0.000006 -0.012590 -0.999921
vn -0.000006 0.012590 -0.999921
vn -0.000006 0.012590 -0.999921
vn 0.000000 -0.012589 0.999921
vn 0.000000 -0.012589 0.999921
vn 0.000000 -0.011703 0.999932
vn 0.000000 -0.011703 0.999932
vn -0.999898 -0.014258 0.000000
vn -0.999898 -0.014258 0.000000
vn -0.999927 -0.012077 0.000000
vn -0.999927 -0.012077 0.000000
s off
f 7/3/1 8/4/2 5/1/3 6/2/4
f 2/9/5 3/10/6 21/43/7 23/79/8
f 5/8/9 20/41/10 19/40/11 6/7/12
f 8/20/13 18/37/14 20/42/15 5/19/16
f 4/14/17 22/46/18 21/44/19 3/13/20
f 9/87/21 10/22/22 12/90/23 11/83/24
f 11/24/25 12/84/26 14/25/27 13/85/28
f 13/26/29 14/86/30 16/27/31 15/91/32
f 15/28/33 16/92/34 10/29/35 9/30/36
f 10/89/37 16/31/38 14/32/39 12/23/40
f 15/33/41 9/21/42 11/88/43 13/34/44
f 19/39/45 17/69/46 7/11/47 6/12/48
f 19/35/49 20/108/50 27/102/51 26/70/52
f 20/67/53 18/71/54 25/97/55 27/68/56
f 17/36/57 18/38/58 8/15/59 7/16/60
f 23/104/61 21/105/62 29/95/63 31/76/64
f 21/47/65 22/78/66 30/100/67 29/49/68
f 23/48/69 24/77/70 1/5/71 2/6/72
f 24/50/73 22/75/74 4/17/75 1/18/76
f 26/54/77 27/55/78 32/65/79 31/64/80
f 27/56/81 25/51/82 30/61/83 32/66/84
f 26/99/85 28/73/86 17/74/87 19/107/88
f 28/96/89 25/72/90 18/106/91 17/98/92
f 31/63/93 29/59/94 28/57/95 26/53/96
f 29/60/97 30/62/98 25/52/99 28/58/100
f 31/101/101 32/93/102 24/82/103 23/45/104
f 32/81/105 30/80/106 22/103/107 24/94/108
