# This file uses meters as units for non-parametric coordinates.

v -0.470715 0.000000 0.660434
v 0.583545 0.000000 0.660434
v -0.284583 0.595727 0.474301
v 0.397412 0.595727 0.474301
v -0.284583 0.595727 -0.207694
v 0.397412 0.595727 -0.207694
v -0.470715 0.000000 -0.393826
v 0.583545 0.000000 -0.393826
v 0.242647 0.000000 0.451153
v 0.878385 0.000000 0.451153
v 0.354886 0.292088 0.338914
v 0.766146 0.292088 0.338914
v 0.354886 0.292088 -0.072346
v 0.766146 0.292088 -0.072346
v 0.242647 0.000000 -0.184585
v 0.878385 0.000000 -0.184585
v -0.878385 0.000000 0.297014
v 0.079063 0.000000 0.297014
v -0.709351 0.424739 0.127980
v -0.089971 0.424739 0.127980
v -0.709351 0.424739 -0.491400
v -0.089971 0.424739 -0.491400
v -0.878385 0.000000 -0.660434
v 0.079063 0.000000 -0.660434
v -0.682040 0.000000 0.538990
v -0.046303 0.000000 0.538990
v -0.569802 0.292088 0.426752
v -0.158541 0.292088 0.426752
v -0.569802 0.292088 0.015491
v -0.158541 0.292088 0.015491
v -0.682040 0.000000 -0.096747
v -0.046303 0.000000 -0.096747
vt 0.312742 0.610507
vt 0.344277 0.732565
vt 0.312110 0.671552
vt 0.312632 0.609492
vt 0.344286 0.732391
vt 0.313581 0.685142
vt 0.343734 0.680859
vt 0.344277 0.732305
vt 0.343734 0.695839
vt 0.345356 0.695839
vt 0.312522 0.610507
vt 0.312522 0.609492
vt 0.312852 0.610507
vt 0.312852 0.609492
vt 0.313581 0.671552
vt 0.344277 0.732391
vt 0.344286 0.732478
vt 0.312110 0.685142
vt 0.312632 0.610507
vt 0.344286 0.732565
vt 0.344277 0.732478
vt 0.312742 0.609492
vt 0.345356 0.680859
vt 0.344286 0.732305
vt 0.344286 0.732565
vt 0.344277 0.732565
vt 0.344277 0.732478
vt 0.344286 0.732478
vt 0.312110 0.671552
vt 0.313581 0.671552
vt 0.313581 0.685142
vt 0.312110 0.685142
vt 0.344286 0.732391
vt 0.344277 0.732391
vt 0.344277 0.732305
vt 0.344286 0.732305
vt 0.343734 0.680859
vt 0.345356 0.680859
vt 0.345356 0.695839
vt 0.343734 0.695839
vt 0.312632 0.610507
vt 0.312522 0.610507
vt 0.312522 0.609492
vt 0.312632 0.609492
vt 0.312852 0.610507
vt 0.312742 0.610507
vt 0.312742 0.609492
vt 0.312852 0.609492
vt 0.344286 0.732565
vt 0.344277 0.732565
vt 0.344277 0.732478
vt 0.344286 0.732478
vt 0.312110 0.671552
vt 0.313581 0.671552
vt 0.313581 0.685142
vt 0.312110 0.685142
vt 0.344286 0.732391
vt 0.344277 0.732391
vt 0.344277 0.732305
vt 0.344286 0.732305
vt 0.343734 0.680859
vt 0.345356 0.680859
vt 0.345356 0.695839
vt 0.343734 0.695839
vt 0.312632 0.610507
vt 0.312522 0.610507
vt 0.312522 0.609492
vt 0.312632 0.609492
vt 0.312852 0.610507
vt 0.312742 0.610507
vt 0.312742 0.609492
vt 0.312852 0.609492
vt 0.344286 0.732565
vt 0.344277 0.732565
vt 0.344277 0.732478
vt 0.344286 0.732478
vt 0.312110 0.671552
vt 0.313581 0.671552
vt 0.313581 0.685142
vt 0.312110 0.685142
vt 0.344286 0.732391
vt 0.344277 0.732391
vt 0.344277 0.732305
vt 0.344286 0.732305
vt 0.343734 0.680859
vt 0.345356 0.680859
vt 0.345356 0.695839
vt 0.343734 0.695839
vt 0.312632 0.610507
vt 0.312522 0.610507
vt 0.312522 0.609492
vt 0.312632 0.609492
vt 0.312852 0.610507
vt 0.312742 0.610507
vt 0.312742 0.609492
vt 0.312852 0.609492
vn 0.000000 0.298228 0.954495
vn 0.000000 0.298228 0.954495
vn 0.000000 0.298228 0.954495
vn 0.000000 0.298228 0.954495
vn 0.000000 1.000000 0.000000
vn 0.000000 1.000000 0.000000
vn 0.000000 1.000000 0.000000
vn 0.000000 1.000000 0.000000
vn 0.000000 0.298228 -0.954495
vn 0.000000 0.298228 -0.954495
vn 0.000000 0.298228 -0.954495
vn 0.000000 0.298228 -0.954495
vn 0.000000 -1.000000 0.000000
vn 0.000000 -1.000000 0.000000
vn 0.000000 -1.000000 0.000000
vn 0.000000 -1.000000 0.000000
vn 0.954495 0.298228 0.000000
vn 0.954495 0.298228 0.000000
vn 0.954495 0.298228 0.000000
vn 0.954495 0.298228 0.000000
vn -0.954495 0.298228 0.000000
vn -0.954495 0.298228 0.000000
vn -0.954495 0.298228 0.000000
vn -0.954495 0.298228 0.000000
vn 0.000000 0.358692 0.933456
vn 0.000000 0.358692 0.933456
vn 0.000000 0.358692 0.933456
vn 0.000000 0.358692 0.933456
vn 0.000000 1.000000 0.000000
vn 0.000000 1.000000 0.000000
vn 0.000000 1.000000 0.000000
vn 0.000000 1.000000 0.000000
vn 0.000000 0.358692 -0.933456
vn 0.000000 0.358692 -0.933456
vn 0.000000 0.358692 -0.933456
vn 0.000000 0.358692 -0.933456
vn 0.000000 -1.000000 0.000000
vn 0.000000 -1.000000 0.000000
vn 0.000000 -1.000000 0.000000
vn 0.000000 -1.000000 0.000000
vn 0.933456 0.358692 0.000000
vn 0.933456 0.358692 0.000000
vn 0.933456 0.358692 0.000000
vn 0.933456 0.358692 0.000000
vn -0.933456 0.358692 0.000000
vn -0.933456 0.358692 0.000000
vn -0.933456 0.358692 0.000000
vn -0.933456 0.358692 0.000000
vn 0.000000 0.369765 0.929125
vn 0.000000 0.369765 0.929125
vn 0.000000 0.369765 0.929125
vn 0.000000 0.369765 0.929125
vn 0.000000 1.000000 0.000000
vn 0.000000 1.000000 0.000000
vn 0.000000 1.000000 0.000000
vn 0.000000 1.000000 0.000000
vn 0.000000 0.369765 -0.929125
vn 0.000000 0.369765 -0.929125
vn 0.000000 0.369765 -0.929125
vn 0.000000 0.369765 -0.929125
vn 0.000000 -1.000000 0.000000
vn 0.000000 -1.000000 0.000000
vn 0.000000 -1.000000 0.000000
vn 0.000000 -1.000000 0.000000
vn 0.929125 0.369765 0.000000
vn 0.929125 0.369765 0.000000
vn 0.929125 0.369765 0.000000
vn 0.929125 0.369765 0.000000
vn -0.929125 0.369765 0.000000
vn -0.929125 0.369765 0.000000
vn -0.929125 0.369765 0.000000
vn -0.929125 0.369765 0.000000
vn 0.000000 0.358692 0.933456
vn 0.000000 0.358692 0.933456
vn 0.000000 0.358692 0.933456
vn 0.000000 0.358692 0.933456
vn 0.000000 1.000000 0.000000
vn 0.000000 1.000000 0.000000
vn 0.000000 1.000000 0.000000
vn 0.000000 1.000000 0.000000
vn 0.000000 0.358692 -0.933456
vn 0.000000 0.358692 -0.933456
vn 0.000000 0.358692 -0.933456
vn 0.000000 0.358692 -0.933456
vn 0.000000 -1.000000 0.000000
vn 0.000000 -1.000000 0.000000
vn 0.000000 -1.000000 0.000000
vn 0.000000 -1.000000 0.000000
vn 0.933456 0.358692 0.000000
vn 0.933456 0.358692 0.000000
vn 0.933456 0.358692 0.000000
vn 0.933456 0.358692 0.000000
vn -0.933456 0.358692 0.000000
vn -0.933456 0.358692 0.000000
vn -0.933456 0.358692 0.000000
vn -0.933456 0.358692 0.000000
s off
f 1/20/1 2/2/2 4/21/3 3/17/4
f 3/3/5 4/15/6 6/6/7 5/18/8
f 5/5/9 6/16/10 8/8/11 7/24/12
f 7/7/13 8/23/14 2/10/15 1/9/16
f 2/19/17 8/11/18 6/12/19 4/4/20
f 7/13/21 1/1/22 3/22/23 5/14/24
f 9/25/25 10/26/26 12/27/27 11/28/28
f 11/29/29 12/30/30 14/31/31 13/32/32
f 13/33/33 14/34/34 16/35/35 15/36/36
f 15/37/37 16/38/38 10/39/39 9/40/40
f 10/41/41 16/42/42 14/43/43 12/44/44
f 15/45/45 9/46/46 11/47/47 13/48/48
f 17/49/49 18/50/50 20/51/51 19/52/52
f 19/53/53 20/54/54 22/55/55 21/56/56
f 21/57/57 22/58/58 24/59/59 23/60/60
f 23/61/61 24/62/62 18/63/63 17/64/64
f 18/65/65 24/66/66 22/67/67 20/68/68
f 23/69/69 17/70/70 19/71/71 21/72/72
f 25/73/73 26/74/74 28/75/75 27/76/76
f 27/77/77 28/78/78 30/79/79 29/80/80
f 29/81/81 30/82/82 32/83/83 31/84/84
f 31/85/85 32/86/86 26/87/87 25/88/88
f 26/89/89 32/90/90 30/91/91 28/92/92
f 31/93/93 25/94/94 27/95/95 29/96/96
