# This file uses meters as units for non-parametric coordinates.

v -0.714972 0.644773 -0.081650
v 0.714972 0.644773 -0.081650
v -0.714972 0.644773 -0.199390
v 0.714972 0.644773 -0.199390
v -0.714972 1.967574 -0.199390
v -0.714972 1.967574 -0.081650
v 0.714972 1.967574 -0.081650
v 0.714972 1.967574 -0.199390
v -0.403087 2.460415 -0.199390
v -0.403087 1.967574 -0.199390
v -0.403087 0.644773 -0.199390
v -0.403087 0.644773 -0.081650
v -0.403087 1.967574 -0.081650
v -0.403087 2.460415 -0.081650
v 0.402432 2.460415 -0.199390
v 0.402432 1.967574 -0.199390
v 0.402432 0.644773 -0.199390
v 0.402432 0.644773 -0.081650
v 0.402432 1.967574 -0.081650
v 0.402432 2.460415 -0.081650
v -0.142755 0.000000 0.199390
v 0.142755 0.000000 0.199390
v -0.142755 1.429945 0.199390
v 0.142755 1.429945 0.199390
v -0.142755 1.429945 -0.086119
v 0.142755 1.429945 -0.086119
v -0.142755 0.000000 -0.086119
v 0.142755 0.000000 -0.086119
vt 0.293231 0.864542
vt 0.291337 0.864542
vt 0.337274 0.793933
vt 0.409811 0.793933
vt 0.260136 0.857913
vt 0.260136 0.859808
vt 0.259980 0.859808
vt 0.259980 0.857913
vt 0.260501 0.862231
vt 0.260345 0.862231
vt 0.260313 0.862231
vt 0.260157 0.862231
vt 0.260313 0.860478
vt 0.409811 0.864764
vt 0.260157 0.860478
vt 0.293231 0.862789
vt 0.291337 0.862789
vt 0.260501 0.860478
vt 0.337274 0.864764
vt 0.260345 0.860478
vt 0.395755 0.891153
vt 0.310612 0.875255
vt 0.395755 0.864764
vt 0.260136 0.858311
vt 0.395755 0.793933
vt 0.292834 0.864542
vt 0.259980 0.858311
vt 0.292834 0.862789
vt 0.310768 0.875255
vt 0.292834 0.862136
vt 0.352623 0.891153
vt 0.310612 0.876323
vt 0.352623 0.864764
vt 0.260136 0.859378
vt 0.352623 0.793933
vt 0.291766 0.864542
vt 0.259980 0.859378
vt 0.291766 0.862789
vt 0.310768 0.876323
vt 0.291766 0.862136
vt 0.310477 0.856392
vt 0.320141 0.856392
vt 0.320141 0.849510
vt 0.310477 0.849510
vt 0.268647 0.832095
vt 0.263384 0.832095
vt 0.263384 0.830838
vt 0.268647 0.830838
vt 0.310477 0.855879
vt 0.320141 0.855879
vt 0.320141 0.849510
vt 0.310477 0.849510
vt 0.268647 0.832095
vt 0.263384 0.832095
vt 0.263384 0.830838
vt 0.268647 0.830838
vt 0.284618 0.842352
vt 0.289004 0.842352
vt 0.289004 0.846738
vt 0.284618 0.846738
vt 0.252151 0.751499
vt 0.292973 0.751499
vt 0.292973 0.792321
vt 0.252151 0.792321
vt 0.284618 0.851124
vt 0.289004 0.851124
vt 0.289004 0.855510
vt 0.284618 0.855510
vt 0.262047 0.836960
vt 0.266433 0.836960
vt 0.266433 0.841346
vt 0.262047 0.841346
vt 0.253275 0.836960
vt 0.257661 0.836960
vt 0.257661 0.841346
vt 0.253275 0.841346
vn 0.000000 -1.000000 0.000000
vn 0.000000 -1.000000 0.000000
vn 0.000000 -1.000000 0.000000
vn 0.000000 -1.000000 0.000000
vn -1.000000 0.000000 0.000000
vn -1.000000 0.000000 0.000000
vn -0.351963 0.082984 0.932328
vn -0.351963 0.082984 -0.932328
vn 0.000000 0.000000 1.000000
vn 0.000000 0.000000 1.000000
vn -0.030925 0.019571 0.999330
vn -0.351963 0.082984 0.932328
vn 1.000000 0.000000 0.000000
vn 1.000000 0.000000 0.000000
vn 0.351316 0.083006 -0.932570
vn 0.351316 0.083006 0.932570
vn -0.351963 0.082984 -0.932328
vn -0.030925 0.019571 -0.999330
vn 0.000000 0.000000 -1.000000
vn 0.000000 0.000000 -1.000000
vn -0.140750 0.230048 -0.962947
vn 0.140750 0.230048 -0.962947
vn 0.030911 0.019603 -0.999330
vn -0.030925 0.019571 -0.999330
vn 0.000000 0.000000 -1.000000
vn -0.030925 0.019571 -0.999330
vn 0.030911 0.019603 -0.999330
vn 0.000000 0.000000 -1.000000
vn 0.000000 -1.000000 0.000000
vn 0.000000 -1.000000 0.000000
vn 0.000000 -1.000000 0.000000
vn 0.000000 -1.000000 0.000000
vn -0.030925 0.019571 0.999330
vn 0.000000 0.000000 1.000000
vn 0.000000 0.000000 1.000000
vn 0.030911 0.019603 0.999330
vn -0.140750 0.230048 0.962947
vn -0.030925 0.019571 0.999330
vn 0.030911 0.019603 0.999330
vn 0.140750 0.230048 0.962947
vn -0.140750 0.230048 -0.962947
vn -0.140750 0.230048 0.962947
vn 0.140750 0.230048 0.962947
vn 0.140750 0.230048 -0.962947
vn 0.000000 0.000000 -1.000000
vn 0.030911 0.019603 -0.999330
vn 0.351316 0.083006 -0.932570
vn 0.000000 0.000000 -1.000000
vn 0.000000 -1.000000 0.000000
vn 0.000000 -1.000000 0.000000
vn 0.000000 -1.000000 0.000000
vn 0.000000 -1.000000 0.000000
vn 0.030911 0.019603 0.999330
vn 0.000000 0.000000 1.000000
vn 0.000000 0.000000 1.000000
vn 0.351316 0.083006 0.932570
vn -0.030925 0.019571 -0.999330
vn -0.351963 0.082984 -0.932328
vn -0.351963 0.082984 0.932328
vn -0.030925 0.019571 0.999330
vn -0.030925 0.019571 0.999330
vn -0.140750 0.230048 0.962947
vn -0.140750 0.230048 -0.962947
vn -0.030925 0.019571 -0.999330
vn 0.351316 0.083006 -0.932570
vn 0.030911 0.019603 -0.999330
vn 0.030911 0.019603 0.999330
vn 0.351316 0.083006 0.932570
vn 0.030911 0.019603 -0.999330
vn 0.140750 0.230048 -0.962947
vn 0.140750 0.230048 0.962947
vn 0.030911 0.019603 0.999330
vn 0.000000 0.000000 1.000000
vn 0.000000 0.000000 1.000000
vn 0.000000 0.000000 1.000000
vn 0.000000 0.000000 1.000000
vn 0.000000 1.000000 0.000000
vn 0.000000 1.000000 0.000000
vn 0.000000 1.000000 0.000000
vn 0.000000 1.000000 0.000000
vn 0.000000 0.000000 -1.000000
vn 0.000000 0.000000 -1.000000
vn 0.000000 0.000000 -1.000000
vn 0.000000 0.000000 -1.000000
vn 1.000000 0.000000 0.000000
vn 1.000000 0.000000 0.000000
vn 1.000000 0.000000 0.000000
vn 1.000000 0.000000 0.000000
vn -1.000000 0.000000 0.000000
vn -1.000000 0.000000 0.000000
vn -1.000000 0.000000 0.000000
vn -1.000000 0.000000 0.000000
s off
f 3/5/1 11/24/2 12/27/3 1/8/4
f 3/11/5 1/12/6 6/15/7 5/13/8
f 1/1/9 12/26/10 13/28/11 6/16/12
f 2/9/13 4/10/14 8/20/15 7/18/16
f 5/14/17 10/23/18 11/25/19 3/4/20
f 9/21/21 15/31/22 16/33/23 10/23/24
f 11/25/25 10/23/26 16/33/27 17/35/28
f 12/27/29 11/24/30 17/34/31 18/37/32
f 13/28/33 12/26/34 18/36/35 19/38/36
f 14/30/37 13/28/38 19/38/39 20/40/40
f 9/22/41 14/29/42 20/39/43 15/32/44
f 17/35/45 16/33/46 8/19/47 4/3/48
f 18/37/49 17/34/50 4/6/51 2/7/52
f 19/38/53 18/36/54 2/2/55 7/17/56
f 10/41/57 5/42/58 6/43/59 13/44/60
f 13/45/61 14/46/62 9/47/63 10/48/64
f 8/49/65 16/50/66 19/51/67 7/52/68
f 16/53/69 15/54/70 20/55/71 19/56/72
f 21/57/73 22/58/74 24/59/75 23/60/76
f 23/61/77 24/62/78 26/63/79 25/64/80
f 25/65/81 26/66/82 28/67/83 27/68/84
f 22/69/85 28/70/86 26/71/87 24/72/88
f 27/73/89 21/74/90 23/75/91 25/76/92
