# This file uses meters as units for non-parametric coordinates.

v -3.426868 0.715796 0.267699
v 1.294697 0.715796 0.267699
v -3.426868 4.558426 0.267699
v 1.294697 4.558426 0.267699
v -3.426868 4.558426 -0.267696
v 1.294697 4.558426 -0.267696
v -3.426868 0.715796 -0.267696
v 1.294697 0.715796 -0.267696
v -3.426868 0.334675 -0.766447
v 1.294697 0.334675 -0.766447
v 1.294697 0.334675 0.766447
v -3.426868 0.334675 0.766447
v -3.426868 -0.993142 -0.766447
v 1.294697 -0.993142 -0.766447
v 1.294697 -0.993142 0.766447
v -3.426868 -0.993142 0.766447
v 1.294697 0.664947 -0.214157
v 1.294697 0.664947 0.214159
v 1.294697 4.479806 -0.214157
v 1.294697 4.479806 0.214159
v 1.294697 0.340836 0.613158
v 1.294697 0.340836 -0.613158
v 1.294697 -0.986282 0.613158
v 1.294697 -0.986282 -0.613158
v -3.426869 0.664947 -0.214159
v -3.426869 0.664947 0.214157
v -3.426895 4.479806 0.211154
v -3.426868 4.479806 -0.211155
v -3.426869 0.340836 -0.613158
v -3.426869 0.340836 0.613158
v -3.426869 -0.986282 -0.613158
v -3.426869 -0.986282 0.613158
v 1.433914 0.664947 -0.214157
v 1.433914 0.664947 0.214159
v 1.433914 4.479806 -0.214157
v 1.433914 4.479806 0.214159
v 1.433914 0.340836 0.613158
v 1.433914 0.340836 -0.613158
v 1.433914 -0.986282 0.613158
v 1.433914 -0.986282 -0.613158
v -3.566086 0.664947 -0.214159
v -3.566086 0.664947 0.214157
v -3.579430 4.479806 0.214157
v -3.579429 4.479806 -0.214159
v -3.566086 0.340836 -0.613158
v -3.566086 0.340836 0.613158
v -3.566086 -0.986282 -0.613158
v -3.566086 -0.986282 0.613158
vt 0.341713 0.679520
vt 0.307052 0.550106
vt 0.305196 0.681394
vt 0.343944 0.681751
vt 0.307154 0.528876
vt 0.311455 0.707501
vt 0.307342 0.640828
vt 0.343944 0.686213
vt 0.341713 0.688444
vt 0.308711 0.646536
vt 0.346175 0.679520
vt 0.346175 0.681751
vt 0.339481 0.679520
vt 0.339481 0.681751
vt 0.307154 0.545015
vt 0.307052 0.549758
vt 0.343944 0.686213
vt 0.307052 0.549758
vt 0.341713 0.688444
vt 0.307073 0.549758
vt 0.343944 0.688444
vt 0.307073 0.549758
vt 0.308711 0.646536
vt 0.343944 0.679520
vt 0.307052 0.550019
vt 0.311455 0.681394
vt 0.307073 0.550106
vt 0.307073 0.550019
vt 0.341713 0.681751
vt 0.311023 0.528876
vt 0.305196 0.707501
vt 0.307342 0.646536
vt 0.343944 0.688444
vt 0.307342 0.646536
vt 0.343944 0.688444
vt 0.307342 0.640828
vt 0.308711 0.640828
vt 0.311023 0.545015
vt 0.308711 0.640828
vt 0.307154 0.545015
vt 0.341713 0.686213
vt 0.341713 0.686213
vt 0.341713 0.688444
vt 0.311023 0.545015
vt 0.343944 0.686213
vt 0.311023 0.545015
vt 0.341713 0.686213
vt 0.307154 0.545015
vt 0.346175 0.679520
vt 0.346175 0.681751
vt 0.343944 0.681751
vt 0.343944 0.679520
vt 0.341713 0.679520
vt 0.341713 0.681751
vt 0.339481 0.681751
vt 0.339481 0.679520
vt 0.343944 0.688444
vt 0.343944 0.688444
vt 0.343944 0.686213
vt 0.343944 0.686213
vt 0.341713 0.686213
vt 0.341713 0.686213
vt 0.341713 0.688444
vt 0.341713 0.688444
vt 0.343944 0.688444
vt 0.343944 0.686213
vt 0.341713 0.686213
vt 0.341713 0.688444
vt 0.346175 0.679520
vt 0.346175 0.681751
vt 0.343944 0.681751
vt 0.343944 0.679520
vt 0.341713 0.679520
vt 0.341713 0.681751
vt 0.339481 0.681751
vt 0.339481 0.679520
vt 0.343944 0.688444
vt 0.343944 0.688444
vt 0.343944 0.686213
vt 0.343944 0.686213
vt 0.341713 0.686213
vt 0.341713 0.686213
vt 0.341713 0.688444
vt 0.341713 0.688444
vt 0.343944 0.688444
vt 0.343944 0.686213
vt 0.341713 0.686213
vt 0.341713 0.688444
vn 0.000000 0.000000 1.000000
vn 0.000000 0.000000 1.000000
vn 0.000000 0.000000 1.000000
vn 0.000000 0.000000 1.000000
vn 0.000000 1.000000 0.000000
vn 0.000000 1.000000 0.000000
vn 0.000000 1.000000 0.000000
vn 0.000000 1.000000 0.000000
vn 0.000000 0.000000 -1.000000
vn 0.000000 0.000000 -1.000000
vn 0.000000 0.000000 -1.000000
vn 0.000000 0.000000 -1.000000
vn 1.000000 -0.000000 0.000000
vn 1.000000 -0.000000 0.000000
vn 1.000000 -0.000000 0.000000
vn 1.000000 -0.000000 0.000000
vn -0.999994 -0.003498 -0.000000
vn -0.999994 -0.003498 -0.000000
vn -0.999994 -0.003498 -0.000000
vn -0.999994 -0.003498 -0.000000
vn 0.000000 0.794570 -0.607172
vn 0.000000 0.794570 -0.607172
vn 0.000000 0.794570 -0.607172
vn 0.000000 0.794570 -0.607172
vn 1.000000 0.000000 0.000000
vn 1.000000 0.000000 0.000000
vn 1.000000 0.000000 0.000000
vn 1.000000 0.000000 0.000000
vn 0.000000 0.794569 0.607174
vn 0.000000 0.794569 0.607174
vn 0.000000 0.794569 0.607174
vn 0.000000 0.794569 0.607174
vn -1.000000 0.000000 0.000000
vn -1.000000 0.000000 0.000000
vn -1.000000 0.000000 0.000000
vn -1.000000 0.000000 0.000000
vn 0.000000 0.000000 -1.000000
vn 0.000000 0.000000 -1.000000
vn 0.000000 0.000000 -1.000000
vn 0.000000 0.000000 -1.000000
vn 1.000000 0.000000 0.000000
vn 1.000000 0.000000 0.000000
vn 1.000000 0.000000 0.000000
vn 1.000000 0.000000 0.000000
vn 0.000000 0.000000 1.000000
vn 0.000000 0.000000 1.000000
vn 0.000000 0.000000 1.000000
vn 0.000000 0.000000 1.000000
vn -1.000000 0.000000 0.000000
vn -1.000000 0.000000 0.000000
vn -1.000000 0.000000 0.000000
vn -1.000000 0.000000 0.000000
vn 1.000000 0.000000 -0.000004
vn 1.000000 0.000001 -0.000003
vn 1.000000 0.000000 -0.000004
vn 1.000000 0.000000 -0.000004
vn 1.000000 0.000001 -0.000003
vn 1.000000 0.000001 0.000003
vn 1.000000 0.000000 0.000004
vn 1.000000 0.000000 -0.000004
vn 1.000000 0.000001 0.000003
vn 1.000000 0.000000 0.000004
vn 1.000000 0.000001 0.000004
vn 1.000000 0.000000 0.000004
vn 1.000000 0.000000 0.000004
vn 1.000000 0.000000 0.000002
vn 1.000000 0.000001 0.000002
vn 1.000000 0.000001 0.000004
vn 1.000000 0.000000 -0.000002
vn 1.000000 0.000000 -0.000004
vn 1.000000 0.000000 -0.000004
vn 1.000000 0.000000 -0.000002
vn 1.000000 0.000000 0.000002
vn 1.000000 -0.000000 0.000002
vn 1.000000 -0.000002 0.000001
vn 1.000000 0.000001 0.000002
vn 1.000000 -0.000000 0.000002
vn 1.000000 -0.000000 -0.000002
vn 1.000000 -0.000002 -0.000001
vn 1.000000 -0.000002 0.000001
vn 1.000000 -0.000000 -0.000002
vn 1.000000 0.000000 -0.000002
vn 1.000000 0.000000 -0.000002
vn 1.000000 -0.000002 -0.000001
vn -1.000000 -0.000003 0.000214
vn -1.000000 0.000034 0.000190
vn -1.000000 0.000020 0.000211
vn -1.000000 -0.000002 0.000179
vn -1.000000 0.000034 0.000190
vn -1.000000 0.000036 -0.000006
vn -1.000000 0.000023 -0.000004
vn -1.000000 0.000020 0.000211
vn -1.000000 0.000036 -0.000006
vn -1.000000 0.000000 -0.000000
vn -1.000000 0.000000 -0.000000
vn -1.000000 0.000023 -0.000004
vn -1.000000 0.000000 -0.000000
vn -1.000000 0.000000 -0.000002
vn -1.000000 0.000000 -0.000002
vn -1.000000 0.000000 -0.000000
vn -1.000000 0.000000 0.000002
vn -1.000000 -0.000003 0.000214
vn -1.000000 -0.000002 0.000179
vn -1.000000 0.000000 0.000002
vn -1.000000 0.000000 -0.000002
vn -1.000000 -0.000000 -0.000002
vn -1.000000 -0.000003 -0.000001
vn -1.000000 0.000000 -0.000002
vn -1.000000 -0.000000 -0.000002
vn -1.000000 -0.000000 0.000002
vn -1.000000 -0.000003 0.000001
vn -1.000000 -0.000003 -0.000001
vn -1.000000 -0.000000 0.000002
vn -1.000000 0.000000 0.000002
vn -1.000000 0.000000 0.000002
vn -1.000000 -0.000003 0.000001
vn 0.000000 0.000000 -1.000000
vn 0.000000 0.000000 -1.000000
vn 0.000000 0.000000 -1.000000
vn 0.000000 0.000000 -1.000000
vn 0.000000 1.000000 0.000000
vn 0.000000 1.000000 0.000000
vn 0.000000 1.000000 0.000000
vn 0.000000 1.000000 0.000000
vn 0.000000 -0.000000 1.000000
vn 0.000000 -0.000000 1.000000
vn 0.000000 -0.000000 1.000000
vn 0.000000 -0.000000 1.000000
vn 0.000000 0.776186 0.630504
vn 0.000000 0.776186 0.630504
vn 0.000000 0.776186 0.630504
vn 0.000000 0.776186 0.630504
vn 0.000000 0.776188 -0.630501
vn 0.000000 0.776188 -0.630501
vn 0.000000 0.776188 -0.630501
vn 0.000000 0.776188 -0.630501
vn 0.000000 0.000000 1.000000
vn 0.000000 0.000000 1.000000
vn 0.000000 0.000000 1.000000
vn 0.000000 0.000000 1.000000
vn 0.000000 -1.000000 0.000000
vn 0.000000 -1.000000 0.000000
vn 0.000000 -1.000000 0.000000
vn 0.000000 -1.000000 0.000000
vn 0.000000 0.000000 -1.000000
vn 0.000000 0.000000 -1.000000
vn 0.000000 0.000000 -1.000000
vn 0.000000 0.000000 -1.000000
vn 0.010291 0.000412 0.999947
vn 0.010291 0.000412 0.999947
vn 0.010291 0.000412 0.999947
vn 0.010291 0.000412 0.999947
vn 0.000000 1.000000 0.000000
vn 0.000000 1.000000 0.000000
vn 0.000000 1.000000 0.000000
vn 0.000000 1.000000 0.000000
vn 0.010294 0.000412 -0.999947
vn 0.010294 0.000412 -0.999947
vn 0.010294 0.000412 -0.999947
vn 0.010294 0.000412 -0.999947
vn 0.000000 0.776186 -0.630504
vn 0.000000 0.776186 -0.630504
vn 0.000000 0.776186 -0.630504
vn 0.000000 0.776186 -0.630504
vn 0.000000 0.776188 0.630501
vn 0.000000 0.776188 0.630501
vn 0.000000 0.776188 0.630501
vn 0.000000 0.776188 0.630501
vn 0.000000 0.000000 -1.000000
vn 0.000000 0.000000 -1.000000
vn 0.000000 0.000000 -1.000000
vn 0.000000 0.000000 -1.000000
vn 0.000000 -1.000000 0.000000
vn 0.000000 -1.000000 0.000000
vn 0.000000 -1.000000 0.000000
vn 0.000000 -1.000000 0.000000
vn 0.000000 0.000000 1.000000
vn 0.000000 0.000000 1.000000
vn 0.000000 0.000000 1.000000
vn 0.000000 0.000000 1.000000
s off
f 1/27/1 2/2/2 4/25/3 3/28/4
f 3/3/5 4/26/6 6/6/7 5/31/8
f 5/5/9 6/30/10 8/38/11 7/40/12
f 34/72/13 33/69/14 35/70/15 36/71/16
f 41/76/17 42/73/18 43/74/19 44/75/20
f 7/7/21 8/39/22 10/37/23 9/36/24
f 33/80/25 34/77/26 37/78/27 38/79/28
f 2/10/29 1/34/30 12/32/31 11/23/32
f 42/84/33 41/81/34 45/82/35 46/83/36
f 9/15/37 10/46/38 14/44/39 13/48/40
f 38/79/41 37/78/42 39/85/43 40/86/44
f 11/16/45 12/22/46 16/20/47 15/18/48
f 46/83/49 45/82/50 47/87/51 48/88/52
f 8/11/53 6/12/54 19/50/55 17/49/56
f 6/12/57 4/4/58 20/51/59 19/50/60
f 4/4/61 2/24/62 18/52/63 20/51/64
f 2/1/65 11/29/66 21/54/67 18/53/68
f 10/29/69 8/14/70 17/55/71 22/54/72
f 11/14/73 15/13/74 23/56/75 21/55/76
f 15/35/77 14/33/78 24/58/79 23/57/80
f 14/45/81 10/8/82 22/60/83 24/59/84
f 1/41/85 3/47/86 27/62/87 26/61/88
f 3/43/89 5/9/90 28/64/91 27/63/92
f 5/33/93 7/21/94 25/65/95 28/58/96
f 7/21/97 9/17/98 29/66/99 25/65/100
f 12/17/101 1/45/102 26/59/103 30/66/104
f 9/47/105 13/42/106 31/67/107 29/62/108
f 13/42/109 16/19/110 32/68/111 31/67/112
f 16/19/113 12/43/114 30/63/115 32/68/116
f 17/49/117 19/50/118 35/70/119 33/69/120
f 19/50/121 20/51/122 36/71/123 35/70/124
f 20/51/125 18/52/126 34/72/127 36/71/128
f 18/53/129 21/54/130 37/74/131 34/73/132
f 22/54/133 17/55/134 33/75/135 38/74/136
f 21/55/137 23/56/138 39/76/139 37/75/140
f 23/57/141 24/58/142 40/78/143 39/77/144
f 24/59/145 22/60/146 38/80/147 40/79/148
f 26/61/149 27/62/150 43/82/151 42/81/152
f 27/63/153 28/64/154 44/84/155 43/83/156
f 28/58/157 25/65/158 41/85/159 44/78/160
f 25/65/161 29/66/162 45/86/163 41/85/164
f 30/66/165 26/59/166 42/79/167 46/86/168
f 29/62/169 31/67/170 47/87/171 45/82/172
f 31/67/173 32/68/174 48/88/175 47/87/176
f 32/68/177 30/63/178 46/83/179 48/88/180
