# This file uses meters as units for non-parametric coordinates.

v -0.955626 -0.000000 0.955625
v 0.955626 -0.000000 0.955625
v -0.955626 1.911251 0.955625
v 0.955626 1.911251 0.955625
v -0.955626 1.911251 -0.955625
v 0.955626 1.911251 -0.955625
v -0.955626 -0.000000 -0.955625
v 0.955626 -0.000000 -0.955625
vt 0.134177 0.533275
vt 0.249416 0.533275
vt 0.002351 0.533275
vt 0.103635 0.730640
vt 0.110734 0.737739
vt 0.103635 0.737739
vt 0.134177 0.533275
vt 0.134177 0.648514
vt 0.249416 0.533275
vt 0.249416 0.648514
vt 0.117590 0.648514
vt 0.002351 0.648514
vt 0.249416 0.648514
vt 0.134177 0.648514
vt 0.110734 0.730640
vt 0.117590 0.533275
vt 0.117590 0.533275
vt 0.002351 0.533275
vt 0.002351 0.648514
vt 0.117590 0.648514
vt 0.084909 0.748337
vt 0.001283 0.748337
vt 0.001283 0.664710
vt 0.084909 0.664710
vn 0.000000 0.000000 1.000000
vn 0.000000 0.000000 1.000000
vn 0.000000 0.000000 1.000000
vn 0.000000 0.000000 1.000000
vn 0.000000 0.000000 -1.000000
vn 0.000000 0.000000 -1.000000
vn 0.000000 0.000000 -1.000000
vn 0.000000 0.000000 -1.000000
vn 0.000000 -1.000000 0.000000
vn 0.000000 -1.000000 0.000000
vn 0.000000 -1.000000 0.000000
vn 0.000000 -1.000000 0.000000
vn 1.000000 0.000000 0.000000
vn 1.000000 0.000000 0.000000
vn 1.000000 0.000000 0.000000
vn 1.000000 0.000000 0.000000
vn -1.000000 0.000000 0.000000
vn -1.000000 0.000000 0.000000
vn -1.000000 0.000000 0.000000
vn -1.000000 0.000000 0.000000
vn 0.000000 1.000000 0.000000
vn 0.000000 1.000000 0.000000
vn 0.000000 1.000000 0.000000
vn 0.000000 1.000000 0.000000
s off
f 1/17/1 2/18/2 4/19/3 3/20/4
f 5/11/5 6/12/6 8/3/7 7/16/8
f 7/4/9 8/15/10 2/5/11 1/6/12
f 2/2/13 8/7/14 6/8/15 4/13/16
f 7/9/17 1/1/18 3/14/19 5/10/20
f 5/21/21 3/22/22 4/23/23 6/24/24
