# This file uses meters as units for non-parametric coordinates.

v -0.484497 0.051525 0.612418
v 0.484497 0.051525 0.612418
v -0.484497 0.528924 0.612418
v 0.484497 0.528924 0.612418
v -0.484497 0.528924 -0.612418
v 0.484497 0.528924 -0.612418
v -0.484497 0.051525 -0.612418
v 0.484497 0.051525 -0.612418
v -0.538392 0.000000 -0.274038
v 0.538392 0.000000 -0.274038
v -0.538392 0.580449 -0.274038
v 0.538392 0.580449 -0.274038
v -0.538392 0.580449 -0.448463
v 0.538392 0.580449 -0.448463
v -0.538392 0.000000 -0.448463
v 0.538392 0.000000 -0.448463
v -0.538392 0.000000 0.453379
v 0.538392 0.000000 0.453379
v -0.538392 0.580449 0.453379
v 0.538392 0.580449 0.453379
v -0.538392 0.580449 0.278955
v 0.538392 0.580449 0.278955
v -0.538392 0.000000 0.278955
v 0.538392 0.000000 0.278955
vt 0.004339 0.956466
vt 0.004339 0.920063
vt 0.014890 0.920063
vt 0.014890 0.956466
vt 0.023190 0.996855
vt 0.023190 0.960820
vt 0.028035 0.960820
vt 0.028035 0.996855
vt 0.004333 0.956466
vt 0.004333 0.920063
vt 0.014885 0.920063
vt 0.014885 0.956466
vt 0.023396 0.996878
vt 0.023396 0.960390
vt 0.027699 0.960390
vt 0.027699 0.996878
vt 0.007506 0.882318
vt 0.018738 0.882318
vt 0.018738 0.893490
vt 0.007506 0.893490
vt 0.007506 0.894182
vt 0.018738 0.894182
vt 0.018738 0.905355
vt 0.007506 0.905355
vt 0.028707 0.900553
vt 0.028707 0.899020
vt 0.029533 0.899020
vt 0.029533 0.900553
vt 0.118682 0.971941
vt 0.118682 0.961900
vt 0.120192 0.961900
vt 0.120192 0.971941
vt 0.027947 0.903496
vt 0.027947 0.901963
vt 0.028773 0.901963
vt 0.028773 0.903496
vt 0.013198 0.973550
vt 0.013198 0.972562
vt 0.013347 0.972562
vt 0.013347 0.973550
vt 0.028197 0.924772
vt 0.029647 0.924772
vt 0.029647 0.933237
vt 0.028197 0.933237
vt 0.029866 0.924772
vt 0.031317 0.924772
vt 0.031317 0.933237
vt 0.029866 0.933237
vt 0.028805 0.902106
vt 0.028805 0.900573
vt 0.029632 0.900573
vt 0.029632 0.902106
vt 0.115244 0.971941
vt 0.115244 0.961900
vt 0.116753 0.961900
vt 0.116753 0.971941
vt 0.027089 0.903496
vt 0.027089 0.901963
vt 0.027915 0.901963
vt 0.027915 0.903496
vt 0.012860 0.973550
vt 0.012860 0.972562
vt 0.013009 0.972562
vt 0.013009 0.973550
vt 0.031529 0.924772
vt 0.032980 0.924772
vt 0.032980 0.933237
vt 0.031529 0.933237
vt 0.033193 0.924772
vt 0.034643 0.924772
vt 0.034643 0.933237
vt 0.033193 0.933237
vn 0.000000 0.000000 1.000000
vn 0.000000 0.000000 1.000000
vn 0.000000 0.000000 1.000000
vn 0.000000 0.000000 1.000000
vn 0.000000 1.000000 0.000000
vn 0.000000 1.000000 0.000000
vn 0.000000 1.000000 0.000000
vn 0.000000 1.000000 0.000000
vn 0.000000 0.000000 -1.000000
vn 0.000000 0.000000 -1.000000
vn 0.000000 0.000000 -1.000000
vn 0.000000 0.000000 -1.000000
vn 0.000000 -1.000000 0.000000
vn 0.000000 -1.000000 0.000000
vn 0.000000 -1.000000 0.000000
vn 0.000000 -1.000000 0.000000
vn 1.000000 0.000000 0.000000
vn 1.000000 0.000000 0.000000
vn 1.000000 0.000000 0.000000
vn 1.000000 0.000000 0.000000
vn -1.000000 0.000000 0.000000
vn -1.000000 0.000000 0.000000
vn -1.000000 0.000000 0.000000
vn -1.000000 0.000000 0.000000
vn 0.000000 0.000000 1.000000
vn 0.000000 0.000000 1.000000
vn 0.000000 0.000000 1.000000
vn 0.000000 0.000000 1.000000
vn 0.000000 1.000000 0.000000
vn 0.000000 1.000000 0.000000
vn 0.000000 1.000000 0.000000
vn 0.000000 1.000000 0.000000
vn 0.000000 0.000000 -1.000000
vn 0.000000 0.000000 -1.000000
vn 0.000000 0.000000 -1.000000
vn 0.000000 0.000000 -1.000000
vn 0.000000 -1.000000 0.000000
vn 0.000000 -1.000000 0.000000
vn 0.000000 -1.000000 0.000000
vn 0.000000 -1.000000 0.000000
vn 1.000000 0.000000 0.000000
vn 1.000000 0.000000 0.000000
vn 1.000000 0.000000 0.000000
vn 1.000000 0.000000 0.000000
vn -1.000000 0.000000 0.000000
vn -1.000000 0.000000 0.000000
vn -1.000000 0.000000 0.000000
vn -1.000000 0.000000 0.000000
vn 0.000000 0.000000 1.000000
vn 0.000000 0.000000 1.000000
vn 0.000000 0.000000 1.000000
vn 0.000000 0.000000 1.000000
vn 0.000000 1.000000 0.000000
vn 0.000000 1.000000 0.000000
vn 0.000000 1.000000 0.000000
vn 0.000000 1.000000 0.000000
vn 0.000000 0.000000 -1.000000
vn 0.000000 0.000000 -1.000000
vn 0.000000 0.000000 -1.000000
vn 0.000000 0.000000 -1.000000
vn 0.000000 -1.000000 0.000000
vn 0.000000 -1.000000 0.000000
vn 0.000000 -1.000000 0.000000
vn 0.000000 -1.000000 0.000000
vn 1.000000 0.000000 0.000000
vn 1.000000 0.000000 0.000000
vn 1.000000 0.000000 0.000000
vn 1.000000 0.000000 0.000000
vn -1.000000 0.000000 0.000000
vn -1.000000 0.000000 0.000000
vn -1.000000 0.000000 0.000000
vn -1.000000 0.000000 0.000000
s off
f 1/1/1 2/2/2 4/3/3 3/4/4
f 3/5/5 4/6/6 6/7/7 5/8/8
f 5/9/9 6/10/10 8/11/11 7/12/12
f 7/13/13 8/14/14 2/15/15 1/16/16
f 2/17/17 8/18/18 6/19/19 4/20/20
f 7/21/21 1/22/22 3/23/23 5/24/24
f 9/25/25 10/26/26 12/27/27 11/28/28
f 11/29/29 12/30/30 14/31/31 13/32/32
f 13/33/33 14/34/34 16/35/35 15/36/36
f 15/37/37 16/38/38 10/39/39 9/40/40
f 10/41/41 16/42/42 14/43/43 12/44/44
f 15/45/45 9/46/46 11/47/47 13/48/48
f 17/49/49 18/50/50 20/51/51 19/52/52
f 19/53/53 20/54/54 22/55/55 21/56/56
f 21/57/57 22/58/58 24/59/59 23/60/60
f 23/61/61 24/62/62 18/63/63 17/64/64
f 18/65/65 24/66/66 22/67/67 20/68/68
f 23/69/69 17/70/70 19/71/71 21/72/72
