# This file uses meters as units for non-parametric coordinates.

v 1.892599 0.000000 0.086054
v 1.807584 0.000000 0.001038
v 1.977615 0.000000 0.001038
v 1.892599 0.000000 -0.083978
v 1.977615 3.708884 0.001038
v 1.892599 3.708884 -0.083978
v 1.892599 3.708884 0.086054
v 1.807584 3.708884 0.001038
v 1.977615 4.531605 -0.001245
v 1.892599 4.531029 -0.086054
v 1.807584 4.531593 -0.001246
v 1.892599 4.532169 0.083564
v 1.886539 3.655777 0.049201
v 1.886539 3.591118 -0.015457
v 1.886539 3.720435 -0.015457
v 1.886539 3.655777 -0.080116
v -1.880083 3.720435 -0.015457
v -1.880083 3.655777 -0.080116
v -1.880083 3.655777 0.049201
v -1.880083 3.591118 -0.015457
v 1.866052 4.328853 0.019779
v 1.866052 4.328853 -0.023204
v 1.866052 4.371836 0.019779
v 1.866052 4.371836 -0.023204
v -1.849861 4.371836 0.019779
v -1.849861 4.371836 -0.023204
v -1.849861 4.328853 0.019779
v -1.849861 4.328853 -0.023204
v -1.892600 0.000000 0.086054
v -1.977615 0.000000 0.001038
v -1.807584 0.000000 0.001038
v -1.892600 0.000000 -0.083978
v -1.807584 3.708884 0.001038
v -1.892600 3.708884 -0.083978
v -1.892600 3.708884 0.086054
v -1.977615 3.708884 0.001038
v -1.807584 4.531605 -0.001245
v -1.892600 4.531029 -0.086054
v -1.977615 4.531593 -0.001246
v -1.892600 4.532169 0.083564
v 1.866052 3.922123 0.019814
v 1.866052 3.922123 -0.023168
v 1.866052 3.965105 0.019814
v 1.866052 3.965105 -0.023168
v -1.849861 3.965105 0.019814
v -1.849861 3.965105 -0.023168
v -1.849861 3.922123 0.019814
v -1.849861 3.922123 -0.023168
vt 0.318397 0.600325
vt 0.318244 0.600171
vt 0.318397 0.600017
vt 0.318551 0.600171
vt 0.279965 0.615605
vt 0.280118 0.615605
vt 0.280118 0.622447
vt 0.279965 0.622447
vt 0.260781 0.683285
vt 0.260934 0.683131
vt 0.261088 0.683285
vt 0.260934 0.683438
vt 0.313894 0.601658
vt 0.314048 0.601658
vt 0.314048 0.608500
vt 0.313894 0.608500
vt 0.313844 0.600017
vt 0.313844 0.606860
vt 0.313691 0.606860
vt 0.313691 0.600017
vt 0.307607 0.656019
vt 0.307607 0.649177
vt 0.307761 0.649177
vt 0.307761 0.656019
vt 0.276368 0.578683
vt 0.276521 0.578683
vt 0.276521 0.580017
vt 0.276368 0.580170
vt 0.313844 0.608347
vt 0.313691 0.608194
vt 0.306254 0.580676
vt 0.306101 0.580676
vt 0.307534 0.579035
vt 0.307545 0.579188
vt 0.309406 0.663812
vt 0.309560 0.663812
vt 0.309560 0.665300
vt 0.309406 0.665453
vt 0.318601 0.600134
vt 0.318718 0.600017
vt 0.318835 0.600134
vt 0.318718 0.600251
vt 0.315735 0.600017
vt 0.315852 0.600017
vt 0.315852 0.606827
vt 0.315735 0.606827
vt 0.319013 0.600017
vt 0.319130 0.600134
vt 0.319013 0.600251
vt 0.318896 0.600134
vt 0.339294 0.647378
vt 0.339411 0.647378
vt 0.339411 0.654188
vt 0.339294 0.654188
vt 0.339528 0.647378
vt 0.339528 0.654188
vt 0.273653 0.609225
vt 0.273653 0.602416
vt 0.273770 0.602416
vt 0.273770 0.609225
vt 0.319188 0.600127
vt 0.319266 0.600127
vt 0.319266 0.600205
vt 0.319188 0.600205
vt 0.308974 0.673756
vt 0.309052 0.673756
vt 0.309052 0.680474
vt 0.308974 0.680474
vt 0.319061 0.600283
vt 0.319139 0.600283
vt 0.319139 0.600361
vt 0.319061 0.600361
vt 0.351958 0.649776
vt 0.352036 0.649776
vt 0.352036 0.656494
vt 0.351958 0.656494
vt 0.316348 0.606735
vt 0.316348 0.600017
vt 0.316426 0.600017
vt 0.316426 0.606735
vt 0.317327 0.606735
vt 0.317327 0.600017
vt 0.317405 0.600017
vt 0.317405 0.606735
vt 0.318040 0.600325
vt 0.317886 0.600171
vt 0.318040 0.600017
vt 0.318194 0.600171
vt 0.311454 0.600017
vt 0.311608 0.600017
vt 0.311608 0.606860
vt 0.311454 0.606860
vt 0.258698 0.683285
vt 0.258851 0.683131
vt 0.259005 0.683285
vt 0.258851 0.683438
vt 0.261885 0.581797
vt 0.261931 0.581797
vt 0.261931 0.583871
vt 0.261885 0.583871
vt 0.315136 0.671647
vt 0.315136 0.673910
vt 0.315086 0.673910
vt 0.315086 0.671647
vt 0.313319 0.606860
vt 0.313319 0.600017
vt 0.313473 0.600017
vt 0.313473 0.606860
vt 0.311608 0.608194
vt 0.311454 0.608347
vt 0.322620 0.699290
vt 0.322671 0.699290
vt 0.322671 0.699782
vt 0.322620 0.699731
vt 0.264476 0.608330
vt 0.264429 0.608330
vt 0.264864 0.607833
vt 0.264867 0.607880
vt 0.317516 0.585877
vt 0.317670 0.585877
vt 0.317670 0.587364
vt 0.317516 0.587518
vt 0.319191 0.600017
vt 0.319269 0.600017
vt 0.319269 0.600095
vt 0.319191 0.600095
vt 0.308835 0.673756
vt 0.308912 0.673756
vt 0.308912 0.680474
vt 0.308835 0.680474
vt 0.319315 0.600017
vt 0.319392 0.600017
vt 0.319392 0.600095
vt 0.319315 0.600095
vt 0.351819 0.649776
vt 0.351896 0.649776
vt 0.351896 0.656494
vt 0.351819 0.656494
vt 0.316209 0.606735
vt 0.316209 0.600017
vt 0.316286 0.600017
vt 0.316286 0.606735
vt 0.317746 0.606735
vt 0.317746 0.600017
vt 0.317824 0.600017
vt 0.317824 0.606735
vn -0.000000 -1.000000 0.000000
vn -0.000000 -1.000000 0.000000
vn -0.000000 -1.000000 0.000000
vn -0.000000 -1.000000 0.000000
vn 0.707107 0.000000 -0.707107
vn 0.707107 0.000000 -0.707107
vn 0.707107 0.000000 -0.707107
vn 0.707107 0.000000 -0.707107
vn -0.000067 0.999977 -0.006721
vn -0.000067 0.999977 -0.006721
vn -0.000067 0.999977 -0.006721
vn -0.000067 0.999977 -0.006721
vn -0.707110 0.000000 0.707104
vn -0.707110 0.000000 0.707104
vn -0.707110 0.000000 0.707104
vn -0.707110 0.000000 0.707104
vn -0.707113 0.000000 -0.707101
vn -0.707112 0.000000 -0.707101
vn -0.707112 0.000000 -0.707101
vn -0.707113 0.000000 -0.707101
vn 0.707104 0.000000 0.707110
vn 0.707104 0.000000 0.707110
vn 0.707104 0.000000 0.707110
vn 0.707104 0.000000 0.707110
vn 0.706677 -0.001875 -0.707533
vn 0.706677 -0.001875 -0.707533
vn 0.706677 -0.001875 -0.707533
vn 0.706677 -0.001875 -0.707533
vn -0.706682 -0.001876 -0.707529
vn -0.706682 -0.001876 -0.707529
vn -0.706682 -0.001876 -0.707529
vn -0.706682 -0.001876 -0.707529
vn -0.706683 0.002052 0.707527
vn -0.706683 0.002052 0.707527
vn -0.706683 0.002052 0.707527
vn -0.706683 0.002052 0.707527
vn 0.706676 0.002052 0.707534
vn 0.706676 0.002052 0.707534
vn 0.706676 0.002052 0.707534
vn 0.706676 0.002052 0.707534
vn 1.000000 0.000000 0.000000
vn 1.000000 0.000000 0.000000
vn 1.000000 0.000000 0.000000
vn 1.000000 0.000000 0.000000
vn 0.000000 0.707105 -0.707109
vn 0.000000 0.707105 -0.707109
vn 0.000000 0.707105 -0.707109
vn 0.000000 0.707105 -0.707109
vn -1.000000 0.000000 0.000000
vn -1.000000 0.000000 0.000000
vn -1.000000 0.000000 0.000000
vn -1.000000 0.000000 0.000000
vn 0.000000 -0.707106 0.707107
vn 0.000000 -0.707106 0.707107
vn 0.000000 -0.707106 0.707107
vn 0.000000 -0.707106 0.707107
vn 0.000000 -0.707106 -0.707107
vn 0.000000 -0.707106 -0.707107
vn 0.000000 -0.707106 -0.707107
vn 0.000000 -0.707106 -0.707107
vn 0.000000 0.707105 0.707109
vn 0.000000 0.707105 0.707109
vn 0.000000 0.707105 0.707109
vn 0.000000 0.707105 0.707109
vn 1.000000 0.000000 0.000000
vn 1.000000 0.000000 0.000000
vn 1.000000 0.000000 0.000000
vn 1.000000 0.000000 0.000000
vn 0.000000 1.000000 0.000000
vn 0.000000 1.000000 0.000000
vn 0.000000 1.000000 0.000000
vn 0.000000 1.000000 0.000000
vn -1.000000 0.000000 0.000000
vn -1.000000 0.000000 0.000000
vn -1.000000 0.000000 0.000000
vn -1.000000 0.000000 0.000000
vn 0.000000 -1.000000 0.000000
vn 0.000000 -1.000000 0.000000
vn 0.000000 -1.000000 0.000000
vn 0.000000 -1.000000 0.000000
vn 0.000000 0.000000 -1.000000
vn 0.000000 0.000000 -1.000000
vn 0.000000 0.000000 -1.000000
vn 0.000000 0.000000 -1.000000
vn 0.000000 0.000000 1.000000
vn 0.000000 0.000000 1.000000
vn 0.000000 0.000000 1.000000
vn 0.000000 0.000000 1.000000
vn -0.000000 -1.000000 0.000000
vn -0.000000 -1.000000 0.000000
vn -0.000000 -1.000000 0.000000
vn -0.000000 -1.000000 0.000000
vn 0.707110 0.000000 -0.707104
vn 0.707110 0.000000 -0.707104
vn 0.707110 0.000000 -0.707104
vn 0.707110 0.000000 -0.707104
vn -0.000067 0.999977 -0.006723
vn -0.000067 0.999977 -0.006723
vn -0.000067 0.999977 -0.006723
vn -0.000067 0.999977 -0.006723
vn -0.707107 0.000000 0.707107
vn -0.707107 0.000000 0.707107
vn -0.707107 0.000000 0.707107
vn -0.707107 0.000000 0.707107
vn -0.707110 0.000000 -0.707104
vn -0.707110 0.000000 -0.707104
vn -0.707110 0.000000 -0.707104
vn -0.707110 0.000000 -0.707104
vn 0.707107 0.000000 0.707107
vn 0.707107 0.000000 0.707107
vn 0.707107 0.000000 0.707107
vn 0.707107 0.000000 0.707107
vn 0.706680 -0.001875 -0.707531
vn 0.706680 -0.001875 -0.707531
vn 0.706680 -0.001875 -0.707531
vn 0.706680 -0.001875 -0.707531
vn -0.706679 -0.001876 -0.707532
vn -0.706679 -0.001876 -0.707532
vn -0.706679 -0.001876 -0.707532
vn -0.706679 -0.001876 -0.707532
vn -0.706680 0.002052 0.707530
vn -0.706680 0.002052 0.707530
vn -0.706680 0.002052 0.707530
vn -0.706680 0.002052 0.707530
vn 0.706679 0.002052 0.707532
vn 0.706679 0.002052 0.707532
vn 0.706679 0.002052 0.707532
vn 0.706679 0.002052 0.707532
vn 1.000000 0.000000 0.000000
vn 1.000000 0.000000 0.000000
vn 1.000000 0.000000 0.000000
vn 1.000000 0.000000 0.000000
vn 0.000000 1.000000 0.000000
vn 0.000000 1.000000 0.000000
vn 0.000000 1.000000 0.000000
vn 0.000000 1.000000 0.000000
vn -1.000000 0.000000 0.000000
vn -1.000000 0.000000 0.000000
vn -1.000000 0.000000 0.000000
vn -1.000000 0.000000 0.000000
vn 0.000000 -1.000000 0.000000
vn 0.000000 -1.000000 0.000000
vn 0.000000 -1.000000 0.000000
vn 0.000000 -1.000000 0.000000
vn 0.000000 0.000000 -1.000000
vn 0.000000 0.000000 -1.000000
vn 0.000000 0.000000 -1.000000
vn 0.000000 0.000000 -1.000000
vn 0.000000 0.000000 1.000000
vn 0.000000 0.000000 1.000000
vn 0.000000 0.000000 1.000000
vn 0.000000 0.000000 1.000000
s off
f 1/1/1 2/2/2 4/3/3 3/4/4
f 3/5/5 4/6/6 6/7/7 5/8/8
f 9/9/9 10/10/10 11/11/11 12/12/12
f 7/13/13 8/14/14 2/15/15 1/16/16
f 2/17/17 8/18/18 6/19/19 4/20/20
f 7/21/21 1/22/22 3/23/23 5/24/24
f 5/25/25 6/26/26 10/27/27 9/28/28
f 6/19/29 8/18/30 11/29/31 10/30/32
f 8/31/33 7/32/34 12/33/35 11/34/36
f 7/35/37 5/36/38 9/37/39 12/38/40
f 13/39/41 14/40/42 16/41/43 15/42/44
f 15/43/45 16/44/46 18/45/47 17/46/48
f 17/47/49 18/48/50 20/49/51 19/50/52
f 19/51/53 20/52/54 14/53/55 13/54/56
f 14/53/57 20/52/58 18/55/59 16/56/60
f 19/57/61 13/58/62 15/59/63 17/60/64
f 21/61/65 22/62/66 24/63/67 23/64/68
f 23/65/69 24/66/70 26/67/71 25/68/72
f 25/69/73 26/70/74 28/71/75 27/72/76
f 27/73/77 28/74/78 22/75/79 21/76/80
f 22/77/81 28/78/82 26/79/83 24/80/84
f 27/81/85 21/82/86 23/83/87 25/84/88
f 29/85/89 30/86/90 32/87/91 31/88/92
f 31/89/93 32/90/94 34/91/95 33/92/96
f 37/93/97 38/94/98 39/95/99 40/96/100
f 35/97/101 36/98/102 30/99/103 29/100/104
f 30/101/105 36/102/106 34/103/107 32/104/108
f 35/105/109 29/106/110 31/107/111 33/108/112
f 33/92/113 34/91/114 38/109/115 37/110/116
f 34/111/117 36/112/118 39/113/119 38/114/120
f 36/115/121 35/116/122 40/117/123 39/118/124
f 35/119/125 33/120/126 37/121/127 40/122/128
f 41/123/129 42/124/130 44/125/131 43/126/132
f 43/127/133 44/128/134 46/129/135 45/130/136
f 45/131/137 46/132/138 48/133/139 47/134/140
f 47/135/141 48/136/142 42/137/143 41/138/144
f 42/139/145 48/140/146 46/141/147 44/142/148
f 47/143/149 41/144/150 43/145/151 45/146/152
