{
    "asset" : {
        "generator" : "Khronos glTF Blender I/O v1.6.16",
        "version" : "2.0"
    },
    "scene" : 0,
    "scenes" : [
        {
            "name" : "Scene",
            "nodes" : [
                0,
                1,
                2,
                3
            ]
        }
    ],
    "nodes" : [
        {
            "mesh" : 0,
            "name" : "Tree_Type0_04_mesh",
            "rotation" : [
                0.7071068286895752,
                0,
                0,
                0.7071067094802856
            ]
        },
        {
            "mesh" : 1,
            "name" : "Tree_Type0_04_mesh.001",
            "rotation" : [
                0.7071068286895752,
                0,
                0,
                0.7071067094802856
            ],
            "translation" : [
                0,
                0,
                3.7441351413726807
            ]
        },
        {
            "mesh" : 2,
            "name" : "Tree_Type0_04_mesh.002",
            "rotation" : [
                0.7071068286895752,
                0,
                0,
                0.7071067094802856
            ],
            "translation" : [
                0,
                0,
                7.74660587310791
            ]
        },
        {
            "mesh" : 3,
            "name" : "Tree_Type0_04_mesh.003",
            "rotation" : [
                0.7071068286895752,
                0,
                0,
                0.7071067094802856
            ],
            "translation" : [
                0,
                0,
                -4.052287578582764
            ]
        }
    ],
    "materials" : [
        {
            "doubleSided" : true,
            "name" : "TreeDry",
            "pbrMetallicRoughness" : {
                "baseColorTexture" : {
                    "index" : 0
                },
                "metallicFactor" : 0,
                "roughnessFactor" : 0.5
            }
        },
        {
            "doubleSided" : true,
            "name" : "TreeCold",
            "pbrMetallicRoughness" : {
                "baseColorTexture" : {
                    "index" : 1
                },
                "metallicFactor" : 0,
                "roughnessFactor" : 0.5
            }
        },
        {
            "doubleSided" : true,
            "name" : "TreeFall",
            "pbrMetallicRoughness" : {
                "baseColorTexture" : {
                    "index" : 2
                },
                "metallicFactor" : 0,
                "roughnessFactor" : 0.5
            }
        },
        {
            "doubleSided" : true,
            "name" : "TreeNormal",
            "pbrMetallicRoughness" : {
                "baseColorTexture" : {
                    "index" : 3
                },
                "metallicFactor" : 0,
                "roughnessFactor" : 0.5
            }
        }
    ],
    "meshes" : [
        {
            "name" : "Tree Type0 04_mesh",
            "primitives" : [
                {
                    "attributes" : {
                        "POSITION" : 0,
                        "NORMAL" : 1,
                        "TEXCOORD_0" : 2
                    },
                    "indices" : 3,
                    "material" : 0
                }
            ]
        },
        {
            "name" : "Tree Type0 04_mesh.001",
            "primitives" : [
                {
                    "attributes" : {
                        "POSITION" : 4,
                        "NORMAL" : 5,
                        "TEXCOORD_0" : 6
                    },
                    "indices" : 3,
                    "material" : 1
                }
            ]
        },
        {
            "name" : "Tree Type0 04_mesh.002",
            "primitives" : [
                {
                    "attributes" : {
                        "POSITION" : 7,
                        "NORMAL" : 8,
                        "TEXCOORD_0" : 9
                    },
                    "indices" : 3,
                    "material" : 2
                }
            ]
        },
        {
            "name" : "Tree Type0 04_mesh.003",
            "primitives" : [
                {
                    "attributes" : {
                        "POSITION" : 10,
                        "NORMAL" : 11,
                        "TEXCOORD_0" : 12
                    },
                    "indices" : 3,
                    "material" : 3
                }
            ]
        }
    ],
    "textures" : [
        {
            "sampler" : 0,
            "source" : 0
        },
        {
            "sampler" : 0,
            "source" : 1
        },
        {
            "sampler" : 0,
            "source" : 2
        },
        {
            "sampler" : 0,
            "source" : 3
        }
    ],
    "images" : [
        {
            "bufferView" : 4,
            "mimeType" : "image/png",
            "name" : "Colorsheet Tree Dry"
        },
        {
            "bufferView" : 8,
            "mimeType" : "image/png",
            "name" : "Colorsheet Tree Cold"
        },
        {
            "bufferView" : 12,
            "mimeType" : "image/png",
            "name" : "Colorsheet Tree Fall"
        },
        {
            "bufferView" : 16,
            "mimeType" : "image/png",
            "name" : "Colorsheet Tree Normal"
        }
    ],
    "accessors" : [
        {
            "bufferView" : 0,
            "componentType" : 5126,
            "count" : 8094,
            "max" : [
                3.357245922088623,
                2.1669859886169434,
                0.035078998655080795
            ],
            "min" : [
                -4.366237163543701,
                -1.679658055305481,
                -3.7149369716644287
            ],
            "type" : "VEC3"
        },
        {
            "bufferView" : 1,
            "componentType" : 5126,
            "count" : 8094,
            "type" : "VEC3"
        },
        {
            "bufferView" : 2,
            "componentType" : 5126,
            "count" : 8094,
            "type" : "VEC2"
        },
        {
            "bufferView" : 3,
            "componentType" : 5123,
            "count" : 10494,
            "type" : "SCALAR"
        },
        {
            "bufferView" : 5,
            "componentType" : 5126,
            "count" : 8094,
            "max" : [
                3.357245922088623,
                2.1669859886169434,
                0.035078998655080795
            ],
            "min" : [
                -4.366237163543701,
                -1.679658055305481,
                -3.7149369716644287
            ],
            "type" : "VEC3"
        },
        {
            "bufferView" : 6,
            "componentType" : 5126,
            "count" : 8094,
            "type" : "VEC3"
        },
        {
            "bufferView" : 7,
            "componentType" : 5126,
            "count" : 8094,
            "type" : "VEC2"
        },
        {
            "bufferView" : 9,
            "componentType" : 5126,
            "count" : 8094,
            "max" : [
                3.357245922088623,
                2.1669859886169434,
                0.035078998655080795
            ],
            "min" : [
                -4.366237163543701,
                -1.679658055305481,
                -3.7149369716644287
            ],
            "type" : "VEC3"
        },
        {
            "bufferView" : 10,
            "componentType" : 5126,
            "count" : 8094,
            "type" : "VEC3"
        },
        {
            "bufferView" : 11,
            "componentType" : 5126,
            "count" : 8094,
            "type" : "VEC2"
        },
        {
            "bufferView" : 13,
            "componentType" : 5126,
            "count" : 8094,
            "max" : [
                3.357245922088623,
                2.1669859886169434,
                0.035078998655080795
            ],
            "min" : [
                -4.366237163543701,
                -1.679658055305481,
                -3.7149369716644287
            ],
            "type" : "VEC3"
        },
        {
            "bufferView" : 14,
            "componentType" : 5126,
            "count" : 8094,
            "type" : "VEC3"
        },
        {
            "bufferView" : 15,
            "componentType" : 5126,
            "count" : 8094,
            "type" : "VEC2"
        }
    ],
    "bufferViews" : [
        {
            "buffer" : 0,
            "byteLength" : 97128,
            "byteOffset" : 0
        },
        {
            "buffer" : 0,
            "byteLength" : 97128,
            "byteOffset" : 97128
        },
        {
            "buffer" : 0,
            "byteLength" : 64752,
            "byteOffset" : 194256
        },
        {
            "buffer" : 0,
            "byteLength" : 20988,
            "byteOffset" : 259008
        },
        {
            "buffer" : 0,
            "byteLength" : 228,
            "byteOffset" : 279996
        },
        {
            "buffer" : 0,
            "byteLength" : 97128,
            "byteOffset" : 280224
        },
        {
            "buffer" : 0,
            "byteLength" : 97128,
            "byteOffset" : 377352
        },
        {
            "buffer" : 0,
            "byteLength" : 64752,
            "byteOffset" : 474480
        },
        {
            "buffer" : 0,
            "byteLength" : 227,
            "byteOffset" : 539232
        },
        {
            "buffer" : 0,
            "byteLength" : 97128,
            "byteOffset" : 539460
        },
        {
            "buffer" : 0,
            "byteLength" : 97128,
            "byteOffset" : 636588
        },
        {
            "buffer" : 0,
            "byteLength" : 64752,
            "byteOffset" : 733716
        },
        {
            "buffer" : 0,
            "byteLength" : 217,
            "byteOffset" : 798468
        },
        {
            "buffer" : 0,
            "byteLength" : 97128,
            "byteOffset" : 798688
        },
        {
            "buffer" : 0,
            "byteLength" : 97128,
            "byteOffset" : 895816
        },
        {
            "buffer" : 0,
            "byteLength" : 64752,
            "byteOffset" : 992944
        },
        {
            "buffer" : 0,
            "byteLength" : 232,
            "byteOffset" : 1057696
        }
    ],
    "samplers" : [
        {
            "magFilter" : 9729,
            "minFilter" : 9987
        }
    ],
    "buffers" : [
        {
            "byteLength" : 1057928,
            "uri" : "data:application/octet-stream;base64,"
        }
    ]
}
