{
    "asset" : {
        "generator" : "Khronos glTF Blender I/O v1.6.16",
        "version" : "2.0"
    },
    "scene" : 0,
    "scenes" : [
        {
            "name" : "Scene",
            "nodes" : [
                0,
                1,
                2,
                3
            ]
        }
    ],
    "nodes" : [
        {
            "mesh" : 0,
            "name" : "Tree_Type0_01_mesh",
            "rotation" : [
                0.7071068286895752,
                0,
                0,
                0.7071067094802856
            ]
        },
        {
            "mesh" : 1,
            "name" : "Tree_Type0_01_mesh.001",
            "rotation" : [
                0.7071068286895752,
                0,
                0,
                0.7071067094802856
            ],
            "translation" : [
                0,
                0,
                6.8486223220825195
            ]
        },
        {
            "mesh" : 2,
            "name" : "Tree_Type0_01_mesh.002",
            "rotation" : [
                0.7071068286895752,
                0,
                0,
                0.7071067094802856
            ],
            "translation" : [
                0,
                0,
                13.694964408874512
            ]
        },
        {
            "mesh" : 3,
            "name" : "Tree_Type0_01_mesh.003",
            "rotation" : [
                0.7071068286895752,
                0,
                0,
                0.7071067094802856
            ],
            "translation" : [
                0,
                0,
                -7.238930702209473
            ]
        }
    ],
    "materials" : [
        {
            "doubleSided" : true,
            "name" : "Tree_Fall",
            "pbrMetallicRoughness" : {
                "baseColorTexture" : {
                    "index" : 0
                },
                "metallicFactor" : 0,
                "roughnessFactor" : 0.5
            }
        },
        {
            "doubleSided" : true,
            "name" : "Tree_Dry",
            "pbrMetallicRoughness" : {
                "baseColorTexture" : {
                    "index" : 1
                },
                "metallicFactor" : 0,
                "roughnessFactor" : 0.5
            }
        },
        {
            "doubleSided" : true,
            "name" : "Tree_Cold",
            "pbrMetallicRoughness" : {
                "baseColorTexture" : {
                    "index" : 2
                },
                "metallicFactor" : 0,
                "roughnessFactor" : 0.5
            }
        },
        {
            "doubleSided" : true,
            "name" : "Tree_Normal",
            "pbrMetallicRoughness" : {
                "baseColorTexture" : {
                    "index" : 3
                },
                "metallicFactor" : 0,
                "roughnessFactor" : 0.5
            }
        }
    ],
    "meshes" : [
        {
            "name" : "Tree Type0 01_mesh",
            "primitives" : [
                {
                    "attributes" : {
                        "POSITION" : 0,
                        "NORMAL" : 1,
                        "TEXCOORD_0" : 2
                    },
                    "indices" : 3,
                    "material" : 0
                }
            ]
        },
        {
            "name" : "Tree Type0 01_mesh.001",
            "primitives" : [
                {
                    "attributes" : {
                        "POSITION" : 4,
                        "NORMAL" : 5,
                        "TEXCOORD_0" : 6
                    },
                    "indices" : 3,
                    "material" : 1
                }
            ]
        },
        {
            "name" : "Tree Type0 01_mesh.002",
            "primitives" : [
                {
                    "attributes" : {
                        "POSITION" : 7,
                        "NORMAL" : 8,
                        "TEXCOORD_0" : 9
                    },
                    "indices" : 3,
                    "material" : 2
                }
            ]
        },
        {
            "name" : "Tree Type0 01_mesh.003",
            "primitives" : [
                {
                    "attributes" : {
                        "POSITION" : 10,
                        "NORMAL" : 11,
                        "TEXCOORD_0" : 12
                    },
                    "indices" : 3,
                    "material" : 3
                }
            ]
        }
    ],
    "textures" : [
        {
            "sampler" : 0,
            "source" : 0
        },
        {
            "sampler" : 0,
            "source" : 1
        },
        {
            "sampler" : 0,
            "source" : 2
        },
        {
            "sampler" : 0,
            "source" : 3
        }
    ],
    "images" : [
        {
            "bufferView" : 4,
            "mimeType" : "image/png",
            "name" : "Colorsheet Tree Fall"
        },
        {
            "bufferView" : 8,
            "mimeType" : "image/png",
            "name" : "Colorsheet Tree Dry"
        },
        {
            "bufferView" : 12,
            "mimeType" : "image/png",
            "name" : "Colorsheet Tree Cold"
        },
        {
            "bufferView" : 16,
            "mimeType" : "image/png",
            "name" : "Colorsheet Tree Normal"
        }
    ],
    "accessors" : [
        {
            "bufferView" : 0,
            "componentType" : 5126,
            "count" : 2018,
            "max" : [
                2.6271719932556152,
                3.0106070041656494,
                0.2611052989959717
            ],
            "min" : [
                -3.203979015350342,
                -3.333735942840576,
                -3.2444610595703125
            ],
            "type" : "VEC3"
        },
        {
            "bufferView" : 1,
            "componentType" : 5126,
            "count" : 2018,
            "type" : "VEC3"
        },
        {
            "bufferView" : 2,
            "componentType" : 5126,
            "count" : 2018,
            "type" : "VEC2"
        },
        {
            "bufferView" : 3,
            "componentType" : 5123,
            "count" : 2772,
            "type" : "SCALAR"
        },
        {
            "bufferView" : 5,
            "componentType" : 5126,
            "count" : 2018,
            "max" : [
                2.6271719932556152,
                3.0106070041656494,
                0.2611052989959717
            ],
            "min" : [
                -3.203979015350342,
                -3.333735942840576,
                -3.2444610595703125
            ],
            "type" : "VEC3"
        },
        {
            "bufferView" : 6,
            "componentType" : 5126,
            "count" : 2018,
            "type" : "VEC3"
        },
        {
            "bufferView" : 7,
            "componentType" : 5126,
            "count" : 2018,
            "type" : "VEC2"
        },
        {
            "bufferView" : 9,
            "componentType" : 5126,
            "count" : 2018,
            "max" : [
                2.6271719932556152,
                3.0106070041656494,
                0.2611052989959717
            ],
            "min" : [
                -3.203979015350342,
                -3.333735942840576,
                -3.2444610595703125
            ],
            "type" : "VEC3"
        },
        {
            "bufferView" : 10,
            "componentType" : 5126,
            "count" : 2018,
            "type" : "VEC3"
        },
        {
            "bufferView" : 11,
            "componentType" : 5126,
            "count" : 2018,
            "type" : "VEC2"
        },
        {
            "bufferView" : 13,
            "componentType" : 5126,
            "count" : 2018,
            "max" : [
                2.6271719932556152,
                3.0106070041656494,
                0.2611052989959717
            ],
            "min" : [
                -3.203979015350342,
                -3.333735942840576,
                -3.2444610595703125
            ],
            "type" : "VEC3"
        },
        {
            "bufferView" : 14,
            "componentType" : 5126,
            "count" : 2018,
            "type" : "VEC3"
        },
        {
            "bufferView" : 15,
            "componentType" : 5126,
            "count" : 2018,
            "type" : "VEC2"
        }
    ],
    "bufferViews" : [
        {
            "buffer" : 0,
            "byteLength" : 24216,
            "byteOffset" : 0
        },
        {
            "buffer" : 0,
            "byteLength" : 24216,
            "byteOffset" : 24216
        },
        {
            "buffer" : 0,
            "byteLength" : 16144,
            "byteOffset" : 48432
        },
        {
            "buffer" : 0,
            "byteLength" : 5544,
            "byteOffset" : 64576
        },
        {
            "buffer" : 0,
            "byteLength" : 217,
            "byteOffset" : 70120
        },
        {
            "buffer" : 0,
            "byteLength" : 24216,
            "byteOffset" : 70340
        },
        {
            "buffer" : 0,
            "byteLength" : 24216,
            "byteOffset" : 94556
        },
        {
            "buffer" : 0,
            "byteLength" : 16144,
            "byteOffset" : 118772
        },
        {
            "buffer" : 0,
            "byteLength" : 228,
            "byteOffset" : 134916
        },
        {
            "buffer" : 0,
            "byteLength" : 24216,
            "byteOffset" : 135144
        },
        {
            "buffer" : 0,
            "byteLength" : 24216,
            "byteOffset" : 159360
        },
        {
            "buffer" : 0,
            "byteLength" : 16144,
            "byteOffset" : 183576
        },
        {
            "buffer" : 0,
            "byteLength" : 227,
            "byteOffset" : 199720
        },
        {
            "buffer" : 0,
            "byteLength" : 24216,
            "byteOffset" : 199948
        },
        {
            "buffer" : 0,
            "byteLength" : 24216,
            "byteOffset" : 224164
        },
        {
            "buffer" : 0,
            "byteLength" : 16144,
            "byteOffset" : 248380
        },
        {
            "buffer" : 0,
            "byteLength" : 232,
            "byteOffset" : 264524
        }
    ],
    "samplers" : [
        {
            "magFilter" : 9729,
            "minFilter" : 9987
        }
    ],
    "buffers" : [
        {
            "byteLength" : 264756,
            "uri" : "data:application/octet-stream;base64,"
        }
    ]
}
