{
    "asset" : {
        "generator" : "Khronos glTF Blender I/O v1.5.17",
        "version" : "2.0"
    },
    "scene" : 0,
    "scenes" : [
        {
            "name" : "Scene",
            "nodes" : [
                1
            ]
        }
    ],
    "nodes" : [
        {
            "mesh" : 0,
            "name" : "SA_Bld_HouseTall_Extras_03"
        },
        {
            "children" : [
                0
            ],
            "name" : "SA_Bld_HouseTall_Damaged_03",
            "rotation" : [
                0.7071068286895752,
                0,
                0,
                0.7071067094802856
            ]
        }
    ],
    "materials" : [
        {
            "doubleSided" : true,
            "name" : "ApocMaterial",
            "pbrMetallicRoughness" : {
                "baseColorTexture" : {
                    "index" : 0
                },
                "metallicFactor" : 0,
                "roughnessFactor" : 0.5527864098548889
            }
        }
    ],
    "meshes" : [
        {
            "name" : "Mesh.095",
            "primitives" : [
                {
                    "attributes" : {
                        "POSITION" : 0,
                        "NORMAL" : 1,
                        "TEXCOORD_0" : 2
                    },
                    "indices" : 3,
                    "material" : 0
                }
            ]
        }
    ],
    "textures" : [
        {
            "sampler" : 0,
            "source" : 0
        }
    ],
    "images" : [
        {
            "bufferView" : 4,
            "mimeType" : "image/png",
            "name" : "SimpleApocalypse_Texture"
        }
    ],
    "accessors" : [
        {
            "bufferView" : 0,
            "componentType" : 5126,
            "count" : 4096,
            "max" : [
                4.78466796875,
                10.94775390625,
                -0.9389296174049377
            ],
            "min" : [
                -8.663818359375,
                -7.688262939453125,
                -14.798962593078613
            ],
            "type" : "VEC3"
        },
        {
            "bufferView" : 1,
            "componentType" : 5126,
            "count" : 4096,
            "type" : "VEC3"
        },
        {
            "bufferView" : 2,
            "componentType" : 5126,
            "count" : 4096,
            "type" : "VEC2"
        },
        {
            "bufferView" : 3,
            "componentType" : 5123,
            "count" : 6390,
            "type" : "SCALAR"
        }
    ],
    "bufferViews" : [
        {
            "buffer" : 0,
            "byteLength" : 49152,
            "byteOffset" : 0
        },
        {
            "buffer" : 0,
            "byteLength" : 49152,
            "byteOffset" : 49152
        },
        {
            "buffer" : 0,
            "byteLength" : 32768,
            "byteOffset" : 98304
        },
        {
            "buffer" : 0,
            "byteLength" : 12780,
            "byteOffset" : 131072
        },
        {
            "buffer" : 0,
            "byteLength" : 76564,
            "byteOffset" : 143852
        }
    ],
    "samplers" : [
        {
            "magFilter" : 9729,
            "minFilter" : 9987
        }
    ],
    "buffers" : [
        {
            "byteLength" : 220416,
            "uri" : "data:application/octet-stream;base64,"
        }
    ]
}
