{
    "asset" : {
        "generator" : "Khronos glTF Blender I/O v1.5.17",
        "version" : "2.0"
    },
    "scene" : 0,
    "scenes" : [
        {
            "name" : "Scene",
            "nodes" : [
                0
            ]
        }
    ],
    "nodes" : [
        {
            "mesh" : 0,
            "name" : "SA_Bld_Apartment_Damaged_01",
            "rotation" : [
                0.7071068286895752,
                0,
                0,
                0.7071067094802856
            ]
        }
    ],
    "materials" : [
        {
            "doubleSided" : true,
            "name" : "ApocMaterial",
            "pbrMetallicRoughness" : {
                "baseColorTexture" : {
                    "index" : 0
                },
                "metallicFactor" : 0,
                "roughnessFactor" : 0.5527864098548889
            }
        }
    ],
    "meshes" : [
        {
            "name" : "Mesh",
            "primitives" : [
                {
                    "attributes" : {
                        "POSITION" : 0,
                        "NORMAL" : 1,
                        "TEXCOORD_0" : 2
                    },
                    "indices" : 3,
                    "material" : 0
                }
            ]
        }
    ],
    "textures" : [
        {
            "sampler" : 0,
            "source" : 0
        }
    ],
    "images" : [
        {
            "bufferView" : 4,
            "mimeType" : "image/png",
            "name" : "SimpleApocalypse_Texture"
        }
    ],
    "accessors" : [
        {
            "bufferView" : 0,
            "componentType" : 5126,
            "count" : 2376,
            "max" : [
                7.4237060546875,
                7.317596435546875,
                0.04904329031705856
            ],
            "min" : [
                -7.36181640625,
                -7.4832611083984375,
                -19.006336212158203
            ],
            "type" : "VEC3"
        },
        {
            "bufferView" : 1,
            "componentType" : 5126,
            "count" : 2376,
            "type" : "VEC3"
        },
        {
            "bufferView" : 2,
            "componentType" : 5126,
            "count" : 2376,
            "type" : "VEC2"
        },
        {
            "bufferView" : 3,
            "componentType" : 5123,
            "count" : 4116,
            "type" : "SCALAR"
        }
    ],
    "bufferViews" : [
        {
            "buffer" : 0,
            "byteLength" : 28512,
            "byteOffset" : 0
        },
        {
            "buffer" : 0,
            "byteLength" : 28512,
            "byteOffset" : 28512
        },
        {
            "buffer" : 0,
            "byteLength" : 19008,
            "byteOffset" : 57024
        },
        {
            "buffer" : 0,
            "byteLength" : 8232,
            "byteOffset" : 76032
        },
        {
            "buffer" : 0,
            "byteLength" : 76564,
            "byteOffset" : 84264
        }
    ],
    "samplers" : [
        {
            "magFilter" : 9729,
            "minFilter" : 9987
        }
    ],
    "buffers" : [
        {
            "byteLength" : 160828,
            "uri" : "data:application/octet-stream;base64,"
        }
    ]
}
