{
    "asset" : {
        "generator" : "Khronos glTF Blender I/O v1.6.16",
        "version" : "2.0"
    },
    "scene" : 0,
    "scenes" : [
        {
            "name" : "Scene",
            "nodes" : [
                0
            ]
        }
    ],
    "nodes" : [
        {
            "mesh" : 0,
            "name" : "AR70",
            "translation" : [
                -15.77788257598877,
                0.6647041440010071,
                0
            ]
        }
    ],
    "materials" : [
        {
            "doubleSided" : true,
            "name" : "AR70(1)",
            "pbrMetallicRoughness" : {
                "baseColorFactor" : [
                    0.800000011920929,
                    0.800000011920929,
                    0.800000011920929,
                    1
                ],
                "roughnessFactor" : 0.5527864098548889
            }
        },
        {
            "doubleSided" : true,
            "name" : "Tape.001",
            "pbrMetallicRoughness" : {
                "baseColorFactor" : [
                    0.479320228099823,
                    0.47932010889053345,
                    0.479320228099823,
                    1
                ],
                "metallicFactor" : 0.60447758436203,
                "roughnessFactor" : 1
            }
        },
        {
            "doubleSided" : true,
            "name" : "Metal.001",
            "pbrMetallicRoughness" : {
                "baseColorFactor" : [
                    0.06997819989919662,
                    0.06997819989919662,
                    0.06997819989919662,
                    1
                ],
                "metallicFactor" : 0.6641790866851807,
                "roughnessFactor" : 0.6089553833007812
            }
        },
        {
            "doubleSided" : true,
            "name" : "Lens.001",
            "pbrMetallicRoughness" : {
                "baseColorFactor" : [
                    0.6728578805923462,
                    1,
                    0.9712467789649963,
                    1
                ],
                "metallicFactor" : 0.60447758436203,
                "roughnessFactor" : 1
            }
        },
        {
            "doubleSided" : true,
            "name" : "Plastic.001",
            "pbrMetallicRoughness" : {
                "baseColorFactor" : [
                    0.37574952840805054,
                    0.37574952840805054,
                    0.37574952840805054,
                    1
                ],
                "metallicFactor" : 0,
                "roughnessFactor" : 1
            }
        }
    ],
    "meshes" : [
        {
            "name" : "Cube.007",
            "primitives" : [
                {
                    "attributes" : {
                        "POSITION" : 0,
                        "NORMAL" : 1,
                        "TEXCOORD_0" : 2
                    },
                    "indices" : 3,
                    "material" : 0
                },
                {
                    "attributes" : {
                        "POSITION" : 4,
                        "NORMAL" : 5,
                        "TEXCOORD_0" : 6
                    },
                    "indices" : 7,
                    "material" : 1
                },
                {
                    "attributes" : {
                        "POSITION" : 8,
                        "NORMAL" : 9,
                        "TEXCOORD_0" : 10
                    },
                    "indices" : 11,
                    "material" : 2
                },
                {
                    "attributes" : {
                        "POSITION" : 12,
                        "NORMAL" : 13,
                        "TEXCOORD_0" : 14
                    },
                    "indices" : 15,
                    "material" : 3
                },
                {
                    "attributes" : {
                        "POSITION" : 16,
                        "NORMAL" : 17,
                        "TEXCOORD_0" : 18
                    },
                    "indices" : 19,
                    "material" : 4
                }
            ]
        }
    ],
    "accessors" : [
        {
            "bufferView" : 0,
            "componentType" : 5126,
            "count" : 764,
            "max" : [
                6.754021167755127,
                0.5532147884368896,
                0.2036164551973343
            ],
            "min" : [
                -3.1749439239501953,
                -1.9633009433746338,
                -0.2036164551973343
            ],
            "type" : "VEC3"
        },
        {
            "bufferView" : 1,
            "componentType" : 5126,
            "count" : 764,
            "type" : "VEC3"
        },
        {
            "bufferView" : 2,
            "componentType" : 5126,
            "count" : 764,
            "type" : "VEC2"
        },
        {
            "bufferView" : 3,
            "componentType" : 5123,
            "count" : 1452,
            "type" : "SCALAR"
        },
        {
            "bufferView" : 4,
            "componentType" : 5126,
            "count" : 8,
            "max" : [
                4.170280456542969,
                -0.2796425223350525,
                -0.0010845980141311884
            ],
            "min" : [
                3.884192943572998,
                -0.482077032327652,
                -0.0010846309596672654
            ],
            "type" : "VEC3"
        },
        {
            "bufferView" : 5,
            "componentType" : 5126,
            "count" : 8,
            "type" : "VEC3"
        },
        {
            "bufferView" : 6,
            "componentType" : 5126,
            "count" : 8,
            "type" : "VEC2"
        },
        {
            "bufferView" : 7,
            "componentType" : 5123,
            "count" : 12,
            "type" : "SCALAR"
        },
        {
            "bufferView" : 8,
            "componentType" : 5126,
            "count" : 372,
            "max" : [
                4.664688587188721,
                -0.25402846932411194,
                0.12578080594539642
            ],
            "min" : [
                3.832105875015259,
                -0.507771909236908,
                -0.1279500275850296
            ],
            "type" : "VEC3"
        },
        {
            "bufferView" : 9,
            "componentType" : 5126,
            "count" : 372,
            "type" : "VEC3"
        },
        {
            "bufferView" : 10,
            "componentType" : 5126,
            "count" : 372,
            "type" : "VEC2"
        },
        {
            "bufferView" : 11,
            "componentType" : 5123,
            "count" : 594,
            "type" : "SCALAR"
        },
        {
            "bufferView" : 12,
            "componentType" : 5126,
            "count" : 144,
            "max" : [
                4.635193347930908,
                -0.26480579376220703,
                0.11501293629407883
            ],
            "min" : [
                4.621109485626221,
                -0.49700087308883667,
                -0.117182157933712
            ],
            "type" : "VEC3"
        },
        {
            "bufferView" : 13,
            "componentType" : 5126,
            "count" : 144,
            "type" : "VEC3"
        },
        {
            "bufferView" : 14,
            "componentType" : 5126,
            "count" : 144,
            "type" : "VEC2"
        },
        {
            "bufferView" : 15,
            "componentType" : 5123,
            "count" : 234,
            "type" : "SCALAR"
        },
        {
            "bufferView" : 16,
            "componentType" : 5126,
            "count" : 318,
            "max" : [
                4.345733642578125,
                -0.41581305861473083,
                0.08814792335033417
            ],
            "min" : [
                4.306024551391602,
                -0.48214614391326904,
                0.015499156899750233
            ],
            "type" : "VEC3"
        },
        {
            "bufferView" : 17,
            "componentType" : 5126,
            "count" : 318,
            "type" : "VEC3"
        },
        {
            "bufferView" : 18,
            "componentType" : 5126,
            "count" : 318,
            "type" : "VEC2"
        },
        {
            "bufferView" : 19,
            "componentType" : 5123,
            "count" : 492,
            "type" : "SCALAR"
        }
    ],
    "bufferViews" : [
        {
            "buffer" : 0,
            "byteLength" : 9168,
            "byteOffset" : 0
        },
        {
            "buffer" : 0,
            "byteLength" : 9168,
            "byteOffset" : 9168
        },
        {
            "buffer" : 0,
            "byteLength" : 6112,
            "byteOffset" : 18336
        },
        {
            "buffer" : 0,
            "byteLength" : 2904,
            "byteOffset" : 24448
        },
        {
            "buffer" : 0,
            "byteLength" : 96,
            "byteOffset" : 27352
        },
        {
            "buffer" : 0,
            "byteLength" : 96,
            "byteOffset" : 27448
        },
        {
            "buffer" : 0,
            "byteLength" : 64,
            "byteOffset" : 27544
        },
        {
            "buffer" : 0,
            "byteLength" : 24,
            "byteOffset" : 27608
        },
        {
            "buffer" : 0,
            "byteLength" : 4464,
            "byteOffset" : 27632
        },
        {
            "buffer" : 0,
            "byteLength" : 4464,
            "byteOffset" : 32096
        },
        {
            "buffer" : 0,
            "byteLength" : 2976,
            "byteOffset" : 36560
        },
        {
            "buffer" : 0,
            "byteLength" : 1188,
            "byteOffset" : 39536
        },
        {
            "buffer" : 0,
            "byteLength" : 1728,
            "byteOffset" : 40724
        },
        {
            "buffer" : 0,
            "byteLength" : 1728,
            "byteOffset" : 42452
        },
        {
            "buffer" : 0,
            "byteLength" : 1152,
            "byteOffset" : 44180
        },
        {
            "buffer" : 0,
            "byteLength" : 468,
            "byteOffset" : 45332
        },
        {
            "buffer" : 0,
            "byteLength" : 3816,
            "byteOffset" : 45800
        },
        {
            "buffer" : 0,
            "byteLength" : 3816,
            "byteOffset" : 49616
        },
        {
            "buffer" : 0,
            "byteLength" : 2544,
            "byteOffset" : 53432
        },
        {
            "buffer" : 0,
            "byteLength" : 984,
            "byteOffset" : 55976
        }
    ],
    "buffers" : [
        {
            "byteLength" : 56960,
            "uri" : "data:application/octet-stream;base64,"
        }
    ]
}
